M48
; DRILL file {KiCad (5.1.2)-2} date 2/10/2020 4:58:49 PM
; FORMAT={-:-/ absolute / inch / decimal}
; #@! TF.CreationDate,2020-02-10T16:58:49+01:00
; #@! TF.GenerationSoftware,Kicad,Pcbnew,(5.1.2)-2
FMAT,2
INCH
T1C0.0315
T2C0.0591
%
G90
G05
T1
X10.748Y-4.0551
X10.748Y-4.4094
X3.9764Y-3.3858
X3.9764Y-3.4646
X10.748Y-3.3858
X10.748Y-3.4646
X3.9764Y-3.8189
X3.9764Y-3.8976
X3.9764Y-3.9764
X3.9764Y-4.0551
X10.748Y-3.8189
X10.748Y-3.8976
X10.748Y-3.9764
X10.748Y-4.4882
X3.9764Y-4.4094
X3.9764Y-4.4882
T2
G00X10.4921Y-4.2717
M15
G01X10.6102Y-4.2717
M16
G05
G00X4.1142Y-3.6024
M15
G01X4.2323Y-3.6024
M16
G05
G00X5.7087Y-3.6024
M15
G01X5.8268Y-3.6024
M16
G05
G00X7.3031Y-3.6024
M15
G01X7.4213Y-3.6024
M16
G05
G00X4.1142Y-4.2717
M15
G01X4.2323Y-4.2717
M16
G05
G00X8.8976Y-3.6024
M15
G01X9.0157Y-3.6024
M16
G05
G00X10.4921Y-3.6024
M15
G01X10.6102Y-3.6024
M16
G05
G00X8.8976Y-4.2717
M15
G01X9.0157Y-4.2717
M16
G05
G00X5.7087Y-4.2717
M15
G01X5.8268Y-4.2717
M16
G05
G00X7.3031Y-4.2717
M15
G01X7.4213Y-4.2717
M16
G05
T0
M30
