G04 #@! TF.GenerationSoftware,KiCad,Pcbnew,(5.1.2)-2*
G04 #@! TF.CreationDate,2020-02-10T16:58:43+01:00*
G04 #@! TF.ProjectId,S174,53313734-2e6b-4696-9361-645f70636258,rev?*
G04 #@! TF.SameCoordinates,Original*
G04 #@! TF.FileFunction,Copper,L2,Bot*
G04 #@! TF.FilePolarity,Positive*
%FSLAX46Y46*%
G04 Gerber Fmt 4.6, Leading zero omitted, Abs format (unit mm)*
G04 Created by KiCad (PCBNEW (5.1.2)-2) date 2020-02-10 16:58:43*
%MOMM*%
%LPD*%
G04 APERTURE LIST*
%ADD10O,5.000000X2.000000*%
%ADD11O,1.350000X1.350000*%
%ADD12R,1.350000X1.350000*%
%ADD13C,0.254000*%
G04 APERTURE END LIST*
D10*
X268000000Y-108500000D03*
X227500000Y-108500000D03*
X187000000Y-108500000D03*
X146500000Y-108500000D03*
X106000000Y-108500000D03*
X268000000Y-91500000D03*
X227500000Y-91500000D03*
X187000000Y-91500000D03*
X146500000Y-91500000D03*
X106000000Y-91500000D03*
D11*
X273000000Y-114000000D03*
D12*
X273000000Y-112000000D03*
D11*
X273000000Y-103000000D03*
X273000000Y-101000000D03*
X273000000Y-99000000D03*
D12*
X273000000Y-97000000D03*
D11*
X273000000Y-88000000D03*
D12*
X273000000Y-86000000D03*
D11*
X101000000Y-114000000D03*
D12*
X101000000Y-112000000D03*
D11*
X101000000Y-103000000D03*
X101000000Y-101000000D03*
X101000000Y-99000000D03*
D12*
X101000000Y-97000000D03*
D11*
X101000000Y-88000000D03*
D12*
X101000000Y-86000000D03*
D13*
G36*
X271690000Y-85714250D02*
G01*
X271848750Y-85873000D01*
X272873000Y-85873000D01*
X272873000Y-85853000D01*
X273127000Y-85853000D01*
X273127000Y-85873000D01*
X273147000Y-85873000D01*
X273147000Y-86127000D01*
X273127000Y-86127000D01*
X273127000Y-87873000D01*
X273147000Y-87873000D01*
X273147000Y-88127000D01*
X273127000Y-88127000D01*
X273127000Y-88147000D01*
X272873000Y-88147000D01*
X272873000Y-88127000D01*
X271855776Y-88127000D01*
X271732090Y-88329400D01*
X271762762Y-88430528D01*
X271870527Y-88663629D01*
X272021697Y-88871227D01*
X272023619Y-88873000D01*
X101976381Y-88873000D01*
X101978303Y-88871227D01*
X102129473Y-88663629D01*
X102237238Y-88430528D01*
X102267910Y-88329400D01*
X102144224Y-88127000D01*
X101127000Y-88127000D01*
X101127000Y-88147000D01*
X100873000Y-88147000D01*
X100873000Y-88127000D01*
X100853000Y-88127000D01*
X100853000Y-87873000D01*
X100873000Y-87873000D01*
X100873000Y-86127000D01*
X101127000Y-86127000D01*
X101127000Y-87873000D01*
X102144224Y-87873000D01*
X102267910Y-87670600D01*
X102237238Y-87569472D01*
X102129473Y-87336371D01*
X102032441Y-87203119D01*
X102126185Y-87126185D01*
X102205537Y-87029494D01*
X102264502Y-86919180D01*
X102300812Y-86799482D01*
X102313072Y-86675000D01*
X271686928Y-86675000D01*
X271699188Y-86799482D01*
X271735498Y-86919180D01*
X271794463Y-87029494D01*
X271873815Y-87126185D01*
X271967559Y-87203119D01*
X271870527Y-87336371D01*
X271762762Y-87569472D01*
X271732090Y-87670600D01*
X271855776Y-87873000D01*
X272873000Y-87873000D01*
X272873000Y-86127000D01*
X271848750Y-86127000D01*
X271690000Y-86285750D01*
X271686928Y-86675000D01*
X102313072Y-86675000D01*
X102310000Y-86285750D01*
X102151250Y-86127000D01*
X101127000Y-86127000D01*
X100873000Y-86127000D01*
X100853000Y-86127000D01*
X100853000Y-85873000D01*
X100873000Y-85873000D01*
X100873000Y-85853000D01*
X101127000Y-85853000D01*
X101127000Y-85873000D01*
X102151250Y-85873000D01*
X102310000Y-85714250D01*
X102310428Y-85660000D01*
X271689572Y-85660000D01*
X271690000Y-85714250D01*
X271690000Y-85714250D01*
G37*
X271690000Y-85714250D02*
X271848750Y-85873000D01*
X272873000Y-85873000D01*
X272873000Y-85853000D01*
X273127000Y-85853000D01*
X273127000Y-85873000D01*
X273147000Y-85873000D01*
X273147000Y-86127000D01*
X273127000Y-86127000D01*
X273127000Y-87873000D01*
X273147000Y-87873000D01*
X273147000Y-88127000D01*
X273127000Y-88127000D01*
X273127000Y-88147000D01*
X272873000Y-88147000D01*
X272873000Y-88127000D01*
X271855776Y-88127000D01*
X271732090Y-88329400D01*
X271762762Y-88430528D01*
X271870527Y-88663629D01*
X272021697Y-88871227D01*
X272023619Y-88873000D01*
X101976381Y-88873000D01*
X101978303Y-88871227D01*
X102129473Y-88663629D01*
X102237238Y-88430528D01*
X102267910Y-88329400D01*
X102144224Y-88127000D01*
X101127000Y-88127000D01*
X101127000Y-88147000D01*
X100873000Y-88147000D01*
X100873000Y-88127000D01*
X100853000Y-88127000D01*
X100853000Y-87873000D01*
X100873000Y-87873000D01*
X100873000Y-86127000D01*
X101127000Y-86127000D01*
X101127000Y-87873000D01*
X102144224Y-87873000D01*
X102267910Y-87670600D01*
X102237238Y-87569472D01*
X102129473Y-87336371D01*
X102032441Y-87203119D01*
X102126185Y-87126185D01*
X102205537Y-87029494D01*
X102264502Y-86919180D01*
X102300812Y-86799482D01*
X102313072Y-86675000D01*
X271686928Y-86675000D01*
X271699188Y-86799482D01*
X271735498Y-86919180D01*
X271794463Y-87029494D01*
X271873815Y-87126185D01*
X271967559Y-87203119D01*
X271870527Y-87336371D01*
X271762762Y-87569472D01*
X271732090Y-87670600D01*
X271855776Y-87873000D01*
X272873000Y-87873000D01*
X272873000Y-86127000D01*
X271848750Y-86127000D01*
X271690000Y-86285750D01*
X271686928Y-86675000D01*
X102313072Y-86675000D01*
X102310000Y-86285750D01*
X102151250Y-86127000D01*
X101127000Y-86127000D01*
X100873000Y-86127000D01*
X100853000Y-86127000D01*
X100853000Y-85873000D01*
X100873000Y-85873000D01*
X100873000Y-85853000D01*
X101127000Y-85853000D01*
X101127000Y-85873000D01*
X102151250Y-85873000D01*
X102310000Y-85714250D01*
X102310428Y-85660000D01*
X271689572Y-85660000D01*
X271690000Y-85714250D01*
G36*
X271699188Y-111200518D02*
G01*
X271686928Y-111325000D01*
X271690000Y-111714250D01*
X271848750Y-111873000D01*
X272873000Y-111873000D01*
X272873000Y-111853000D01*
X273127000Y-111853000D01*
X273127000Y-111873000D01*
X273147000Y-111873000D01*
X273147000Y-112127000D01*
X273127000Y-112127000D01*
X273127000Y-113873000D01*
X273147000Y-113873000D01*
X273147000Y-114127000D01*
X273127000Y-114127000D01*
X273127000Y-114147000D01*
X272873000Y-114147000D01*
X272873000Y-114127000D01*
X271855776Y-114127000D01*
X271732090Y-114329400D01*
X271735305Y-114340000D01*
X102264695Y-114340000D01*
X102267910Y-114329400D01*
X102144224Y-114127000D01*
X101127000Y-114127000D01*
X101127000Y-114147000D01*
X100873000Y-114147000D01*
X100873000Y-114127000D01*
X100853000Y-114127000D01*
X100853000Y-113873000D01*
X100873000Y-113873000D01*
X100873000Y-112127000D01*
X101127000Y-112127000D01*
X101127000Y-113873000D01*
X102144224Y-113873000D01*
X102267910Y-113670600D01*
X102237238Y-113569472D01*
X102129473Y-113336371D01*
X102032441Y-113203119D01*
X102126185Y-113126185D01*
X102205537Y-113029494D01*
X102264502Y-112919180D01*
X102300812Y-112799482D01*
X102313072Y-112675000D01*
X271686928Y-112675000D01*
X271699188Y-112799482D01*
X271735498Y-112919180D01*
X271794463Y-113029494D01*
X271873815Y-113126185D01*
X271967559Y-113203119D01*
X271870527Y-113336371D01*
X271762762Y-113569472D01*
X271732090Y-113670600D01*
X271855776Y-113873000D01*
X272873000Y-113873000D01*
X272873000Y-112127000D01*
X271848750Y-112127000D01*
X271690000Y-112285750D01*
X271686928Y-112675000D01*
X102313072Y-112675000D01*
X102310000Y-112285750D01*
X102151250Y-112127000D01*
X101127000Y-112127000D01*
X100873000Y-112127000D01*
X100853000Y-112127000D01*
X100853000Y-111873000D01*
X100873000Y-111873000D01*
X100873000Y-111853000D01*
X101127000Y-111853000D01*
X101127000Y-111873000D01*
X102151250Y-111873000D01*
X102310000Y-111714250D01*
X102313072Y-111325000D01*
X102300812Y-111200518D01*
X102278511Y-111127000D01*
X271721489Y-111127000D01*
X271699188Y-111200518D01*
X271699188Y-111200518D01*
G37*
X271699188Y-111200518D02*
X271686928Y-111325000D01*
X271690000Y-111714250D01*
X271848750Y-111873000D01*
X272873000Y-111873000D01*
X272873000Y-111853000D01*
X273127000Y-111853000D01*
X273127000Y-111873000D01*
X273147000Y-111873000D01*
X273147000Y-112127000D01*
X273127000Y-112127000D01*
X273127000Y-113873000D01*
X273147000Y-113873000D01*
X273147000Y-114127000D01*
X273127000Y-114127000D01*
X273127000Y-114147000D01*
X272873000Y-114147000D01*
X272873000Y-114127000D01*
X271855776Y-114127000D01*
X271732090Y-114329400D01*
X271735305Y-114340000D01*
X102264695Y-114340000D01*
X102267910Y-114329400D01*
X102144224Y-114127000D01*
X101127000Y-114127000D01*
X101127000Y-114147000D01*
X100873000Y-114147000D01*
X100873000Y-114127000D01*
X100853000Y-114127000D01*
X100853000Y-113873000D01*
X100873000Y-113873000D01*
X100873000Y-112127000D01*
X101127000Y-112127000D01*
X101127000Y-113873000D01*
X102144224Y-113873000D01*
X102267910Y-113670600D01*
X102237238Y-113569472D01*
X102129473Y-113336371D01*
X102032441Y-113203119D01*
X102126185Y-113126185D01*
X102205537Y-113029494D01*
X102264502Y-112919180D01*
X102300812Y-112799482D01*
X102313072Y-112675000D01*
X271686928Y-112675000D01*
X271699188Y-112799482D01*
X271735498Y-112919180D01*
X271794463Y-113029494D01*
X271873815Y-113126185D01*
X271967559Y-113203119D01*
X271870527Y-113336371D01*
X271762762Y-113569472D01*
X271732090Y-113670600D01*
X271855776Y-113873000D01*
X272873000Y-113873000D01*
X272873000Y-112127000D01*
X271848750Y-112127000D01*
X271690000Y-112285750D01*
X271686928Y-112675000D01*
X102313072Y-112675000D01*
X102310000Y-112285750D01*
X102151250Y-112127000D01*
X101127000Y-112127000D01*
X100873000Y-112127000D01*
X100853000Y-112127000D01*
X100853000Y-111873000D01*
X100873000Y-111873000D01*
X100873000Y-111853000D01*
X101127000Y-111853000D01*
X101127000Y-111873000D01*
X102151250Y-111873000D01*
X102310000Y-111714250D01*
X102313072Y-111325000D01*
X102300812Y-111200518D01*
X102278511Y-111127000D01*
X271721489Y-111127000D01*
X271699188Y-111200518D01*
M02*
