G04 #@! TF.GenerationSoftware,KiCad,Pcbnew,(5.1.2)-2*
G04 #@! TF.CreationDate,2020-02-10T16:58:43+01:00*
G04 #@! TF.ProjectId,S174,53313734-2e6b-4696-9361-645f70636258,rev?*
G04 #@! TF.SameCoordinates,Original*
G04 #@! TF.FileFunction,Legend,Top*
G04 #@! TF.FilePolarity,Positive*
%FSLAX46Y46*%
G04 Gerber Fmt 4.6, Leading zero omitted, Abs format (unit mm)*
G04 Created by KiCad (PCBNEW (5.1.2)-2) date 2020-02-10 16:58:43*
%MOMM*%
%LPD*%
G04 APERTURE LIST*
%ADD10C,0.120000*%
%ADD11C,0.500000*%
G04 APERTURE END LIST*
D10*
X104000000Y-108000000D02*
X270000000Y-108000000D01*
X104000000Y-92000000D02*
X270000000Y-92000000D01*
D11*
X269466000Y-88778000D02*
G75*
G03X269466000Y-88778000I-250000J0D01*
G01*
D10*
X266750000Y-88150000D02*
X269650000Y-88150000D01*
X266750000Y-85850000D02*
X269650000Y-85850000D01*
X269650000Y-87550000D02*
X269650000Y-88150000D01*
D11*
X257866000Y-88778000D02*
G75*
G03X257866000Y-88778000I-250000J0D01*
G01*
D10*
X255150000Y-88150000D02*
X258050000Y-88150000D01*
X255150000Y-85850000D02*
X258050000Y-85850000D01*
X258050000Y-87550000D02*
X258050000Y-88150000D01*
D11*
X246266000Y-88778000D02*
G75*
G03X246266000Y-88778000I-250000J0D01*
G01*
D10*
X243550000Y-88150000D02*
X246450000Y-88150000D01*
X243550000Y-85850000D02*
X246450000Y-85850000D01*
X246450000Y-87550000D02*
X246450000Y-88150000D01*
D11*
X234666000Y-88778000D02*
G75*
G03X234666000Y-88778000I-250000J0D01*
G01*
D10*
X231950000Y-88150000D02*
X234850000Y-88150000D01*
X231950000Y-85850000D02*
X234850000Y-85850000D01*
X234850000Y-87550000D02*
X234850000Y-88150000D01*
D11*
X223066000Y-88778000D02*
G75*
G03X223066000Y-88778000I-250000J0D01*
G01*
D10*
X220350000Y-88150000D02*
X223250000Y-88150000D01*
X220350000Y-85850000D02*
X223250000Y-85850000D01*
X223250000Y-87550000D02*
X223250000Y-88150000D01*
D11*
X211466000Y-88778000D02*
G75*
G03X211466000Y-88778000I-250000J0D01*
G01*
D10*
X208750000Y-88150000D02*
X211650000Y-88150000D01*
X208750000Y-85850000D02*
X211650000Y-85850000D01*
X211650000Y-87550000D02*
X211650000Y-88150000D01*
D11*
X199866000Y-88778000D02*
G75*
G03X199866000Y-88778000I-250000J0D01*
G01*
D10*
X197150000Y-88150000D02*
X200050000Y-88150000D01*
X197150000Y-85850000D02*
X200050000Y-85850000D01*
X200050000Y-87550000D02*
X200050000Y-88150000D01*
D11*
X188266000Y-88778000D02*
G75*
G03X188266000Y-88778000I-250000J0D01*
G01*
D10*
X185550000Y-88150000D02*
X188450000Y-88150000D01*
X185550000Y-85850000D02*
X188450000Y-85850000D01*
X188450000Y-87550000D02*
X188450000Y-88150000D01*
D11*
X176666000Y-88778000D02*
G75*
G03X176666000Y-88778000I-250000J0D01*
G01*
D10*
X173950000Y-88150000D02*
X176850000Y-88150000D01*
X173950000Y-85850000D02*
X176850000Y-85850000D01*
X176850000Y-87550000D02*
X176850000Y-88150000D01*
D11*
X165066000Y-88778000D02*
G75*
G03X165066000Y-88778000I-250000J0D01*
G01*
D10*
X162350000Y-88150000D02*
X165250000Y-88150000D01*
X162350000Y-85850000D02*
X165250000Y-85850000D01*
X165250000Y-87550000D02*
X165250000Y-88150000D01*
D11*
X153466000Y-88778000D02*
G75*
G03X153466000Y-88778000I-250000J0D01*
G01*
D10*
X150750000Y-88150000D02*
X153650000Y-88150000D01*
X150750000Y-85850000D02*
X153650000Y-85850000D01*
X153650000Y-87550000D02*
X153650000Y-88150000D01*
D11*
X141866000Y-88778000D02*
G75*
G03X141866000Y-88778000I-250000J0D01*
G01*
D10*
X139150000Y-88150000D02*
X142050000Y-88150000D01*
X139150000Y-85850000D02*
X142050000Y-85850000D01*
X142050000Y-87550000D02*
X142050000Y-88150000D01*
D11*
X130266000Y-88778000D02*
G75*
G03X130266000Y-88778000I-250000J0D01*
G01*
D10*
X127550000Y-88150000D02*
X130450000Y-88150000D01*
X127550000Y-85850000D02*
X130450000Y-85850000D01*
X130450000Y-87550000D02*
X130450000Y-88150000D01*
D11*
X118666000Y-88778000D02*
G75*
G03X118666000Y-88778000I-250000J0D01*
G01*
D10*
X115950000Y-88150000D02*
X118850000Y-88150000D01*
X115950000Y-85850000D02*
X118850000Y-85850000D01*
X118850000Y-87550000D02*
X118850000Y-88150000D01*
D11*
X107066000Y-88778000D02*
G75*
G03X107066000Y-88778000I-250000J0D01*
G01*
D10*
X104350000Y-88150000D02*
X107250000Y-88150000D01*
X104350000Y-85850000D02*
X107250000Y-85850000D01*
X107250000Y-87550000D02*
X107250000Y-88150000D01*
D11*
X269466000Y-114778000D02*
G75*
G03X269466000Y-114778000I-250000J0D01*
G01*
D10*
X266750000Y-114150000D02*
X269650000Y-114150000D01*
X266750000Y-111850000D02*
X269650000Y-111850000D01*
X269650000Y-113550000D02*
X269650000Y-114150000D01*
D11*
X257866000Y-114778000D02*
G75*
G03X257866000Y-114778000I-250000J0D01*
G01*
D10*
X255150000Y-114150000D02*
X258050000Y-114150000D01*
X255150000Y-111850000D02*
X258050000Y-111850000D01*
X258050000Y-113550000D02*
X258050000Y-114150000D01*
D11*
X246266000Y-114778000D02*
G75*
G03X246266000Y-114778000I-250000J0D01*
G01*
D10*
X243550000Y-114150000D02*
X246450000Y-114150000D01*
X243550000Y-111850000D02*
X246450000Y-111850000D01*
X246450000Y-113550000D02*
X246450000Y-114150000D01*
D11*
X234666000Y-114778000D02*
G75*
G03X234666000Y-114778000I-250000J0D01*
G01*
D10*
X231950000Y-114150000D02*
X234850000Y-114150000D01*
X231950000Y-111850000D02*
X234850000Y-111850000D01*
X234850000Y-113550000D02*
X234850000Y-114150000D01*
D11*
X223066000Y-114778000D02*
G75*
G03X223066000Y-114778000I-250000J0D01*
G01*
D10*
X220350000Y-114150000D02*
X223250000Y-114150000D01*
X220350000Y-111850000D02*
X223250000Y-111850000D01*
X223250000Y-113550000D02*
X223250000Y-114150000D01*
D11*
X211466000Y-114778000D02*
G75*
G03X211466000Y-114778000I-250000J0D01*
G01*
D10*
X208750000Y-114150000D02*
X211650000Y-114150000D01*
X208750000Y-111850000D02*
X211650000Y-111850000D01*
X211650000Y-113550000D02*
X211650000Y-114150000D01*
D11*
X199866000Y-114778000D02*
G75*
G03X199866000Y-114778000I-250000J0D01*
G01*
D10*
X197150000Y-114150000D02*
X200050000Y-114150000D01*
X197150000Y-111850000D02*
X200050000Y-111850000D01*
X200050000Y-113550000D02*
X200050000Y-114150000D01*
D11*
X188266000Y-114778000D02*
G75*
G03X188266000Y-114778000I-250000J0D01*
G01*
D10*
X185550000Y-114150000D02*
X188450000Y-114150000D01*
X185550000Y-111850000D02*
X188450000Y-111850000D01*
X188450000Y-113550000D02*
X188450000Y-114150000D01*
D11*
X176666000Y-114778000D02*
G75*
G03X176666000Y-114778000I-250000J0D01*
G01*
D10*
X173950000Y-114150000D02*
X176850000Y-114150000D01*
X173950000Y-111850000D02*
X176850000Y-111850000D01*
X176850000Y-113550000D02*
X176850000Y-114150000D01*
D11*
X165066000Y-114778000D02*
G75*
G03X165066000Y-114778000I-250000J0D01*
G01*
D10*
X162350000Y-114150000D02*
X165250000Y-114150000D01*
X162350000Y-111850000D02*
X165250000Y-111850000D01*
X165250000Y-113550000D02*
X165250000Y-114150000D01*
D11*
X153466000Y-114778000D02*
G75*
G03X153466000Y-114778000I-250000J0D01*
G01*
D10*
X150750000Y-114150000D02*
X153650000Y-114150000D01*
X150750000Y-111850000D02*
X153650000Y-111850000D01*
X153650000Y-113550000D02*
X153650000Y-114150000D01*
D11*
X141866000Y-114778000D02*
G75*
G03X141866000Y-114778000I-250000J0D01*
G01*
D10*
X139150000Y-114150000D02*
X142050000Y-114150000D01*
X139150000Y-111850000D02*
X142050000Y-111850000D01*
X142050000Y-113550000D02*
X142050000Y-114150000D01*
D11*
X130266000Y-114778000D02*
G75*
G03X130266000Y-114778000I-250000J0D01*
G01*
D10*
X127550000Y-114150000D02*
X130450000Y-114150000D01*
X127550000Y-111850000D02*
X130450000Y-111850000D01*
X130450000Y-113550000D02*
X130450000Y-114150000D01*
D11*
X118666000Y-114778000D02*
G75*
G03X118666000Y-114778000I-250000J0D01*
G01*
D10*
X115950000Y-114150000D02*
X118850000Y-114150000D01*
X115950000Y-111850000D02*
X118850000Y-111850000D01*
X118850000Y-113550000D02*
X118850000Y-114150000D01*
D11*
X107066000Y-114778000D02*
G75*
G03X107066000Y-114778000I-250000J0D01*
G01*
D10*
X104350000Y-114150000D02*
X107250000Y-114150000D01*
X104350000Y-111850000D02*
X107250000Y-111850000D01*
X107250000Y-113550000D02*
X107250000Y-114150000D01*
X271940000Y-110940000D02*
X273000000Y-110940000D01*
X271940000Y-112000000D02*
X271940000Y-110940000D01*
X271940000Y-113000000D02*
X274060000Y-113000000D01*
X274060000Y-113000000D02*
X274060000Y-115060000D01*
X271940000Y-113000000D02*
X271940000Y-115060000D01*
X271940000Y-115060000D02*
X274060000Y-115060000D01*
X271940000Y-95940000D02*
X273000000Y-95940000D01*
X271940000Y-97000000D02*
X271940000Y-95940000D01*
X271940000Y-98000000D02*
X274060000Y-98000000D01*
X274060000Y-98000000D02*
X274060000Y-104060000D01*
X271940000Y-98000000D02*
X271940000Y-104060000D01*
X271940000Y-104060000D02*
X274060000Y-104060000D01*
X271940000Y-84940000D02*
X273000000Y-84940000D01*
X271940000Y-86000000D02*
X271940000Y-84940000D01*
X271940000Y-87000000D02*
X274060000Y-87000000D01*
X274060000Y-87000000D02*
X274060000Y-89060000D01*
X271940000Y-87000000D02*
X271940000Y-89060000D01*
X271940000Y-89060000D02*
X274060000Y-89060000D01*
X99940000Y-110940000D02*
X101000000Y-110940000D01*
X99940000Y-112000000D02*
X99940000Y-110940000D01*
X99940000Y-113000000D02*
X102060000Y-113000000D01*
X102060000Y-113000000D02*
X102060000Y-115060000D01*
X99940000Y-113000000D02*
X99940000Y-115060000D01*
X99940000Y-115060000D02*
X102060000Y-115060000D01*
X99940000Y-95940000D02*
X101000000Y-95940000D01*
X99940000Y-97000000D02*
X99940000Y-95940000D01*
X99940000Y-98000000D02*
X102060000Y-98000000D01*
X102060000Y-98000000D02*
X102060000Y-104060000D01*
X99940000Y-98000000D02*
X99940000Y-104060000D01*
X99940000Y-104060000D02*
X102060000Y-104060000D01*
X99940000Y-84940000D02*
X101000000Y-84940000D01*
X99940000Y-86000000D02*
X99940000Y-84940000D01*
X99940000Y-87000000D02*
X102060000Y-87000000D01*
X102060000Y-87000000D02*
X102060000Y-89060000D01*
X99940000Y-87000000D02*
X99940000Y-89060000D01*
X99940000Y-89060000D02*
X102060000Y-89060000D01*
M02*
