G04 #@! TF.GenerationSoftware,KiCad,Pcbnew,(5.1.2)-2*
G04 #@! TF.CreationDate,2020-02-10T16:48:03+01:00*
G04 #@! TF.ProjectId,OpenHO_Engine,4f70656e-484f-45f4-956e-67696e652e6b,rev?*
G04 #@! TF.SameCoordinates,Original*
G04 #@! TF.FileFunction,Soldermask,Top*
G04 #@! TF.FilePolarity,Negative*
%FSLAX46Y46*%
G04 Gerber Fmt 4.6, Leading zero omitted, Abs format (unit mm)*
G04 Created by KiCad (PCBNEW (5.1.2)-2) date 2020-02-10 16:48:03*
%MOMM*%
%LPD*%
G04 APERTURE LIST*
%ADD10C,0.100000*%
G04 APERTURE END LIST*
D10*
G36*
X147051000Y-100551000D02*
G01*
X145949000Y-100551000D01*
X145949000Y-99449000D01*
X147051000Y-99449000D01*
X147051000Y-100551000D01*
X147051000Y-100551000D01*
G37*
G36*
X154051000Y-100551000D02*
G01*
X152949000Y-100551000D01*
X152949000Y-99449000D01*
X154051000Y-99449000D01*
X154051000Y-100551000D01*
X154051000Y-100551000D01*
G37*
G36*
X97051000Y-100551000D02*
G01*
X95949000Y-100551000D01*
X95949000Y-99449000D01*
X97051000Y-99449000D01*
X97051000Y-100551000D01*
X97051000Y-100551000D01*
G37*
G36*
X104051000Y-100551000D02*
G01*
X102949000Y-100551000D01*
X102949000Y-99449000D01*
X104051000Y-99449000D01*
X104051000Y-100551000D01*
X104051000Y-100551000D01*
G37*
G36*
X107166825Y-95361314D02*
G01*
X107327239Y-95409975D01*
X107475078Y-95488996D01*
X107604659Y-95595341D01*
X107711004Y-95724922D01*
X107790025Y-95872761D01*
X107838686Y-96033175D01*
X107855117Y-96200000D01*
X107838686Y-96366825D01*
X107790025Y-96527239D01*
X107711004Y-96675078D01*
X107604659Y-96804659D01*
X107475078Y-96911004D01*
X107327239Y-96990025D01*
X107166825Y-97038686D01*
X107041800Y-97051000D01*
X106958200Y-97051000D01*
X106833175Y-97038686D01*
X106672761Y-96990025D01*
X106524922Y-96911004D01*
X106395341Y-96804659D01*
X106288996Y-96675078D01*
X106209975Y-96527239D01*
X106161314Y-96366825D01*
X106144883Y-96200000D01*
X106161314Y-96033175D01*
X106209975Y-95872761D01*
X106288996Y-95724922D01*
X106395341Y-95595341D01*
X106524922Y-95488996D01*
X106672761Y-95409975D01*
X106833175Y-95361314D01*
X106958200Y-95349000D01*
X107041800Y-95349000D01*
X107166825Y-95361314D01*
X107166825Y-95361314D01*
G37*
G36*
X157166825Y-95361314D02*
G01*
X157327239Y-95409975D01*
X157475078Y-95488996D01*
X157604659Y-95595341D01*
X157711004Y-95724922D01*
X157790025Y-95872761D01*
X157838686Y-96033175D01*
X157855117Y-96200000D01*
X157838686Y-96366825D01*
X157790025Y-96527239D01*
X157711004Y-96675078D01*
X157604659Y-96804659D01*
X157475078Y-96911004D01*
X157327239Y-96990025D01*
X157166825Y-97038686D01*
X157041800Y-97051000D01*
X156958200Y-97051000D01*
X156833175Y-97038686D01*
X156672761Y-96990025D01*
X156524922Y-96911004D01*
X156395341Y-96804659D01*
X156288996Y-96675078D01*
X156209975Y-96527239D01*
X156161314Y-96366825D01*
X156144883Y-96200000D01*
X156161314Y-96033175D01*
X156209975Y-95872761D01*
X156288996Y-95724922D01*
X156395341Y-95595341D01*
X156524922Y-95488996D01*
X156672761Y-95409975D01*
X156833175Y-95361314D01*
X156958200Y-95349000D01*
X157041800Y-95349000D01*
X157166825Y-95361314D01*
X157166825Y-95361314D01*
G37*
G36*
X143166825Y-95361314D02*
G01*
X143327239Y-95409975D01*
X143475078Y-95488996D01*
X143604659Y-95595341D01*
X143711004Y-95724922D01*
X143790025Y-95872761D01*
X143838686Y-96033175D01*
X143855117Y-96200000D01*
X143838686Y-96366825D01*
X143790025Y-96527239D01*
X143711004Y-96675078D01*
X143604659Y-96804659D01*
X143475078Y-96911004D01*
X143327239Y-96990025D01*
X143166825Y-97038686D01*
X143041800Y-97051000D01*
X142958200Y-97051000D01*
X142833175Y-97038686D01*
X142672761Y-96990025D01*
X142524922Y-96911004D01*
X142395341Y-96804659D01*
X142288996Y-96675078D01*
X142209975Y-96527239D01*
X142161314Y-96366825D01*
X142144883Y-96200000D01*
X142161314Y-96033175D01*
X142209975Y-95872761D01*
X142288996Y-95724922D01*
X142395341Y-95595341D01*
X142524922Y-95488996D01*
X142672761Y-95409975D01*
X142833175Y-95361314D01*
X142958200Y-95349000D01*
X143041800Y-95349000D01*
X143166825Y-95361314D01*
X143166825Y-95361314D01*
G37*
G36*
X93166825Y-95361314D02*
G01*
X93327239Y-95409975D01*
X93475078Y-95488996D01*
X93604659Y-95595341D01*
X93711004Y-95724922D01*
X93790025Y-95872761D01*
X93838686Y-96033175D01*
X93855117Y-96200000D01*
X93838686Y-96366825D01*
X93790025Y-96527239D01*
X93711004Y-96675078D01*
X93604659Y-96804659D01*
X93475078Y-96911004D01*
X93327239Y-96990025D01*
X93166825Y-97038686D01*
X93041800Y-97051000D01*
X92958200Y-97051000D01*
X92833175Y-97038686D01*
X92672761Y-96990025D01*
X92524922Y-96911004D01*
X92395341Y-96804659D01*
X92288996Y-96675078D01*
X92209975Y-96527239D01*
X92161314Y-96366825D01*
X92144883Y-96200000D01*
X92161314Y-96033175D01*
X92209975Y-95872761D01*
X92288996Y-95724922D01*
X92395341Y-95595341D01*
X92524922Y-95488996D01*
X92672761Y-95409975D01*
X92833175Y-95361314D01*
X92958200Y-95349000D01*
X93041800Y-95349000D01*
X93166825Y-95361314D01*
X93166825Y-95361314D01*
G37*
G36*
X81616967Y-92864410D02*
G01*
X81653456Y-92879524D01*
X81689944Y-92894638D01*
X81755623Y-92938524D01*
X81811476Y-92994377D01*
X81855362Y-93060056D01*
X81870475Y-93096544D01*
X81885590Y-93133033D01*
X81901000Y-93210505D01*
X81901000Y-93289495D01*
X81885590Y-93366967D01*
X81870475Y-93403456D01*
X81855362Y-93439944D01*
X81811476Y-93505623D01*
X81755623Y-93561476D01*
X81689944Y-93605362D01*
X81653456Y-93620475D01*
X81616967Y-93635590D01*
X81539495Y-93651000D01*
X81460505Y-93651000D01*
X81383033Y-93635590D01*
X81346544Y-93620475D01*
X81310056Y-93605362D01*
X81244377Y-93561476D01*
X81188524Y-93505623D01*
X81144638Y-93439944D01*
X81129524Y-93403456D01*
X81114410Y-93366967D01*
X81099000Y-93289495D01*
X81099000Y-93210505D01*
X81114410Y-93133033D01*
X81129524Y-93096544D01*
X81144638Y-93060056D01*
X81188524Y-92994377D01*
X81244377Y-92938524D01*
X81310056Y-92894638D01*
X81346544Y-92879524D01*
X81383033Y-92864410D01*
X81460505Y-92849000D01*
X81539495Y-92849000D01*
X81616967Y-92864410D01*
X81616967Y-92864410D01*
G37*
G36*
X82616967Y-92864410D02*
G01*
X82653456Y-92879524D01*
X82689944Y-92894638D01*
X82755623Y-92938524D01*
X82811476Y-92994377D01*
X82855362Y-93060056D01*
X82870475Y-93096544D01*
X82885590Y-93133033D01*
X82901000Y-93210505D01*
X82901000Y-93289495D01*
X82885590Y-93366967D01*
X82870475Y-93403456D01*
X82855362Y-93439944D01*
X82811476Y-93505623D01*
X82755623Y-93561476D01*
X82689944Y-93605362D01*
X82653456Y-93620475D01*
X82616967Y-93635590D01*
X82539495Y-93651000D01*
X82460505Y-93651000D01*
X82383033Y-93635590D01*
X82346544Y-93620475D01*
X82310056Y-93605362D01*
X82244377Y-93561476D01*
X82188524Y-93505623D01*
X82144638Y-93439944D01*
X82129524Y-93403456D01*
X82114410Y-93366967D01*
X82099000Y-93289495D01*
X82099000Y-93210505D01*
X82114410Y-93133033D01*
X82129524Y-93096544D01*
X82144638Y-93060056D01*
X82188524Y-92994377D01*
X82244377Y-92938524D01*
X82310056Y-92894638D01*
X82346544Y-92879524D01*
X82383033Y-92864410D01*
X82460505Y-92849000D01*
X82539495Y-92849000D01*
X82616967Y-92864410D01*
X82616967Y-92864410D01*
G37*
G36*
X168616967Y-92864410D02*
G01*
X168653456Y-92879524D01*
X168689944Y-92894638D01*
X168755623Y-92938524D01*
X168811476Y-92994377D01*
X168855362Y-93060056D01*
X168870476Y-93096544D01*
X168885590Y-93133033D01*
X168901000Y-93210505D01*
X168901000Y-93289495D01*
X168885590Y-93366967D01*
X168870476Y-93403456D01*
X168855362Y-93439944D01*
X168811476Y-93505623D01*
X168755623Y-93561476D01*
X168689944Y-93605362D01*
X168653456Y-93620475D01*
X168616967Y-93635590D01*
X168539495Y-93651000D01*
X168460505Y-93651000D01*
X168383033Y-93635590D01*
X168346544Y-93620475D01*
X168310056Y-93605362D01*
X168244377Y-93561476D01*
X168188524Y-93505623D01*
X168144638Y-93439944D01*
X168129525Y-93403456D01*
X168114410Y-93366967D01*
X168099000Y-93289495D01*
X168099000Y-93210505D01*
X168114410Y-93133033D01*
X168129525Y-93096544D01*
X168144638Y-93060056D01*
X168188524Y-92994377D01*
X168244377Y-92938524D01*
X168310056Y-92894638D01*
X168346544Y-92879524D01*
X168383033Y-92864410D01*
X168460505Y-92849000D01*
X168539495Y-92849000D01*
X168616967Y-92864410D01*
X168616967Y-92864410D01*
G37*
G36*
X167616967Y-92864410D02*
G01*
X167653456Y-92879524D01*
X167689944Y-92894638D01*
X167755623Y-92938524D01*
X167811476Y-92994377D01*
X167855362Y-93060056D01*
X167870476Y-93096544D01*
X167885590Y-93133033D01*
X167901000Y-93210505D01*
X167901000Y-93289495D01*
X167885590Y-93366967D01*
X167870476Y-93403456D01*
X167855362Y-93439944D01*
X167811476Y-93505623D01*
X167755623Y-93561476D01*
X167689944Y-93605362D01*
X167653456Y-93620475D01*
X167616967Y-93635590D01*
X167539495Y-93651000D01*
X167460505Y-93651000D01*
X167383033Y-93635590D01*
X167346544Y-93620475D01*
X167310056Y-93605362D01*
X167244377Y-93561476D01*
X167188524Y-93505623D01*
X167144638Y-93439944D01*
X167129525Y-93403456D01*
X167114410Y-93366967D01*
X167099000Y-93289495D01*
X167099000Y-93210505D01*
X167114410Y-93133033D01*
X167129525Y-93096544D01*
X167144638Y-93060056D01*
X167188524Y-92994377D01*
X167244377Y-92938524D01*
X167310056Y-92894638D01*
X167346544Y-92879524D01*
X167383033Y-92864410D01*
X167460505Y-92849000D01*
X167539495Y-92849000D01*
X167616967Y-92864410D01*
X167616967Y-92864410D01*
G37*
G36*
X166616967Y-92864410D02*
G01*
X166653456Y-92879524D01*
X166689944Y-92894638D01*
X166755623Y-92938524D01*
X166811476Y-92994377D01*
X166855362Y-93060056D01*
X166870476Y-93096544D01*
X166885590Y-93133033D01*
X166901000Y-93210505D01*
X166901000Y-93289495D01*
X166885590Y-93366967D01*
X166870476Y-93403456D01*
X166855362Y-93439944D01*
X166811476Y-93505623D01*
X166755623Y-93561476D01*
X166689944Y-93605362D01*
X166653456Y-93620475D01*
X166616967Y-93635590D01*
X166539495Y-93651000D01*
X166460505Y-93651000D01*
X166383033Y-93635590D01*
X166346544Y-93620475D01*
X166310056Y-93605362D01*
X166244377Y-93561476D01*
X166188524Y-93505623D01*
X166144638Y-93439944D01*
X166129525Y-93403456D01*
X166114410Y-93366967D01*
X166099000Y-93289495D01*
X166099000Y-93210505D01*
X166114410Y-93133033D01*
X166129525Y-93096544D01*
X166144638Y-93060056D01*
X166188524Y-92994377D01*
X166244377Y-92938524D01*
X166310056Y-92894638D01*
X166346544Y-92879524D01*
X166383033Y-92864410D01*
X166460505Y-92849000D01*
X166539495Y-92849000D01*
X166616967Y-92864410D01*
X166616967Y-92864410D01*
G37*
G36*
X83616967Y-92864410D02*
G01*
X83653456Y-92879524D01*
X83689944Y-92894638D01*
X83755623Y-92938524D01*
X83811476Y-92994377D01*
X83855362Y-93060056D01*
X83870475Y-93096544D01*
X83885590Y-93133033D01*
X83901000Y-93210505D01*
X83901000Y-93289495D01*
X83885590Y-93366967D01*
X83870475Y-93403456D01*
X83855362Y-93439944D01*
X83811476Y-93505623D01*
X83755623Y-93561476D01*
X83689944Y-93605362D01*
X83653456Y-93620475D01*
X83616967Y-93635590D01*
X83539495Y-93651000D01*
X83460505Y-93651000D01*
X83383033Y-93635590D01*
X83346544Y-93620475D01*
X83310056Y-93605362D01*
X83244377Y-93561476D01*
X83188524Y-93505623D01*
X83144638Y-93439944D01*
X83129524Y-93403456D01*
X83114410Y-93366967D01*
X83099000Y-93289495D01*
X83099000Y-93210505D01*
X83114410Y-93133033D01*
X83129524Y-93096544D01*
X83144638Y-93060056D01*
X83188524Y-92994377D01*
X83244377Y-92938524D01*
X83310056Y-92894638D01*
X83346544Y-92879524D01*
X83383033Y-92864410D01*
X83460505Y-92849000D01*
X83539495Y-92849000D01*
X83616967Y-92864410D01*
X83616967Y-92864410D01*
G37*
G36*
X167616967Y-89864410D02*
G01*
X167653456Y-89879524D01*
X167689944Y-89894638D01*
X167755623Y-89938524D01*
X167811476Y-89994377D01*
X167855362Y-90060056D01*
X167870475Y-90096544D01*
X167885590Y-90133033D01*
X167901000Y-90210505D01*
X167901000Y-90289495D01*
X167885590Y-90366967D01*
X167870476Y-90403456D01*
X167855362Y-90439944D01*
X167811476Y-90505623D01*
X167755623Y-90561476D01*
X167689944Y-90605362D01*
X167653456Y-90620476D01*
X167616967Y-90635590D01*
X167539495Y-90651000D01*
X167460505Y-90651000D01*
X167383033Y-90635590D01*
X167346544Y-90620476D01*
X167310056Y-90605362D01*
X167244377Y-90561476D01*
X167188524Y-90505623D01*
X167144638Y-90439944D01*
X167129524Y-90403456D01*
X167114410Y-90366967D01*
X167099000Y-90289495D01*
X167099000Y-90210505D01*
X167114410Y-90133033D01*
X167129525Y-90096544D01*
X167144638Y-90060056D01*
X167188524Y-89994377D01*
X167244377Y-89938524D01*
X167310056Y-89894638D01*
X167346544Y-89879525D01*
X167383033Y-89864410D01*
X167460505Y-89849000D01*
X167539495Y-89849000D01*
X167616967Y-89864410D01*
X167616967Y-89864410D01*
G37*
G36*
X168616967Y-89864410D02*
G01*
X168653456Y-89879524D01*
X168689944Y-89894638D01*
X168755623Y-89938524D01*
X168811476Y-89994377D01*
X168855362Y-90060056D01*
X168870475Y-90096544D01*
X168885590Y-90133033D01*
X168901000Y-90210505D01*
X168901000Y-90289495D01*
X168885590Y-90366967D01*
X168870476Y-90403456D01*
X168855362Y-90439944D01*
X168811476Y-90505623D01*
X168755623Y-90561476D01*
X168689944Y-90605362D01*
X168653456Y-90620476D01*
X168616967Y-90635590D01*
X168539495Y-90651000D01*
X168460505Y-90651000D01*
X168383033Y-90635590D01*
X168346544Y-90620476D01*
X168310056Y-90605362D01*
X168244377Y-90561476D01*
X168188524Y-90505623D01*
X168144638Y-90439944D01*
X168129524Y-90403456D01*
X168114410Y-90366967D01*
X168099000Y-90289495D01*
X168099000Y-90210505D01*
X168114410Y-90133033D01*
X168129525Y-90096544D01*
X168144638Y-90060056D01*
X168188524Y-89994377D01*
X168244377Y-89938524D01*
X168310056Y-89894638D01*
X168346544Y-89879525D01*
X168383033Y-89864410D01*
X168460505Y-89849000D01*
X168539495Y-89849000D01*
X168616967Y-89864410D01*
X168616967Y-89864410D01*
G37*
G36*
X166616967Y-89864410D02*
G01*
X166653456Y-89879524D01*
X166689944Y-89894638D01*
X166755623Y-89938524D01*
X166811476Y-89994377D01*
X166855362Y-90060056D01*
X166870475Y-90096544D01*
X166885590Y-90133033D01*
X166901000Y-90210505D01*
X166901000Y-90289495D01*
X166885590Y-90366967D01*
X166870476Y-90403456D01*
X166855362Y-90439944D01*
X166811476Y-90505623D01*
X166755623Y-90561476D01*
X166689944Y-90605362D01*
X166653456Y-90620476D01*
X166616967Y-90635590D01*
X166539495Y-90651000D01*
X166460505Y-90651000D01*
X166383033Y-90635590D01*
X166346544Y-90620476D01*
X166310056Y-90605362D01*
X166244377Y-90561476D01*
X166188524Y-90505623D01*
X166144638Y-90439944D01*
X166129524Y-90403456D01*
X166114410Y-90366967D01*
X166099000Y-90289495D01*
X166099000Y-90210505D01*
X166114410Y-90133033D01*
X166129525Y-90096544D01*
X166144638Y-90060056D01*
X166188524Y-89994377D01*
X166244377Y-89938524D01*
X166310056Y-89894638D01*
X166346544Y-89879525D01*
X166383033Y-89864410D01*
X166460505Y-89849000D01*
X166539495Y-89849000D01*
X166616967Y-89864410D01*
X166616967Y-89864410D01*
G37*
G36*
X83616967Y-89864410D02*
G01*
X83653456Y-89879524D01*
X83689944Y-89894638D01*
X83755623Y-89938524D01*
X83811476Y-89994377D01*
X83855362Y-90060056D01*
X83870475Y-90096544D01*
X83885590Y-90133033D01*
X83901000Y-90210505D01*
X83901000Y-90289495D01*
X83885590Y-90366967D01*
X83870476Y-90403456D01*
X83855362Y-90439944D01*
X83811476Y-90505623D01*
X83755623Y-90561476D01*
X83689944Y-90605362D01*
X83653456Y-90620476D01*
X83616967Y-90635590D01*
X83539495Y-90651000D01*
X83460505Y-90651000D01*
X83383033Y-90635590D01*
X83346544Y-90620476D01*
X83310056Y-90605362D01*
X83244377Y-90561476D01*
X83188524Y-90505623D01*
X83144638Y-90439944D01*
X83129524Y-90403456D01*
X83114410Y-90366967D01*
X83099000Y-90289495D01*
X83099000Y-90210505D01*
X83114410Y-90133033D01*
X83129525Y-90096544D01*
X83144638Y-90060056D01*
X83188524Y-89994377D01*
X83244377Y-89938524D01*
X83310056Y-89894638D01*
X83346544Y-89879525D01*
X83383033Y-89864410D01*
X83460505Y-89849000D01*
X83539495Y-89849000D01*
X83616967Y-89864410D01*
X83616967Y-89864410D01*
G37*
G36*
X82616967Y-89864410D02*
G01*
X82653456Y-89879524D01*
X82689944Y-89894638D01*
X82755623Y-89938524D01*
X82811476Y-89994377D01*
X82855362Y-90060056D01*
X82870475Y-90096544D01*
X82885590Y-90133033D01*
X82901000Y-90210505D01*
X82901000Y-90289495D01*
X82885590Y-90366967D01*
X82870476Y-90403456D01*
X82855362Y-90439944D01*
X82811476Y-90505623D01*
X82755623Y-90561476D01*
X82689944Y-90605362D01*
X82653456Y-90620476D01*
X82616967Y-90635590D01*
X82539495Y-90651000D01*
X82460505Y-90651000D01*
X82383033Y-90635590D01*
X82346544Y-90620476D01*
X82310056Y-90605362D01*
X82244377Y-90561476D01*
X82188524Y-90505623D01*
X82144638Y-90439944D01*
X82129524Y-90403456D01*
X82114410Y-90366967D01*
X82099000Y-90289495D01*
X82099000Y-90210505D01*
X82114410Y-90133033D01*
X82129525Y-90096544D01*
X82144638Y-90060056D01*
X82188524Y-89994377D01*
X82244377Y-89938524D01*
X82310056Y-89894638D01*
X82346544Y-89879525D01*
X82383033Y-89864410D01*
X82460505Y-89849000D01*
X82539495Y-89849000D01*
X82616967Y-89864410D01*
X82616967Y-89864410D01*
G37*
G36*
X81616967Y-89864410D02*
G01*
X81653456Y-89879524D01*
X81689944Y-89894638D01*
X81755623Y-89938524D01*
X81811476Y-89994377D01*
X81855362Y-90060056D01*
X81870475Y-90096544D01*
X81885590Y-90133033D01*
X81901000Y-90210505D01*
X81901000Y-90289495D01*
X81885590Y-90366967D01*
X81870476Y-90403456D01*
X81855362Y-90439944D01*
X81811476Y-90505623D01*
X81755623Y-90561476D01*
X81689944Y-90605362D01*
X81653456Y-90620476D01*
X81616967Y-90635590D01*
X81539495Y-90651000D01*
X81460505Y-90651000D01*
X81383033Y-90635590D01*
X81346544Y-90620476D01*
X81310056Y-90605362D01*
X81244377Y-90561476D01*
X81188524Y-90505623D01*
X81144638Y-90439944D01*
X81129524Y-90403456D01*
X81114410Y-90366967D01*
X81099000Y-90289495D01*
X81099000Y-90210505D01*
X81114410Y-90133033D01*
X81129525Y-90096544D01*
X81144638Y-90060056D01*
X81188524Y-89994377D01*
X81244377Y-89938524D01*
X81310056Y-89894638D01*
X81346544Y-89879525D01*
X81383033Y-89864410D01*
X81460505Y-89849000D01*
X81539495Y-89849000D01*
X81616967Y-89864410D01*
X81616967Y-89864410D01*
G37*
G36*
X143248228Y-82681703D02*
G01*
X143403100Y-82745853D01*
X143542481Y-82838985D01*
X143661015Y-82957519D01*
X143754147Y-83096900D01*
X143818297Y-83251772D01*
X143851000Y-83416184D01*
X143851000Y-83583816D01*
X143818297Y-83748228D01*
X143754147Y-83903100D01*
X143661015Y-84042481D01*
X143542481Y-84161015D01*
X143403100Y-84254147D01*
X143248228Y-84318297D01*
X143083816Y-84351000D01*
X142916184Y-84351000D01*
X142751772Y-84318297D01*
X142596900Y-84254147D01*
X142457519Y-84161015D01*
X142338985Y-84042481D01*
X142245853Y-83903100D01*
X142181703Y-83748228D01*
X142149000Y-83583816D01*
X142149000Y-83416184D01*
X142181703Y-83251772D01*
X142245853Y-83096900D01*
X142338985Y-82957519D01*
X142457519Y-82838985D01*
X142596900Y-82745853D01*
X142751772Y-82681703D01*
X142916184Y-82649000D01*
X143083816Y-82649000D01*
X143248228Y-82681703D01*
X143248228Y-82681703D01*
G37*
G36*
X93248228Y-82681703D02*
G01*
X93403100Y-82745853D01*
X93542481Y-82838985D01*
X93661015Y-82957519D01*
X93754147Y-83096900D01*
X93818297Y-83251772D01*
X93851000Y-83416184D01*
X93851000Y-83583816D01*
X93818297Y-83748228D01*
X93754147Y-83903100D01*
X93661015Y-84042481D01*
X93542481Y-84161015D01*
X93403100Y-84254147D01*
X93248228Y-84318297D01*
X93083816Y-84351000D01*
X92916184Y-84351000D01*
X92751772Y-84318297D01*
X92596900Y-84254147D01*
X92457519Y-84161015D01*
X92338985Y-84042481D01*
X92245853Y-83903100D01*
X92181703Y-83748228D01*
X92149000Y-83583816D01*
X92149000Y-83416184D01*
X92181703Y-83251772D01*
X92245853Y-83096900D01*
X92338985Y-82957519D01*
X92457519Y-82838985D01*
X92596900Y-82745853D01*
X92751772Y-82681703D01*
X92916184Y-82649000D01*
X93083816Y-82649000D01*
X93248228Y-82681703D01*
X93248228Y-82681703D01*
G37*
G36*
X107248228Y-82681703D02*
G01*
X107403100Y-82745853D01*
X107542481Y-82838985D01*
X107661015Y-82957519D01*
X107754147Y-83096900D01*
X107818297Y-83251772D01*
X107851000Y-83416184D01*
X107851000Y-83583816D01*
X107818297Y-83748228D01*
X107754147Y-83903100D01*
X107661015Y-84042481D01*
X107542481Y-84161015D01*
X107403100Y-84254147D01*
X107248228Y-84318297D01*
X107083816Y-84351000D01*
X106916184Y-84351000D01*
X106751772Y-84318297D01*
X106596900Y-84254147D01*
X106457519Y-84161015D01*
X106338985Y-84042481D01*
X106245853Y-83903100D01*
X106181703Y-83748228D01*
X106149000Y-83583816D01*
X106149000Y-83416184D01*
X106181703Y-83251772D01*
X106245853Y-83096900D01*
X106338985Y-82957519D01*
X106457519Y-82838985D01*
X106596900Y-82745853D01*
X106751772Y-82681703D01*
X106916184Y-82649000D01*
X107083816Y-82649000D01*
X107248228Y-82681703D01*
X107248228Y-82681703D01*
G37*
G36*
X157248228Y-82681703D02*
G01*
X157403100Y-82745853D01*
X157542481Y-82838985D01*
X157661015Y-82957519D01*
X157754147Y-83096900D01*
X157818297Y-83251772D01*
X157851000Y-83416184D01*
X157851000Y-83583816D01*
X157818297Y-83748228D01*
X157754147Y-83903100D01*
X157661015Y-84042481D01*
X157542481Y-84161015D01*
X157403100Y-84254147D01*
X157248228Y-84318297D01*
X157083816Y-84351000D01*
X156916184Y-84351000D01*
X156751772Y-84318297D01*
X156596900Y-84254147D01*
X156457519Y-84161015D01*
X156338985Y-84042481D01*
X156245853Y-83903100D01*
X156181703Y-83748228D01*
X156149000Y-83583816D01*
X156149000Y-83416184D01*
X156181703Y-83251772D01*
X156245853Y-83096900D01*
X156338985Y-82957519D01*
X156457519Y-82838985D01*
X156596900Y-82745853D01*
X156751772Y-82681703D01*
X156916184Y-82649000D01*
X157083816Y-82649000D01*
X157248228Y-82681703D01*
X157248228Y-82681703D01*
G37*
G36*
X146044316Y-81404053D02*
G01*
X146092462Y-81418657D01*
X146136823Y-81442369D01*
X146175714Y-81474286D01*
X146207631Y-81513177D01*
X146231343Y-81557538D01*
X146245947Y-81605684D01*
X146251000Y-81656982D01*
X146251000Y-82218018D01*
X146245947Y-82269316D01*
X146231343Y-82317462D01*
X146207631Y-82361823D01*
X146175714Y-82400714D01*
X146136823Y-82432631D01*
X146092462Y-82456343D01*
X146044316Y-82470947D01*
X145993018Y-82476000D01*
X145006982Y-82476000D01*
X144955684Y-82470947D01*
X144907538Y-82456343D01*
X144863177Y-82432631D01*
X144824286Y-82400714D01*
X144792369Y-82361823D01*
X144768657Y-82317462D01*
X144754053Y-82269316D01*
X144749000Y-82218018D01*
X144749000Y-81656982D01*
X144754053Y-81605684D01*
X144768657Y-81557538D01*
X144792369Y-81513177D01*
X144824286Y-81474286D01*
X144863177Y-81442369D01*
X144907538Y-81418657D01*
X144955684Y-81404053D01*
X145006982Y-81399000D01*
X145993018Y-81399000D01*
X146044316Y-81404053D01*
X146044316Y-81404053D01*
G37*
G36*
X150044316Y-81404053D02*
G01*
X150092462Y-81418657D01*
X150136823Y-81442369D01*
X150175714Y-81474286D01*
X150207631Y-81513177D01*
X150231343Y-81557538D01*
X150245947Y-81605684D01*
X150251000Y-81656982D01*
X150251000Y-82218018D01*
X150245947Y-82269316D01*
X150231343Y-82317462D01*
X150207631Y-82361823D01*
X150175714Y-82400714D01*
X150136823Y-82432631D01*
X150092462Y-82456343D01*
X150044316Y-82470947D01*
X149993018Y-82476000D01*
X149006982Y-82476000D01*
X148955684Y-82470947D01*
X148907538Y-82456343D01*
X148863177Y-82432631D01*
X148824286Y-82400714D01*
X148792369Y-82361823D01*
X148768657Y-82317462D01*
X148754053Y-82269316D01*
X148749000Y-82218018D01*
X148749000Y-81656982D01*
X148754053Y-81605684D01*
X148768657Y-81557538D01*
X148792369Y-81513177D01*
X148824286Y-81474286D01*
X148863177Y-81442369D01*
X148907538Y-81418657D01*
X148955684Y-81404053D01*
X149006982Y-81399000D01*
X149993018Y-81399000D01*
X150044316Y-81404053D01*
X150044316Y-81404053D01*
G37*
G36*
X148044316Y-81404053D02*
G01*
X148092462Y-81418657D01*
X148136823Y-81442369D01*
X148175714Y-81474286D01*
X148207631Y-81513177D01*
X148231343Y-81557538D01*
X148245947Y-81605684D01*
X148251000Y-81656982D01*
X148251000Y-82218018D01*
X148245947Y-82269316D01*
X148231343Y-82317462D01*
X148207631Y-82361823D01*
X148175714Y-82400714D01*
X148136823Y-82432631D01*
X148092462Y-82456343D01*
X148044316Y-82470947D01*
X147993018Y-82476000D01*
X147006982Y-82476000D01*
X146955684Y-82470947D01*
X146907538Y-82456343D01*
X146863177Y-82432631D01*
X146824286Y-82400714D01*
X146792369Y-82361823D01*
X146768657Y-82317462D01*
X146754053Y-82269316D01*
X146749000Y-82218018D01*
X146749000Y-81656982D01*
X146754053Y-81605684D01*
X146768657Y-81557538D01*
X146792369Y-81513177D01*
X146824286Y-81474286D01*
X146863177Y-81442369D01*
X146907538Y-81418657D01*
X146955684Y-81404053D01*
X147006982Y-81399000D01*
X147993018Y-81399000D01*
X148044316Y-81404053D01*
X148044316Y-81404053D01*
G37*
G36*
X143817321Y-78701859D02*
G01*
X143941677Y-78739581D01*
X144056274Y-78800835D01*
X144156726Y-78883274D01*
X144239165Y-78983726D01*
X144300419Y-79098323D01*
X144338141Y-79222679D01*
X144351000Y-79353232D01*
X144351000Y-80726768D01*
X144338141Y-80857321D01*
X144300419Y-80981677D01*
X144239165Y-81096274D01*
X144156726Y-81196726D01*
X144056274Y-81279165D01*
X143941677Y-81340419D01*
X143817321Y-81378141D01*
X143686768Y-81391000D01*
X142313232Y-81391000D01*
X142182679Y-81378141D01*
X142058323Y-81340419D01*
X141943726Y-81279165D01*
X141843274Y-81196726D01*
X141760835Y-81096274D01*
X141699581Y-80981677D01*
X141661859Y-80857321D01*
X141649000Y-80726768D01*
X141649000Y-79353232D01*
X141661859Y-79222679D01*
X141699581Y-79098323D01*
X141760835Y-78983726D01*
X141843274Y-78883274D01*
X141943726Y-78800835D01*
X142058323Y-78739581D01*
X142182679Y-78701859D01*
X142313232Y-78689000D01*
X143686768Y-78689000D01*
X143817321Y-78701859D01*
X143817321Y-78701859D01*
G37*
G36*
X150044316Y-79529053D02*
G01*
X150092462Y-79543657D01*
X150136823Y-79567369D01*
X150175714Y-79599286D01*
X150207631Y-79638177D01*
X150231343Y-79682538D01*
X150245947Y-79730684D01*
X150251000Y-79781982D01*
X150251000Y-80343018D01*
X150245947Y-80394316D01*
X150231343Y-80442462D01*
X150207631Y-80486823D01*
X150175714Y-80525714D01*
X150136823Y-80557631D01*
X150092462Y-80581343D01*
X150044316Y-80595947D01*
X149993018Y-80601000D01*
X149006982Y-80601000D01*
X148955684Y-80595947D01*
X148907538Y-80581343D01*
X148863177Y-80557631D01*
X148824286Y-80525714D01*
X148792369Y-80486823D01*
X148768657Y-80442462D01*
X148754053Y-80394316D01*
X148749000Y-80343018D01*
X148749000Y-79781982D01*
X148754053Y-79730684D01*
X148768657Y-79682538D01*
X148792369Y-79638177D01*
X148824286Y-79599286D01*
X148863177Y-79567369D01*
X148907538Y-79543657D01*
X148955684Y-79529053D01*
X149006982Y-79524000D01*
X149993018Y-79524000D01*
X150044316Y-79529053D01*
X150044316Y-79529053D01*
G37*
G36*
X146044316Y-79529053D02*
G01*
X146092462Y-79543657D01*
X146136823Y-79567369D01*
X146175714Y-79599286D01*
X146207631Y-79638177D01*
X146231343Y-79682538D01*
X146245947Y-79730684D01*
X146251000Y-79781982D01*
X146251000Y-80343018D01*
X146245947Y-80394316D01*
X146231343Y-80442462D01*
X146207631Y-80486823D01*
X146175714Y-80525714D01*
X146136823Y-80557631D01*
X146092462Y-80581343D01*
X146044316Y-80595947D01*
X145993018Y-80601000D01*
X145006982Y-80601000D01*
X144955684Y-80595947D01*
X144907538Y-80581343D01*
X144863177Y-80557631D01*
X144824286Y-80525714D01*
X144792369Y-80486823D01*
X144768657Y-80442462D01*
X144754053Y-80394316D01*
X144749000Y-80343018D01*
X144749000Y-79781982D01*
X144754053Y-79730684D01*
X144768657Y-79682538D01*
X144792369Y-79638177D01*
X144824286Y-79599286D01*
X144863177Y-79567369D01*
X144907538Y-79543657D01*
X144955684Y-79529053D01*
X145006982Y-79524000D01*
X145993018Y-79524000D01*
X146044316Y-79529053D01*
X146044316Y-79529053D01*
G37*
G36*
X148044316Y-79529053D02*
G01*
X148092462Y-79543657D01*
X148136823Y-79567369D01*
X148175714Y-79599286D01*
X148207631Y-79638177D01*
X148231343Y-79682538D01*
X148245947Y-79730684D01*
X148251000Y-79781982D01*
X148251000Y-80343018D01*
X148245947Y-80394316D01*
X148231343Y-80442462D01*
X148207631Y-80486823D01*
X148175714Y-80525714D01*
X148136823Y-80557631D01*
X148092462Y-80581343D01*
X148044316Y-80595947D01*
X147993018Y-80601000D01*
X147006982Y-80601000D01*
X146955684Y-80595947D01*
X146907538Y-80581343D01*
X146863177Y-80557631D01*
X146824286Y-80525714D01*
X146792369Y-80486823D01*
X146768657Y-80442462D01*
X146754053Y-80394316D01*
X146749000Y-80343018D01*
X146749000Y-79781982D01*
X146754053Y-79730684D01*
X146768657Y-79682538D01*
X146792369Y-79638177D01*
X146824286Y-79599286D01*
X146863177Y-79567369D01*
X146907538Y-79543657D01*
X146955684Y-79529053D01*
X147006982Y-79524000D01*
X147993018Y-79524000D01*
X148044316Y-79529053D01*
X148044316Y-79529053D01*
G37*
G36*
X146044316Y-77904053D02*
G01*
X146092462Y-77918657D01*
X146136823Y-77942369D01*
X146175714Y-77974286D01*
X146207631Y-78013177D01*
X146231343Y-78057538D01*
X146245947Y-78105684D01*
X146251000Y-78156982D01*
X146251000Y-78718018D01*
X146245947Y-78769316D01*
X146231343Y-78817462D01*
X146207631Y-78861823D01*
X146175714Y-78900714D01*
X146136823Y-78932631D01*
X146092462Y-78956343D01*
X146044316Y-78970947D01*
X145993018Y-78976000D01*
X145006982Y-78976000D01*
X144955684Y-78970947D01*
X144907538Y-78956343D01*
X144863177Y-78932631D01*
X144824286Y-78900714D01*
X144792369Y-78861823D01*
X144768657Y-78817462D01*
X144754053Y-78769316D01*
X144749000Y-78718018D01*
X144749000Y-78156982D01*
X144754053Y-78105684D01*
X144768657Y-78057538D01*
X144792369Y-78013177D01*
X144824286Y-77974286D01*
X144863177Y-77942369D01*
X144907538Y-77918657D01*
X144955684Y-77904053D01*
X145006982Y-77899000D01*
X145993018Y-77899000D01*
X146044316Y-77904053D01*
X146044316Y-77904053D01*
G37*
G36*
X159544316Y-77904053D02*
G01*
X159592462Y-77918657D01*
X159636823Y-77942369D01*
X159675714Y-77974286D01*
X159707631Y-78013177D01*
X159731343Y-78057538D01*
X159745947Y-78105684D01*
X159751000Y-78156982D01*
X159751000Y-78718018D01*
X159745947Y-78769316D01*
X159731343Y-78817462D01*
X159707631Y-78861823D01*
X159675714Y-78900714D01*
X159636823Y-78932631D01*
X159592462Y-78956343D01*
X159544316Y-78970947D01*
X159493018Y-78976000D01*
X158506982Y-78976000D01*
X158455684Y-78970947D01*
X158407538Y-78956343D01*
X158363177Y-78932631D01*
X158324286Y-78900714D01*
X158292369Y-78861823D01*
X158268657Y-78817462D01*
X158254053Y-78769316D01*
X158249000Y-78718018D01*
X158249000Y-78156982D01*
X158254053Y-78105684D01*
X158268657Y-78057538D01*
X158292369Y-78013177D01*
X158324286Y-77974286D01*
X158363177Y-77942369D01*
X158407538Y-77918657D01*
X158455684Y-77904053D01*
X158506982Y-77899000D01*
X159493018Y-77899000D01*
X159544316Y-77904053D01*
X159544316Y-77904053D01*
G37*
G36*
X157544316Y-77904053D02*
G01*
X157592462Y-77918657D01*
X157636823Y-77942369D01*
X157675714Y-77974286D01*
X157707631Y-78013177D01*
X157731343Y-78057538D01*
X157745947Y-78105684D01*
X157751000Y-78156982D01*
X157751000Y-78718018D01*
X157745947Y-78769316D01*
X157731343Y-78817462D01*
X157707631Y-78861823D01*
X157675714Y-78900714D01*
X157636823Y-78932631D01*
X157592462Y-78956343D01*
X157544316Y-78970947D01*
X157493018Y-78976000D01*
X156506982Y-78976000D01*
X156455684Y-78970947D01*
X156407538Y-78956343D01*
X156363177Y-78932631D01*
X156324286Y-78900714D01*
X156292369Y-78861823D01*
X156268657Y-78817462D01*
X156254053Y-78769316D01*
X156249000Y-78718018D01*
X156249000Y-78156982D01*
X156254053Y-78105684D01*
X156268657Y-78057538D01*
X156292369Y-78013177D01*
X156324286Y-77974286D01*
X156363177Y-77942369D01*
X156407538Y-77918657D01*
X156455684Y-77904053D01*
X156506982Y-77899000D01*
X157493018Y-77899000D01*
X157544316Y-77904053D01*
X157544316Y-77904053D01*
G37*
G36*
X151544316Y-77904053D02*
G01*
X151592462Y-77918657D01*
X151636823Y-77942369D01*
X151675714Y-77974286D01*
X151707631Y-78013177D01*
X151731343Y-78057538D01*
X151745947Y-78105684D01*
X151751000Y-78156982D01*
X151751000Y-78718018D01*
X151745947Y-78769316D01*
X151731343Y-78817462D01*
X151707631Y-78861823D01*
X151675714Y-78900714D01*
X151636823Y-78932631D01*
X151592462Y-78956343D01*
X151544316Y-78970947D01*
X151493018Y-78976000D01*
X150506982Y-78976000D01*
X150455684Y-78970947D01*
X150407538Y-78956343D01*
X150363177Y-78932631D01*
X150324286Y-78900714D01*
X150292369Y-78861823D01*
X150268657Y-78817462D01*
X150254053Y-78769316D01*
X150249000Y-78718018D01*
X150249000Y-78156982D01*
X150254053Y-78105684D01*
X150268657Y-78057538D01*
X150292369Y-78013177D01*
X150324286Y-77974286D01*
X150363177Y-77942369D01*
X150407538Y-77918657D01*
X150455684Y-77904053D01*
X150506982Y-77899000D01*
X151493018Y-77899000D01*
X151544316Y-77904053D01*
X151544316Y-77904053D01*
G37*
G36*
X148044316Y-77904053D02*
G01*
X148092462Y-77918657D01*
X148136823Y-77942369D01*
X148175714Y-77974286D01*
X148207631Y-78013177D01*
X148231343Y-78057538D01*
X148245947Y-78105684D01*
X148251000Y-78156982D01*
X148251000Y-78718018D01*
X148245947Y-78769316D01*
X148231343Y-78817462D01*
X148207631Y-78861823D01*
X148175714Y-78900714D01*
X148136823Y-78932631D01*
X148092462Y-78956343D01*
X148044316Y-78970947D01*
X147993018Y-78976000D01*
X147006982Y-78976000D01*
X146955684Y-78970947D01*
X146907538Y-78956343D01*
X146863177Y-78932631D01*
X146824286Y-78900714D01*
X146792369Y-78861823D01*
X146768657Y-78817462D01*
X146754053Y-78769316D01*
X146749000Y-78718018D01*
X146749000Y-78156982D01*
X146754053Y-78105684D01*
X146768657Y-78057538D01*
X146792369Y-78013177D01*
X146824286Y-77974286D01*
X146863177Y-77942369D01*
X146907538Y-77918657D01*
X146955684Y-77904053D01*
X147006982Y-77899000D01*
X147993018Y-77899000D01*
X148044316Y-77904053D01*
X148044316Y-77904053D01*
G37*
G36*
X155539716Y-78077492D02*
G01*
X155572615Y-78087471D01*
X155602938Y-78103679D01*
X155629512Y-78125488D01*
X155651321Y-78152062D01*
X155667529Y-78182385D01*
X155677508Y-78215284D01*
X155681000Y-78250733D01*
X155681000Y-78649267D01*
X155677508Y-78684716D01*
X155667529Y-78717615D01*
X155651321Y-78747938D01*
X155629512Y-78774512D01*
X155602938Y-78796321D01*
X155572615Y-78812529D01*
X155539716Y-78822508D01*
X155504267Y-78826000D01*
X154695733Y-78826000D01*
X154660284Y-78822508D01*
X154627385Y-78812529D01*
X154597062Y-78796321D01*
X154570488Y-78774512D01*
X154548679Y-78747938D01*
X154532471Y-78717615D01*
X154522492Y-78684716D01*
X154519000Y-78649267D01*
X154519000Y-78250733D01*
X154522492Y-78215284D01*
X154532471Y-78182385D01*
X154548679Y-78152062D01*
X154570488Y-78125488D01*
X154597062Y-78103679D01*
X154627385Y-78087471D01*
X154660284Y-78077492D01*
X154695733Y-78074000D01*
X155504267Y-78074000D01*
X155539716Y-78077492D01*
X155539716Y-78077492D01*
G37*
G36*
X153339716Y-78077492D02*
G01*
X153372615Y-78087471D01*
X153402938Y-78103679D01*
X153429512Y-78125488D01*
X153451321Y-78152062D01*
X153467529Y-78182385D01*
X153477508Y-78215284D01*
X153481000Y-78250733D01*
X153481000Y-78649267D01*
X153477508Y-78684716D01*
X153467529Y-78717615D01*
X153451321Y-78747938D01*
X153429512Y-78774512D01*
X153402938Y-78796321D01*
X153372615Y-78812529D01*
X153339716Y-78822508D01*
X153304267Y-78826000D01*
X152495733Y-78826000D01*
X152460284Y-78822508D01*
X152427385Y-78812529D01*
X152397062Y-78796321D01*
X152370488Y-78774512D01*
X152348679Y-78747938D01*
X152332471Y-78717615D01*
X152322492Y-78684716D01*
X152319000Y-78649267D01*
X152319000Y-78250733D01*
X152322492Y-78215284D01*
X152332471Y-78182385D01*
X152348679Y-78152062D01*
X152370488Y-78125488D01*
X152397062Y-78103679D01*
X152427385Y-78087471D01*
X152460284Y-78077492D01*
X152495733Y-78074000D01*
X153304267Y-78074000D01*
X153339716Y-78077492D01*
X153339716Y-78077492D01*
G37*
G36*
X155539716Y-77127492D02*
G01*
X155572615Y-77137471D01*
X155602938Y-77153679D01*
X155629512Y-77175488D01*
X155651321Y-77202062D01*
X155667529Y-77232385D01*
X155677508Y-77265284D01*
X155681000Y-77300733D01*
X155681000Y-77699267D01*
X155677508Y-77734716D01*
X155667529Y-77767615D01*
X155651321Y-77797938D01*
X155629512Y-77824512D01*
X155602938Y-77846321D01*
X155572615Y-77862529D01*
X155539716Y-77872508D01*
X155504267Y-77876000D01*
X154695733Y-77876000D01*
X154660284Y-77872508D01*
X154627385Y-77862529D01*
X154597062Y-77846321D01*
X154570488Y-77824512D01*
X154548679Y-77797938D01*
X154532471Y-77767615D01*
X154522492Y-77734716D01*
X154519000Y-77699267D01*
X154519000Y-77300733D01*
X154522492Y-77265284D01*
X154532471Y-77232385D01*
X154548679Y-77202062D01*
X154570488Y-77175488D01*
X154597062Y-77153679D01*
X154627385Y-77137471D01*
X154660284Y-77127492D01*
X154695733Y-77124000D01*
X155504267Y-77124000D01*
X155539716Y-77127492D01*
X155539716Y-77127492D01*
G37*
G36*
X157544316Y-76029053D02*
G01*
X157592462Y-76043657D01*
X157636823Y-76067369D01*
X157675714Y-76099286D01*
X157707631Y-76138177D01*
X157731343Y-76182538D01*
X157745947Y-76230684D01*
X157751000Y-76281982D01*
X157751000Y-76843018D01*
X157745947Y-76894316D01*
X157731343Y-76942462D01*
X157707631Y-76986823D01*
X157675714Y-77025714D01*
X157636823Y-77057631D01*
X157592462Y-77081343D01*
X157544316Y-77095947D01*
X157493018Y-77101000D01*
X156506982Y-77101000D01*
X156455684Y-77095947D01*
X156407538Y-77081343D01*
X156363177Y-77057631D01*
X156324286Y-77025714D01*
X156292369Y-76986823D01*
X156268657Y-76942462D01*
X156254053Y-76894316D01*
X156249000Y-76843018D01*
X156249000Y-76281982D01*
X156254053Y-76230684D01*
X156268657Y-76182538D01*
X156292369Y-76138177D01*
X156324286Y-76099286D01*
X156363177Y-76067369D01*
X156407538Y-76043657D01*
X156455684Y-76029053D01*
X156506982Y-76024000D01*
X157493018Y-76024000D01*
X157544316Y-76029053D01*
X157544316Y-76029053D01*
G37*
G36*
X146044316Y-76029053D02*
G01*
X146092462Y-76043657D01*
X146136823Y-76067369D01*
X146175714Y-76099286D01*
X146207631Y-76138177D01*
X146231343Y-76182538D01*
X146245947Y-76230684D01*
X146251000Y-76281982D01*
X146251000Y-76843018D01*
X146245947Y-76894316D01*
X146231343Y-76942462D01*
X146207631Y-76986823D01*
X146175714Y-77025714D01*
X146136823Y-77057631D01*
X146092462Y-77081343D01*
X146044316Y-77095947D01*
X145993018Y-77101000D01*
X145006982Y-77101000D01*
X144955684Y-77095947D01*
X144907538Y-77081343D01*
X144863177Y-77057631D01*
X144824286Y-77025714D01*
X144792369Y-76986823D01*
X144768657Y-76942462D01*
X144754053Y-76894316D01*
X144749000Y-76843018D01*
X144749000Y-76281982D01*
X144754053Y-76230684D01*
X144768657Y-76182538D01*
X144792369Y-76138177D01*
X144824286Y-76099286D01*
X144863177Y-76067369D01*
X144907538Y-76043657D01*
X144955684Y-76029053D01*
X145006982Y-76024000D01*
X145993018Y-76024000D01*
X146044316Y-76029053D01*
X146044316Y-76029053D01*
G37*
G36*
X148044316Y-76029053D02*
G01*
X148092462Y-76043657D01*
X148136823Y-76067369D01*
X148175714Y-76099286D01*
X148207631Y-76138177D01*
X148231343Y-76182538D01*
X148245947Y-76230684D01*
X148251000Y-76281982D01*
X148251000Y-76843018D01*
X148245947Y-76894316D01*
X148231343Y-76942462D01*
X148207631Y-76986823D01*
X148175714Y-77025714D01*
X148136823Y-77057631D01*
X148092462Y-77081343D01*
X148044316Y-77095947D01*
X147993018Y-77101000D01*
X147006982Y-77101000D01*
X146955684Y-77095947D01*
X146907538Y-77081343D01*
X146863177Y-77057631D01*
X146824286Y-77025714D01*
X146792369Y-76986823D01*
X146768657Y-76942462D01*
X146754053Y-76894316D01*
X146749000Y-76843018D01*
X146749000Y-76281982D01*
X146754053Y-76230684D01*
X146768657Y-76182538D01*
X146792369Y-76138177D01*
X146824286Y-76099286D01*
X146863177Y-76067369D01*
X146907538Y-76043657D01*
X146955684Y-76029053D01*
X147006982Y-76024000D01*
X147993018Y-76024000D01*
X148044316Y-76029053D01*
X148044316Y-76029053D01*
G37*
G36*
X151544316Y-76029053D02*
G01*
X151592462Y-76043657D01*
X151636823Y-76067369D01*
X151675714Y-76099286D01*
X151707631Y-76138177D01*
X151731343Y-76182538D01*
X151745947Y-76230684D01*
X151751000Y-76281982D01*
X151751000Y-76843018D01*
X151745947Y-76894316D01*
X151731343Y-76942462D01*
X151707631Y-76986823D01*
X151675714Y-77025714D01*
X151636823Y-77057631D01*
X151592462Y-77081343D01*
X151544316Y-77095947D01*
X151493018Y-77101000D01*
X150506982Y-77101000D01*
X150455684Y-77095947D01*
X150407538Y-77081343D01*
X150363177Y-77057631D01*
X150324286Y-77025714D01*
X150292369Y-76986823D01*
X150268657Y-76942462D01*
X150254053Y-76894316D01*
X150249000Y-76843018D01*
X150249000Y-76281982D01*
X150254053Y-76230684D01*
X150268657Y-76182538D01*
X150292369Y-76138177D01*
X150324286Y-76099286D01*
X150363177Y-76067369D01*
X150407538Y-76043657D01*
X150455684Y-76029053D01*
X150506982Y-76024000D01*
X151493018Y-76024000D01*
X151544316Y-76029053D01*
X151544316Y-76029053D01*
G37*
G36*
X159544316Y-76029053D02*
G01*
X159592462Y-76043657D01*
X159636823Y-76067369D01*
X159675714Y-76099286D01*
X159707631Y-76138177D01*
X159731343Y-76182538D01*
X159745947Y-76230684D01*
X159751000Y-76281982D01*
X159751000Y-76843018D01*
X159745947Y-76894316D01*
X159731343Y-76942462D01*
X159707631Y-76986823D01*
X159675714Y-77025714D01*
X159636823Y-77057631D01*
X159592462Y-77081343D01*
X159544316Y-77095947D01*
X159493018Y-77101000D01*
X158506982Y-77101000D01*
X158455684Y-77095947D01*
X158407538Y-77081343D01*
X158363177Y-77057631D01*
X158324286Y-77025714D01*
X158292369Y-76986823D01*
X158268657Y-76942462D01*
X158254053Y-76894316D01*
X158249000Y-76843018D01*
X158249000Y-76281982D01*
X158254053Y-76230684D01*
X158268657Y-76182538D01*
X158292369Y-76138177D01*
X158324286Y-76099286D01*
X158363177Y-76067369D01*
X158407538Y-76043657D01*
X158455684Y-76029053D01*
X158506982Y-76024000D01*
X159493018Y-76024000D01*
X159544316Y-76029053D01*
X159544316Y-76029053D01*
G37*
G36*
X153339716Y-76177492D02*
G01*
X153372615Y-76187471D01*
X153402938Y-76203679D01*
X153429512Y-76225488D01*
X153451321Y-76252062D01*
X153467529Y-76282385D01*
X153477508Y-76315284D01*
X153481000Y-76350733D01*
X153481000Y-76749267D01*
X153477508Y-76784716D01*
X153467529Y-76817615D01*
X153451321Y-76847938D01*
X153429512Y-76874512D01*
X153402938Y-76896321D01*
X153372615Y-76912529D01*
X153339716Y-76922508D01*
X153304267Y-76926000D01*
X152495733Y-76926000D01*
X152460284Y-76922508D01*
X152427385Y-76912529D01*
X152397062Y-76896321D01*
X152370488Y-76874512D01*
X152348679Y-76847938D01*
X152332471Y-76817615D01*
X152322492Y-76784716D01*
X152319000Y-76749267D01*
X152319000Y-76350733D01*
X152322492Y-76315284D01*
X152332471Y-76282385D01*
X152348679Y-76252062D01*
X152370488Y-76225488D01*
X152397062Y-76203679D01*
X152427385Y-76187471D01*
X152460284Y-76177492D01*
X152495733Y-76174000D01*
X153304267Y-76174000D01*
X153339716Y-76177492D01*
X153339716Y-76177492D01*
G37*
G36*
X155539716Y-76177492D02*
G01*
X155572615Y-76187471D01*
X155602938Y-76203679D01*
X155629512Y-76225488D01*
X155651321Y-76252062D01*
X155667529Y-76282385D01*
X155677508Y-76315284D01*
X155681000Y-76350733D01*
X155681000Y-76749267D01*
X155677508Y-76784716D01*
X155667529Y-76817615D01*
X155651321Y-76847938D01*
X155629512Y-76874512D01*
X155602938Y-76896321D01*
X155572615Y-76912529D01*
X155539716Y-76922508D01*
X155504267Y-76926000D01*
X154695733Y-76926000D01*
X154660284Y-76922508D01*
X154627385Y-76912529D01*
X154597062Y-76896321D01*
X154570488Y-76874512D01*
X154548679Y-76847938D01*
X154532471Y-76817615D01*
X154522492Y-76784716D01*
X154519000Y-76749267D01*
X154519000Y-76350733D01*
X154522492Y-76315284D01*
X154532471Y-76282385D01*
X154548679Y-76252062D01*
X154570488Y-76225488D01*
X154597062Y-76203679D01*
X154627385Y-76187471D01*
X154660284Y-76177492D01*
X154695733Y-76174000D01*
X155504267Y-76174000D01*
X155539716Y-76177492D01*
X155539716Y-76177492D01*
G37*
G36*
X143394072Y-73660918D02*
G01*
X143639939Y-73762759D01*
X143861212Y-73910610D01*
X144049390Y-74098788D01*
X144197241Y-74320061D01*
X144299082Y-74565928D01*
X144351000Y-74826938D01*
X144351000Y-75093062D01*
X144299082Y-75354072D01*
X144197241Y-75599939D01*
X144049390Y-75821212D01*
X143861212Y-76009390D01*
X143639939Y-76157241D01*
X143394072Y-76259082D01*
X143133062Y-76311000D01*
X142866938Y-76311000D01*
X142605928Y-76259082D01*
X142360061Y-76157241D01*
X142138788Y-76009390D01*
X141950610Y-75821212D01*
X141802759Y-75599939D01*
X141700918Y-75354072D01*
X141649000Y-75093062D01*
X141649000Y-74826938D01*
X141700918Y-74565928D01*
X141802759Y-74320061D01*
X141950610Y-74098788D01*
X142138788Y-73910610D01*
X142360061Y-73762759D01*
X142605928Y-73660918D01*
X142866938Y-73609000D01*
X143133062Y-73609000D01*
X143394072Y-73660918D01*
X143394072Y-73660918D01*
G37*
G36*
X148044316Y-74404053D02*
G01*
X148092462Y-74418657D01*
X148136823Y-74442369D01*
X148175714Y-74474286D01*
X148207631Y-74513177D01*
X148231343Y-74557538D01*
X148245947Y-74605684D01*
X148251000Y-74656982D01*
X148251000Y-75218018D01*
X148245947Y-75269316D01*
X148231343Y-75317462D01*
X148207631Y-75361823D01*
X148175714Y-75400714D01*
X148136823Y-75432631D01*
X148092462Y-75456343D01*
X148044316Y-75470947D01*
X147993018Y-75476000D01*
X147006982Y-75476000D01*
X146955684Y-75470947D01*
X146907538Y-75456343D01*
X146863177Y-75432631D01*
X146824286Y-75400714D01*
X146792369Y-75361823D01*
X146768657Y-75317462D01*
X146754053Y-75269316D01*
X146749000Y-75218018D01*
X146749000Y-74656982D01*
X146754053Y-74605684D01*
X146768657Y-74557538D01*
X146792369Y-74513177D01*
X146824286Y-74474286D01*
X146863177Y-74442369D01*
X146907538Y-74418657D01*
X146955684Y-74404053D01*
X147006982Y-74399000D01*
X147993018Y-74399000D01*
X148044316Y-74404053D01*
X148044316Y-74404053D01*
G37*
G36*
X146044316Y-74404053D02*
G01*
X146092462Y-74418657D01*
X146136823Y-74442369D01*
X146175714Y-74474286D01*
X146207631Y-74513177D01*
X146231343Y-74557538D01*
X146245947Y-74605684D01*
X146251000Y-74656982D01*
X146251000Y-75218018D01*
X146245947Y-75269316D01*
X146231343Y-75317462D01*
X146207631Y-75361823D01*
X146175714Y-75400714D01*
X146136823Y-75432631D01*
X146092462Y-75456343D01*
X146044316Y-75470947D01*
X145993018Y-75476000D01*
X145006982Y-75476000D01*
X144955684Y-75470947D01*
X144907538Y-75456343D01*
X144863177Y-75432631D01*
X144824286Y-75400714D01*
X144792369Y-75361823D01*
X144768657Y-75317462D01*
X144754053Y-75269316D01*
X144749000Y-75218018D01*
X144749000Y-74656982D01*
X144754053Y-74605684D01*
X144768657Y-74557538D01*
X144792369Y-74513177D01*
X144824286Y-74474286D01*
X144863177Y-74442369D01*
X144907538Y-74418657D01*
X144955684Y-74404053D01*
X145006982Y-74399000D01*
X145993018Y-74399000D01*
X146044316Y-74404053D01*
X146044316Y-74404053D01*
G37*
G36*
X148044316Y-72529053D02*
G01*
X148092462Y-72543657D01*
X148136823Y-72567369D01*
X148175714Y-72599286D01*
X148207631Y-72638177D01*
X148231343Y-72682538D01*
X148245947Y-72730684D01*
X148251000Y-72781982D01*
X148251000Y-73343018D01*
X148245947Y-73394316D01*
X148231343Y-73442462D01*
X148207631Y-73486823D01*
X148175714Y-73525714D01*
X148136823Y-73557631D01*
X148092462Y-73581343D01*
X148044316Y-73595947D01*
X147993018Y-73601000D01*
X147006982Y-73601000D01*
X146955684Y-73595947D01*
X146907538Y-73581343D01*
X146863177Y-73557631D01*
X146824286Y-73525714D01*
X146792369Y-73486823D01*
X146768657Y-73442462D01*
X146754053Y-73394316D01*
X146749000Y-73343018D01*
X146749000Y-72781982D01*
X146754053Y-72730684D01*
X146768657Y-72682538D01*
X146792369Y-72638177D01*
X146824286Y-72599286D01*
X146863177Y-72567369D01*
X146907538Y-72543657D01*
X146955684Y-72529053D01*
X147006982Y-72524000D01*
X147993018Y-72524000D01*
X148044316Y-72529053D01*
X148044316Y-72529053D01*
G37*
G36*
X146044316Y-72529053D02*
G01*
X146092462Y-72543657D01*
X146136823Y-72567369D01*
X146175714Y-72599286D01*
X146207631Y-72638177D01*
X146231343Y-72682538D01*
X146245947Y-72730684D01*
X146251000Y-72781982D01*
X146251000Y-73343018D01*
X146245947Y-73394316D01*
X146231343Y-73442462D01*
X146207631Y-73486823D01*
X146175714Y-73525714D01*
X146136823Y-73557631D01*
X146092462Y-73581343D01*
X146044316Y-73595947D01*
X145993018Y-73601000D01*
X145006982Y-73601000D01*
X144955684Y-73595947D01*
X144907538Y-73581343D01*
X144863177Y-73557631D01*
X144824286Y-73525714D01*
X144792369Y-73486823D01*
X144768657Y-73442462D01*
X144754053Y-73394316D01*
X144749000Y-73343018D01*
X144749000Y-72781982D01*
X144754053Y-72730684D01*
X144768657Y-72682538D01*
X144792369Y-72638177D01*
X144824286Y-72599286D01*
X144863177Y-72567369D01*
X144907538Y-72543657D01*
X144955684Y-72529053D01*
X145006982Y-72524000D01*
X145993018Y-72524000D01*
X146044316Y-72529053D01*
X146044316Y-72529053D01*
G37*
G36*
X93248228Y-70681703D02*
G01*
X93403100Y-70745853D01*
X93542481Y-70838985D01*
X93661015Y-70957519D01*
X93754147Y-71096900D01*
X93818297Y-71251772D01*
X93851000Y-71416184D01*
X93851000Y-71583816D01*
X93818297Y-71748228D01*
X93754147Y-71903100D01*
X93661015Y-72042481D01*
X93542481Y-72161015D01*
X93403100Y-72254147D01*
X93248228Y-72318297D01*
X93083816Y-72351000D01*
X92916184Y-72351000D01*
X92751772Y-72318297D01*
X92596900Y-72254147D01*
X92457519Y-72161015D01*
X92338985Y-72042481D01*
X92245853Y-71903100D01*
X92181703Y-71748228D01*
X92149000Y-71583816D01*
X92149000Y-71416184D01*
X92181703Y-71251772D01*
X92245853Y-71096900D01*
X92338985Y-70957519D01*
X92457519Y-70838985D01*
X92596900Y-70745853D01*
X92751772Y-70681703D01*
X92916184Y-70649000D01*
X93083816Y-70649000D01*
X93248228Y-70681703D01*
X93248228Y-70681703D01*
G37*
G36*
X157248228Y-70681703D02*
G01*
X157403100Y-70745853D01*
X157542481Y-70838985D01*
X157661015Y-70957519D01*
X157754147Y-71096900D01*
X157818297Y-71251772D01*
X157851000Y-71416184D01*
X157851000Y-71583816D01*
X157818297Y-71748228D01*
X157754147Y-71903100D01*
X157661015Y-72042481D01*
X157542481Y-72161015D01*
X157403100Y-72254147D01*
X157248228Y-72318297D01*
X157083816Y-72351000D01*
X156916184Y-72351000D01*
X156751772Y-72318297D01*
X156596900Y-72254147D01*
X156457519Y-72161015D01*
X156338985Y-72042481D01*
X156245853Y-71903100D01*
X156181703Y-71748228D01*
X156149000Y-71583816D01*
X156149000Y-71416184D01*
X156181703Y-71251772D01*
X156245853Y-71096900D01*
X156338985Y-70957519D01*
X156457519Y-70838985D01*
X156596900Y-70745853D01*
X156751772Y-70681703D01*
X156916184Y-70649000D01*
X157083816Y-70649000D01*
X157248228Y-70681703D01*
X157248228Y-70681703D01*
G37*
G36*
X143248228Y-70681703D02*
G01*
X143403100Y-70745853D01*
X143542481Y-70838985D01*
X143661015Y-70957519D01*
X143754147Y-71096900D01*
X143818297Y-71251772D01*
X143851000Y-71416184D01*
X143851000Y-71583816D01*
X143818297Y-71748228D01*
X143754147Y-71903100D01*
X143661015Y-72042481D01*
X143542481Y-72161015D01*
X143403100Y-72254147D01*
X143248228Y-72318297D01*
X143083816Y-72351000D01*
X142916184Y-72351000D01*
X142751772Y-72318297D01*
X142596900Y-72254147D01*
X142457519Y-72161015D01*
X142338985Y-72042481D01*
X142245853Y-71903100D01*
X142181703Y-71748228D01*
X142149000Y-71583816D01*
X142149000Y-71416184D01*
X142181703Y-71251772D01*
X142245853Y-71096900D01*
X142338985Y-70957519D01*
X142457519Y-70838985D01*
X142596900Y-70745853D01*
X142751772Y-70681703D01*
X142916184Y-70649000D01*
X143083816Y-70649000D01*
X143248228Y-70681703D01*
X143248228Y-70681703D01*
G37*
G36*
X107248228Y-70681703D02*
G01*
X107403100Y-70745853D01*
X107542481Y-70838985D01*
X107661015Y-70957519D01*
X107754147Y-71096900D01*
X107818297Y-71251772D01*
X107851000Y-71416184D01*
X107851000Y-71583816D01*
X107818297Y-71748228D01*
X107754147Y-71903100D01*
X107661015Y-72042481D01*
X107542481Y-72161015D01*
X107403100Y-72254147D01*
X107248228Y-72318297D01*
X107083816Y-72351000D01*
X106916184Y-72351000D01*
X106751772Y-72318297D01*
X106596900Y-72254147D01*
X106457519Y-72161015D01*
X106338985Y-72042481D01*
X106245853Y-71903100D01*
X106181703Y-71748228D01*
X106149000Y-71583816D01*
X106149000Y-71416184D01*
X106181703Y-71251772D01*
X106245853Y-71096900D01*
X106338985Y-70957519D01*
X106457519Y-70838985D01*
X106596900Y-70745853D01*
X106751772Y-70681703D01*
X106916184Y-70649000D01*
X107083816Y-70649000D01*
X107248228Y-70681703D01*
X107248228Y-70681703D01*
G37*
G36*
X168616967Y-64364410D02*
G01*
X168653456Y-64379524D01*
X168689944Y-64394638D01*
X168755623Y-64438524D01*
X168811476Y-64494377D01*
X168855362Y-64560056D01*
X168870475Y-64596544D01*
X168885590Y-64633033D01*
X168901000Y-64710505D01*
X168901000Y-64789495D01*
X168885590Y-64866967D01*
X168870476Y-64903456D01*
X168855362Y-64939944D01*
X168811476Y-65005623D01*
X168755623Y-65061476D01*
X168689944Y-65105362D01*
X168653456Y-65120476D01*
X168616967Y-65135590D01*
X168539495Y-65151000D01*
X168460505Y-65151000D01*
X168383033Y-65135590D01*
X168346544Y-65120476D01*
X168310056Y-65105362D01*
X168244377Y-65061476D01*
X168188524Y-65005623D01*
X168144638Y-64939944D01*
X168129524Y-64903456D01*
X168114410Y-64866967D01*
X168099000Y-64789495D01*
X168099000Y-64710505D01*
X168114410Y-64633033D01*
X168129525Y-64596544D01*
X168144638Y-64560056D01*
X168188524Y-64494377D01*
X168244377Y-64438524D01*
X168310056Y-64394638D01*
X168346544Y-64379524D01*
X168383033Y-64364410D01*
X168460505Y-64349000D01*
X168539495Y-64349000D01*
X168616967Y-64364410D01*
X168616967Y-64364410D01*
G37*
G36*
X83616967Y-64364410D02*
G01*
X83653456Y-64379524D01*
X83689944Y-64394638D01*
X83755623Y-64438524D01*
X83811476Y-64494377D01*
X83855362Y-64560056D01*
X83870475Y-64596544D01*
X83885590Y-64633033D01*
X83901000Y-64710505D01*
X83901000Y-64789495D01*
X83885590Y-64866967D01*
X83870476Y-64903456D01*
X83855362Y-64939944D01*
X83811476Y-65005623D01*
X83755623Y-65061476D01*
X83689944Y-65105362D01*
X83653456Y-65120476D01*
X83616967Y-65135590D01*
X83539495Y-65151000D01*
X83460505Y-65151000D01*
X83383033Y-65135590D01*
X83346544Y-65120476D01*
X83310056Y-65105362D01*
X83244377Y-65061476D01*
X83188524Y-65005623D01*
X83144638Y-64939944D01*
X83129525Y-64903456D01*
X83114410Y-64866967D01*
X83099000Y-64789495D01*
X83099000Y-64710505D01*
X83114410Y-64633033D01*
X83129525Y-64596544D01*
X83144638Y-64560056D01*
X83188524Y-64494377D01*
X83244377Y-64438524D01*
X83310056Y-64394638D01*
X83346544Y-64379524D01*
X83383033Y-64364410D01*
X83460505Y-64349000D01*
X83539495Y-64349000D01*
X83616967Y-64364410D01*
X83616967Y-64364410D01*
G37*
G36*
X167616967Y-64364410D02*
G01*
X167653456Y-64379524D01*
X167689944Y-64394638D01*
X167755623Y-64438524D01*
X167811476Y-64494377D01*
X167855362Y-64560056D01*
X167870475Y-64596544D01*
X167885590Y-64633033D01*
X167901000Y-64710505D01*
X167901000Y-64789495D01*
X167885590Y-64866967D01*
X167870476Y-64903456D01*
X167855362Y-64939944D01*
X167811476Y-65005623D01*
X167755623Y-65061476D01*
X167689944Y-65105362D01*
X167653456Y-65120476D01*
X167616967Y-65135590D01*
X167539495Y-65151000D01*
X167460505Y-65151000D01*
X167383033Y-65135590D01*
X167346544Y-65120476D01*
X167310056Y-65105362D01*
X167244377Y-65061476D01*
X167188524Y-65005623D01*
X167144638Y-64939944D01*
X167129524Y-64903456D01*
X167114410Y-64866967D01*
X167099000Y-64789495D01*
X167099000Y-64710505D01*
X167114410Y-64633033D01*
X167129525Y-64596544D01*
X167144638Y-64560056D01*
X167188524Y-64494377D01*
X167244377Y-64438524D01*
X167310056Y-64394638D01*
X167346544Y-64379524D01*
X167383033Y-64364410D01*
X167460505Y-64349000D01*
X167539495Y-64349000D01*
X167616967Y-64364410D01*
X167616967Y-64364410D01*
G37*
G36*
X82616967Y-64364410D02*
G01*
X82653456Y-64379524D01*
X82689944Y-64394638D01*
X82755623Y-64438524D01*
X82811476Y-64494377D01*
X82855362Y-64560056D01*
X82870475Y-64596544D01*
X82885590Y-64633033D01*
X82901000Y-64710505D01*
X82901000Y-64789495D01*
X82885590Y-64866967D01*
X82870476Y-64903456D01*
X82855362Y-64939944D01*
X82811476Y-65005623D01*
X82755623Y-65061476D01*
X82689944Y-65105362D01*
X82653456Y-65120476D01*
X82616967Y-65135590D01*
X82539495Y-65151000D01*
X82460505Y-65151000D01*
X82383033Y-65135590D01*
X82346544Y-65120476D01*
X82310056Y-65105362D01*
X82244377Y-65061476D01*
X82188524Y-65005623D01*
X82144638Y-64939944D01*
X82129525Y-64903456D01*
X82114410Y-64866967D01*
X82099000Y-64789495D01*
X82099000Y-64710505D01*
X82114410Y-64633033D01*
X82129525Y-64596544D01*
X82144638Y-64560056D01*
X82188524Y-64494377D01*
X82244377Y-64438524D01*
X82310056Y-64394638D01*
X82346544Y-64379524D01*
X82383033Y-64364410D01*
X82460505Y-64349000D01*
X82539495Y-64349000D01*
X82616967Y-64364410D01*
X82616967Y-64364410D01*
G37*
G36*
X166616967Y-64364410D02*
G01*
X166653456Y-64379524D01*
X166689944Y-64394638D01*
X166755623Y-64438524D01*
X166811476Y-64494377D01*
X166855362Y-64560056D01*
X166870475Y-64596544D01*
X166885590Y-64633033D01*
X166901000Y-64710505D01*
X166901000Y-64789495D01*
X166885590Y-64866967D01*
X166870476Y-64903456D01*
X166855362Y-64939944D01*
X166811476Y-65005623D01*
X166755623Y-65061476D01*
X166689944Y-65105362D01*
X166653456Y-65120476D01*
X166616967Y-65135590D01*
X166539495Y-65151000D01*
X166460505Y-65151000D01*
X166383033Y-65135590D01*
X166346544Y-65120476D01*
X166310056Y-65105362D01*
X166244377Y-65061476D01*
X166188524Y-65005623D01*
X166144638Y-64939944D01*
X166129524Y-64903456D01*
X166114410Y-64866967D01*
X166099000Y-64789495D01*
X166099000Y-64710505D01*
X166114410Y-64633033D01*
X166129525Y-64596544D01*
X166144638Y-64560056D01*
X166188524Y-64494377D01*
X166244377Y-64438524D01*
X166310056Y-64394638D01*
X166346544Y-64379524D01*
X166383033Y-64364410D01*
X166460505Y-64349000D01*
X166539495Y-64349000D01*
X166616967Y-64364410D01*
X166616967Y-64364410D01*
G37*
G36*
X81616967Y-64364410D02*
G01*
X81653456Y-64379524D01*
X81689944Y-64394638D01*
X81755623Y-64438524D01*
X81811476Y-64494377D01*
X81855362Y-64560056D01*
X81870475Y-64596544D01*
X81885590Y-64633033D01*
X81901000Y-64710505D01*
X81901000Y-64789495D01*
X81885590Y-64866967D01*
X81870476Y-64903456D01*
X81855362Y-64939944D01*
X81811476Y-65005623D01*
X81755623Y-65061476D01*
X81689944Y-65105362D01*
X81653456Y-65120476D01*
X81616967Y-65135590D01*
X81539495Y-65151000D01*
X81460505Y-65151000D01*
X81383033Y-65135590D01*
X81346544Y-65120476D01*
X81310056Y-65105362D01*
X81244377Y-65061476D01*
X81188524Y-65005623D01*
X81144638Y-64939944D01*
X81129525Y-64903456D01*
X81114410Y-64866967D01*
X81099000Y-64789495D01*
X81099000Y-64710505D01*
X81114410Y-64633033D01*
X81129525Y-64596544D01*
X81144638Y-64560056D01*
X81188524Y-64494377D01*
X81244377Y-64438524D01*
X81310056Y-64394638D01*
X81346544Y-64379524D01*
X81383033Y-64364410D01*
X81460505Y-64349000D01*
X81539495Y-64349000D01*
X81616967Y-64364410D01*
X81616967Y-64364410D01*
G37*
G36*
X168616967Y-61364410D02*
G01*
X168653456Y-61379525D01*
X168689944Y-61394638D01*
X168755623Y-61438524D01*
X168811476Y-61494377D01*
X168855362Y-61560056D01*
X168870475Y-61596544D01*
X168885590Y-61633033D01*
X168901000Y-61710505D01*
X168901000Y-61789495D01*
X168885590Y-61866967D01*
X168870476Y-61903456D01*
X168855362Y-61939944D01*
X168811476Y-62005623D01*
X168755623Y-62061476D01*
X168689944Y-62105362D01*
X168653456Y-62120476D01*
X168616967Y-62135590D01*
X168539495Y-62151000D01*
X168460505Y-62151000D01*
X168383033Y-62135590D01*
X168346544Y-62120476D01*
X168310056Y-62105362D01*
X168244377Y-62061476D01*
X168188524Y-62005623D01*
X168144638Y-61939944D01*
X168129524Y-61903456D01*
X168114410Y-61866967D01*
X168099000Y-61789495D01*
X168099000Y-61710505D01*
X168114410Y-61633033D01*
X168129525Y-61596544D01*
X168144638Y-61560056D01*
X168188524Y-61494377D01*
X168244377Y-61438524D01*
X168310056Y-61394638D01*
X168346544Y-61379524D01*
X168383033Y-61364410D01*
X168460505Y-61349000D01*
X168539495Y-61349000D01*
X168616967Y-61364410D01*
X168616967Y-61364410D01*
G37*
G36*
X167616967Y-61364410D02*
G01*
X167653456Y-61379525D01*
X167689944Y-61394638D01*
X167755623Y-61438524D01*
X167811476Y-61494377D01*
X167855362Y-61560056D01*
X167870475Y-61596544D01*
X167885590Y-61633033D01*
X167901000Y-61710505D01*
X167901000Y-61789495D01*
X167885590Y-61866967D01*
X167870476Y-61903456D01*
X167855362Y-61939944D01*
X167811476Y-62005623D01*
X167755623Y-62061476D01*
X167689944Y-62105362D01*
X167653456Y-62120476D01*
X167616967Y-62135590D01*
X167539495Y-62151000D01*
X167460505Y-62151000D01*
X167383033Y-62135590D01*
X167346544Y-62120476D01*
X167310056Y-62105362D01*
X167244377Y-62061476D01*
X167188524Y-62005623D01*
X167144638Y-61939944D01*
X167129524Y-61903456D01*
X167114410Y-61866967D01*
X167099000Y-61789495D01*
X167099000Y-61710505D01*
X167114410Y-61633033D01*
X167129525Y-61596544D01*
X167144638Y-61560056D01*
X167188524Y-61494377D01*
X167244377Y-61438524D01*
X167310056Y-61394638D01*
X167346544Y-61379524D01*
X167383033Y-61364410D01*
X167460505Y-61349000D01*
X167539495Y-61349000D01*
X167616967Y-61364410D01*
X167616967Y-61364410D01*
G37*
G36*
X83616967Y-61364410D02*
G01*
X83653456Y-61379525D01*
X83689944Y-61394638D01*
X83755623Y-61438524D01*
X83811476Y-61494377D01*
X83855362Y-61560056D01*
X83870475Y-61596544D01*
X83885590Y-61633033D01*
X83901000Y-61710505D01*
X83901000Y-61789495D01*
X83885590Y-61866967D01*
X83870475Y-61903456D01*
X83855362Y-61939944D01*
X83811476Y-62005623D01*
X83755623Y-62061476D01*
X83689944Y-62105362D01*
X83653456Y-62120476D01*
X83616967Y-62135590D01*
X83539495Y-62151000D01*
X83460505Y-62151000D01*
X83383033Y-62135590D01*
X83346544Y-62120476D01*
X83310056Y-62105362D01*
X83244377Y-62061476D01*
X83188524Y-62005623D01*
X83144638Y-61939944D01*
X83129525Y-61903456D01*
X83114410Y-61866967D01*
X83099000Y-61789495D01*
X83099000Y-61710505D01*
X83114410Y-61633033D01*
X83129525Y-61596544D01*
X83144638Y-61560056D01*
X83188524Y-61494377D01*
X83244377Y-61438524D01*
X83310056Y-61394638D01*
X83346544Y-61379525D01*
X83383033Y-61364410D01*
X83460505Y-61349000D01*
X83539495Y-61349000D01*
X83616967Y-61364410D01*
X83616967Y-61364410D01*
G37*
G36*
X82616967Y-61364410D02*
G01*
X82653456Y-61379525D01*
X82689944Y-61394638D01*
X82755623Y-61438524D01*
X82811476Y-61494377D01*
X82855362Y-61560056D01*
X82870475Y-61596544D01*
X82885590Y-61633033D01*
X82901000Y-61710505D01*
X82901000Y-61789495D01*
X82885590Y-61866967D01*
X82870475Y-61903456D01*
X82855362Y-61939944D01*
X82811476Y-62005623D01*
X82755623Y-62061476D01*
X82689944Y-62105362D01*
X82653456Y-62120476D01*
X82616967Y-62135590D01*
X82539495Y-62151000D01*
X82460505Y-62151000D01*
X82383033Y-62135590D01*
X82346544Y-62120476D01*
X82310056Y-62105362D01*
X82244377Y-62061476D01*
X82188524Y-62005623D01*
X82144638Y-61939944D01*
X82129525Y-61903456D01*
X82114410Y-61866967D01*
X82099000Y-61789495D01*
X82099000Y-61710505D01*
X82114410Y-61633033D01*
X82129525Y-61596544D01*
X82144638Y-61560056D01*
X82188524Y-61494377D01*
X82244377Y-61438524D01*
X82310056Y-61394638D01*
X82346544Y-61379525D01*
X82383033Y-61364410D01*
X82460505Y-61349000D01*
X82539495Y-61349000D01*
X82616967Y-61364410D01*
X82616967Y-61364410D01*
G37*
G36*
X81616967Y-61364410D02*
G01*
X81653456Y-61379525D01*
X81689944Y-61394638D01*
X81755623Y-61438524D01*
X81811476Y-61494377D01*
X81855362Y-61560056D01*
X81870475Y-61596544D01*
X81885590Y-61633033D01*
X81901000Y-61710505D01*
X81901000Y-61789495D01*
X81885590Y-61866967D01*
X81870475Y-61903456D01*
X81855362Y-61939944D01*
X81811476Y-62005623D01*
X81755623Y-62061476D01*
X81689944Y-62105362D01*
X81653456Y-62120476D01*
X81616967Y-62135590D01*
X81539495Y-62151000D01*
X81460505Y-62151000D01*
X81383033Y-62135590D01*
X81346544Y-62120476D01*
X81310056Y-62105362D01*
X81244377Y-62061476D01*
X81188524Y-62005623D01*
X81144638Y-61939944D01*
X81129525Y-61903456D01*
X81114410Y-61866967D01*
X81099000Y-61789495D01*
X81099000Y-61710505D01*
X81114410Y-61633033D01*
X81129525Y-61596544D01*
X81144638Y-61560056D01*
X81188524Y-61494377D01*
X81244377Y-61438524D01*
X81310056Y-61394638D01*
X81346544Y-61379525D01*
X81383033Y-61364410D01*
X81460505Y-61349000D01*
X81539495Y-61349000D01*
X81616967Y-61364410D01*
X81616967Y-61364410D01*
G37*
G36*
X166616967Y-61364410D02*
G01*
X166653456Y-61379525D01*
X166689944Y-61394638D01*
X166755623Y-61438524D01*
X166811476Y-61494377D01*
X166855362Y-61560056D01*
X166870475Y-61596544D01*
X166885590Y-61633033D01*
X166901000Y-61710505D01*
X166901000Y-61789495D01*
X166885590Y-61866967D01*
X166870476Y-61903456D01*
X166855362Y-61939944D01*
X166811476Y-62005623D01*
X166755623Y-62061476D01*
X166689944Y-62105362D01*
X166653456Y-62120476D01*
X166616967Y-62135590D01*
X166539495Y-62151000D01*
X166460505Y-62151000D01*
X166383033Y-62135590D01*
X166346544Y-62120476D01*
X166310056Y-62105362D01*
X166244377Y-62061476D01*
X166188524Y-62005623D01*
X166144638Y-61939944D01*
X166129524Y-61903456D01*
X166114410Y-61866967D01*
X166099000Y-61789495D01*
X166099000Y-61710505D01*
X166114410Y-61633033D01*
X166129525Y-61596544D01*
X166144638Y-61560056D01*
X166188524Y-61494377D01*
X166244377Y-61438524D01*
X166310056Y-61394638D01*
X166346544Y-61379524D01*
X166383033Y-61364410D01*
X166460505Y-61349000D01*
X166539495Y-61349000D01*
X166616967Y-61364410D01*
X166616967Y-61364410D01*
G37*
G36*
X143166825Y-57961314D02*
G01*
X143327239Y-58009975D01*
X143475078Y-58088996D01*
X143604659Y-58195341D01*
X143711004Y-58324922D01*
X143790025Y-58472761D01*
X143838686Y-58633175D01*
X143855117Y-58800000D01*
X143838686Y-58966825D01*
X143790025Y-59127239D01*
X143711004Y-59275078D01*
X143604659Y-59404659D01*
X143475078Y-59511004D01*
X143327239Y-59590025D01*
X143166825Y-59638686D01*
X143041800Y-59651000D01*
X142958200Y-59651000D01*
X142833175Y-59638686D01*
X142672761Y-59590025D01*
X142524922Y-59511004D01*
X142395341Y-59404659D01*
X142288996Y-59275078D01*
X142209975Y-59127239D01*
X142161314Y-58966825D01*
X142144883Y-58800000D01*
X142161314Y-58633175D01*
X142209975Y-58472761D01*
X142288996Y-58324922D01*
X142395341Y-58195341D01*
X142524922Y-58088996D01*
X142672761Y-58009975D01*
X142833175Y-57961314D01*
X142958200Y-57949000D01*
X143041800Y-57949000D01*
X143166825Y-57961314D01*
X143166825Y-57961314D01*
G37*
G36*
X107166825Y-57961314D02*
G01*
X107327239Y-58009975D01*
X107475078Y-58088996D01*
X107604659Y-58195341D01*
X107711004Y-58324922D01*
X107790025Y-58472761D01*
X107838686Y-58633175D01*
X107855117Y-58800000D01*
X107838686Y-58966825D01*
X107790025Y-59127239D01*
X107711004Y-59275078D01*
X107604659Y-59404659D01*
X107475078Y-59511004D01*
X107327239Y-59590025D01*
X107166825Y-59638686D01*
X107041800Y-59651000D01*
X106958200Y-59651000D01*
X106833175Y-59638686D01*
X106672761Y-59590025D01*
X106524922Y-59511004D01*
X106395341Y-59404659D01*
X106288996Y-59275078D01*
X106209975Y-59127239D01*
X106161314Y-58966825D01*
X106144883Y-58800000D01*
X106161314Y-58633175D01*
X106209975Y-58472761D01*
X106288996Y-58324922D01*
X106395341Y-58195341D01*
X106524922Y-58088996D01*
X106672761Y-58009975D01*
X106833175Y-57961314D01*
X106958200Y-57949000D01*
X107041800Y-57949000D01*
X107166825Y-57961314D01*
X107166825Y-57961314D01*
G37*
G36*
X93166825Y-57961314D02*
G01*
X93327239Y-58009975D01*
X93475078Y-58088996D01*
X93604659Y-58195341D01*
X93711004Y-58324922D01*
X93790025Y-58472761D01*
X93838686Y-58633175D01*
X93855117Y-58800000D01*
X93838686Y-58966825D01*
X93790025Y-59127239D01*
X93711004Y-59275078D01*
X93604659Y-59404659D01*
X93475078Y-59511004D01*
X93327239Y-59590025D01*
X93166825Y-59638686D01*
X93041800Y-59651000D01*
X92958200Y-59651000D01*
X92833175Y-59638686D01*
X92672761Y-59590025D01*
X92524922Y-59511004D01*
X92395341Y-59404659D01*
X92288996Y-59275078D01*
X92209975Y-59127239D01*
X92161314Y-58966825D01*
X92144883Y-58800000D01*
X92161314Y-58633175D01*
X92209975Y-58472761D01*
X92288996Y-58324922D01*
X92395341Y-58195341D01*
X92524922Y-58088996D01*
X92672761Y-58009975D01*
X92833175Y-57961314D01*
X92958200Y-57949000D01*
X93041800Y-57949000D01*
X93166825Y-57961314D01*
X93166825Y-57961314D01*
G37*
G36*
X157166825Y-57961314D02*
G01*
X157327239Y-58009975D01*
X157475078Y-58088996D01*
X157604659Y-58195341D01*
X157711004Y-58324922D01*
X157790025Y-58472761D01*
X157838686Y-58633175D01*
X157855117Y-58800000D01*
X157838686Y-58966825D01*
X157790025Y-59127239D01*
X157711004Y-59275078D01*
X157604659Y-59404659D01*
X157475078Y-59511004D01*
X157327239Y-59590025D01*
X157166825Y-59638686D01*
X157041800Y-59651000D01*
X156958200Y-59651000D01*
X156833175Y-59638686D01*
X156672761Y-59590025D01*
X156524922Y-59511004D01*
X156395341Y-59404659D01*
X156288996Y-59275078D01*
X156209975Y-59127239D01*
X156161314Y-58966825D01*
X156144883Y-58800000D01*
X156161314Y-58633175D01*
X156209975Y-58472761D01*
X156288996Y-58324922D01*
X156395341Y-58195341D01*
X156524922Y-58088996D01*
X156672761Y-58009975D01*
X156833175Y-57961314D01*
X156958200Y-57949000D01*
X157041800Y-57949000D01*
X157166825Y-57961314D01*
X157166825Y-57961314D01*
G37*
G36*
X97051000Y-55551000D02*
G01*
X95949000Y-55551000D01*
X95949000Y-54449000D01*
X97051000Y-54449000D01*
X97051000Y-55551000D01*
X97051000Y-55551000D01*
G37*
G36*
X104051000Y-55551000D02*
G01*
X102949000Y-55551000D01*
X102949000Y-54449000D01*
X104051000Y-54449000D01*
X104051000Y-55551000D01*
X104051000Y-55551000D01*
G37*
G36*
X147051000Y-55551000D02*
G01*
X145949000Y-55551000D01*
X145949000Y-54449000D01*
X147051000Y-54449000D01*
X147051000Y-55551000D01*
X147051000Y-55551000D01*
G37*
G36*
X154051000Y-55551000D02*
G01*
X152949000Y-55551000D01*
X152949000Y-54449000D01*
X154051000Y-54449000D01*
X154051000Y-55551000D01*
X154051000Y-55551000D01*
G37*
M02*
