M48
; DRILL file {KiCad (5.1.2)-2} date 2/10/2020 4:48:08 PM
; FORMAT={-:-/ absolute / inch / decimal}
; #@! TF.CreationDate,2020-02-10T16:48:08+01:00
; #@! TF.GenerationSoftware,Kicad,Pcbnew,(5.1.2)-2
FMAT,2
INCH
T1C0.0157
T2C0.0197
T3C0.0315
T4C0.0512
T5C0.0276
%
G90
G05
T1
X3.3095Y-2.6772
X3.3095Y-3.4252
X3.5064Y-2.6772
X3.5064Y-3.4252
X3.6614Y-2.6516
X3.6614Y-3.4508
X4.2126Y-2.6516
X4.2126Y-3.4508
X4.2938Y-2.6772
X4.2938Y-3.4252
X4.4906Y-2.6772
X4.4906Y-3.4252
X4.6875Y-2.6772
X4.6875Y-3.4252
X4.8844Y-2.6772
X4.8844Y-3.4252
X5.0812Y-2.6772
X5.0812Y-3.4252
X5.2781Y-2.6772
X5.2781Y-3.4252
X5.4749Y-2.6772
X5.4749Y-3.4252
X5.6299Y-2.6516
X5.6299Y-3.4508
X5.8858Y-3.1521
X5.8858Y-3.2259
X5.9449Y-3.0143
X6.1063Y-3.0512
X6.1811Y-2.6516
X6.1811Y-3.0143
X6.1811Y-3.4508
X6.2598Y-3.0143
X6.2623Y-2.6772
X6.2623Y-3.4252
X6.3386Y-2.8937
X6.3386Y-3.2087
X6.4592Y-2.6772
X6.4592Y-3.4252
T2
X4.0748Y-3.937
X5.7677Y-2.1654
X3.7992Y-3.937
X4.0748Y-2.1654
X6.0433Y-3.937
X3.7992Y-2.1654
X5.7677Y-3.937
X6.0433Y-2.1654
T3
X6.1811Y-2.315
X6.1811Y-2.815
X3.6614Y-3.2874
X3.6614Y-3.7874
X4.2126Y-2.315
X4.2126Y-2.815
X5.6299Y-3.2874
X5.6299Y-3.7874
X3.6614Y-2.315
X3.6614Y-2.815
X5.6299Y-2.315
X5.6299Y-2.815
X6.1811Y-3.2874
X6.1811Y-3.7874
X4.2126Y-3.2874
X4.2126Y-3.7874
T4
X5.6299Y-2.9512
X5.6299Y-3.1512
T5
X3.2087Y-3.5531
X3.2087Y-3.6713
X3.248Y-3.5531
X3.248Y-3.6713
X3.2874Y-3.5531
X3.2874Y-3.6713
X3.2087Y-2.4311
X3.2087Y-2.5492
X3.248Y-2.4311
X3.248Y-2.5492
X3.2874Y-2.4311
X3.2874Y-2.5492
X6.5551Y-2.4311
X6.5551Y-2.5492
X6.5945Y-2.4311
X6.5945Y-2.5492
X6.6339Y-2.4311
X6.6339Y-2.5492
X6.5551Y-3.5531
X6.5551Y-3.6713
X6.5945Y-3.5531
X6.5945Y-3.6713
X6.6339Y-3.5531
X6.6339Y-3.6713
T0
M30
