G04 #@! TF.GenerationSoftware,KiCad,Pcbnew,(5.1.2)-2*
G04 #@! TF.CreationDate,2020-02-10T16:48:03+01:00*
G04 #@! TF.ProjectId,OpenHO_Engine,4f70656e-484f-45f4-956e-67696e652e6b,rev?*
G04 #@! TF.SameCoordinates,Original*
G04 #@! TF.FileFunction,Legend,Top*
G04 #@! TF.FilePolarity,Positive*
%FSLAX46Y46*%
G04 Gerber Fmt 4.6, Leading zero omitted, Abs format (unit mm)*
G04 Created by KiCad (PCBNEW (5.1.2)-2) date 2020-02-10 16:48:03*
%MOMM*%
%LPD*%
G04 APERTURE LIST*
%ADD10C,0.050000*%
%ADD11C,0.120000*%
%ADD12C,0.250000*%
G04 APERTURE END LIST*
D10*
X165000000Y-90000000D02*
X170000000Y-90000000D01*
X165000000Y-93500000D02*
X170000000Y-93500000D01*
X80000000Y-90000000D02*
X85000000Y-90000000D01*
X80000000Y-93500000D02*
X85000000Y-93500000D01*
X165000000Y-61500000D02*
X170000000Y-61500000D01*
X165000000Y-65000000D02*
X170000000Y-65000000D01*
X80000000Y-65000000D02*
X85000000Y-65000000D01*
D11*
X155000000Y-55000000D02*
G75*
G03X155000000Y-55000000I-5000000J0D01*
G01*
D10*
X80000000Y-61500000D02*
X85000000Y-61500000D01*
D11*
X105000000Y-55000000D02*
G75*
G03X105000000Y-55000000I-5000000J0D01*
G01*
X155000000Y-100000000D02*
G75*
G03X155000000Y-100000000I-5000000J0D01*
G01*
X105000000Y-100000000D02*
G75*
G03X105000000Y-100000000I-5000000J0D01*
G01*
X147093600Y-73974600D02*
G75*
G02X147500000Y-73974600I203200J0D01*
G01*
X147830200Y-73771400D02*
X147500000Y-74000000D01*
X147500000Y-74203200D02*
X147500000Y-73974600D01*
X147093600Y-74203200D02*
X147093600Y-73923800D01*
X147830200Y-74203200D02*
X147093600Y-74203200D01*
X148210000Y-74258578D02*
X148210000Y-73741422D01*
X146790000Y-74258578D02*
X146790000Y-73741422D01*
X145093600Y-73974600D02*
G75*
G02X145500000Y-73974600I203200J0D01*
G01*
X145830200Y-73771400D02*
X145500000Y-74000000D01*
X145500000Y-74203200D02*
X145500000Y-73974600D01*
X145093600Y-74203200D02*
X145093600Y-73923800D01*
X145830200Y-74203200D02*
X145093600Y-74203200D01*
X146210000Y-74258578D02*
X146210000Y-73741422D01*
X144790000Y-74258578D02*
X144790000Y-73741422D01*
X147906400Y-81025400D02*
G75*
G02X147500000Y-81025400I-203200J0D01*
G01*
X147169800Y-81228600D02*
X147500000Y-81000000D01*
X147500000Y-80796800D02*
X147500000Y-81025400D01*
X147906400Y-80796800D02*
X147906400Y-81076200D01*
X147169800Y-80796800D02*
X147906400Y-80796800D01*
X146790000Y-80741422D02*
X146790000Y-81258578D01*
X148210000Y-80741422D02*
X148210000Y-81258578D01*
X145906400Y-81025400D02*
G75*
G02X145500000Y-81025400I-203200J0D01*
G01*
X145169800Y-81228600D02*
X145500000Y-81000000D01*
X145500000Y-80796800D02*
X145500000Y-81025400D01*
X145906400Y-80796800D02*
X145906400Y-81076200D01*
X145169800Y-80796800D02*
X145906400Y-80796800D01*
X144790000Y-80741422D02*
X144790000Y-81258578D01*
X146210000Y-80741422D02*
X146210000Y-81258578D01*
X149906400Y-81025400D02*
G75*
G02X149500000Y-81025400I-203200J0D01*
G01*
X149169800Y-81228600D02*
X149500000Y-81000000D01*
X149500000Y-80796800D02*
X149500000Y-81025400D01*
X149906400Y-80796800D02*
X149906400Y-81076200D01*
X149169800Y-80796800D02*
X149906400Y-80796800D01*
X148790000Y-80741422D02*
X148790000Y-81258578D01*
X150210000Y-80741422D02*
X150210000Y-81258578D01*
X144500000Y-73440000D02*
X144500000Y-81540000D01*
X141500000Y-81540000D02*
X141500000Y-73440000D01*
X144500000Y-73440000D02*
X141500000Y-73440000D01*
X141500000Y-81540000D02*
X144500000Y-81540000D01*
X145627000Y-77728600D02*
X145500000Y-77754000D01*
X145779400Y-77677800D02*
X145627000Y-77728600D01*
X145881000Y-77550800D02*
X145779400Y-77677800D01*
X145881000Y-77398400D02*
X145881000Y-77550800D01*
X145804800Y-77271400D02*
X145881000Y-77398400D01*
X145347600Y-77728600D02*
X145474600Y-77754000D01*
X145195200Y-77677800D02*
X145347600Y-77728600D01*
X145093600Y-77550800D02*
X145195200Y-77677800D01*
X145093600Y-77398400D02*
X145093600Y-77550800D01*
X145169800Y-77271400D02*
X145093600Y-77398400D01*
X146210000Y-77758578D02*
X146210000Y-77241422D01*
X144790000Y-77758578D02*
X144790000Y-77241422D01*
X147627000Y-77728600D02*
X147500000Y-77754000D01*
X147779400Y-77677800D02*
X147627000Y-77728600D01*
X147881000Y-77550800D02*
X147779400Y-77677800D01*
X147881000Y-77398400D02*
X147881000Y-77550800D01*
X147804800Y-77271400D02*
X147881000Y-77398400D01*
X147347600Y-77728600D02*
X147474600Y-77754000D01*
X147195200Y-77677800D02*
X147347600Y-77728600D01*
X147093600Y-77550800D02*
X147195200Y-77677800D01*
X147093600Y-77398400D02*
X147093600Y-77550800D01*
X147169800Y-77271400D02*
X147093600Y-77398400D01*
X148210000Y-77758578D02*
X148210000Y-77241422D01*
X146790000Y-77758578D02*
X146790000Y-77241422D01*
X158593600Y-77474600D02*
G75*
G02X159000000Y-77474600I203200J0D01*
G01*
X159330200Y-77271400D02*
X159000000Y-77500000D01*
X159000000Y-77703200D02*
X159000000Y-77474600D01*
X158593600Y-77703200D02*
X158593600Y-77423800D01*
X159330200Y-77703200D02*
X158593600Y-77703200D01*
X159710000Y-77758578D02*
X159710000Y-77241422D01*
X158290000Y-77758578D02*
X158290000Y-77241422D01*
X151127000Y-77728600D02*
X151000000Y-77754000D01*
X151279400Y-77677800D02*
X151127000Y-77728600D01*
X151381000Y-77550800D02*
X151279400Y-77677800D01*
X151381000Y-77398400D02*
X151381000Y-77550800D01*
X151304800Y-77271400D02*
X151381000Y-77398400D01*
X150847600Y-77728600D02*
X150974600Y-77754000D01*
X150695200Y-77677800D02*
X150847600Y-77728600D01*
X150593600Y-77550800D02*
X150695200Y-77677800D01*
X150593600Y-77398400D02*
X150593600Y-77550800D01*
X150669800Y-77271400D02*
X150593600Y-77398400D01*
X151710000Y-77758578D02*
X151710000Y-77241422D01*
X150290000Y-77758578D02*
X150290000Y-77241422D01*
X157127000Y-77728600D02*
X157000000Y-77754000D01*
X157279400Y-77677800D02*
X157127000Y-77728600D01*
X157381000Y-77550800D02*
X157279400Y-77677800D01*
X157381000Y-77398400D02*
X157381000Y-77550800D01*
X157304800Y-77271400D02*
X157381000Y-77398400D01*
X156847600Y-77728600D02*
X156974600Y-77754000D01*
X156695200Y-77677800D02*
X156847600Y-77728600D01*
X156593600Y-77550800D02*
X156695200Y-77677800D01*
X156593600Y-77398400D02*
X156593600Y-77550800D01*
X156669800Y-77271400D02*
X156593600Y-77398400D01*
X157710000Y-77758578D02*
X157710000Y-77241422D01*
X156290000Y-77758578D02*
X156290000Y-77241422D01*
D12*
X156157000Y-79278000D02*
G75*
G03X156157000Y-79278000I-125000J0D01*
G01*
D11*
X153100000Y-79110000D02*
X155550000Y-79110000D01*
X154900000Y-75890000D02*
X153100000Y-75890000D01*
M02*
