G04 #@! TF.GenerationSoftware,KiCad,Pcbnew,(5.1.2)-2*
G04 #@! TF.CreationDate,2020-02-10T16:48:03+01:00*
G04 #@! TF.ProjectId,OpenHO_Engine,4f70656e-484f-45f4-956e-67696e652e6b,rev?*
G04 #@! TF.SameCoordinates,Original*
G04 #@! TF.FileFunction,Copper,L1,Top*
G04 #@! TF.FilePolarity,Positive*
%FSLAX46Y46*%
G04 Gerber Fmt 4.6, Leading zero omitted, Abs format (unit mm)*
G04 Created by KiCad (PCBNEW (5.1.2)-2) date 2020-02-10 16:48:03*
%MOMM*%
%LPD*%
G04 APERTURE LIST*
%ADD10R,1.000000X1.000000*%
%ADD11O,1.600000X1.600000*%
%ADD12C,1.600000*%
%ADD13C,0.100000*%
%ADD14C,0.975000*%
%ADD15C,2.600000*%
%ADD16C,0.650000*%
%ADD17C,0.800000*%
%ADD18C,0.500000*%
%ADD19C,0.250000*%
%ADD20C,1.000000*%
G04 APERTURE END LIST*
D10*
X96500000Y-55000000D03*
X103500000Y-55000000D03*
X146500000Y-55000000D03*
X153500000Y-55000000D03*
D11*
X157000000Y-58800000D03*
D12*
X157000000Y-71500000D03*
D13*
G36*
X147980142Y-72576174D02*
G01*
X148003803Y-72579684D01*
X148027007Y-72585496D01*
X148049529Y-72593554D01*
X148071153Y-72603782D01*
X148091670Y-72616079D01*
X148110883Y-72630329D01*
X148128607Y-72646393D01*
X148144671Y-72664117D01*
X148158921Y-72683330D01*
X148171218Y-72703847D01*
X148181446Y-72725471D01*
X148189504Y-72747993D01*
X148195316Y-72771197D01*
X148198826Y-72794858D01*
X148200000Y-72818750D01*
X148200000Y-73306250D01*
X148198826Y-73330142D01*
X148195316Y-73353803D01*
X148189504Y-73377007D01*
X148181446Y-73399529D01*
X148171218Y-73421153D01*
X148158921Y-73441670D01*
X148144671Y-73460883D01*
X148128607Y-73478607D01*
X148110883Y-73494671D01*
X148091670Y-73508921D01*
X148071153Y-73521218D01*
X148049529Y-73531446D01*
X148027007Y-73539504D01*
X148003803Y-73545316D01*
X147980142Y-73548826D01*
X147956250Y-73550000D01*
X147043750Y-73550000D01*
X147019858Y-73548826D01*
X146996197Y-73545316D01*
X146972993Y-73539504D01*
X146950471Y-73531446D01*
X146928847Y-73521218D01*
X146908330Y-73508921D01*
X146889117Y-73494671D01*
X146871393Y-73478607D01*
X146855329Y-73460883D01*
X146841079Y-73441670D01*
X146828782Y-73421153D01*
X146818554Y-73399529D01*
X146810496Y-73377007D01*
X146804684Y-73353803D01*
X146801174Y-73330142D01*
X146800000Y-73306250D01*
X146800000Y-72818750D01*
X146801174Y-72794858D01*
X146804684Y-72771197D01*
X146810496Y-72747993D01*
X146818554Y-72725471D01*
X146828782Y-72703847D01*
X146841079Y-72683330D01*
X146855329Y-72664117D01*
X146871393Y-72646393D01*
X146889117Y-72630329D01*
X146908330Y-72616079D01*
X146928847Y-72603782D01*
X146950471Y-72593554D01*
X146972993Y-72585496D01*
X146996197Y-72579684D01*
X147019858Y-72576174D01*
X147043750Y-72575000D01*
X147956250Y-72575000D01*
X147980142Y-72576174D01*
X147980142Y-72576174D01*
G37*
D14*
X147500000Y-73062500D03*
D13*
G36*
X147980142Y-74451174D02*
G01*
X148003803Y-74454684D01*
X148027007Y-74460496D01*
X148049529Y-74468554D01*
X148071153Y-74478782D01*
X148091670Y-74491079D01*
X148110883Y-74505329D01*
X148128607Y-74521393D01*
X148144671Y-74539117D01*
X148158921Y-74558330D01*
X148171218Y-74578847D01*
X148181446Y-74600471D01*
X148189504Y-74622993D01*
X148195316Y-74646197D01*
X148198826Y-74669858D01*
X148200000Y-74693750D01*
X148200000Y-75181250D01*
X148198826Y-75205142D01*
X148195316Y-75228803D01*
X148189504Y-75252007D01*
X148181446Y-75274529D01*
X148171218Y-75296153D01*
X148158921Y-75316670D01*
X148144671Y-75335883D01*
X148128607Y-75353607D01*
X148110883Y-75369671D01*
X148091670Y-75383921D01*
X148071153Y-75396218D01*
X148049529Y-75406446D01*
X148027007Y-75414504D01*
X148003803Y-75420316D01*
X147980142Y-75423826D01*
X147956250Y-75425000D01*
X147043750Y-75425000D01*
X147019858Y-75423826D01*
X146996197Y-75420316D01*
X146972993Y-75414504D01*
X146950471Y-75406446D01*
X146928847Y-75396218D01*
X146908330Y-75383921D01*
X146889117Y-75369671D01*
X146871393Y-75353607D01*
X146855329Y-75335883D01*
X146841079Y-75316670D01*
X146828782Y-75296153D01*
X146818554Y-75274529D01*
X146810496Y-75252007D01*
X146804684Y-75228803D01*
X146801174Y-75205142D01*
X146800000Y-75181250D01*
X146800000Y-74693750D01*
X146801174Y-74669858D01*
X146804684Y-74646197D01*
X146810496Y-74622993D01*
X146818554Y-74600471D01*
X146828782Y-74578847D01*
X146841079Y-74558330D01*
X146855329Y-74539117D01*
X146871393Y-74521393D01*
X146889117Y-74505329D01*
X146908330Y-74491079D01*
X146928847Y-74478782D01*
X146950471Y-74468554D01*
X146972993Y-74460496D01*
X146996197Y-74454684D01*
X147019858Y-74451174D01*
X147043750Y-74450000D01*
X147956250Y-74450000D01*
X147980142Y-74451174D01*
X147980142Y-74451174D01*
G37*
D14*
X147500000Y-74937500D03*
D11*
X143000000Y-58800000D03*
D12*
X143000000Y-71500000D03*
D11*
X107000000Y-58800000D03*
D12*
X107000000Y-71500000D03*
D11*
X93000000Y-58800000D03*
D12*
X93000000Y-71500000D03*
D13*
G36*
X145980142Y-72576174D02*
G01*
X146003803Y-72579684D01*
X146027007Y-72585496D01*
X146049529Y-72593554D01*
X146071153Y-72603782D01*
X146091670Y-72616079D01*
X146110883Y-72630329D01*
X146128607Y-72646393D01*
X146144671Y-72664117D01*
X146158921Y-72683330D01*
X146171218Y-72703847D01*
X146181446Y-72725471D01*
X146189504Y-72747993D01*
X146195316Y-72771197D01*
X146198826Y-72794858D01*
X146200000Y-72818750D01*
X146200000Y-73306250D01*
X146198826Y-73330142D01*
X146195316Y-73353803D01*
X146189504Y-73377007D01*
X146181446Y-73399529D01*
X146171218Y-73421153D01*
X146158921Y-73441670D01*
X146144671Y-73460883D01*
X146128607Y-73478607D01*
X146110883Y-73494671D01*
X146091670Y-73508921D01*
X146071153Y-73521218D01*
X146049529Y-73531446D01*
X146027007Y-73539504D01*
X146003803Y-73545316D01*
X145980142Y-73548826D01*
X145956250Y-73550000D01*
X145043750Y-73550000D01*
X145019858Y-73548826D01*
X144996197Y-73545316D01*
X144972993Y-73539504D01*
X144950471Y-73531446D01*
X144928847Y-73521218D01*
X144908330Y-73508921D01*
X144889117Y-73494671D01*
X144871393Y-73478607D01*
X144855329Y-73460883D01*
X144841079Y-73441670D01*
X144828782Y-73421153D01*
X144818554Y-73399529D01*
X144810496Y-73377007D01*
X144804684Y-73353803D01*
X144801174Y-73330142D01*
X144800000Y-73306250D01*
X144800000Y-72818750D01*
X144801174Y-72794858D01*
X144804684Y-72771197D01*
X144810496Y-72747993D01*
X144818554Y-72725471D01*
X144828782Y-72703847D01*
X144841079Y-72683330D01*
X144855329Y-72664117D01*
X144871393Y-72646393D01*
X144889117Y-72630329D01*
X144908330Y-72616079D01*
X144928847Y-72603782D01*
X144950471Y-72593554D01*
X144972993Y-72585496D01*
X144996197Y-72579684D01*
X145019858Y-72576174D01*
X145043750Y-72575000D01*
X145956250Y-72575000D01*
X145980142Y-72576174D01*
X145980142Y-72576174D01*
G37*
D14*
X145500000Y-73062500D03*
D13*
G36*
X145980142Y-74451174D02*
G01*
X146003803Y-74454684D01*
X146027007Y-74460496D01*
X146049529Y-74468554D01*
X146071153Y-74478782D01*
X146091670Y-74491079D01*
X146110883Y-74505329D01*
X146128607Y-74521393D01*
X146144671Y-74539117D01*
X146158921Y-74558330D01*
X146171218Y-74578847D01*
X146181446Y-74600471D01*
X146189504Y-74622993D01*
X146195316Y-74646197D01*
X146198826Y-74669858D01*
X146200000Y-74693750D01*
X146200000Y-75181250D01*
X146198826Y-75205142D01*
X146195316Y-75228803D01*
X146189504Y-75252007D01*
X146181446Y-75274529D01*
X146171218Y-75296153D01*
X146158921Y-75316670D01*
X146144671Y-75335883D01*
X146128607Y-75353607D01*
X146110883Y-75369671D01*
X146091670Y-75383921D01*
X146071153Y-75396218D01*
X146049529Y-75406446D01*
X146027007Y-75414504D01*
X146003803Y-75420316D01*
X145980142Y-75423826D01*
X145956250Y-75425000D01*
X145043750Y-75425000D01*
X145019858Y-75423826D01*
X144996197Y-75420316D01*
X144972993Y-75414504D01*
X144950471Y-75406446D01*
X144928847Y-75396218D01*
X144908330Y-75383921D01*
X144889117Y-75369671D01*
X144871393Y-75353607D01*
X144855329Y-75335883D01*
X144841079Y-75316670D01*
X144828782Y-75296153D01*
X144818554Y-75274529D01*
X144810496Y-75252007D01*
X144804684Y-75228803D01*
X144801174Y-75205142D01*
X144800000Y-75181250D01*
X144800000Y-74693750D01*
X144801174Y-74669858D01*
X144804684Y-74646197D01*
X144810496Y-74622993D01*
X144818554Y-74600471D01*
X144828782Y-74578847D01*
X144841079Y-74558330D01*
X144855329Y-74539117D01*
X144871393Y-74521393D01*
X144889117Y-74505329D01*
X144908330Y-74491079D01*
X144928847Y-74478782D01*
X144950471Y-74468554D01*
X144972993Y-74460496D01*
X144996197Y-74454684D01*
X145019858Y-74451174D01*
X145043750Y-74450000D01*
X145956250Y-74450000D01*
X145980142Y-74451174D01*
X145980142Y-74451174D01*
G37*
D14*
X145500000Y-74937500D03*
D11*
X157000000Y-96200000D03*
D12*
X157000000Y-83500000D03*
D13*
G36*
X147980142Y-81451174D02*
G01*
X148003803Y-81454684D01*
X148027007Y-81460496D01*
X148049529Y-81468554D01*
X148071153Y-81478782D01*
X148091670Y-81491079D01*
X148110883Y-81505329D01*
X148128607Y-81521393D01*
X148144671Y-81539117D01*
X148158921Y-81558330D01*
X148171218Y-81578847D01*
X148181446Y-81600471D01*
X148189504Y-81622993D01*
X148195316Y-81646197D01*
X148198826Y-81669858D01*
X148200000Y-81693750D01*
X148200000Y-82181250D01*
X148198826Y-82205142D01*
X148195316Y-82228803D01*
X148189504Y-82252007D01*
X148181446Y-82274529D01*
X148171218Y-82296153D01*
X148158921Y-82316670D01*
X148144671Y-82335883D01*
X148128607Y-82353607D01*
X148110883Y-82369671D01*
X148091670Y-82383921D01*
X148071153Y-82396218D01*
X148049529Y-82406446D01*
X148027007Y-82414504D01*
X148003803Y-82420316D01*
X147980142Y-82423826D01*
X147956250Y-82425000D01*
X147043750Y-82425000D01*
X147019858Y-82423826D01*
X146996197Y-82420316D01*
X146972993Y-82414504D01*
X146950471Y-82406446D01*
X146928847Y-82396218D01*
X146908330Y-82383921D01*
X146889117Y-82369671D01*
X146871393Y-82353607D01*
X146855329Y-82335883D01*
X146841079Y-82316670D01*
X146828782Y-82296153D01*
X146818554Y-82274529D01*
X146810496Y-82252007D01*
X146804684Y-82228803D01*
X146801174Y-82205142D01*
X146800000Y-82181250D01*
X146800000Y-81693750D01*
X146801174Y-81669858D01*
X146804684Y-81646197D01*
X146810496Y-81622993D01*
X146818554Y-81600471D01*
X146828782Y-81578847D01*
X146841079Y-81558330D01*
X146855329Y-81539117D01*
X146871393Y-81521393D01*
X146889117Y-81505329D01*
X146908330Y-81491079D01*
X146928847Y-81478782D01*
X146950471Y-81468554D01*
X146972993Y-81460496D01*
X146996197Y-81454684D01*
X147019858Y-81451174D01*
X147043750Y-81450000D01*
X147956250Y-81450000D01*
X147980142Y-81451174D01*
X147980142Y-81451174D01*
G37*
D14*
X147500000Y-81937500D03*
D13*
G36*
X147980142Y-79576174D02*
G01*
X148003803Y-79579684D01*
X148027007Y-79585496D01*
X148049529Y-79593554D01*
X148071153Y-79603782D01*
X148091670Y-79616079D01*
X148110883Y-79630329D01*
X148128607Y-79646393D01*
X148144671Y-79664117D01*
X148158921Y-79683330D01*
X148171218Y-79703847D01*
X148181446Y-79725471D01*
X148189504Y-79747993D01*
X148195316Y-79771197D01*
X148198826Y-79794858D01*
X148200000Y-79818750D01*
X148200000Y-80306250D01*
X148198826Y-80330142D01*
X148195316Y-80353803D01*
X148189504Y-80377007D01*
X148181446Y-80399529D01*
X148171218Y-80421153D01*
X148158921Y-80441670D01*
X148144671Y-80460883D01*
X148128607Y-80478607D01*
X148110883Y-80494671D01*
X148091670Y-80508921D01*
X148071153Y-80521218D01*
X148049529Y-80531446D01*
X148027007Y-80539504D01*
X148003803Y-80545316D01*
X147980142Y-80548826D01*
X147956250Y-80550000D01*
X147043750Y-80550000D01*
X147019858Y-80548826D01*
X146996197Y-80545316D01*
X146972993Y-80539504D01*
X146950471Y-80531446D01*
X146928847Y-80521218D01*
X146908330Y-80508921D01*
X146889117Y-80494671D01*
X146871393Y-80478607D01*
X146855329Y-80460883D01*
X146841079Y-80441670D01*
X146828782Y-80421153D01*
X146818554Y-80399529D01*
X146810496Y-80377007D01*
X146804684Y-80353803D01*
X146801174Y-80330142D01*
X146800000Y-80306250D01*
X146800000Y-79818750D01*
X146801174Y-79794858D01*
X146804684Y-79771197D01*
X146810496Y-79747993D01*
X146818554Y-79725471D01*
X146828782Y-79703847D01*
X146841079Y-79683330D01*
X146855329Y-79664117D01*
X146871393Y-79646393D01*
X146889117Y-79630329D01*
X146908330Y-79616079D01*
X146928847Y-79603782D01*
X146950471Y-79593554D01*
X146972993Y-79585496D01*
X146996197Y-79579684D01*
X147019858Y-79576174D01*
X147043750Y-79575000D01*
X147956250Y-79575000D01*
X147980142Y-79576174D01*
X147980142Y-79576174D01*
G37*
D14*
X147500000Y-80062500D03*
D11*
X143000000Y-96200000D03*
D12*
X143000000Y-83500000D03*
D11*
X107000000Y-96200000D03*
D12*
X107000000Y-83500000D03*
D11*
X93000000Y-96200000D03*
D12*
X93000000Y-83500000D03*
D13*
G36*
X145980142Y-81451174D02*
G01*
X146003803Y-81454684D01*
X146027007Y-81460496D01*
X146049529Y-81468554D01*
X146071153Y-81478782D01*
X146091670Y-81491079D01*
X146110883Y-81505329D01*
X146128607Y-81521393D01*
X146144671Y-81539117D01*
X146158921Y-81558330D01*
X146171218Y-81578847D01*
X146181446Y-81600471D01*
X146189504Y-81622993D01*
X146195316Y-81646197D01*
X146198826Y-81669858D01*
X146200000Y-81693750D01*
X146200000Y-82181250D01*
X146198826Y-82205142D01*
X146195316Y-82228803D01*
X146189504Y-82252007D01*
X146181446Y-82274529D01*
X146171218Y-82296153D01*
X146158921Y-82316670D01*
X146144671Y-82335883D01*
X146128607Y-82353607D01*
X146110883Y-82369671D01*
X146091670Y-82383921D01*
X146071153Y-82396218D01*
X146049529Y-82406446D01*
X146027007Y-82414504D01*
X146003803Y-82420316D01*
X145980142Y-82423826D01*
X145956250Y-82425000D01*
X145043750Y-82425000D01*
X145019858Y-82423826D01*
X144996197Y-82420316D01*
X144972993Y-82414504D01*
X144950471Y-82406446D01*
X144928847Y-82396218D01*
X144908330Y-82383921D01*
X144889117Y-82369671D01*
X144871393Y-82353607D01*
X144855329Y-82335883D01*
X144841079Y-82316670D01*
X144828782Y-82296153D01*
X144818554Y-82274529D01*
X144810496Y-82252007D01*
X144804684Y-82228803D01*
X144801174Y-82205142D01*
X144800000Y-82181250D01*
X144800000Y-81693750D01*
X144801174Y-81669858D01*
X144804684Y-81646197D01*
X144810496Y-81622993D01*
X144818554Y-81600471D01*
X144828782Y-81578847D01*
X144841079Y-81558330D01*
X144855329Y-81539117D01*
X144871393Y-81521393D01*
X144889117Y-81505329D01*
X144908330Y-81491079D01*
X144928847Y-81478782D01*
X144950471Y-81468554D01*
X144972993Y-81460496D01*
X144996197Y-81454684D01*
X145019858Y-81451174D01*
X145043750Y-81450000D01*
X145956250Y-81450000D01*
X145980142Y-81451174D01*
X145980142Y-81451174D01*
G37*
D14*
X145500000Y-81937500D03*
D13*
G36*
X145980142Y-79576174D02*
G01*
X146003803Y-79579684D01*
X146027007Y-79585496D01*
X146049529Y-79593554D01*
X146071153Y-79603782D01*
X146091670Y-79616079D01*
X146110883Y-79630329D01*
X146128607Y-79646393D01*
X146144671Y-79664117D01*
X146158921Y-79683330D01*
X146171218Y-79703847D01*
X146181446Y-79725471D01*
X146189504Y-79747993D01*
X146195316Y-79771197D01*
X146198826Y-79794858D01*
X146200000Y-79818750D01*
X146200000Y-80306250D01*
X146198826Y-80330142D01*
X146195316Y-80353803D01*
X146189504Y-80377007D01*
X146181446Y-80399529D01*
X146171218Y-80421153D01*
X146158921Y-80441670D01*
X146144671Y-80460883D01*
X146128607Y-80478607D01*
X146110883Y-80494671D01*
X146091670Y-80508921D01*
X146071153Y-80521218D01*
X146049529Y-80531446D01*
X146027007Y-80539504D01*
X146003803Y-80545316D01*
X145980142Y-80548826D01*
X145956250Y-80550000D01*
X145043750Y-80550000D01*
X145019858Y-80548826D01*
X144996197Y-80545316D01*
X144972993Y-80539504D01*
X144950471Y-80531446D01*
X144928847Y-80521218D01*
X144908330Y-80508921D01*
X144889117Y-80494671D01*
X144871393Y-80478607D01*
X144855329Y-80460883D01*
X144841079Y-80441670D01*
X144828782Y-80421153D01*
X144818554Y-80399529D01*
X144810496Y-80377007D01*
X144804684Y-80353803D01*
X144801174Y-80330142D01*
X144800000Y-80306250D01*
X144800000Y-79818750D01*
X144801174Y-79794858D01*
X144804684Y-79771197D01*
X144810496Y-79747993D01*
X144818554Y-79725471D01*
X144828782Y-79703847D01*
X144841079Y-79683330D01*
X144855329Y-79664117D01*
X144871393Y-79646393D01*
X144889117Y-79630329D01*
X144908330Y-79616079D01*
X144928847Y-79603782D01*
X144950471Y-79593554D01*
X144972993Y-79585496D01*
X144996197Y-79579684D01*
X145019858Y-79576174D01*
X145043750Y-79575000D01*
X145956250Y-79575000D01*
X145980142Y-79576174D01*
X145980142Y-79576174D01*
G37*
D14*
X145500000Y-80062500D03*
D10*
X153500000Y-100000000D03*
X146500000Y-100000000D03*
X103500000Y-100000000D03*
X96500000Y-100000000D03*
D13*
G36*
X149980142Y-81451174D02*
G01*
X150003803Y-81454684D01*
X150027007Y-81460496D01*
X150049529Y-81468554D01*
X150071153Y-81478782D01*
X150091670Y-81491079D01*
X150110883Y-81505329D01*
X150128607Y-81521393D01*
X150144671Y-81539117D01*
X150158921Y-81558330D01*
X150171218Y-81578847D01*
X150181446Y-81600471D01*
X150189504Y-81622993D01*
X150195316Y-81646197D01*
X150198826Y-81669858D01*
X150200000Y-81693750D01*
X150200000Y-82181250D01*
X150198826Y-82205142D01*
X150195316Y-82228803D01*
X150189504Y-82252007D01*
X150181446Y-82274529D01*
X150171218Y-82296153D01*
X150158921Y-82316670D01*
X150144671Y-82335883D01*
X150128607Y-82353607D01*
X150110883Y-82369671D01*
X150091670Y-82383921D01*
X150071153Y-82396218D01*
X150049529Y-82406446D01*
X150027007Y-82414504D01*
X150003803Y-82420316D01*
X149980142Y-82423826D01*
X149956250Y-82425000D01*
X149043750Y-82425000D01*
X149019858Y-82423826D01*
X148996197Y-82420316D01*
X148972993Y-82414504D01*
X148950471Y-82406446D01*
X148928847Y-82396218D01*
X148908330Y-82383921D01*
X148889117Y-82369671D01*
X148871393Y-82353607D01*
X148855329Y-82335883D01*
X148841079Y-82316670D01*
X148828782Y-82296153D01*
X148818554Y-82274529D01*
X148810496Y-82252007D01*
X148804684Y-82228803D01*
X148801174Y-82205142D01*
X148800000Y-82181250D01*
X148800000Y-81693750D01*
X148801174Y-81669858D01*
X148804684Y-81646197D01*
X148810496Y-81622993D01*
X148818554Y-81600471D01*
X148828782Y-81578847D01*
X148841079Y-81558330D01*
X148855329Y-81539117D01*
X148871393Y-81521393D01*
X148889117Y-81505329D01*
X148908330Y-81491079D01*
X148928847Y-81478782D01*
X148950471Y-81468554D01*
X148972993Y-81460496D01*
X148996197Y-81454684D01*
X149019858Y-81451174D01*
X149043750Y-81450000D01*
X149956250Y-81450000D01*
X149980142Y-81451174D01*
X149980142Y-81451174D01*
G37*
D14*
X149500000Y-81937500D03*
D13*
G36*
X149980142Y-79576174D02*
G01*
X150003803Y-79579684D01*
X150027007Y-79585496D01*
X150049529Y-79593554D01*
X150071153Y-79603782D01*
X150091670Y-79616079D01*
X150110883Y-79630329D01*
X150128607Y-79646393D01*
X150144671Y-79664117D01*
X150158921Y-79683330D01*
X150171218Y-79703847D01*
X150181446Y-79725471D01*
X150189504Y-79747993D01*
X150195316Y-79771197D01*
X150198826Y-79794858D01*
X150200000Y-79818750D01*
X150200000Y-80306250D01*
X150198826Y-80330142D01*
X150195316Y-80353803D01*
X150189504Y-80377007D01*
X150181446Y-80399529D01*
X150171218Y-80421153D01*
X150158921Y-80441670D01*
X150144671Y-80460883D01*
X150128607Y-80478607D01*
X150110883Y-80494671D01*
X150091670Y-80508921D01*
X150071153Y-80521218D01*
X150049529Y-80531446D01*
X150027007Y-80539504D01*
X150003803Y-80545316D01*
X149980142Y-80548826D01*
X149956250Y-80550000D01*
X149043750Y-80550000D01*
X149019858Y-80548826D01*
X148996197Y-80545316D01*
X148972993Y-80539504D01*
X148950471Y-80531446D01*
X148928847Y-80521218D01*
X148908330Y-80508921D01*
X148889117Y-80494671D01*
X148871393Y-80478607D01*
X148855329Y-80460883D01*
X148841079Y-80441670D01*
X148828782Y-80421153D01*
X148818554Y-80399529D01*
X148810496Y-80377007D01*
X148804684Y-80353803D01*
X148801174Y-80330142D01*
X148800000Y-80306250D01*
X148800000Y-79818750D01*
X148801174Y-79794858D01*
X148804684Y-79771197D01*
X148810496Y-79747993D01*
X148818554Y-79725471D01*
X148828782Y-79703847D01*
X148841079Y-79683330D01*
X148855329Y-79664117D01*
X148871393Y-79646393D01*
X148889117Y-79630329D01*
X148908330Y-79616079D01*
X148928847Y-79603782D01*
X148950471Y-79593554D01*
X148972993Y-79585496D01*
X148996197Y-79579684D01*
X149019858Y-79576174D01*
X149043750Y-79575000D01*
X149956250Y-79575000D01*
X149980142Y-79576174D01*
X149980142Y-79576174D01*
G37*
D14*
X149500000Y-80062500D03*
D15*
X143000000Y-74960000D03*
D13*
G36*
X143713711Y-78743130D02*
G01*
X143776809Y-78752490D01*
X143838685Y-78767989D01*
X143898744Y-78789478D01*
X143956408Y-78816751D01*
X144011121Y-78849545D01*
X144062356Y-78887543D01*
X144109619Y-78930381D01*
X144152457Y-78977644D01*
X144190455Y-79028879D01*
X144223249Y-79083592D01*
X144250522Y-79141256D01*
X144272011Y-79201315D01*
X144287510Y-79263191D01*
X144296870Y-79326289D01*
X144300000Y-79390000D01*
X144300000Y-80690000D01*
X144296870Y-80753711D01*
X144287510Y-80816809D01*
X144272011Y-80878685D01*
X144250522Y-80938744D01*
X144223249Y-80996408D01*
X144190455Y-81051121D01*
X144152457Y-81102356D01*
X144109619Y-81149619D01*
X144062356Y-81192457D01*
X144011121Y-81230455D01*
X143956408Y-81263249D01*
X143898744Y-81290522D01*
X143838685Y-81312011D01*
X143776809Y-81327510D01*
X143713711Y-81336870D01*
X143650000Y-81340000D01*
X142350000Y-81340000D01*
X142286289Y-81336870D01*
X142223191Y-81327510D01*
X142161315Y-81312011D01*
X142101256Y-81290522D01*
X142043592Y-81263249D01*
X141988879Y-81230455D01*
X141937644Y-81192457D01*
X141890381Y-81149619D01*
X141847543Y-81102356D01*
X141809545Y-81051121D01*
X141776751Y-80996408D01*
X141749478Y-80938744D01*
X141727989Y-80878685D01*
X141712490Y-80816809D01*
X141703130Y-80753711D01*
X141700000Y-80690000D01*
X141700000Y-79390000D01*
X141703130Y-79326289D01*
X141712490Y-79263191D01*
X141727989Y-79201315D01*
X141749478Y-79141256D01*
X141776751Y-79083592D01*
X141809545Y-79028879D01*
X141847543Y-78977644D01*
X141890381Y-78930381D01*
X141937644Y-78887543D01*
X141988879Y-78849545D01*
X142043592Y-78816751D01*
X142101256Y-78789478D01*
X142161315Y-78767989D01*
X142223191Y-78752490D01*
X142286289Y-78743130D01*
X142350000Y-78740000D01*
X143650000Y-78740000D01*
X143713711Y-78743130D01*
X143713711Y-78743130D01*
G37*
D15*
X143000000Y-80040000D03*
D13*
G36*
X145980142Y-76076174D02*
G01*
X146003803Y-76079684D01*
X146027007Y-76085496D01*
X146049529Y-76093554D01*
X146071153Y-76103782D01*
X146091670Y-76116079D01*
X146110883Y-76130329D01*
X146128607Y-76146393D01*
X146144671Y-76164117D01*
X146158921Y-76183330D01*
X146171218Y-76203847D01*
X146181446Y-76225471D01*
X146189504Y-76247993D01*
X146195316Y-76271197D01*
X146198826Y-76294858D01*
X146200000Y-76318750D01*
X146200000Y-76806250D01*
X146198826Y-76830142D01*
X146195316Y-76853803D01*
X146189504Y-76877007D01*
X146181446Y-76899529D01*
X146171218Y-76921153D01*
X146158921Y-76941670D01*
X146144671Y-76960883D01*
X146128607Y-76978607D01*
X146110883Y-76994671D01*
X146091670Y-77008921D01*
X146071153Y-77021218D01*
X146049529Y-77031446D01*
X146027007Y-77039504D01*
X146003803Y-77045316D01*
X145980142Y-77048826D01*
X145956250Y-77050000D01*
X145043750Y-77050000D01*
X145019858Y-77048826D01*
X144996197Y-77045316D01*
X144972993Y-77039504D01*
X144950471Y-77031446D01*
X144928847Y-77021218D01*
X144908330Y-77008921D01*
X144889117Y-76994671D01*
X144871393Y-76978607D01*
X144855329Y-76960883D01*
X144841079Y-76941670D01*
X144828782Y-76921153D01*
X144818554Y-76899529D01*
X144810496Y-76877007D01*
X144804684Y-76853803D01*
X144801174Y-76830142D01*
X144800000Y-76806250D01*
X144800000Y-76318750D01*
X144801174Y-76294858D01*
X144804684Y-76271197D01*
X144810496Y-76247993D01*
X144818554Y-76225471D01*
X144828782Y-76203847D01*
X144841079Y-76183330D01*
X144855329Y-76164117D01*
X144871393Y-76146393D01*
X144889117Y-76130329D01*
X144908330Y-76116079D01*
X144928847Y-76103782D01*
X144950471Y-76093554D01*
X144972993Y-76085496D01*
X144996197Y-76079684D01*
X145019858Y-76076174D01*
X145043750Y-76075000D01*
X145956250Y-76075000D01*
X145980142Y-76076174D01*
X145980142Y-76076174D01*
G37*
D14*
X145500000Y-76562500D03*
D13*
G36*
X145980142Y-77951174D02*
G01*
X146003803Y-77954684D01*
X146027007Y-77960496D01*
X146049529Y-77968554D01*
X146071153Y-77978782D01*
X146091670Y-77991079D01*
X146110883Y-78005329D01*
X146128607Y-78021393D01*
X146144671Y-78039117D01*
X146158921Y-78058330D01*
X146171218Y-78078847D01*
X146181446Y-78100471D01*
X146189504Y-78122993D01*
X146195316Y-78146197D01*
X146198826Y-78169858D01*
X146200000Y-78193750D01*
X146200000Y-78681250D01*
X146198826Y-78705142D01*
X146195316Y-78728803D01*
X146189504Y-78752007D01*
X146181446Y-78774529D01*
X146171218Y-78796153D01*
X146158921Y-78816670D01*
X146144671Y-78835883D01*
X146128607Y-78853607D01*
X146110883Y-78869671D01*
X146091670Y-78883921D01*
X146071153Y-78896218D01*
X146049529Y-78906446D01*
X146027007Y-78914504D01*
X146003803Y-78920316D01*
X145980142Y-78923826D01*
X145956250Y-78925000D01*
X145043750Y-78925000D01*
X145019858Y-78923826D01*
X144996197Y-78920316D01*
X144972993Y-78914504D01*
X144950471Y-78906446D01*
X144928847Y-78896218D01*
X144908330Y-78883921D01*
X144889117Y-78869671D01*
X144871393Y-78853607D01*
X144855329Y-78835883D01*
X144841079Y-78816670D01*
X144828782Y-78796153D01*
X144818554Y-78774529D01*
X144810496Y-78752007D01*
X144804684Y-78728803D01*
X144801174Y-78705142D01*
X144800000Y-78681250D01*
X144800000Y-78193750D01*
X144801174Y-78169858D01*
X144804684Y-78146197D01*
X144810496Y-78122993D01*
X144818554Y-78100471D01*
X144828782Y-78078847D01*
X144841079Y-78058330D01*
X144855329Y-78039117D01*
X144871393Y-78021393D01*
X144889117Y-78005329D01*
X144908330Y-77991079D01*
X144928847Y-77978782D01*
X144950471Y-77968554D01*
X144972993Y-77960496D01*
X144996197Y-77954684D01*
X145019858Y-77951174D01*
X145043750Y-77950000D01*
X145956250Y-77950000D01*
X145980142Y-77951174D01*
X145980142Y-77951174D01*
G37*
D14*
X145500000Y-78437500D03*
D13*
G36*
X147980142Y-76076174D02*
G01*
X148003803Y-76079684D01*
X148027007Y-76085496D01*
X148049529Y-76093554D01*
X148071153Y-76103782D01*
X148091670Y-76116079D01*
X148110883Y-76130329D01*
X148128607Y-76146393D01*
X148144671Y-76164117D01*
X148158921Y-76183330D01*
X148171218Y-76203847D01*
X148181446Y-76225471D01*
X148189504Y-76247993D01*
X148195316Y-76271197D01*
X148198826Y-76294858D01*
X148200000Y-76318750D01*
X148200000Y-76806250D01*
X148198826Y-76830142D01*
X148195316Y-76853803D01*
X148189504Y-76877007D01*
X148181446Y-76899529D01*
X148171218Y-76921153D01*
X148158921Y-76941670D01*
X148144671Y-76960883D01*
X148128607Y-76978607D01*
X148110883Y-76994671D01*
X148091670Y-77008921D01*
X148071153Y-77021218D01*
X148049529Y-77031446D01*
X148027007Y-77039504D01*
X148003803Y-77045316D01*
X147980142Y-77048826D01*
X147956250Y-77050000D01*
X147043750Y-77050000D01*
X147019858Y-77048826D01*
X146996197Y-77045316D01*
X146972993Y-77039504D01*
X146950471Y-77031446D01*
X146928847Y-77021218D01*
X146908330Y-77008921D01*
X146889117Y-76994671D01*
X146871393Y-76978607D01*
X146855329Y-76960883D01*
X146841079Y-76941670D01*
X146828782Y-76921153D01*
X146818554Y-76899529D01*
X146810496Y-76877007D01*
X146804684Y-76853803D01*
X146801174Y-76830142D01*
X146800000Y-76806250D01*
X146800000Y-76318750D01*
X146801174Y-76294858D01*
X146804684Y-76271197D01*
X146810496Y-76247993D01*
X146818554Y-76225471D01*
X146828782Y-76203847D01*
X146841079Y-76183330D01*
X146855329Y-76164117D01*
X146871393Y-76146393D01*
X146889117Y-76130329D01*
X146908330Y-76116079D01*
X146928847Y-76103782D01*
X146950471Y-76093554D01*
X146972993Y-76085496D01*
X146996197Y-76079684D01*
X147019858Y-76076174D01*
X147043750Y-76075000D01*
X147956250Y-76075000D01*
X147980142Y-76076174D01*
X147980142Y-76076174D01*
G37*
D14*
X147500000Y-76562500D03*
D13*
G36*
X147980142Y-77951174D02*
G01*
X148003803Y-77954684D01*
X148027007Y-77960496D01*
X148049529Y-77968554D01*
X148071153Y-77978782D01*
X148091670Y-77991079D01*
X148110883Y-78005329D01*
X148128607Y-78021393D01*
X148144671Y-78039117D01*
X148158921Y-78058330D01*
X148171218Y-78078847D01*
X148181446Y-78100471D01*
X148189504Y-78122993D01*
X148195316Y-78146197D01*
X148198826Y-78169858D01*
X148200000Y-78193750D01*
X148200000Y-78681250D01*
X148198826Y-78705142D01*
X148195316Y-78728803D01*
X148189504Y-78752007D01*
X148181446Y-78774529D01*
X148171218Y-78796153D01*
X148158921Y-78816670D01*
X148144671Y-78835883D01*
X148128607Y-78853607D01*
X148110883Y-78869671D01*
X148091670Y-78883921D01*
X148071153Y-78896218D01*
X148049529Y-78906446D01*
X148027007Y-78914504D01*
X148003803Y-78920316D01*
X147980142Y-78923826D01*
X147956250Y-78925000D01*
X147043750Y-78925000D01*
X147019858Y-78923826D01*
X146996197Y-78920316D01*
X146972993Y-78914504D01*
X146950471Y-78906446D01*
X146928847Y-78896218D01*
X146908330Y-78883921D01*
X146889117Y-78869671D01*
X146871393Y-78853607D01*
X146855329Y-78835883D01*
X146841079Y-78816670D01*
X146828782Y-78796153D01*
X146818554Y-78774529D01*
X146810496Y-78752007D01*
X146804684Y-78728803D01*
X146801174Y-78705142D01*
X146800000Y-78681250D01*
X146800000Y-78193750D01*
X146801174Y-78169858D01*
X146804684Y-78146197D01*
X146810496Y-78122993D01*
X146818554Y-78100471D01*
X146828782Y-78078847D01*
X146841079Y-78058330D01*
X146855329Y-78039117D01*
X146871393Y-78021393D01*
X146889117Y-78005329D01*
X146908330Y-77991079D01*
X146928847Y-77978782D01*
X146950471Y-77968554D01*
X146972993Y-77960496D01*
X146996197Y-77954684D01*
X147019858Y-77951174D01*
X147043750Y-77950000D01*
X147956250Y-77950000D01*
X147980142Y-77951174D01*
X147980142Y-77951174D01*
G37*
D14*
X147500000Y-78437500D03*
D13*
G36*
X159480142Y-76076174D02*
G01*
X159503803Y-76079684D01*
X159527007Y-76085496D01*
X159549529Y-76093554D01*
X159571153Y-76103782D01*
X159591670Y-76116079D01*
X159610883Y-76130329D01*
X159628607Y-76146393D01*
X159644671Y-76164117D01*
X159658921Y-76183330D01*
X159671218Y-76203847D01*
X159681446Y-76225471D01*
X159689504Y-76247993D01*
X159695316Y-76271197D01*
X159698826Y-76294858D01*
X159700000Y-76318750D01*
X159700000Y-76806250D01*
X159698826Y-76830142D01*
X159695316Y-76853803D01*
X159689504Y-76877007D01*
X159681446Y-76899529D01*
X159671218Y-76921153D01*
X159658921Y-76941670D01*
X159644671Y-76960883D01*
X159628607Y-76978607D01*
X159610883Y-76994671D01*
X159591670Y-77008921D01*
X159571153Y-77021218D01*
X159549529Y-77031446D01*
X159527007Y-77039504D01*
X159503803Y-77045316D01*
X159480142Y-77048826D01*
X159456250Y-77050000D01*
X158543750Y-77050000D01*
X158519858Y-77048826D01*
X158496197Y-77045316D01*
X158472993Y-77039504D01*
X158450471Y-77031446D01*
X158428847Y-77021218D01*
X158408330Y-77008921D01*
X158389117Y-76994671D01*
X158371393Y-76978607D01*
X158355329Y-76960883D01*
X158341079Y-76941670D01*
X158328782Y-76921153D01*
X158318554Y-76899529D01*
X158310496Y-76877007D01*
X158304684Y-76853803D01*
X158301174Y-76830142D01*
X158300000Y-76806250D01*
X158300000Y-76318750D01*
X158301174Y-76294858D01*
X158304684Y-76271197D01*
X158310496Y-76247993D01*
X158318554Y-76225471D01*
X158328782Y-76203847D01*
X158341079Y-76183330D01*
X158355329Y-76164117D01*
X158371393Y-76146393D01*
X158389117Y-76130329D01*
X158408330Y-76116079D01*
X158428847Y-76103782D01*
X158450471Y-76093554D01*
X158472993Y-76085496D01*
X158496197Y-76079684D01*
X158519858Y-76076174D01*
X158543750Y-76075000D01*
X159456250Y-76075000D01*
X159480142Y-76076174D01*
X159480142Y-76076174D01*
G37*
D14*
X159000000Y-76562500D03*
D13*
G36*
X159480142Y-77951174D02*
G01*
X159503803Y-77954684D01*
X159527007Y-77960496D01*
X159549529Y-77968554D01*
X159571153Y-77978782D01*
X159591670Y-77991079D01*
X159610883Y-78005329D01*
X159628607Y-78021393D01*
X159644671Y-78039117D01*
X159658921Y-78058330D01*
X159671218Y-78078847D01*
X159681446Y-78100471D01*
X159689504Y-78122993D01*
X159695316Y-78146197D01*
X159698826Y-78169858D01*
X159700000Y-78193750D01*
X159700000Y-78681250D01*
X159698826Y-78705142D01*
X159695316Y-78728803D01*
X159689504Y-78752007D01*
X159681446Y-78774529D01*
X159671218Y-78796153D01*
X159658921Y-78816670D01*
X159644671Y-78835883D01*
X159628607Y-78853607D01*
X159610883Y-78869671D01*
X159591670Y-78883921D01*
X159571153Y-78896218D01*
X159549529Y-78906446D01*
X159527007Y-78914504D01*
X159503803Y-78920316D01*
X159480142Y-78923826D01*
X159456250Y-78925000D01*
X158543750Y-78925000D01*
X158519858Y-78923826D01*
X158496197Y-78920316D01*
X158472993Y-78914504D01*
X158450471Y-78906446D01*
X158428847Y-78896218D01*
X158408330Y-78883921D01*
X158389117Y-78869671D01*
X158371393Y-78853607D01*
X158355329Y-78835883D01*
X158341079Y-78816670D01*
X158328782Y-78796153D01*
X158318554Y-78774529D01*
X158310496Y-78752007D01*
X158304684Y-78728803D01*
X158301174Y-78705142D01*
X158300000Y-78681250D01*
X158300000Y-78193750D01*
X158301174Y-78169858D01*
X158304684Y-78146197D01*
X158310496Y-78122993D01*
X158318554Y-78100471D01*
X158328782Y-78078847D01*
X158341079Y-78058330D01*
X158355329Y-78039117D01*
X158371393Y-78021393D01*
X158389117Y-78005329D01*
X158408330Y-77991079D01*
X158428847Y-77978782D01*
X158450471Y-77968554D01*
X158472993Y-77960496D01*
X158496197Y-77954684D01*
X158519858Y-77951174D01*
X158543750Y-77950000D01*
X159456250Y-77950000D01*
X159480142Y-77951174D01*
X159480142Y-77951174D01*
G37*
D14*
X159000000Y-78437500D03*
D13*
G36*
X151480142Y-76076174D02*
G01*
X151503803Y-76079684D01*
X151527007Y-76085496D01*
X151549529Y-76093554D01*
X151571153Y-76103782D01*
X151591670Y-76116079D01*
X151610883Y-76130329D01*
X151628607Y-76146393D01*
X151644671Y-76164117D01*
X151658921Y-76183330D01*
X151671218Y-76203847D01*
X151681446Y-76225471D01*
X151689504Y-76247993D01*
X151695316Y-76271197D01*
X151698826Y-76294858D01*
X151700000Y-76318750D01*
X151700000Y-76806250D01*
X151698826Y-76830142D01*
X151695316Y-76853803D01*
X151689504Y-76877007D01*
X151681446Y-76899529D01*
X151671218Y-76921153D01*
X151658921Y-76941670D01*
X151644671Y-76960883D01*
X151628607Y-76978607D01*
X151610883Y-76994671D01*
X151591670Y-77008921D01*
X151571153Y-77021218D01*
X151549529Y-77031446D01*
X151527007Y-77039504D01*
X151503803Y-77045316D01*
X151480142Y-77048826D01*
X151456250Y-77050000D01*
X150543750Y-77050000D01*
X150519858Y-77048826D01*
X150496197Y-77045316D01*
X150472993Y-77039504D01*
X150450471Y-77031446D01*
X150428847Y-77021218D01*
X150408330Y-77008921D01*
X150389117Y-76994671D01*
X150371393Y-76978607D01*
X150355329Y-76960883D01*
X150341079Y-76941670D01*
X150328782Y-76921153D01*
X150318554Y-76899529D01*
X150310496Y-76877007D01*
X150304684Y-76853803D01*
X150301174Y-76830142D01*
X150300000Y-76806250D01*
X150300000Y-76318750D01*
X150301174Y-76294858D01*
X150304684Y-76271197D01*
X150310496Y-76247993D01*
X150318554Y-76225471D01*
X150328782Y-76203847D01*
X150341079Y-76183330D01*
X150355329Y-76164117D01*
X150371393Y-76146393D01*
X150389117Y-76130329D01*
X150408330Y-76116079D01*
X150428847Y-76103782D01*
X150450471Y-76093554D01*
X150472993Y-76085496D01*
X150496197Y-76079684D01*
X150519858Y-76076174D01*
X150543750Y-76075000D01*
X151456250Y-76075000D01*
X151480142Y-76076174D01*
X151480142Y-76076174D01*
G37*
D14*
X151000000Y-76562500D03*
D13*
G36*
X151480142Y-77951174D02*
G01*
X151503803Y-77954684D01*
X151527007Y-77960496D01*
X151549529Y-77968554D01*
X151571153Y-77978782D01*
X151591670Y-77991079D01*
X151610883Y-78005329D01*
X151628607Y-78021393D01*
X151644671Y-78039117D01*
X151658921Y-78058330D01*
X151671218Y-78078847D01*
X151681446Y-78100471D01*
X151689504Y-78122993D01*
X151695316Y-78146197D01*
X151698826Y-78169858D01*
X151700000Y-78193750D01*
X151700000Y-78681250D01*
X151698826Y-78705142D01*
X151695316Y-78728803D01*
X151689504Y-78752007D01*
X151681446Y-78774529D01*
X151671218Y-78796153D01*
X151658921Y-78816670D01*
X151644671Y-78835883D01*
X151628607Y-78853607D01*
X151610883Y-78869671D01*
X151591670Y-78883921D01*
X151571153Y-78896218D01*
X151549529Y-78906446D01*
X151527007Y-78914504D01*
X151503803Y-78920316D01*
X151480142Y-78923826D01*
X151456250Y-78925000D01*
X150543750Y-78925000D01*
X150519858Y-78923826D01*
X150496197Y-78920316D01*
X150472993Y-78914504D01*
X150450471Y-78906446D01*
X150428847Y-78896218D01*
X150408330Y-78883921D01*
X150389117Y-78869671D01*
X150371393Y-78853607D01*
X150355329Y-78835883D01*
X150341079Y-78816670D01*
X150328782Y-78796153D01*
X150318554Y-78774529D01*
X150310496Y-78752007D01*
X150304684Y-78728803D01*
X150301174Y-78705142D01*
X150300000Y-78681250D01*
X150300000Y-78193750D01*
X150301174Y-78169858D01*
X150304684Y-78146197D01*
X150310496Y-78122993D01*
X150318554Y-78100471D01*
X150328782Y-78078847D01*
X150341079Y-78058330D01*
X150355329Y-78039117D01*
X150371393Y-78021393D01*
X150389117Y-78005329D01*
X150408330Y-77991079D01*
X150428847Y-77978782D01*
X150450471Y-77968554D01*
X150472993Y-77960496D01*
X150496197Y-77954684D01*
X150519858Y-77951174D01*
X150543750Y-77950000D01*
X151456250Y-77950000D01*
X151480142Y-77951174D01*
X151480142Y-77951174D01*
G37*
D14*
X151000000Y-78437500D03*
D13*
G36*
X157480142Y-76076174D02*
G01*
X157503803Y-76079684D01*
X157527007Y-76085496D01*
X157549529Y-76093554D01*
X157571153Y-76103782D01*
X157591670Y-76116079D01*
X157610883Y-76130329D01*
X157628607Y-76146393D01*
X157644671Y-76164117D01*
X157658921Y-76183330D01*
X157671218Y-76203847D01*
X157681446Y-76225471D01*
X157689504Y-76247993D01*
X157695316Y-76271197D01*
X157698826Y-76294858D01*
X157700000Y-76318750D01*
X157700000Y-76806250D01*
X157698826Y-76830142D01*
X157695316Y-76853803D01*
X157689504Y-76877007D01*
X157681446Y-76899529D01*
X157671218Y-76921153D01*
X157658921Y-76941670D01*
X157644671Y-76960883D01*
X157628607Y-76978607D01*
X157610883Y-76994671D01*
X157591670Y-77008921D01*
X157571153Y-77021218D01*
X157549529Y-77031446D01*
X157527007Y-77039504D01*
X157503803Y-77045316D01*
X157480142Y-77048826D01*
X157456250Y-77050000D01*
X156543750Y-77050000D01*
X156519858Y-77048826D01*
X156496197Y-77045316D01*
X156472993Y-77039504D01*
X156450471Y-77031446D01*
X156428847Y-77021218D01*
X156408330Y-77008921D01*
X156389117Y-76994671D01*
X156371393Y-76978607D01*
X156355329Y-76960883D01*
X156341079Y-76941670D01*
X156328782Y-76921153D01*
X156318554Y-76899529D01*
X156310496Y-76877007D01*
X156304684Y-76853803D01*
X156301174Y-76830142D01*
X156300000Y-76806250D01*
X156300000Y-76318750D01*
X156301174Y-76294858D01*
X156304684Y-76271197D01*
X156310496Y-76247993D01*
X156318554Y-76225471D01*
X156328782Y-76203847D01*
X156341079Y-76183330D01*
X156355329Y-76164117D01*
X156371393Y-76146393D01*
X156389117Y-76130329D01*
X156408330Y-76116079D01*
X156428847Y-76103782D01*
X156450471Y-76093554D01*
X156472993Y-76085496D01*
X156496197Y-76079684D01*
X156519858Y-76076174D01*
X156543750Y-76075000D01*
X157456250Y-76075000D01*
X157480142Y-76076174D01*
X157480142Y-76076174D01*
G37*
D14*
X157000000Y-76562500D03*
D13*
G36*
X157480142Y-77951174D02*
G01*
X157503803Y-77954684D01*
X157527007Y-77960496D01*
X157549529Y-77968554D01*
X157571153Y-77978782D01*
X157591670Y-77991079D01*
X157610883Y-78005329D01*
X157628607Y-78021393D01*
X157644671Y-78039117D01*
X157658921Y-78058330D01*
X157671218Y-78078847D01*
X157681446Y-78100471D01*
X157689504Y-78122993D01*
X157695316Y-78146197D01*
X157698826Y-78169858D01*
X157700000Y-78193750D01*
X157700000Y-78681250D01*
X157698826Y-78705142D01*
X157695316Y-78728803D01*
X157689504Y-78752007D01*
X157681446Y-78774529D01*
X157671218Y-78796153D01*
X157658921Y-78816670D01*
X157644671Y-78835883D01*
X157628607Y-78853607D01*
X157610883Y-78869671D01*
X157591670Y-78883921D01*
X157571153Y-78896218D01*
X157549529Y-78906446D01*
X157527007Y-78914504D01*
X157503803Y-78920316D01*
X157480142Y-78923826D01*
X157456250Y-78925000D01*
X156543750Y-78925000D01*
X156519858Y-78923826D01*
X156496197Y-78920316D01*
X156472993Y-78914504D01*
X156450471Y-78906446D01*
X156428847Y-78896218D01*
X156408330Y-78883921D01*
X156389117Y-78869671D01*
X156371393Y-78853607D01*
X156355329Y-78835883D01*
X156341079Y-78816670D01*
X156328782Y-78796153D01*
X156318554Y-78774529D01*
X156310496Y-78752007D01*
X156304684Y-78728803D01*
X156301174Y-78705142D01*
X156300000Y-78681250D01*
X156300000Y-78193750D01*
X156301174Y-78169858D01*
X156304684Y-78146197D01*
X156310496Y-78122993D01*
X156318554Y-78100471D01*
X156328782Y-78078847D01*
X156341079Y-78058330D01*
X156355329Y-78039117D01*
X156371393Y-78021393D01*
X156389117Y-78005329D01*
X156408330Y-77991079D01*
X156428847Y-77978782D01*
X156450471Y-77968554D01*
X156472993Y-77960496D01*
X156496197Y-77954684D01*
X156519858Y-77951174D01*
X156543750Y-77950000D01*
X157456250Y-77950000D01*
X157480142Y-77951174D01*
X157480142Y-77951174D01*
G37*
D14*
X157000000Y-78437500D03*
D13*
G36*
X153283428Y-78125782D02*
G01*
X153299202Y-78128122D01*
X153314671Y-78131997D01*
X153329686Y-78137370D01*
X153344102Y-78144188D01*
X153357780Y-78152386D01*
X153370589Y-78161886D01*
X153382405Y-78172595D01*
X153393114Y-78184411D01*
X153402614Y-78197220D01*
X153410812Y-78210898D01*
X153417630Y-78225314D01*
X153423003Y-78240329D01*
X153426878Y-78255798D01*
X153429218Y-78271572D01*
X153430000Y-78287500D01*
X153430000Y-78612500D01*
X153429218Y-78628428D01*
X153426878Y-78644202D01*
X153423003Y-78659671D01*
X153417630Y-78674686D01*
X153410812Y-78689102D01*
X153402614Y-78702780D01*
X153393114Y-78715589D01*
X153382405Y-78727405D01*
X153370589Y-78738114D01*
X153357780Y-78747614D01*
X153344102Y-78755812D01*
X153329686Y-78762630D01*
X153314671Y-78768003D01*
X153299202Y-78771878D01*
X153283428Y-78774218D01*
X153267500Y-78775000D01*
X152532500Y-78775000D01*
X152516572Y-78774218D01*
X152500798Y-78771878D01*
X152485329Y-78768003D01*
X152470314Y-78762630D01*
X152455898Y-78755812D01*
X152442220Y-78747614D01*
X152429411Y-78738114D01*
X152417595Y-78727405D01*
X152406886Y-78715589D01*
X152397386Y-78702780D01*
X152389188Y-78689102D01*
X152382370Y-78674686D01*
X152376997Y-78659671D01*
X152373122Y-78644202D01*
X152370782Y-78628428D01*
X152370000Y-78612500D01*
X152370000Y-78287500D01*
X152370782Y-78271572D01*
X152373122Y-78255798D01*
X152376997Y-78240329D01*
X152382370Y-78225314D01*
X152389188Y-78210898D01*
X152397386Y-78197220D01*
X152406886Y-78184411D01*
X152417595Y-78172595D01*
X152429411Y-78161886D01*
X152442220Y-78152386D01*
X152455898Y-78144188D01*
X152470314Y-78137370D01*
X152485329Y-78131997D01*
X152500798Y-78128122D01*
X152516572Y-78125782D01*
X152532500Y-78125000D01*
X153267500Y-78125000D01*
X153283428Y-78125782D01*
X153283428Y-78125782D01*
G37*
D16*
X152900000Y-78450000D03*
D13*
G36*
X153283428Y-76225782D02*
G01*
X153299202Y-76228122D01*
X153314671Y-76231997D01*
X153329686Y-76237370D01*
X153344102Y-76244188D01*
X153357780Y-76252386D01*
X153370589Y-76261886D01*
X153382405Y-76272595D01*
X153393114Y-76284411D01*
X153402614Y-76297220D01*
X153410812Y-76310898D01*
X153417630Y-76325314D01*
X153423003Y-76340329D01*
X153426878Y-76355798D01*
X153429218Y-76371572D01*
X153430000Y-76387500D01*
X153430000Y-76712500D01*
X153429218Y-76728428D01*
X153426878Y-76744202D01*
X153423003Y-76759671D01*
X153417630Y-76774686D01*
X153410812Y-76789102D01*
X153402614Y-76802780D01*
X153393114Y-76815589D01*
X153382405Y-76827405D01*
X153370589Y-76838114D01*
X153357780Y-76847614D01*
X153344102Y-76855812D01*
X153329686Y-76862630D01*
X153314671Y-76868003D01*
X153299202Y-76871878D01*
X153283428Y-76874218D01*
X153267500Y-76875000D01*
X152532500Y-76875000D01*
X152516572Y-76874218D01*
X152500798Y-76871878D01*
X152485329Y-76868003D01*
X152470314Y-76862630D01*
X152455898Y-76855812D01*
X152442220Y-76847614D01*
X152429411Y-76838114D01*
X152417595Y-76827405D01*
X152406886Y-76815589D01*
X152397386Y-76802780D01*
X152389188Y-76789102D01*
X152382370Y-76774686D01*
X152376997Y-76759671D01*
X152373122Y-76744202D01*
X152370782Y-76728428D01*
X152370000Y-76712500D01*
X152370000Y-76387500D01*
X152370782Y-76371572D01*
X152373122Y-76355798D01*
X152376997Y-76340329D01*
X152382370Y-76325314D01*
X152389188Y-76310898D01*
X152397386Y-76297220D01*
X152406886Y-76284411D01*
X152417595Y-76272595D01*
X152429411Y-76261886D01*
X152442220Y-76252386D01*
X152455898Y-76244188D01*
X152470314Y-76237370D01*
X152485329Y-76231997D01*
X152500798Y-76228122D01*
X152516572Y-76225782D01*
X152532500Y-76225000D01*
X153267500Y-76225000D01*
X153283428Y-76225782D01*
X153283428Y-76225782D01*
G37*
D16*
X152900000Y-76550000D03*
D13*
G36*
X155483428Y-76225782D02*
G01*
X155499202Y-76228122D01*
X155514671Y-76231997D01*
X155529686Y-76237370D01*
X155544102Y-76244188D01*
X155557780Y-76252386D01*
X155570589Y-76261886D01*
X155582405Y-76272595D01*
X155593114Y-76284411D01*
X155602614Y-76297220D01*
X155610812Y-76310898D01*
X155617630Y-76325314D01*
X155623003Y-76340329D01*
X155626878Y-76355798D01*
X155629218Y-76371572D01*
X155630000Y-76387500D01*
X155630000Y-76712500D01*
X155629218Y-76728428D01*
X155626878Y-76744202D01*
X155623003Y-76759671D01*
X155617630Y-76774686D01*
X155610812Y-76789102D01*
X155602614Y-76802780D01*
X155593114Y-76815589D01*
X155582405Y-76827405D01*
X155570589Y-76838114D01*
X155557780Y-76847614D01*
X155544102Y-76855812D01*
X155529686Y-76862630D01*
X155514671Y-76868003D01*
X155499202Y-76871878D01*
X155483428Y-76874218D01*
X155467500Y-76875000D01*
X154732500Y-76875000D01*
X154716572Y-76874218D01*
X154700798Y-76871878D01*
X154685329Y-76868003D01*
X154670314Y-76862630D01*
X154655898Y-76855812D01*
X154642220Y-76847614D01*
X154629411Y-76838114D01*
X154617595Y-76827405D01*
X154606886Y-76815589D01*
X154597386Y-76802780D01*
X154589188Y-76789102D01*
X154582370Y-76774686D01*
X154576997Y-76759671D01*
X154573122Y-76744202D01*
X154570782Y-76728428D01*
X154570000Y-76712500D01*
X154570000Y-76387500D01*
X154570782Y-76371572D01*
X154573122Y-76355798D01*
X154576997Y-76340329D01*
X154582370Y-76325314D01*
X154589188Y-76310898D01*
X154597386Y-76297220D01*
X154606886Y-76284411D01*
X154617595Y-76272595D01*
X154629411Y-76261886D01*
X154642220Y-76252386D01*
X154655898Y-76244188D01*
X154670314Y-76237370D01*
X154685329Y-76231997D01*
X154700798Y-76228122D01*
X154716572Y-76225782D01*
X154732500Y-76225000D01*
X155467500Y-76225000D01*
X155483428Y-76225782D01*
X155483428Y-76225782D01*
G37*
D16*
X155100000Y-76550000D03*
D13*
G36*
X155483428Y-77175782D02*
G01*
X155499202Y-77178122D01*
X155514671Y-77181997D01*
X155529686Y-77187370D01*
X155544102Y-77194188D01*
X155557780Y-77202386D01*
X155570589Y-77211886D01*
X155582405Y-77222595D01*
X155593114Y-77234411D01*
X155602614Y-77247220D01*
X155610812Y-77260898D01*
X155617630Y-77275314D01*
X155623003Y-77290329D01*
X155626878Y-77305798D01*
X155629218Y-77321572D01*
X155630000Y-77337500D01*
X155630000Y-77662500D01*
X155629218Y-77678428D01*
X155626878Y-77694202D01*
X155623003Y-77709671D01*
X155617630Y-77724686D01*
X155610812Y-77739102D01*
X155602614Y-77752780D01*
X155593114Y-77765589D01*
X155582405Y-77777405D01*
X155570589Y-77788114D01*
X155557780Y-77797614D01*
X155544102Y-77805812D01*
X155529686Y-77812630D01*
X155514671Y-77818003D01*
X155499202Y-77821878D01*
X155483428Y-77824218D01*
X155467500Y-77825000D01*
X154732500Y-77825000D01*
X154716572Y-77824218D01*
X154700798Y-77821878D01*
X154685329Y-77818003D01*
X154670314Y-77812630D01*
X154655898Y-77805812D01*
X154642220Y-77797614D01*
X154629411Y-77788114D01*
X154617595Y-77777405D01*
X154606886Y-77765589D01*
X154597386Y-77752780D01*
X154589188Y-77739102D01*
X154582370Y-77724686D01*
X154576997Y-77709671D01*
X154573122Y-77694202D01*
X154570782Y-77678428D01*
X154570000Y-77662500D01*
X154570000Y-77337500D01*
X154570782Y-77321572D01*
X154573122Y-77305798D01*
X154576997Y-77290329D01*
X154582370Y-77275314D01*
X154589188Y-77260898D01*
X154597386Y-77247220D01*
X154606886Y-77234411D01*
X154617595Y-77222595D01*
X154629411Y-77211886D01*
X154642220Y-77202386D01*
X154655898Y-77194188D01*
X154670314Y-77187370D01*
X154685329Y-77181997D01*
X154700798Y-77178122D01*
X154716572Y-77175782D01*
X154732500Y-77175000D01*
X155467500Y-77175000D01*
X155483428Y-77175782D01*
X155483428Y-77175782D01*
G37*
D16*
X155100000Y-77500000D03*
D13*
G36*
X155483428Y-78125782D02*
G01*
X155499202Y-78128122D01*
X155514671Y-78131997D01*
X155529686Y-78137370D01*
X155544102Y-78144188D01*
X155557780Y-78152386D01*
X155570589Y-78161886D01*
X155582405Y-78172595D01*
X155593114Y-78184411D01*
X155602614Y-78197220D01*
X155610812Y-78210898D01*
X155617630Y-78225314D01*
X155623003Y-78240329D01*
X155626878Y-78255798D01*
X155629218Y-78271572D01*
X155630000Y-78287500D01*
X155630000Y-78612500D01*
X155629218Y-78628428D01*
X155626878Y-78644202D01*
X155623003Y-78659671D01*
X155617630Y-78674686D01*
X155610812Y-78689102D01*
X155602614Y-78702780D01*
X155593114Y-78715589D01*
X155582405Y-78727405D01*
X155570589Y-78738114D01*
X155557780Y-78747614D01*
X155544102Y-78755812D01*
X155529686Y-78762630D01*
X155514671Y-78768003D01*
X155499202Y-78771878D01*
X155483428Y-78774218D01*
X155467500Y-78775000D01*
X154732500Y-78775000D01*
X154716572Y-78774218D01*
X154700798Y-78771878D01*
X154685329Y-78768003D01*
X154670314Y-78762630D01*
X154655898Y-78755812D01*
X154642220Y-78747614D01*
X154629411Y-78738114D01*
X154617595Y-78727405D01*
X154606886Y-78715589D01*
X154597386Y-78702780D01*
X154589188Y-78689102D01*
X154582370Y-78674686D01*
X154576997Y-78659671D01*
X154573122Y-78644202D01*
X154570782Y-78628428D01*
X154570000Y-78612500D01*
X154570000Y-78287500D01*
X154570782Y-78271572D01*
X154573122Y-78255798D01*
X154576997Y-78240329D01*
X154582370Y-78225314D01*
X154589188Y-78210898D01*
X154597386Y-78197220D01*
X154606886Y-78184411D01*
X154617595Y-78172595D01*
X154629411Y-78161886D01*
X154642220Y-78152386D01*
X154655898Y-78144188D01*
X154670314Y-78137370D01*
X154685329Y-78131997D01*
X154700798Y-78128122D01*
X154716572Y-78125782D01*
X154732500Y-78125000D01*
X155467500Y-78125000D01*
X155483428Y-78125782D01*
X155483428Y-78125782D01*
G37*
D16*
X155100000Y-78450000D03*
D17*
X151000000Y-76562500D03*
X155100000Y-77500000D03*
X157000000Y-76562500D03*
X93000000Y-87650000D03*
X157000000Y-87650000D03*
X93000000Y-67350000D03*
X157000000Y-67350000D03*
X149500000Y-81937500D03*
X161000000Y-81500000D03*
X161000000Y-73500000D03*
X107000000Y-87650000D03*
X143000000Y-87650000D03*
X107000000Y-67350000D03*
X143000000Y-67350000D03*
X159000000Y-76562500D03*
X149500000Y-80062500D03*
X134062500Y-87000000D03*
X129062500Y-87000000D03*
X124062500Y-87000000D03*
X119062500Y-87000000D03*
X114062500Y-87000000D03*
X84062500Y-87000000D03*
X89062500Y-87000000D03*
X164062500Y-87000000D03*
X159062500Y-87000000D03*
X139062500Y-87000000D03*
X109062500Y-87000000D03*
X84062500Y-68000000D03*
X89062500Y-68000000D03*
X109062500Y-68000000D03*
X114062500Y-68000000D03*
X119062500Y-68000000D03*
X124062500Y-68000000D03*
X129062500Y-68000000D03*
X134062500Y-68000000D03*
X139062500Y-68000000D03*
X159062500Y-68000000D03*
X164062500Y-68000000D03*
D18*
X157000000Y-89000000D02*
X157000000Y-87650000D01*
X156475010Y-89524990D02*
X157000000Y-89000000D01*
X93924990Y-89524990D02*
X156475010Y-89524990D01*
X93000000Y-87650000D02*
X93000000Y-88600000D01*
X93000000Y-88600000D02*
X93924990Y-89524990D01*
X157000000Y-66000000D02*
X157000000Y-67350000D01*
X156500000Y-65500000D02*
X157000000Y-66000000D01*
X93900000Y-65500000D02*
X156500000Y-65500000D01*
X93000000Y-67350000D02*
X93000000Y-66400000D01*
X93000000Y-66400000D02*
X93900000Y-65500000D01*
X161000000Y-82500000D02*
X161000000Y-81500000D01*
X157000000Y-87650000D02*
X157000000Y-86500000D01*
X157000000Y-86500000D02*
X161000000Y-82500000D01*
X157000000Y-67350000D02*
X157000000Y-68300000D01*
X157000000Y-68300000D02*
X157000000Y-68500000D01*
X157000000Y-68500000D02*
X161000000Y-72500000D01*
X161000000Y-72500000D02*
X161000000Y-73500000D01*
X142150000Y-66500000D02*
X143000000Y-67350000D01*
X107000000Y-67350000D02*
X107850000Y-66500000D01*
X107850000Y-66500000D02*
X142150000Y-66500000D01*
X142150000Y-88500000D02*
X143000000Y-87650000D01*
X107000000Y-87650000D02*
X107850000Y-88500000D01*
X107850000Y-88500000D02*
X142150000Y-88500000D01*
D19*
X154470000Y-76550000D02*
X155100000Y-76550000D01*
X154244990Y-76775010D02*
X154470000Y-76550000D01*
X154244990Y-78224990D02*
X154244990Y-76775010D01*
X154470000Y-78450000D02*
X154244990Y-78224990D01*
X155100000Y-78450000D02*
X154470000Y-78450000D01*
X156987500Y-78450000D02*
X157000000Y-78437500D01*
X155100000Y-78450000D02*
X156987500Y-78450000D01*
X159000000Y-78437500D02*
X157000000Y-78437500D01*
D18*
X144700000Y-81937500D02*
X145500000Y-81937500D01*
X142712498Y-81937500D02*
X144700000Y-81937500D01*
X141149998Y-83500000D02*
X142712498Y-81937500D01*
X107000000Y-83500000D02*
X141149998Y-83500000D01*
X144131370Y-83500000D02*
X143000000Y-83500000D01*
X144606380Y-83024990D02*
X144131370Y-83500000D01*
X155868630Y-83500000D02*
X155393620Y-83024990D01*
X157000000Y-83500000D02*
X155868630Y-83500000D01*
X147500000Y-83000000D02*
X147475010Y-83024990D01*
X147500000Y-81937500D02*
X147500000Y-83000000D01*
X155393620Y-83024990D02*
X147475010Y-83024990D01*
X147475010Y-83024990D02*
X144606380Y-83024990D01*
D20*
X144602500Y-76562500D02*
X143000000Y-74960000D01*
X145500000Y-76562500D02*
X144602500Y-76562500D01*
X147500000Y-76562500D02*
X145500000Y-76562500D01*
X144602500Y-78437500D02*
X143000000Y-80040000D01*
X145500000Y-78437500D02*
X144602500Y-78437500D01*
X147500000Y-78437500D02*
X145500000Y-78437500D01*
D18*
X145500000Y-80062500D02*
X145500000Y-78437500D01*
X147500000Y-80062500D02*
X147500000Y-78437500D01*
X106200001Y-82700001D02*
X107000000Y-83500000D01*
X105500000Y-82000000D02*
X106200001Y-82700001D01*
X93000000Y-83500000D02*
X94500000Y-82000000D01*
X94500000Y-82000000D02*
X105500000Y-82000000D01*
D20*
X96500000Y-96500000D02*
X96200000Y-96200000D01*
X96500000Y-100000000D02*
X96500000Y-96500000D01*
X93000000Y-96200000D02*
X96200000Y-96200000D01*
X103500000Y-96500000D02*
X103800000Y-96200000D01*
X103500000Y-100000000D02*
X103500000Y-96500000D01*
X96200000Y-96200000D02*
X103800000Y-96200000D01*
X103800000Y-96200000D02*
X107000000Y-96200000D01*
D18*
X145500000Y-74937500D02*
X145500000Y-76562500D01*
X147500000Y-74937500D02*
X147500000Y-76562500D01*
D20*
X153500000Y-96500000D02*
X153800000Y-96200000D01*
X153500000Y-100000000D02*
X153500000Y-96500000D01*
X153800000Y-96200000D02*
X157000000Y-96200000D01*
X146500000Y-96500000D02*
X146800000Y-96200000D01*
X146500000Y-100000000D02*
X146500000Y-96500000D01*
X143000000Y-96200000D02*
X146800000Y-96200000D01*
X146800000Y-96200000D02*
X153800000Y-96200000D01*
D18*
X105500000Y-73000000D02*
X107000000Y-71500000D01*
X93000000Y-71500000D02*
X94500000Y-73000000D01*
X94500000Y-73000000D02*
X105500000Y-73000000D01*
X108131370Y-71500000D02*
X107000000Y-71500000D01*
X141000000Y-71500000D02*
X108131370Y-71500000D01*
X145500000Y-73062500D02*
X142562500Y-73062500D01*
X142562500Y-73062500D02*
X141000000Y-71500000D01*
X156500000Y-72000000D02*
X157000000Y-71500000D01*
X143000000Y-71500000D02*
X143500000Y-72000000D01*
X147500000Y-73062500D02*
X147500000Y-72000000D01*
X143500000Y-72000000D02*
X147500000Y-72000000D01*
X147500000Y-72000000D02*
X156500000Y-72000000D01*
D20*
X103500000Y-58600000D02*
X103300000Y-58800000D01*
X103500000Y-55000000D02*
X103500000Y-58600000D01*
X96700000Y-58800000D02*
X103300000Y-58800000D01*
X103300000Y-58800000D02*
X107000000Y-58800000D01*
X93000000Y-58800000D02*
X96700000Y-58800000D01*
X96500000Y-58600000D02*
X96700000Y-58800000D01*
X96500000Y-55000000D02*
X96500000Y-58600000D01*
X153500000Y-55000000D02*
X153500000Y-58500000D01*
X153500000Y-58500000D02*
X153200000Y-58800000D01*
X146700000Y-58800000D02*
X153200000Y-58800000D01*
X143000000Y-58800000D02*
X146700000Y-58800000D01*
X146500000Y-58600000D02*
X146700000Y-58800000D01*
X146500000Y-55000000D02*
X146500000Y-58600000D01*
X153200000Y-58800000D02*
X157000000Y-58800000D01*
D19*
G36*
X165936856Y-65212161D02*
G01*
X166037839Y-65313144D01*
X166156584Y-65392487D01*
X166288525Y-65447139D01*
X166428594Y-65475000D01*
X166571406Y-65475000D01*
X166711475Y-65447139D01*
X166843416Y-65392487D01*
X166962161Y-65313144D01*
X167000000Y-65275305D01*
X167037839Y-65313144D01*
X167156584Y-65392487D01*
X167288525Y-65447139D01*
X167428594Y-65475000D01*
X167571406Y-65475000D01*
X167711475Y-65447139D01*
X167843416Y-65392487D01*
X167962161Y-65313144D01*
X168000000Y-65275305D01*
X168037839Y-65313144D01*
X168156584Y-65392487D01*
X168288525Y-65447139D01*
X168428594Y-65475000D01*
X168571406Y-65475000D01*
X168711475Y-65447139D01*
X168843416Y-65392487D01*
X168962161Y-65313144D01*
X169063144Y-65212161D01*
X169095940Y-65163078D01*
X169240605Y-65239998D01*
X169274157Y-65253827D01*
X169307446Y-65268095D01*
X169312781Y-65269747D01*
X169593035Y-65354361D01*
X169600001Y-65355740D01*
X169600000Y-72100000D01*
X164980353Y-72100000D01*
X164959986Y-72102006D01*
X164947005Y-72102006D01*
X164941450Y-72102590D01*
X164747500Y-72124345D01*
X164712036Y-72131883D01*
X164676474Y-72138925D01*
X164671139Y-72140576D01*
X164485109Y-72199589D01*
X164451795Y-72213867D01*
X164418269Y-72227686D01*
X164413356Y-72230342D01*
X164242331Y-72324365D01*
X164212434Y-72344836D01*
X164182222Y-72364909D01*
X164177922Y-72368467D01*
X164177917Y-72368470D01*
X164177913Y-72368474D01*
X164028412Y-72493919D01*
X164003032Y-72519836D01*
X163977321Y-72545368D01*
X163973791Y-72549696D01*
X163851500Y-72701796D01*
X163831649Y-72732132D01*
X163811377Y-72762186D01*
X163808755Y-72767118D01*
X163718335Y-72940073D01*
X163704756Y-72973682D01*
X163690704Y-73007111D01*
X163689090Y-73012458D01*
X163633987Y-73199684D01*
X163627197Y-73235278D01*
X163619904Y-73270806D01*
X163619359Y-73276365D01*
X163601670Y-73470727D01*
X163601923Y-73506981D01*
X163601670Y-73543235D01*
X163602215Y-73548794D01*
X163622616Y-73742890D01*
X163629905Y-73778398D01*
X163636699Y-73814014D01*
X163638314Y-73819361D01*
X163696026Y-74005799D01*
X163710064Y-74039196D01*
X163723655Y-74072834D01*
X163726277Y-74077765D01*
X163819102Y-74249442D01*
X163839380Y-74279506D01*
X163859227Y-74309835D01*
X163862757Y-74314163D01*
X163987161Y-74464541D01*
X164012887Y-74490088D01*
X164038251Y-74515989D01*
X164042554Y-74519549D01*
X164193796Y-74642899D01*
X164223988Y-74662958D01*
X164253907Y-74683444D01*
X164258820Y-74686100D01*
X164431142Y-74777725D01*
X164464640Y-74791532D01*
X164497982Y-74805822D01*
X164503317Y-74807474D01*
X164690154Y-74863883D01*
X164725717Y-74870925D01*
X164761178Y-74878462D01*
X164766732Y-74879046D01*
X164960966Y-74898091D01*
X164960970Y-74898091D01*
X164980353Y-74900000D01*
X169600000Y-74900000D01*
X169600001Y-80100000D01*
X164980353Y-80100000D01*
X164959986Y-80102006D01*
X164947005Y-80102006D01*
X164941450Y-80102590D01*
X164747500Y-80124345D01*
X164712036Y-80131883D01*
X164676474Y-80138925D01*
X164671139Y-80140576D01*
X164485109Y-80199589D01*
X164451795Y-80213867D01*
X164418269Y-80227686D01*
X164413356Y-80230342D01*
X164242331Y-80324365D01*
X164212434Y-80344836D01*
X164182222Y-80364909D01*
X164177922Y-80368467D01*
X164177917Y-80368470D01*
X164177913Y-80368474D01*
X164028412Y-80493919D01*
X164003032Y-80519836D01*
X163977321Y-80545368D01*
X163973791Y-80549696D01*
X163851500Y-80701796D01*
X163831649Y-80732132D01*
X163811377Y-80762186D01*
X163808755Y-80767118D01*
X163718335Y-80940073D01*
X163704756Y-80973682D01*
X163690704Y-81007111D01*
X163689090Y-81012458D01*
X163633987Y-81199684D01*
X163627197Y-81235278D01*
X163619904Y-81270806D01*
X163619359Y-81276365D01*
X163601670Y-81470727D01*
X163601923Y-81506981D01*
X163601670Y-81543235D01*
X163602215Y-81548794D01*
X163622616Y-81742890D01*
X163629905Y-81778398D01*
X163636699Y-81814014D01*
X163638314Y-81819361D01*
X163696026Y-82005799D01*
X163710064Y-82039196D01*
X163723655Y-82072834D01*
X163726277Y-82077765D01*
X163819102Y-82249442D01*
X163839380Y-82279506D01*
X163859227Y-82309835D01*
X163862757Y-82314163D01*
X163987161Y-82464541D01*
X164012887Y-82490088D01*
X164038251Y-82515989D01*
X164042554Y-82519549D01*
X164193796Y-82642899D01*
X164223988Y-82662958D01*
X164253907Y-82683444D01*
X164258820Y-82686100D01*
X164431142Y-82777725D01*
X164464640Y-82791532D01*
X164497982Y-82805822D01*
X164503317Y-82807474D01*
X164690154Y-82863883D01*
X164725717Y-82870925D01*
X164761178Y-82878462D01*
X164766732Y-82879046D01*
X164960966Y-82898091D01*
X164960970Y-82898091D01*
X164980353Y-82900000D01*
X169600000Y-82900000D01*
X169600001Y-89644135D01*
X169585446Y-89646911D01*
X169580100Y-89648526D01*
X169300444Y-89735094D01*
X169267027Y-89749141D01*
X169233408Y-89762724D01*
X169228477Y-89765346D01*
X169095983Y-89836986D01*
X169063144Y-89787839D01*
X168962161Y-89686856D01*
X168843416Y-89607513D01*
X168711475Y-89552861D01*
X168571406Y-89525000D01*
X168428594Y-89525000D01*
X168288525Y-89552861D01*
X168156584Y-89607513D01*
X168037839Y-89686856D01*
X168000000Y-89724695D01*
X167962161Y-89686856D01*
X167843416Y-89607513D01*
X167711475Y-89552861D01*
X167571406Y-89525000D01*
X167428594Y-89525000D01*
X167288525Y-89552861D01*
X167156584Y-89607513D01*
X167037839Y-89686856D01*
X167000000Y-89724695D01*
X166962161Y-89686856D01*
X166843416Y-89607513D01*
X166711475Y-89552861D01*
X166571406Y-89525000D01*
X166428594Y-89525000D01*
X166288525Y-89552861D01*
X166156584Y-89607513D01*
X166037839Y-89686856D01*
X165936856Y-89787839D01*
X165904060Y-89836922D01*
X165759395Y-89760002D01*
X165725857Y-89746178D01*
X165692555Y-89731905D01*
X165687219Y-89730253D01*
X165406965Y-89645639D01*
X165371373Y-89638592D01*
X165335939Y-89631060D01*
X165330385Y-89630476D01*
X165039033Y-89601909D01*
X165039030Y-89601909D01*
X165019647Y-89600000D01*
X157283883Y-89600000D01*
X157420230Y-89463653D01*
X157444080Y-89444080D01*
X157522183Y-89348911D01*
X157580219Y-89240334D01*
X157615957Y-89122521D01*
X157625000Y-89030704D01*
X157625000Y-89030694D01*
X157628023Y-89000000D01*
X157625000Y-88969306D01*
X157625000Y-88109585D01*
X157686796Y-88017100D01*
X157745217Y-87876059D01*
X157775000Y-87726331D01*
X157775000Y-87573669D01*
X157745217Y-87423941D01*
X157686796Y-87282900D01*
X157625000Y-87190415D01*
X157625000Y-86758882D01*
X161420230Y-82963653D01*
X161444080Y-82944080D01*
X161500235Y-82875655D01*
X161522182Y-82848913D01*
X161580218Y-82740336D01*
X161580219Y-82740333D01*
X161615957Y-82622521D01*
X161625000Y-82530704D01*
X161625000Y-82530695D01*
X161628023Y-82500001D01*
X161625000Y-82469307D01*
X161625000Y-81959585D01*
X161686796Y-81867100D01*
X161745217Y-81726059D01*
X161775000Y-81576331D01*
X161775000Y-81423669D01*
X161745217Y-81273941D01*
X161686796Y-81132900D01*
X161601982Y-81005966D01*
X161494034Y-80898018D01*
X161367100Y-80813204D01*
X161226059Y-80754783D01*
X161076331Y-80725000D01*
X160923669Y-80725000D01*
X160773941Y-80754783D01*
X160632900Y-80813204D01*
X160505966Y-80898018D01*
X160398018Y-81005966D01*
X160313204Y-81132900D01*
X160254783Y-81273941D01*
X160225000Y-81423669D01*
X160225000Y-81576331D01*
X160254783Y-81726059D01*
X160313204Y-81867100D01*
X160375001Y-81959586D01*
X160375000Y-82241117D01*
X156579772Y-86036346D01*
X156555921Y-86055920D01*
X156536348Y-86079770D01*
X156477818Y-86151089D01*
X156419782Y-86259666D01*
X156384044Y-86377479D01*
X156371977Y-86500000D01*
X156375001Y-86530703D01*
X156375000Y-87190415D01*
X156313204Y-87282900D01*
X156254783Y-87423941D01*
X156225000Y-87573669D01*
X156225000Y-87726331D01*
X156254783Y-87876059D01*
X156313204Y-88017100D01*
X156375001Y-88109586D01*
X156375000Y-88741117D01*
X156216128Y-88899990D01*
X155019749Y-88899990D01*
X155078414Y-88894212D01*
X155153814Y-88871340D01*
X155223303Y-88834197D01*
X155284211Y-88784211D01*
X155334197Y-88723303D01*
X155371340Y-88653814D01*
X155394212Y-88578414D01*
X155401935Y-88500000D01*
X155400000Y-88480353D01*
X155400000Y-83915254D01*
X155404980Y-83920234D01*
X155424550Y-83944080D01*
X155448395Y-83963649D01*
X155448399Y-83963653D01*
X155519718Y-84022183D01*
X155577754Y-84053204D01*
X155628296Y-84080219D01*
X155746109Y-84115957D01*
X155837926Y-84125000D01*
X155837928Y-84125000D01*
X155868630Y-84128024D01*
X155899332Y-84125000D01*
X156004452Y-84125000D01*
X156087318Y-84249019D01*
X156250981Y-84412682D01*
X156443429Y-84541271D01*
X156657265Y-84629845D01*
X156884273Y-84675000D01*
X157115727Y-84675000D01*
X157342735Y-84629845D01*
X157556571Y-84541271D01*
X157749019Y-84412682D01*
X157912682Y-84249019D01*
X158041271Y-84056571D01*
X158129845Y-83842735D01*
X158175000Y-83615727D01*
X158175000Y-83384273D01*
X158129845Y-83157265D01*
X158041271Y-82943429D01*
X157912682Y-82750981D01*
X157749019Y-82587318D01*
X157556571Y-82458729D01*
X157342735Y-82370155D01*
X157115727Y-82325000D01*
X156884273Y-82325000D01*
X156657265Y-82370155D01*
X156443429Y-82458729D01*
X156250981Y-82587318D01*
X156087318Y-82750981D01*
X156053743Y-82801230D01*
X155857278Y-82604765D01*
X155837700Y-82580910D01*
X155742531Y-82502807D01*
X155633954Y-82444771D01*
X155516141Y-82409033D01*
X155424324Y-82399990D01*
X155424314Y-82399990D01*
X155393620Y-82396967D01*
X155362926Y-82399990D01*
X150535261Y-82399990D01*
X150564890Y-82302316D01*
X150576814Y-82181250D01*
X150576814Y-81693750D01*
X150564890Y-81572684D01*
X150529576Y-81456270D01*
X150472230Y-81348983D01*
X150395055Y-81254945D01*
X150301017Y-81177770D01*
X150193730Y-81120424D01*
X150077316Y-81085110D01*
X149956250Y-81073186D01*
X149043750Y-81073186D01*
X148922684Y-81085110D01*
X148806270Y-81120424D01*
X148698983Y-81177770D01*
X148604945Y-81254945D01*
X148527770Y-81348983D01*
X148500000Y-81400937D01*
X148472230Y-81348983D01*
X148395055Y-81254945D01*
X148301017Y-81177770D01*
X148193730Y-81120424D01*
X148077316Y-81085110D01*
X147956250Y-81073186D01*
X147043750Y-81073186D01*
X146922684Y-81085110D01*
X146806270Y-81120424D01*
X146698983Y-81177770D01*
X146604945Y-81254945D01*
X146527770Y-81348983D01*
X146500000Y-81400937D01*
X146472230Y-81348983D01*
X146395055Y-81254945D01*
X146301017Y-81177770D01*
X146193730Y-81120424D01*
X146077316Y-81085110D01*
X145956250Y-81073186D01*
X145043750Y-81073186D01*
X144922684Y-81085110D01*
X144806270Y-81120424D01*
X144698983Y-81177770D01*
X144604945Y-81254945D01*
X144557711Y-81312500D01*
X144461062Y-81312500D01*
X144503765Y-81260467D01*
X144598652Y-81082945D01*
X144657084Y-80890321D01*
X144666422Y-80795508D01*
X144698983Y-80822230D01*
X144806270Y-80879576D01*
X144922684Y-80914890D01*
X145043750Y-80926814D01*
X145956250Y-80926814D01*
X146077316Y-80914890D01*
X146193730Y-80879576D01*
X146301017Y-80822230D01*
X146395055Y-80745055D01*
X146472230Y-80651017D01*
X146500000Y-80599063D01*
X146527770Y-80651017D01*
X146604945Y-80745055D01*
X146698983Y-80822230D01*
X146806270Y-80879576D01*
X146922684Y-80914890D01*
X147043750Y-80926814D01*
X147956250Y-80926814D01*
X148077316Y-80914890D01*
X148193730Y-80879576D01*
X148301017Y-80822230D01*
X148395055Y-80745055D01*
X148472230Y-80651017D01*
X148500000Y-80599063D01*
X148527770Y-80651017D01*
X148604945Y-80745055D01*
X148698983Y-80822230D01*
X148806270Y-80879576D01*
X148922684Y-80914890D01*
X149043750Y-80926814D01*
X149956250Y-80926814D01*
X150077316Y-80914890D01*
X150193730Y-80879576D01*
X150301017Y-80822230D01*
X150395055Y-80745055D01*
X150472230Y-80651017D01*
X150529576Y-80543730D01*
X150564890Y-80427316D01*
X150576814Y-80306250D01*
X150576814Y-79818750D01*
X150564890Y-79697684D01*
X150529576Y-79581270D01*
X150517911Y-79559446D01*
X150712750Y-79558000D01*
X150871000Y-79399750D01*
X150871000Y-78566500D01*
X151129000Y-78566500D01*
X151129000Y-79399750D01*
X151287250Y-79558000D01*
X151700000Y-79561063D01*
X151824090Y-79548841D01*
X151943411Y-79512646D01*
X152053378Y-79453867D01*
X152149764Y-79374764D01*
X152153107Y-79370690D01*
X152245910Y-79398841D01*
X152370000Y-79411063D01*
X152612750Y-79408000D01*
X152771000Y-79249750D01*
X152771000Y-78579000D01*
X152187250Y-78579000D01*
X152174750Y-78566500D01*
X151129000Y-78566500D01*
X150871000Y-78566500D01*
X149825250Y-78566500D01*
X149667000Y-78724750D01*
X149663937Y-78925000D01*
X149676159Y-79049090D01*
X149712354Y-79168411D01*
X149728269Y-79198186D01*
X149043750Y-79198186D01*
X148922684Y-79210110D01*
X148806270Y-79245424D01*
X148698983Y-79302770D01*
X148604945Y-79379945D01*
X148527770Y-79473983D01*
X148500000Y-79525937D01*
X148472230Y-79473983D01*
X148395055Y-79379945D01*
X148301017Y-79302770D01*
X148202291Y-79250000D01*
X148301017Y-79197230D01*
X148395055Y-79120055D01*
X148472230Y-79026017D01*
X148529576Y-78918730D01*
X148564890Y-78802316D01*
X148576814Y-78681250D01*
X148576814Y-78193750D01*
X148564890Y-78072684D01*
X148529576Y-77956270D01*
X148526225Y-77950000D01*
X149663937Y-77950000D01*
X149667000Y-78150250D01*
X149825250Y-78308500D01*
X150871000Y-78308500D01*
X150871000Y-78288500D01*
X151129000Y-78288500D01*
X151129000Y-78308500D01*
X151882750Y-78308500D01*
X151895250Y-78321000D01*
X152771000Y-78321000D01*
X152771000Y-77650250D01*
X152612750Y-77492000D01*
X152370000Y-77488937D01*
X152245910Y-77501159D01*
X152169535Y-77524327D01*
X152149764Y-77500236D01*
X152053378Y-77421133D01*
X151943411Y-77362354D01*
X151824090Y-77326159D01*
X151798400Y-77323629D01*
X151801017Y-77322230D01*
X151895055Y-77245055D01*
X151972230Y-77151017D01*
X152029576Y-77043730D01*
X152055424Y-76958521D01*
X152084077Y-77012127D01*
X152151147Y-77093853D01*
X152232873Y-77160923D01*
X152326113Y-77210761D01*
X152427285Y-77241451D01*
X152532500Y-77251814D01*
X153267500Y-77251814D01*
X153372715Y-77241451D01*
X153473887Y-77210761D01*
X153567127Y-77160923D01*
X153648853Y-77093853D01*
X153715923Y-77012127D01*
X153744991Y-76957745D01*
X153744990Y-77575614D01*
X153673411Y-77537354D01*
X153554090Y-77501159D01*
X153430000Y-77488937D01*
X153187250Y-77492000D01*
X153029000Y-77650250D01*
X153029000Y-78321000D01*
X153049000Y-78321000D01*
X153049000Y-78579000D01*
X153029000Y-78579000D01*
X153029000Y-79249750D01*
X153187250Y-79408000D01*
X153430000Y-79411063D01*
X153554090Y-79398841D01*
X153673411Y-79362646D01*
X153783378Y-79303867D01*
X153879764Y-79224764D01*
X153958867Y-79128378D01*
X154017646Y-79018411D01*
X154053841Y-78899090D01*
X154066063Y-78775000D01*
X154064135Y-78751240D01*
X154099071Y-78786176D01*
X154114736Y-78805264D01*
X154190871Y-78867746D01*
X154277733Y-78914175D01*
X154288418Y-78917416D01*
X154351147Y-78993853D01*
X154432873Y-79060923D01*
X154526113Y-79110761D01*
X154627285Y-79141451D01*
X154732500Y-79151814D01*
X155467500Y-79151814D01*
X155572715Y-79141451D01*
X155673887Y-79110761D01*
X155767127Y-79060923D01*
X155848853Y-78993853D01*
X155884842Y-78950000D01*
X155987138Y-78950000D01*
X156027770Y-79026017D01*
X156104945Y-79120055D01*
X156198983Y-79197230D01*
X156306270Y-79254576D01*
X156422684Y-79289890D01*
X156543750Y-79301814D01*
X157456250Y-79301814D01*
X157577316Y-79289890D01*
X157693730Y-79254576D01*
X157801017Y-79197230D01*
X157895055Y-79120055D01*
X157972230Y-79026017D01*
X158000000Y-78974063D01*
X158027770Y-79026017D01*
X158104945Y-79120055D01*
X158198983Y-79197230D01*
X158306270Y-79254576D01*
X158422684Y-79289890D01*
X158543750Y-79301814D01*
X159456250Y-79301814D01*
X159577316Y-79289890D01*
X159693730Y-79254576D01*
X159801017Y-79197230D01*
X159895055Y-79120055D01*
X159972230Y-79026017D01*
X160029576Y-78918730D01*
X160064890Y-78802316D01*
X160076814Y-78681250D01*
X160076814Y-78193750D01*
X160064890Y-78072684D01*
X160029576Y-77956270D01*
X159972230Y-77848983D01*
X159895055Y-77754945D01*
X159801017Y-77677770D01*
X159693730Y-77620424D01*
X159577316Y-77585110D01*
X159456250Y-77573186D01*
X158543750Y-77573186D01*
X158422684Y-77585110D01*
X158306270Y-77620424D01*
X158198983Y-77677770D01*
X158104945Y-77754945D01*
X158027770Y-77848983D01*
X158000000Y-77900937D01*
X157972230Y-77848983D01*
X157895055Y-77754945D01*
X157801017Y-77677770D01*
X157693730Y-77620424D01*
X157577316Y-77585110D01*
X157456250Y-77573186D01*
X156543750Y-77573186D01*
X156422684Y-77585110D01*
X156306270Y-77620424D01*
X156198983Y-77677770D01*
X156104945Y-77754945D01*
X156027770Y-77848983D01*
X155973775Y-77950000D01*
X155922405Y-77950000D01*
X155965761Y-77868887D01*
X155996451Y-77767715D01*
X156006814Y-77662500D01*
X156006814Y-77337500D01*
X155996451Y-77232285D01*
X155965761Y-77131113D01*
X155915923Y-77037873D01*
X155905359Y-77025000D01*
X155915923Y-77012127D01*
X155944576Y-76958521D01*
X155970424Y-77043730D01*
X156027770Y-77151017D01*
X156104945Y-77245055D01*
X156198983Y-77322230D01*
X156306270Y-77379576D01*
X156422684Y-77414890D01*
X156543750Y-77426814D01*
X157456250Y-77426814D01*
X157577316Y-77414890D01*
X157693730Y-77379576D01*
X157801017Y-77322230D01*
X157895055Y-77245055D01*
X157972230Y-77151017D01*
X158000000Y-77099063D01*
X158027770Y-77151017D01*
X158104945Y-77245055D01*
X158198983Y-77322230D01*
X158306270Y-77379576D01*
X158422684Y-77414890D01*
X158543750Y-77426814D01*
X159456250Y-77426814D01*
X159577316Y-77414890D01*
X159693730Y-77379576D01*
X159801017Y-77322230D01*
X159895055Y-77245055D01*
X159972230Y-77151017D01*
X160029576Y-77043730D01*
X160064890Y-76927316D01*
X160076814Y-76806250D01*
X160076814Y-76318750D01*
X160064890Y-76197684D01*
X160029576Y-76081270D01*
X159972230Y-75973983D01*
X159895055Y-75879945D01*
X159801017Y-75802770D01*
X159693730Y-75745424D01*
X159577316Y-75710110D01*
X159456250Y-75698186D01*
X158543750Y-75698186D01*
X158422684Y-75710110D01*
X158306270Y-75745424D01*
X158198983Y-75802770D01*
X158104945Y-75879945D01*
X158027770Y-75973983D01*
X158000000Y-76025937D01*
X157972230Y-75973983D01*
X157895055Y-75879945D01*
X157801017Y-75802770D01*
X157693730Y-75745424D01*
X157577316Y-75710110D01*
X157456250Y-75698186D01*
X156543750Y-75698186D01*
X156422684Y-75710110D01*
X156306270Y-75745424D01*
X156198983Y-75802770D01*
X156104945Y-75879945D01*
X156027770Y-75973983D01*
X155970424Y-76081270D01*
X155949414Y-76150530D01*
X155915923Y-76087873D01*
X155848853Y-76006147D01*
X155767127Y-75939077D01*
X155673887Y-75889239D01*
X155572715Y-75858549D01*
X155467500Y-75848186D01*
X154732500Y-75848186D01*
X154627285Y-75858549D01*
X154526113Y-75889239D01*
X154432873Y-75939077D01*
X154351147Y-76006147D01*
X154288418Y-76082584D01*
X154277733Y-76085825D01*
X154190871Y-76132254D01*
X154114736Y-76194736D01*
X154099071Y-76213824D01*
X153908810Y-76404085D01*
X153889727Y-76419746D01*
X153827245Y-76495881D01*
X153806814Y-76534104D01*
X153806814Y-76387500D01*
X153796451Y-76282285D01*
X153765761Y-76181113D01*
X153715923Y-76087873D01*
X153648853Y-76006147D01*
X153567127Y-75939077D01*
X153473887Y-75889239D01*
X153372715Y-75858549D01*
X153267500Y-75848186D01*
X152532500Y-75848186D01*
X152427285Y-75858549D01*
X152326113Y-75889239D01*
X152232873Y-75939077D01*
X152151147Y-76006147D01*
X152084077Y-76087873D01*
X152050586Y-76150530D01*
X152029576Y-76081270D01*
X151972230Y-75973983D01*
X151895055Y-75879945D01*
X151801017Y-75802770D01*
X151693730Y-75745424D01*
X151577316Y-75710110D01*
X151456250Y-75698186D01*
X150543750Y-75698186D01*
X150422684Y-75710110D01*
X150306270Y-75745424D01*
X150198983Y-75802770D01*
X150104945Y-75879945D01*
X150027770Y-75973983D01*
X149970424Y-76081270D01*
X149935110Y-76197684D01*
X149923186Y-76318750D01*
X149923186Y-76806250D01*
X149935110Y-76927316D01*
X149970424Y-77043730D01*
X150027770Y-77151017D01*
X150104945Y-77245055D01*
X150198983Y-77322230D01*
X150201600Y-77323629D01*
X150175910Y-77326159D01*
X150056589Y-77362354D01*
X149946622Y-77421133D01*
X149850236Y-77500236D01*
X149771133Y-77596622D01*
X149712354Y-77706589D01*
X149676159Y-77825910D01*
X149663937Y-77950000D01*
X148526225Y-77950000D01*
X148472230Y-77848983D01*
X148395055Y-77754945D01*
X148301017Y-77677770D01*
X148193730Y-77620424D01*
X148077316Y-77585110D01*
X147956250Y-77573186D01*
X147651477Y-77573186D01*
X147542979Y-77562500D01*
X144645478Y-77562500D01*
X144602499Y-77558267D01*
X144430969Y-77575161D01*
X144361835Y-77596133D01*
X144266032Y-77625195D01*
X144114024Y-77706444D01*
X143980788Y-77815788D01*
X143953388Y-77849175D01*
X143439377Y-78363186D01*
X142350000Y-78363186D01*
X142149679Y-78382916D01*
X141957055Y-78441348D01*
X141779533Y-78536235D01*
X141623933Y-78663933D01*
X141496235Y-78819533D01*
X141401348Y-78997055D01*
X141342916Y-79189679D01*
X141323186Y-79390000D01*
X141323186Y-80690000D01*
X141342916Y-80890321D01*
X141401348Y-81082945D01*
X141496235Y-81260467D01*
X141623933Y-81416067D01*
X141779533Y-81543765D01*
X141957055Y-81638652D01*
X142087802Y-81678314D01*
X140891116Y-82875000D01*
X127755581Y-82875000D01*
X127787956Y-82868118D01*
X127823526Y-82861075D01*
X127828861Y-82859424D01*
X128014892Y-82800411D01*
X128048219Y-82786127D01*
X128081731Y-82772314D01*
X128086640Y-82769659D01*
X128086645Y-82769657D01*
X128086649Y-82769654D01*
X128257669Y-82675635D01*
X128287566Y-82655164D01*
X128317778Y-82635091D01*
X128322082Y-82631531D01*
X128471588Y-82506081D01*
X128496968Y-82480164D01*
X128522679Y-82454632D01*
X128526209Y-82450304D01*
X128648500Y-82298204D01*
X128668361Y-82267853D01*
X128688623Y-82237814D01*
X128691245Y-82232883D01*
X128781665Y-82059927D01*
X128795244Y-82026318D01*
X128809296Y-81992889D01*
X128810910Y-81987542D01*
X128866013Y-81800317D01*
X128872804Y-81764715D01*
X128880096Y-81729194D01*
X128880641Y-81723635D01*
X128898330Y-81529274D01*
X128898077Y-81493019D01*
X128898330Y-81456765D01*
X128897785Y-81451206D01*
X128877384Y-81257109D01*
X128870092Y-81221588D01*
X128863301Y-81185986D01*
X128861687Y-81180643D01*
X128861686Y-81180637D01*
X128861684Y-81180631D01*
X128803974Y-80994201D01*
X128789942Y-80960821D01*
X128776345Y-80927166D01*
X128773723Y-80922235D01*
X128680898Y-80750558D01*
X128660620Y-80720494D01*
X128640773Y-80690165D01*
X128637243Y-80685837D01*
X128512839Y-80535459D01*
X128487113Y-80509912D01*
X128461749Y-80484011D01*
X128457446Y-80480451D01*
X128306204Y-80357101D01*
X128276030Y-80337054D01*
X128246094Y-80316556D01*
X128241181Y-80313900D01*
X128068858Y-80222275D01*
X128035360Y-80208468D01*
X128002018Y-80194178D01*
X127996683Y-80192526D01*
X127809847Y-80136117D01*
X127774262Y-80129071D01*
X127738822Y-80121538D01*
X127733267Y-80120954D01*
X127539034Y-80101909D01*
X127539030Y-80101909D01*
X127519647Y-80100000D01*
X122480353Y-80100000D01*
X122459986Y-80102006D01*
X122447005Y-80102006D01*
X122441450Y-80102590D01*
X122247500Y-80124345D01*
X122212036Y-80131883D01*
X122176474Y-80138925D01*
X122171139Y-80140576D01*
X121985109Y-80199589D01*
X121951795Y-80213867D01*
X121918269Y-80227686D01*
X121913356Y-80230342D01*
X121742331Y-80324365D01*
X121712434Y-80344836D01*
X121682222Y-80364909D01*
X121677922Y-80368467D01*
X121677917Y-80368470D01*
X121677913Y-80368474D01*
X121528412Y-80493919D01*
X121503032Y-80519836D01*
X121477321Y-80545368D01*
X121473791Y-80549696D01*
X121351500Y-80701796D01*
X121331649Y-80732132D01*
X121311377Y-80762186D01*
X121308755Y-80767118D01*
X121218335Y-80940073D01*
X121204756Y-80973682D01*
X121190704Y-81007111D01*
X121189090Y-81012458D01*
X121133987Y-81199684D01*
X121127197Y-81235278D01*
X121119904Y-81270806D01*
X121119359Y-81276365D01*
X121101670Y-81470727D01*
X121101923Y-81506981D01*
X121101670Y-81543235D01*
X121102215Y-81548794D01*
X121122616Y-81742890D01*
X121129905Y-81778398D01*
X121136699Y-81814014D01*
X121138314Y-81819361D01*
X121196026Y-82005799D01*
X121210064Y-82039196D01*
X121223655Y-82072834D01*
X121226277Y-82077765D01*
X121319102Y-82249442D01*
X121339380Y-82279506D01*
X121359227Y-82309835D01*
X121362757Y-82314163D01*
X121487161Y-82464541D01*
X121512887Y-82490088D01*
X121538251Y-82515989D01*
X121542554Y-82519549D01*
X121693796Y-82642899D01*
X121723988Y-82662958D01*
X121753907Y-82683444D01*
X121758820Y-82686100D01*
X121931142Y-82777725D01*
X121964640Y-82791532D01*
X121997982Y-82805822D01*
X122003317Y-82807474D01*
X122190154Y-82863883D01*
X122225717Y-82870925D01*
X122244891Y-82875000D01*
X107995548Y-82875000D01*
X107912682Y-82750981D01*
X107749019Y-82587318D01*
X107556571Y-82458729D01*
X107342735Y-82370155D01*
X107115727Y-82325000D01*
X106884273Y-82325000D01*
X106737982Y-82354099D01*
X106663657Y-82279775D01*
X106663653Y-82279770D01*
X105963658Y-81579776D01*
X105944080Y-81555920D01*
X105848911Y-81477817D01*
X105740334Y-81419781D01*
X105622521Y-81384043D01*
X105530704Y-81375000D01*
X105530694Y-81375000D01*
X105500000Y-81371977D01*
X105469306Y-81375000D01*
X94530693Y-81375000D01*
X94499999Y-81371977D01*
X94469305Y-81375000D01*
X94469296Y-81375000D01*
X94377479Y-81384043D01*
X94259666Y-81419781D01*
X94259664Y-81419782D01*
X94151087Y-81477818D01*
X94118468Y-81504588D01*
X94055920Y-81555920D01*
X94036346Y-81579771D01*
X93262018Y-82354099D01*
X93115727Y-82325000D01*
X92884273Y-82325000D01*
X92657265Y-82370155D01*
X92443429Y-82458729D01*
X92250981Y-82587318D01*
X92087318Y-82750981D01*
X91958729Y-82943429D01*
X91870155Y-83157265D01*
X91825000Y-83384273D01*
X91825000Y-83615727D01*
X91870155Y-83842735D01*
X91958729Y-84056571D01*
X92087318Y-84249019D01*
X92250981Y-84412682D01*
X92443429Y-84541271D01*
X92657265Y-84629845D01*
X92884273Y-84675000D01*
X93115727Y-84675000D01*
X93342735Y-84629845D01*
X93556571Y-84541271D01*
X93749019Y-84412682D01*
X93912682Y-84249019D01*
X94041271Y-84056571D01*
X94129845Y-83842735D01*
X94175000Y-83615727D01*
X94175000Y-83384273D01*
X94145901Y-83237982D01*
X94758883Y-82625000D01*
X105241118Y-82625000D01*
X105779770Y-83163653D01*
X105779775Y-83163657D01*
X105854099Y-83237982D01*
X105825000Y-83384273D01*
X105825000Y-83615727D01*
X105870155Y-83842735D01*
X105958729Y-84056571D01*
X106087318Y-84249019D01*
X106250981Y-84412682D01*
X106443429Y-84541271D01*
X106657265Y-84629845D01*
X106884273Y-84675000D01*
X107115727Y-84675000D01*
X107342735Y-84629845D01*
X107556571Y-84541271D01*
X107749019Y-84412682D01*
X107912682Y-84249019D01*
X107995548Y-84125000D01*
X141119304Y-84125000D01*
X141149998Y-84128023D01*
X141180692Y-84125000D01*
X141180702Y-84125000D01*
X141272519Y-84115957D01*
X141390332Y-84080219D01*
X141498909Y-84022183D01*
X141594078Y-83944080D01*
X141613656Y-83920224D01*
X141840455Y-83693425D01*
X141870155Y-83842735D01*
X141958729Y-84056571D01*
X142087318Y-84249019D01*
X142250981Y-84412682D01*
X142443429Y-84541271D01*
X142657265Y-84629845D01*
X142884273Y-84675000D01*
X143115727Y-84675000D01*
X143342735Y-84629845D01*
X143556571Y-84541271D01*
X143749019Y-84412682D01*
X143912682Y-84249019D01*
X143995548Y-84125000D01*
X144100676Y-84125000D01*
X144131370Y-84128023D01*
X144162064Y-84125000D01*
X144162074Y-84125000D01*
X144253891Y-84115957D01*
X144371704Y-84080219D01*
X144480281Y-84022183D01*
X144575450Y-83944080D01*
X144595028Y-83920225D01*
X144600000Y-83915252D01*
X144600001Y-88480343D01*
X144598065Y-88500000D01*
X144605788Y-88578414D01*
X144628660Y-88653814D01*
X144665803Y-88723303D01*
X144715789Y-88784211D01*
X144776697Y-88834197D01*
X144846186Y-88871340D01*
X144921586Y-88894212D01*
X144980251Y-88899990D01*
X142633892Y-88899990D01*
X143116966Y-88416917D01*
X143226059Y-88395217D01*
X143367100Y-88336796D01*
X143494034Y-88251982D01*
X143601982Y-88144034D01*
X143686796Y-88017100D01*
X143745217Y-87876059D01*
X143775000Y-87726331D01*
X143775000Y-87573669D01*
X143745217Y-87423941D01*
X143686796Y-87282900D01*
X143601982Y-87155966D01*
X143494034Y-87048018D01*
X143367100Y-86963204D01*
X143226059Y-86904783D01*
X143076331Y-86875000D01*
X142923669Y-86875000D01*
X142773941Y-86904783D01*
X142632900Y-86963204D01*
X142505966Y-87048018D01*
X142398018Y-87155966D01*
X142313204Y-87282900D01*
X142254783Y-87423941D01*
X142233083Y-87533034D01*
X141891118Y-87875000D01*
X108108884Y-87875000D01*
X107766917Y-87533034D01*
X107745217Y-87423941D01*
X107686796Y-87282900D01*
X107601982Y-87155966D01*
X107494034Y-87048018D01*
X107367100Y-86963204D01*
X107226059Y-86904783D01*
X107076331Y-86875000D01*
X106923669Y-86875000D01*
X106773941Y-86904783D01*
X106632900Y-86963204D01*
X106505966Y-87048018D01*
X106398018Y-87155966D01*
X106313204Y-87282900D01*
X106254783Y-87423941D01*
X106225000Y-87573669D01*
X106225000Y-87726331D01*
X106254783Y-87876059D01*
X106313204Y-88017100D01*
X106398018Y-88144034D01*
X106505966Y-88251982D01*
X106632900Y-88336796D01*
X106773941Y-88395217D01*
X106883034Y-88416917D01*
X107366106Y-88899990D01*
X105019749Y-88899990D01*
X105078414Y-88894212D01*
X105153814Y-88871340D01*
X105223303Y-88834197D01*
X105284211Y-88784211D01*
X105334197Y-88723303D01*
X105371340Y-88653814D01*
X105394212Y-88578414D01*
X105401935Y-88500000D01*
X105400000Y-88480353D01*
X105400000Y-83519647D01*
X105401935Y-83500000D01*
X105394212Y-83421586D01*
X105371340Y-83346186D01*
X105334197Y-83276697D01*
X105284211Y-83215789D01*
X105223303Y-83165803D01*
X105153814Y-83128660D01*
X105078414Y-83105788D01*
X105019647Y-83100000D01*
X105000000Y-83098065D01*
X104980354Y-83100000D01*
X95019646Y-83100000D01*
X95000000Y-83098065D01*
X94980353Y-83100000D01*
X94921586Y-83105788D01*
X94846186Y-83128660D01*
X94776697Y-83165803D01*
X94715789Y-83215789D01*
X94665803Y-83276697D01*
X94628660Y-83346186D01*
X94605788Y-83421586D01*
X94598065Y-83500000D01*
X94600000Y-83519647D01*
X94600001Y-88480343D01*
X94598065Y-88500000D01*
X94605788Y-88578414D01*
X94628660Y-88653814D01*
X94665803Y-88723303D01*
X94715789Y-88784211D01*
X94776697Y-88834197D01*
X94846186Y-88871340D01*
X94921586Y-88894212D01*
X94980251Y-88899990D01*
X94183874Y-88899990D01*
X93625000Y-88341118D01*
X93625000Y-88109585D01*
X93686796Y-88017100D01*
X93745217Y-87876059D01*
X93775000Y-87726331D01*
X93775000Y-87573669D01*
X93745217Y-87423941D01*
X93686796Y-87282900D01*
X93601982Y-87155966D01*
X93494034Y-87048018D01*
X93367100Y-86963204D01*
X93226059Y-86904783D01*
X93076331Y-86875000D01*
X92923669Y-86875000D01*
X92773941Y-86904783D01*
X92632900Y-86963204D01*
X92505966Y-87048018D01*
X92398018Y-87155966D01*
X92313204Y-87282900D01*
X92254783Y-87423941D01*
X92225000Y-87573669D01*
X92225000Y-87726331D01*
X92254783Y-87876059D01*
X92313204Y-88017100D01*
X92375000Y-88109586D01*
X92375001Y-88569297D01*
X92371977Y-88600000D01*
X92375001Y-88630704D01*
X92384044Y-88722521D01*
X92419782Y-88840334D01*
X92477818Y-88948911D01*
X92555921Y-89044080D01*
X92579771Y-89063653D01*
X93116117Y-89600000D01*
X84980353Y-89600000D01*
X84962604Y-89601748D01*
X84953276Y-89601683D01*
X84947718Y-89602228D01*
X84656572Y-89632828D01*
X84621090Y-89640112D01*
X84585446Y-89646911D01*
X84580100Y-89648526D01*
X84300444Y-89735094D01*
X84267027Y-89749141D01*
X84233408Y-89762724D01*
X84228477Y-89765346D01*
X84095983Y-89836986D01*
X84063144Y-89787839D01*
X83962161Y-89686856D01*
X83843416Y-89607513D01*
X83711475Y-89552861D01*
X83571406Y-89525000D01*
X83428594Y-89525000D01*
X83288525Y-89552861D01*
X83156584Y-89607513D01*
X83037839Y-89686856D01*
X83000000Y-89724695D01*
X82962161Y-89686856D01*
X82843416Y-89607513D01*
X82711475Y-89552861D01*
X82571406Y-89525000D01*
X82428594Y-89525000D01*
X82288525Y-89552861D01*
X82156584Y-89607513D01*
X82037839Y-89686856D01*
X82000000Y-89724695D01*
X81962161Y-89686856D01*
X81843416Y-89607513D01*
X81711475Y-89552861D01*
X81571406Y-89525000D01*
X81428594Y-89525000D01*
X81288525Y-89552861D01*
X81156584Y-89607513D01*
X81037839Y-89686856D01*
X80936856Y-89787839D01*
X80904060Y-89836922D01*
X80759395Y-89760002D01*
X80725857Y-89746178D01*
X80692555Y-89731905D01*
X80687219Y-89730253D01*
X80406965Y-89645639D01*
X80400000Y-89644260D01*
X80400000Y-82900000D01*
X85019647Y-82900000D01*
X85040014Y-82897994D01*
X85052995Y-82897994D01*
X85058550Y-82897410D01*
X85252499Y-82875655D01*
X85287956Y-82868118D01*
X85323526Y-82861075D01*
X85328861Y-82859424D01*
X85514892Y-82800411D01*
X85548219Y-82786127D01*
X85581731Y-82772314D01*
X85586640Y-82769659D01*
X85586645Y-82769657D01*
X85586649Y-82769654D01*
X85757669Y-82675635D01*
X85787566Y-82655164D01*
X85817778Y-82635091D01*
X85822082Y-82631531D01*
X85971588Y-82506081D01*
X85996968Y-82480164D01*
X86022679Y-82454632D01*
X86026209Y-82450304D01*
X86148500Y-82298204D01*
X86168361Y-82267853D01*
X86188623Y-82237814D01*
X86191245Y-82232883D01*
X86281665Y-82059927D01*
X86295244Y-82026318D01*
X86309296Y-81992889D01*
X86310910Y-81987542D01*
X86366013Y-81800317D01*
X86372804Y-81764715D01*
X86380096Y-81729194D01*
X86380641Y-81723635D01*
X86398330Y-81529274D01*
X86398077Y-81493019D01*
X86398330Y-81456765D01*
X86397785Y-81451206D01*
X86377384Y-81257109D01*
X86370092Y-81221588D01*
X86363301Y-81185986D01*
X86361687Y-81180643D01*
X86361686Y-81180637D01*
X86361684Y-81180631D01*
X86303974Y-80994201D01*
X86289942Y-80960821D01*
X86276345Y-80927166D01*
X86273723Y-80922235D01*
X86180898Y-80750558D01*
X86160620Y-80720494D01*
X86140773Y-80690165D01*
X86137243Y-80685837D01*
X86012839Y-80535459D01*
X85987113Y-80509912D01*
X85961749Y-80484011D01*
X85957446Y-80480451D01*
X85806204Y-80357101D01*
X85776030Y-80337054D01*
X85746094Y-80316556D01*
X85741181Y-80313900D01*
X85568858Y-80222275D01*
X85535360Y-80208468D01*
X85502018Y-80194178D01*
X85496683Y-80192526D01*
X85309847Y-80136117D01*
X85274262Y-80129071D01*
X85238822Y-80121538D01*
X85233267Y-80120954D01*
X85039034Y-80101909D01*
X85039030Y-80101909D01*
X85019647Y-80100000D01*
X80400000Y-80100000D01*
X80400000Y-79512845D01*
X88580090Y-79512845D01*
X88600104Y-79691279D01*
X88654395Y-79862427D01*
X88740896Y-80019770D01*
X88856310Y-80157315D01*
X88996242Y-80269823D01*
X89155362Y-80353009D01*
X89327609Y-80403704D01*
X89506423Y-80419978D01*
X89684992Y-80401209D01*
X89856514Y-80348114D01*
X90014457Y-80262715D01*
X90152805Y-80148263D01*
X90266288Y-80009120D01*
X90350582Y-79850585D01*
X90402479Y-79678696D01*
X90420000Y-79500000D01*
X90419641Y-79474312D01*
X90397137Y-79296175D01*
X90340462Y-79125802D01*
X90251773Y-78969682D01*
X90134450Y-78833762D01*
X89992961Y-78723218D01*
X89832695Y-78642262D01*
X89659756Y-78593977D01*
X89480733Y-78580202D01*
X89302443Y-78601462D01*
X89131679Y-78656946D01*
X88974944Y-78744543D01*
X88838207Y-78860914D01*
X88726679Y-79001628D01*
X88644606Y-79161325D01*
X88595114Y-79333922D01*
X88580090Y-79512845D01*
X80400000Y-79512845D01*
X80400000Y-75512845D01*
X88580090Y-75512845D01*
X88600104Y-75691279D01*
X88654395Y-75862427D01*
X88740896Y-76019770D01*
X88856310Y-76157315D01*
X88996242Y-76269823D01*
X89155362Y-76353009D01*
X89327609Y-76403704D01*
X89506423Y-76419978D01*
X89684992Y-76401209D01*
X89856514Y-76348114D01*
X90014457Y-76262715D01*
X90152805Y-76148263D01*
X90266288Y-76009120D01*
X90350582Y-75850585D01*
X90402479Y-75678696D01*
X90420000Y-75500000D01*
X90419641Y-75474312D01*
X90397137Y-75296175D01*
X90340462Y-75125802D01*
X90251773Y-74969682D01*
X90134450Y-74833762D01*
X89992961Y-74723218D01*
X89832695Y-74642262D01*
X89659756Y-74593977D01*
X89480733Y-74580202D01*
X89302443Y-74601462D01*
X89131679Y-74656946D01*
X88974944Y-74744543D01*
X88838207Y-74860914D01*
X88726679Y-75001628D01*
X88644606Y-75161325D01*
X88595114Y-75333922D01*
X88580090Y-75512845D01*
X80400000Y-75512845D01*
X80400000Y-74900000D01*
X85019647Y-74900000D01*
X85040014Y-74897994D01*
X85052995Y-74897994D01*
X85058550Y-74897410D01*
X85252499Y-74875655D01*
X85287956Y-74868118D01*
X85323526Y-74861075D01*
X85328861Y-74859424D01*
X85514892Y-74800411D01*
X85548219Y-74786127D01*
X85581731Y-74772314D01*
X85586640Y-74769659D01*
X85586645Y-74769657D01*
X85586649Y-74769654D01*
X85757669Y-74675635D01*
X85787566Y-74655164D01*
X85817778Y-74635091D01*
X85822082Y-74631531D01*
X85971588Y-74506081D01*
X85977543Y-74500000D01*
X94598065Y-74500000D01*
X94600001Y-74519657D01*
X94600000Y-80480353D01*
X94598065Y-80500000D01*
X94605788Y-80578414D01*
X94628660Y-80653814D01*
X94665803Y-80723303D01*
X94715789Y-80784211D01*
X94776697Y-80834197D01*
X94846186Y-80871340D01*
X94921586Y-80894212D01*
X94980252Y-80899990D01*
X95000000Y-80901935D01*
X95019646Y-80900000D01*
X104980354Y-80900000D01*
X105000000Y-80901935D01*
X105019749Y-80899990D01*
X105078414Y-80894212D01*
X105153814Y-80871340D01*
X105223303Y-80834197D01*
X105284211Y-80784211D01*
X105334197Y-80723303D01*
X105371340Y-80653814D01*
X105394212Y-80578414D01*
X105396212Y-80558103D01*
X105400000Y-80519647D01*
X105400000Y-80519646D01*
X105401935Y-80500000D01*
X105400000Y-80480353D01*
X105400000Y-74519647D01*
X105401935Y-74500000D01*
X105399131Y-74471525D01*
X105394212Y-74421586D01*
X105371340Y-74346186D01*
X105334197Y-74276697D01*
X105284211Y-74215789D01*
X105282810Y-74214639D01*
X105223303Y-74165803D01*
X105153814Y-74128660D01*
X105078414Y-74105788D01*
X105019647Y-74100000D01*
X105019646Y-74100000D01*
X105000000Y-74098065D01*
X104980353Y-74100000D01*
X95019647Y-74100000D01*
X95000000Y-74098065D01*
X94980354Y-74100000D01*
X94980353Y-74100000D01*
X94921586Y-74105788D01*
X94846186Y-74128660D01*
X94776697Y-74165803D01*
X94715789Y-74215789D01*
X94665803Y-74276697D01*
X94628660Y-74346186D01*
X94605788Y-74421586D01*
X94598065Y-74500000D01*
X85977543Y-74500000D01*
X85996968Y-74480164D01*
X86022679Y-74454632D01*
X86026209Y-74450304D01*
X86148500Y-74298204D01*
X86168361Y-74267853D01*
X86188623Y-74237814D01*
X86191245Y-74232883D01*
X86281665Y-74059927D01*
X86295244Y-74026318D01*
X86309296Y-73992889D01*
X86310910Y-73987542D01*
X86366013Y-73800317D01*
X86372804Y-73764715D01*
X86380096Y-73729194D01*
X86380641Y-73723635D01*
X86398330Y-73529274D01*
X86398077Y-73493019D01*
X86398330Y-73456765D01*
X86397785Y-73451206D01*
X86377384Y-73257109D01*
X86370092Y-73221588D01*
X86363301Y-73185986D01*
X86361687Y-73180643D01*
X86361686Y-73180637D01*
X86361684Y-73180631D01*
X86303974Y-72994201D01*
X86289942Y-72960821D01*
X86276345Y-72927166D01*
X86273723Y-72922235D01*
X86180898Y-72750558D01*
X86160620Y-72720494D01*
X86140773Y-72690165D01*
X86137243Y-72685837D01*
X86012839Y-72535459D01*
X85987113Y-72509912D01*
X85961749Y-72484011D01*
X85957446Y-72480451D01*
X85806204Y-72357101D01*
X85776030Y-72337054D01*
X85746094Y-72316556D01*
X85741181Y-72313900D01*
X85568858Y-72222275D01*
X85535360Y-72208468D01*
X85502018Y-72194178D01*
X85496683Y-72192526D01*
X85309847Y-72136117D01*
X85274262Y-72129071D01*
X85238822Y-72121538D01*
X85233267Y-72120954D01*
X85039034Y-72101909D01*
X85039030Y-72101909D01*
X85019647Y-72100000D01*
X80400000Y-72100000D01*
X80400000Y-65355865D01*
X80414553Y-65353089D01*
X80419900Y-65351474D01*
X80699556Y-65264906D01*
X80732973Y-65250859D01*
X80766592Y-65237276D01*
X80771523Y-65234654D01*
X80904017Y-65163014D01*
X80936856Y-65212161D01*
X81037839Y-65313144D01*
X81156584Y-65392487D01*
X81288525Y-65447139D01*
X81428594Y-65475000D01*
X81571406Y-65475000D01*
X81711475Y-65447139D01*
X81843416Y-65392487D01*
X81962161Y-65313144D01*
X82000000Y-65275305D01*
X82037839Y-65313144D01*
X82156584Y-65392487D01*
X82288525Y-65447139D01*
X82428594Y-65475000D01*
X82571406Y-65475000D01*
X82711475Y-65447139D01*
X82843416Y-65392487D01*
X82962161Y-65313144D01*
X83000000Y-65275305D01*
X83037839Y-65313144D01*
X83156584Y-65392487D01*
X83288525Y-65447139D01*
X83428594Y-65475000D01*
X83571406Y-65475000D01*
X83711475Y-65447139D01*
X83843416Y-65392487D01*
X83962161Y-65313144D01*
X84063144Y-65212161D01*
X84095940Y-65163078D01*
X84240605Y-65239998D01*
X84274157Y-65253827D01*
X84307446Y-65268095D01*
X84312781Y-65269747D01*
X84593035Y-65354361D01*
X84628627Y-65361408D01*
X84664061Y-65368940D01*
X84669615Y-65369524D01*
X84960967Y-65398091D01*
X84960970Y-65398091D01*
X84980353Y-65400000D01*
X93116117Y-65400000D01*
X92579772Y-65936346D01*
X92555921Y-65955920D01*
X92489916Y-66036347D01*
X92477818Y-66051089D01*
X92419782Y-66159666D01*
X92384044Y-66277479D01*
X92371977Y-66400000D01*
X92375001Y-66430703D01*
X92375000Y-66890414D01*
X92313204Y-66982900D01*
X92254783Y-67123941D01*
X92225000Y-67273669D01*
X92225000Y-67426331D01*
X92254783Y-67576059D01*
X92313204Y-67717100D01*
X92398018Y-67844034D01*
X92505966Y-67951982D01*
X92632900Y-68036796D01*
X92773941Y-68095217D01*
X92923669Y-68125000D01*
X93076331Y-68125000D01*
X93226059Y-68095217D01*
X93367100Y-68036796D01*
X93494034Y-67951982D01*
X93601982Y-67844034D01*
X93686796Y-67717100D01*
X93745217Y-67576059D01*
X93775000Y-67426331D01*
X93775000Y-67273669D01*
X93745217Y-67123941D01*
X93686796Y-66982900D01*
X93625000Y-66890415D01*
X93625000Y-66658882D01*
X94158883Y-66125000D01*
X94858252Y-66125000D01*
X94846186Y-66128660D01*
X94776697Y-66165803D01*
X94715789Y-66215789D01*
X94665803Y-66276697D01*
X94628660Y-66346186D01*
X94605788Y-66421586D01*
X94598065Y-66500000D01*
X94600000Y-66519647D01*
X94600001Y-71480343D01*
X94598065Y-71500000D01*
X94605788Y-71578414D01*
X94628660Y-71653814D01*
X94665803Y-71723303D01*
X94715789Y-71784211D01*
X94776697Y-71834197D01*
X94846186Y-71871340D01*
X94921586Y-71894212D01*
X94980353Y-71900000D01*
X94980354Y-71900000D01*
X95000000Y-71901935D01*
X95019647Y-71900000D01*
X104980353Y-71900000D01*
X105000000Y-71901935D01*
X105019646Y-71900000D01*
X105019647Y-71900000D01*
X105078414Y-71894212D01*
X105153814Y-71871340D01*
X105223303Y-71834197D01*
X105284211Y-71784211D01*
X105334197Y-71723303D01*
X105371340Y-71653814D01*
X105394212Y-71578414D01*
X105401935Y-71500000D01*
X105400000Y-71480353D01*
X105400000Y-66519647D01*
X105401935Y-66500000D01*
X105394212Y-66421586D01*
X105371340Y-66346186D01*
X105334197Y-66276697D01*
X105284211Y-66215789D01*
X105223303Y-66165803D01*
X105153814Y-66128660D01*
X105141748Y-66125000D01*
X107341116Y-66125000D01*
X106883034Y-66583083D01*
X106773941Y-66604783D01*
X106632900Y-66663204D01*
X106505966Y-66748018D01*
X106398018Y-66855966D01*
X106313204Y-66982900D01*
X106254783Y-67123941D01*
X106225000Y-67273669D01*
X106225000Y-67426331D01*
X106254783Y-67576059D01*
X106313204Y-67717100D01*
X106398018Y-67844034D01*
X106505966Y-67951982D01*
X106632900Y-68036796D01*
X106773941Y-68095217D01*
X106923669Y-68125000D01*
X107076331Y-68125000D01*
X107226059Y-68095217D01*
X107367100Y-68036796D01*
X107494034Y-67951982D01*
X107601982Y-67844034D01*
X107686796Y-67717100D01*
X107745217Y-67576059D01*
X107766917Y-67466966D01*
X108108884Y-67125000D01*
X141891118Y-67125000D01*
X142233083Y-67466966D01*
X142254783Y-67576059D01*
X142313204Y-67717100D01*
X142398018Y-67844034D01*
X142505966Y-67951982D01*
X142632900Y-68036796D01*
X142773941Y-68095217D01*
X142923669Y-68125000D01*
X143076331Y-68125000D01*
X143226059Y-68095217D01*
X143367100Y-68036796D01*
X143494034Y-67951982D01*
X143601982Y-67844034D01*
X143686796Y-67717100D01*
X143745217Y-67576059D01*
X143775000Y-67426331D01*
X143775000Y-67273669D01*
X143745217Y-67123941D01*
X143686796Y-66982900D01*
X143601982Y-66855966D01*
X143494034Y-66748018D01*
X143367100Y-66663204D01*
X143226059Y-66604783D01*
X143116966Y-66583083D01*
X142658882Y-66125000D01*
X144858252Y-66125000D01*
X144846186Y-66128660D01*
X144776697Y-66165803D01*
X144715789Y-66215789D01*
X144665803Y-66276697D01*
X144628660Y-66346186D01*
X144605788Y-66421586D01*
X144598065Y-66500000D01*
X144600000Y-66519647D01*
X144600001Y-71375000D01*
X144173155Y-71375000D01*
X144129845Y-71157265D01*
X144041271Y-70943429D01*
X143912682Y-70750981D01*
X143749019Y-70587318D01*
X143556571Y-70458729D01*
X143342735Y-70370155D01*
X143115727Y-70325000D01*
X142884273Y-70325000D01*
X142657265Y-70370155D01*
X142443429Y-70458729D01*
X142250981Y-70587318D01*
X142087318Y-70750981D01*
X141958729Y-70943429D01*
X141870155Y-71157265D01*
X141825000Y-71384273D01*
X141825000Y-71441118D01*
X141463658Y-71079776D01*
X141444080Y-71055920D01*
X141348911Y-70977817D01*
X141240334Y-70919781D01*
X141122521Y-70884043D01*
X141030704Y-70875000D01*
X141030694Y-70875000D01*
X141000000Y-70871977D01*
X140969306Y-70875000D01*
X107995548Y-70875000D01*
X107912682Y-70750981D01*
X107749019Y-70587318D01*
X107556571Y-70458729D01*
X107342735Y-70370155D01*
X107115727Y-70325000D01*
X106884273Y-70325000D01*
X106657265Y-70370155D01*
X106443429Y-70458729D01*
X106250981Y-70587318D01*
X106087318Y-70750981D01*
X105958729Y-70943429D01*
X105870155Y-71157265D01*
X105825000Y-71384273D01*
X105825000Y-71615727D01*
X105854099Y-71762018D01*
X105241118Y-72375000D01*
X94758883Y-72375000D01*
X94145901Y-71762018D01*
X94175000Y-71615727D01*
X94175000Y-71384273D01*
X94129845Y-71157265D01*
X94041271Y-70943429D01*
X93912682Y-70750981D01*
X93749019Y-70587318D01*
X93556571Y-70458729D01*
X93342735Y-70370155D01*
X93115727Y-70325000D01*
X92884273Y-70325000D01*
X92657265Y-70370155D01*
X92443429Y-70458729D01*
X92250981Y-70587318D01*
X92087318Y-70750981D01*
X91958729Y-70943429D01*
X91870155Y-71157265D01*
X91825000Y-71384273D01*
X91825000Y-71615727D01*
X91870155Y-71842735D01*
X91958729Y-72056571D01*
X92087318Y-72249019D01*
X92250981Y-72412682D01*
X92443429Y-72541271D01*
X92657265Y-72629845D01*
X92884273Y-72675000D01*
X93115727Y-72675000D01*
X93262018Y-72645901D01*
X94036346Y-73420229D01*
X94055920Y-73444080D01*
X94097948Y-73478571D01*
X94151087Y-73522182D01*
X94252392Y-73576331D01*
X94259666Y-73580219D01*
X94377479Y-73615957D01*
X94469296Y-73625000D01*
X94469305Y-73625000D01*
X94499999Y-73628023D01*
X94530693Y-73625000D01*
X105469306Y-73625000D01*
X105500000Y-73628023D01*
X105530694Y-73625000D01*
X105530704Y-73625000D01*
X105622521Y-73615957D01*
X105740334Y-73580219D01*
X105848911Y-73522183D01*
X105944080Y-73444080D01*
X105963658Y-73420224D01*
X106737982Y-72645901D01*
X106884273Y-72675000D01*
X107115727Y-72675000D01*
X107342735Y-72629845D01*
X107556571Y-72541271D01*
X107749019Y-72412682D01*
X107912682Y-72249019D01*
X107995548Y-72125000D01*
X122244419Y-72125000D01*
X122212036Y-72131883D01*
X122176474Y-72138925D01*
X122171139Y-72140576D01*
X121985109Y-72199589D01*
X121951795Y-72213867D01*
X121918269Y-72227686D01*
X121913356Y-72230342D01*
X121742331Y-72324365D01*
X121712434Y-72344836D01*
X121682222Y-72364909D01*
X121677922Y-72368467D01*
X121677917Y-72368470D01*
X121677913Y-72368474D01*
X121528412Y-72493919D01*
X121503032Y-72519836D01*
X121477321Y-72545368D01*
X121473791Y-72549696D01*
X121351500Y-72701796D01*
X121331649Y-72732132D01*
X121311377Y-72762186D01*
X121308755Y-72767118D01*
X121218335Y-72940073D01*
X121204756Y-72973682D01*
X121190704Y-73007111D01*
X121189090Y-73012458D01*
X121133987Y-73199684D01*
X121127197Y-73235278D01*
X121119904Y-73270806D01*
X121119359Y-73276365D01*
X121101670Y-73470727D01*
X121101923Y-73506981D01*
X121101670Y-73543235D01*
X121102215Y-73548794D01*
X121122616Y-73742890D01*
X121129905Y-73778398D01*
X121136699Y-73814014D01*
X121138314Y-73819361D01*
X121196026Y-74005799D01*
X121210064Y-74039196D01*
X121223655Y-74072834D01*
X121226277Y-74077765D01*
X121319102Y-74249442D01*
X121339380Y-74279506D01*
X121359227Y-74309835D01*
X121362757Y-74314163D01*
X121487161Y-74464541D01*
X121512887Y-74490088D01*
X121538251Y-74515989D01*
X121542554Y-74519549D01*
X121693796Y-74642899D01*
X121723988Y-74662958D01*
X121753907Y-74683444D01*
X121758820Y-74686100D01*
X121931142Y-74777725D01*
X121964640Y-74791532D01*
X121997982Y-74805822D01*
X122003317Y-74807474D01*
X122190154Y-74863883D01*
X122225717Y-74870925D01*
X122261178Y-74878462D01*
X122266732Y-74879046D01*
X122460966Y-74898091D01*
X122460970Y-74898091D01*
X122480353Y-74900000D01*
X127519647Y-74900000D01*
X127540014Y-74897994D01*
X127552995Y-74897994D01*
X127558550Y-74897410D01*
X127752499Y-74875655D01*
X127787956Y-74868118D01*
X127823526Y-74861075D01*
X127828861Y-74859424D01*
X128014892Y-74800411D01*
X128048219Y-74786127D01*
X128081731Y-74772314D01*
X128086640Y-74769659D01*
X128086645Y-74769657D01*
X128086649Y-74769654D01*
X128257669Y-74675635D01*
X128287566Y-74655164D01*
X128317778Y-74635091D01*
X128322082Y-74631531D01*
X128471588Y-74506081D01*
X128496968Y-74480164D01*
X128522679Y-74454632D01*
X128526209Y-74450304D01*
X128648500Y-74298204D01*
X128668361Y-74267853D01*
X128688623Y-74237814D01*
X128691245Y-74232883D01*
X128781665Y-74059927D01*
X128795244Y-74026318D01*
X128809296Y-73992889D01*
X128810910Y-73987542D01*
X128866013Y-73800317D01*
X128872804Y-73764715D01*
X128880096Y-73729194D01*
X128880641Y-73723635D01*
X128898330Y-73529274D01*
X128898077Y-73493019D01*
X128898330Y-73456765D01*
X128897785Y-73451206D01*
X128877384Y-73257109D01*
X128870092Y-73221588D01*
X128863301Y-73185986D01*
X128861687Y-73180643D01*
X128861686Y-73180637D01*
X128861684Y-73180631D01*
X128803974Y-72994201D01*
X128789942Y-72960821D01*
X128776345Y-72927166D01*
X128773723Y-72922235D01*
X128680898Y-72750558D01*
X128660620Y-72720494D01*
X128640773Y-72690165D01*
X128637243Y-72685837D01*
X128512839Y-72535459D01*
X128487113Y-72509912D01*
X128461749Y-72484011D01*
X128457446Y-72480451D01*
X128306204Y-72357101D01*
X128276030Y-72337054D01*
X128246094Y-72316556D01*
X128241181Y-72313900D01*
X128068858Y-72222275D01*
X128035360Y-72208468D01*
X128002018Y-72194178D01*
X127996683Y-72192526D01*
X127809847Y-72136117D01*
X127774262Y-72129071D01*
X127755109Y-72125000D01*
X140741118Y-72125000D01*
X142098846Y-73482729D01*
X142118420Y-73506580D01*
X142137204Y-73521996D01*
X141932249Y-73658942D01*
X141698942Y-73892249D01*
X141515634Y-74166590D01*
X141389369Y-74471420D01*
X141325000Y-74795027D01*
X141325000Y-75124973D01*
X141389369Y-75448580D01*
X141515634Y-75753410D01*
X141698942Y-76027751D01*
X141932249Y-76261058D01*
X142206590Y-76444366D01*
X142511420Y-76570631D01*
X142835027Y-76635000D01*
X143164973Y-76635000D01*
X143392338Y-76589775D01*
X143953388Y-77150825D01*
X143980788Y-77184212D01*
X144114024Y-77293556D01*
X144242738Y-77362354D01*
X144266032Y-77374805D01*
X144430969Y-77424839D01*
X144602499Y-77441733D01*
X144645478Y-77437500D01*
X147542979Y-77437500D01*
X147651477Y-77426814D01*
X147956250Y-77426814D01*
X148077316Y-77414890D01*
X148193730Y-77379576D01*
X148301017Y-77322230D01*
X148395055Y-77245055D01*
X148472230Y-77151017D01*
X148529576Y-77043730D01*
X148564890Y-76927316D01*
X148576814Y-76806250D01*
X148576814Y-76318750D01*
X148564890Y-76197684D01*
X148529576Y-76081270D01*
X148472230Y-75973983D01*
X148395055Y-75879945D01*
X148301017Y-75802770D01*
X148202291Y-75750000D01*
X148301017Y-75697230D01*
X148395055Y-75620055D01*
X148472230Y-75526017D01*
X148529576Y-75418730D01*
X148564890Y-75302316D01*
X148576814Y-75181250D01*
X148576814Y-74693750D01*
X148564890Y-74572684D01*
X148529576Y-74456270D01*
X148472230Y-74348983D01*
X148395055Y-74254945D01*
X148301017Y-74177770D01*
X148193730Y-74120424D01*
X148077316Y-74085110D01*
X147956250Y-74073186D01*
X147043750Y-74073186D01*
X146922684Y-74085110D01*
X146806270Y-74120424D01*
X146698983Y-74177770D01*
X146604945Y-74254945D01*
X146527770Y-74348983D01*
X146500000Y-74400937D01*
X146472230Y-74348983D01*
X146395055Y-74254945D01*
X146301017Y-74177770D01*
X146193730Y-74120424D01*
X146077316Y-74085110D01*
X145956250Y-74073186D01*
X145043750Y-74073186D01*
X144922684Y-74085110D01*
X144806270Y-74120424D01*
X144698983Y-74177770D01*
X144604945Y-74254945D01*
X144549133Y-74322952D01*
X144484366Y-74166590D01*
X144301058Y-73892249D01*
X144096309Y-73687500D01*
X144557711Y-73687500D01*
X144604945Y-73745055D01*
X144698983Y-73822230D01*
X144806270Y-73879576D01*
X144922684Y-73914890D01*
X145043750Y-73926814D01*
X145956250Y-73926814D01*
X146077316Y-73914890D01*
X146193730Y-73879576D01*
X146301017Y-73822230D01*
X146395055Y-73745055D01*
X146472230Y-73651017D01*
X146500000Y-73599063D01*
X146527770Y-73651017D01*
X146604945Y-73745055D01*
X146698983Y-73822230D01*
X146806270Y-73879576D01*
X146922684Y-73914890D01*
X147043750Y-73926814D01*
X147956250Y-73926814D01*
X148077316Y-73914890D01*
X148193730Y-73879576D01*
X148301017Y-73822230D01*
X148395055Y-73745055D01*
X148472230Y-73651017D01*
X148529576Y-73543730D01*
X148564890Y-73427316D01*
X148576814Y-73306250D01*
X148576814Y-72818750D01*
X148564890Y-72697684D01*
X148542841Y-72625000D01*
X156469306Y-72625000D01*
X156500000Y-72628023D01*
X156530694Y-72625000D01*
X156530704Y-72625000D01*
X156622521Y-72615957D01*
X156623223Y-72615744D01*
X156657265Y-72629845D01*
X156884273Y-72675000D01*
X157115727Y-72675000D01*
X157342735Y-72629845D01*
X157556571Y-72541271D01*
X157749019Y-72412682D01*
X157912682Y-72249019D01*
X158041271Y-72056571D01*
X158129845Y-71842735D01*
X158175000Y-71615727D01*
X158175000Y-71384273D01*
X158129845Y-71157265D01*
X158041271Y-70943429D01*
X157912682Y-70750981D01*
X157749019Y-70587318D01*
X157556571Y-70458729D01*
X157342735Y-70370155D01*
X157115727Y-70325000D01*
X156884273Y-70325000D01*
X156657265Y-70370155D01*
X156443429Y-70458729D01*
X156250981Y-70587318D01*
X156087318Y-70750981D01*
X155958729Y-70943429D01*
X155870155Y-71157265D01*
X155826845Y-71375000D01*
X155400000Y-71375000D01*
X155400000Y-66519647D01*
X155401935Y-66500000D01*
X155394212Y-66421586D01*
X155371340Y-66346186D01*
X155334197Y-66276697D01*
X155284211Y-66215789D01*
X155223303Y-66165803D01*
X155153814Y-66128660D01*
X155141748Y-66125000D01*
X156241118Y-66125000D01*
X156375000Y-66258883D01*
X156375001Y-66890414D01*
X156313204Y-66982900D01*
X156254783Y-67123941D01*
X156225000Y-67273669D01*
X156225000Y-67426331D01*
X156254783Y-67576059D01*
X156313204Y-67717100D01*
X156375000Y-67809586D01*
X156375001Y-68269287D01*
X156375000Y-68269297D01*
X156375000Y-68469306D01*
X156371977Y-68500000D01*
X156375000Y-68530694D01*
X156375000Y-68530704D01*
X156384043Y-68622521D01*
X156419781Y-68740334D01*
X156477818Y-68848911D01*
X156555921Y-68944080D01*
X156579772Y-68963654D01*
X160375000Y-72758883D01*
X160375001Y-73040414D01*
X160313204Y-73132900D01*
X160254783Y-73273941D01*
X160225000Y-73423669D01*
X160225000Y-73576331D01*
X160254783Y-73726059D01*
X160313204Y-73867100D01*
X160398018Y-73994034D01*
X160505966Y-74101982D01*
X160632900Y-74186796D01*
X160773941Y-74245217D01*
X160923669Y-74275000D01*
X161076331Y-74275000D01*
X161226059Y-74245217D01*
X161367100Y-74186796D01*
X161494034Y-74101982D01*
X161601982Y-73994034D01*
X161686796Y-73867100D01*
X161745217Y-73726059D01*
X161775000Y-73576331D01*
X161775000Y-73423669D01*
X161745217Y-73273941D01*
X161686796Y-73132900D01*
X161625000Y-73040415D01*
X161625000Y-72530693D01*
X161628023Y-72499999D01*
X161625000Y-72469305D01*
X161625000Y-72469296D01*
X161615957Y-72377479D01*
X161580219Y-72259666D01*
X161574528Y-72249019D01*
X161522182Y-72151087D01*
X161480255Y-72100000D01*
X161444080Y-72055920D01*
X161420230Y-72036347D01*
X157625000Y-68241118D01*
X157625000Y-67809585D01*
X157686796Y-67717100D01*
X157745217Y-67576059D01*
X157775000Y-67426331D01*
X157775000Y-67273669D01*
X157745217Y-67123941D01*
X157686796Y-66982900D01*
X157625000Y-66890415D01*
X157625000Y-66030701D01*
X157628024Y-66000000D01*
X157625000Y-65969296D01*
X157615957Y-65877479D01*
X157580219Y-65759666D01*
X157522183Y-65651089D01*
X157444080Y-65555920D01*
X157420230Y-65536347D01*
X157283883Y-65400000D01*
X165019647Y-65400000D01*
X165037396Y-65398252D01*
X165046724Y-65398317D01*
X165052283Y-65397772D01*
X165343428Y-65367172D01*
X165378917Y-65359887D01*
X165414553Y-65353089D01*
X165419900Y-65351474D01*
X165699556Y-65264906D01*
X165732973Y-65250859D01*
X165766592Y-65237276D01*
X165771523Y-65234654D01*
X165904017Y-65163014D01*
X165936856Y-65212161D01*
X165936856Y-65212161D01*
G37*
X165936856Y-65212161D02*
X166037839Y-65313144D01*
X166156584Y-65392487D01*
X166288525Y-65447139D01*
X166428594Y-65475000D01*
X166571406Y-65475000D01*
X166711475Y-65447139D01*
X166843416Y-65392487D01*
X166962161Y-65313144D01*
X167000000Y-65275305D01*
X167037839Y-65313144D01*
X167156584Y-65392487D01*
X167288525Y-65447139D01*
X167428594Y-65475000D01*
X167571406Y-65475000D01*
X167711475Y-65447139D01*
X167843416Y-65392487D01*
X167962161Y-65313144D01*
X168000000Y-65275305D01*
X168037839Y-65313144D01*
X168156584Y-65392487D01*
X168288525Y-65447139D01*
X168428594Y-65475000D01*
X168571406Y-65475000D01*
X168711475Y-65447139D01*
X168843416Y-65392487D01*
X168962161Y-65313144D01*
X169063144Y-65212161D01*
X169095940Y-65163078D01*
X169240605Y-65239998D01*
X169274157Y-65253827D01*
X169307446Y-65268095D01*
X169312781Y-65269747D01*
X169593035Y-65354361D01*
X169600001Y-65355740D01*
X169600000Y-72100000D01*
X164980353Y-72100000D01*
X164959986Y-72102006D01*
X164947005Y-72102006D01*
X164941450Y-72102590D01*
X164747500Y-72124345D01*
X164712036Y-72131883D01*
X164676474Y-72138925D01*
X164671139Y-72140576D01*
X164485109Y-72199589D01*
X164451795Y-72213867D01*
X164418269Y-72227686D01*
X164413356Y-72230342D01*
X164242331Y-72324365D01*
X164212434Y-72344836D01*
X164182222Y-72364909D01*
X164177922Y-72368467D01*
X164177917Y-72368470D01*
X164177913Y-72368474D01*
X164028412Y-72493919D01*
X164003032Y-72519836D01*
X163977321Y-72545368D01*
X163973791Y-72549696D01*
X163851500Y-72701796D01*
X163831649Y-72732132D01*
X163811377Y-72762186D01*
X163808755Y-72767118D01*
X163718335Y-72940073D01*
X163704756Y-72973682D01*
X163690704Y-73007111D01*
X163689090Y-73012458D01*
X163633987Y-73199684D01*
X163627197Y-73235278D01*
X163619904Y-73270806D01*
X163619359Y-73276365D01*
X163601670Y-73470727D01*
X163601923Y-73506981D01*
X163601670Y-73543235D01*
X163602215Y-73548794D01*
X163622616Y-73742890D01*
X163629905Y-73778398D01*
X163636699Y-73814014D01*
X163638314Y-73819361D01*
X163696026Y-74005799D01*
X163710064Y-74039196D01*
X163723655Y-74072834D01*
X163726277Y-74077765D01*
X163819102Y-74249442D01*
X163839380Y-74279506D01*
X163859227Y-74309835D01*
X163862757Y-74314163D01*
X163987161Y-74464541D01*
X164012887Y-74490088D01*
X164038251Y-74515989D01*
X164042554Y-74519549D01*
X164193796Y-74642899D01*
X164223988Y-74662958D01*
X164253907Y-74683444D01*
X164258820Y-74686100D01*
X164431142Y-74777725D01*
X164464640Y-74791532D01*
X164497982Y-74805822D01*
X164503317Y-74807474D01*
X164690154Y-74863883D01*
X164725717Y-74870925D01*
X164761178Y-74878462D01*
X164766732Y-74879046D01*
X164960966Y-74898091D01*
X164960970Y-74898091D01*
X164980353Y-74900000D01*
X169600000Y-74900000D01*
X169600001Y-80100000D01*
X164980353Y-80100000D01*
X164959986Y-80102006D01*
X164947005Y-80102006D01*
X164941450Y-80102590D01*
X164747500Y-80124345D01*
X164712036Y-80131883D01*
X164676474Y-80138925D01*
X164671139Y-80140576D01*
X164485109Y-80199589D01*
X164451795Y-80213867D01*
X164418269Y-80227686D01*
X164413356Y-80230342D01*
X164242331Y-80324365D01*
X164212434Y-80344836D01*
X164182222Y-80364909D01*
X164177922Y-80368467D01*
X164177917Y-80368470D01*
X164177913Y-80368474D01*
X164028412Y-80493919D01*
X164003032Y-80519836D01*
X163977321Y-80545368D01*
X163973791Y-80549696D01*
X163851500Y-80701796D01*
X163831649Y-80732132D01*
X163811377Y-80762186D01*
X163808755Y-80767118D01*
X163718335Y-80940073D01*
X163704756Y-80973682D01*
X163690704Y-81007111D01*
X163689090Y-81012458D01*
X163633987Y-81199684D01*
X163627197Y-81235278D01*
X163619904Y-81270806D01*
X163619359Y-81276365D01*
X163601670Y-81470727D01*
X163601923Y-81506981D01*
X163601670Y-81543235D01*
X163602215Y-81548794D01*
X163622616Y-81742890D01*
X163629905Y-81778398D01*
X163636699Y-81814014D01*
X163638314Y-81819361D01*
X163696026Y-82005799D01*
X163710064Y-82039196D01*
X163723655Y-82072834D01*
X163726277Y-82077765D01*
X163819102Y-82249442D01*
X163839380Y-82279506D01*
X163859227Y-82309835D01*
X163862757Y-82314163D01*
X163987161Y-82464541D01*
X164012887Y-82490088D01*
X164038251Y-82515989D01*
X164042554Y-82519549D01*
X164193796Y-82642899D01*
X164223988Y-82662958D01*
X164253907Y-82683444D01*
X164258820Y-82686100D01*
X164431142Y-82777725D01*
X164464640Y-82791532D01*
X164497982Y-82805822D01*
X164503317Y-82807474D01*
X164690154Y-82863883D01*
X164725717Y-82870925D01*
X164761178Y-82878462D01*
X164766732Y-82879046D01*
X164960966Y-82898091D01*
X164960970Y-82898091D01*
X164980353Y-82900000D01*
X169600000Y-82900000D01*
X169600001Y-89644135D01*
X169585446Y-89646911D01*
X169580100Y-89648526D01*
X169300444Y-89735094D01*
X169267027Y-89749141D01*
X169233408Y-89762724D01*
X169228477Y-89765346D01*
X169095983Y-89836986D01*
X169063144Y-89787839D01*
X168962161Y-89686856D01*
X168843416Y-89607513D01*
X168711475Y-89552861D01*
X168571406Y-89525000D01*
X168428594Y-89525000D01*
X168288525Y-89552861D01*
X168156584Y-89607513D01*
X168037839Y-89686856D01*
X168000000Y-89724695D01*
X167962161Y-89686856D01*
X167843416Y-89607513D01*
X167711475Y-89552861D01*
X167571406Y-89525000D01*
X167428594Y-89525000D01*
X167288525Y-89552861D01*
X167156584Y-89607513D01*
X167037839Y-89686856D01*
X167000000Y-89724695D01*
X166962161Y-89686856D01*
X166843416Y-89607513D01*
X166711475Y-89552861D01*
X166571406Y-89525000D01*
X166428594Y-89525000D01*
X166288525Y-89552861D01*
X166156584Y-89607513D01*
X166037839Y-89686856D01*
X165936856Y-89787839D01*
X165904060Y-89836922D01*
X165759395Y-89760002D01*
X165725857Y-89746178D01*
X165692555Y-89731905D01*
X165687219Y-89730253D01*
X165406965Y-89645639D01*
X165371373Y-89638592D01*
X165335939Y-89631060D01*
X165330385Y-89630476D01*
X165039033Y-89601909D01*
X165039030Y-89601909D01*
X165019647Y-89600000D01*
X157283883Y-89600000D01*
X157420230Y-89463653D01*
X157444080Y-89444080D01*
X157522183Y-89348911D01*
X157580219Y-89240334D01*
X157615957Y-89122521D01*
X157625000Y-89030704D01*
X157625000Y-89030694D01*
X157628023Y-89000000D01*
X157625000Y-88969306D01*
X157625000Y-88109585D01*
X157686796Y-88017100D01*
X157745217Y-87876059D01*
X157775000Y-87726331D01*
X157775000Y-87573669D01*
X157745217Y-87423941D01*
X157686796Y-87282900D01*
X157625000Y-87190415D01*
X157625000Y-86758882D01*
X161420230Y-82963653D01*
X161444080Y-82944080D01*
X161500235Y-82875655D01*
X161522182Y-82848913D01*
X161580218Y-82740336D01*
X161580219Y-82740333D01*
X161615957Y-82622521D01*
X161625000Y-82530704D01*
X161625000Y-82530695D01*
X161628023Y-82500001D01*
X161625000Y-82469307D01*
X161625000Y-81959585D01*
X161686796Y-81867100D01*
X161745217Y-81726059D01*
X161775000Y-81576331D01*
X161775000Y-81423669D01*
X161745217Y-81273941D01*
X161686796Y-81132900D01*
X161601982Y-81005966D01*
X161494034Y-80898018D01*
X161367100Y-80813204D01*
X161226059Y-80754783D01*
X161076331Y-80725000D01*
X160923669Y-80725000D01*
X160773941Y-80754783D01*
X160632900Y-80813204D01*
X160505966Y-80898018D01*
X160398018Y-81005966D01*
X160313204Y-81132900D01*
X160254783Y-81273941D01*
X160225000Y-81423669D01*
X160225000Y-81576331D01*
X160254783Y-81726059D01*
X160313204Y-81867100D01*
X160375001Y-81959586D01*
X160375000Y-82241117D01*
X156579772Y-86036346D01*
X156555921Y-86055920D01*
X156536348Y-86079770D01*
X156477818Y-86151089D01*
X156419782Y-86259666D01*
X156384044Y-86377479D01*
X156371977Y-86500000D01*
X156375001Y-86530703D01*
X156375000Y-87190415D01*
X156313204Y-87282900D01*
X156254783Y-87423941D01*
X156225000Y-87573669D01*
X156225000Y-87726331D01*
X156254783Y-87876059D01*
X156313204Y-88017100D01*
X156375001Y-88109586D01*
X156375000Y-88741117D01*
X156216128Y-88899990D01*
X155019749Y-88899990D01*
X155078414Y-88894212D01*
X155153814Y-88871340D01*
X155223303Y-88834197D01*
X155284211Y-88784211D01*
X155334197Y-88723303D01*
X155371340Y-88653814D01*
X155394212Y-88578414D01*
X155401935Y-88500000D01*
X155400000Y-88480353D01*
X155400000Y-83915254D01*
X155404980Y-83920234D01*
X155424550Y-83944080D01*
X155448395Y-83963649D01*
X155448399Y-83963653D01*
X155519718Y-84022183D01*
X155577754Y-84053204D01*
X155628296Y-84080219D01*
X155746109Y-84115957D01*
X155837926Y-84125000D01*
X155837928Y-84125000D01*
X155868630Y-84128024D01*
X155899332Y-84125000D01*
X156004452Y-84125000D01*
X156087318Y-84249019D01*
X156250981Y-84412682D01*
X156443429Y-84541271D01*
X156657265Y-84629845D01*
X156884273Y-84675000D01*
X157115727Y-84675000D01*
X157342735Y-84629845D01*
X157556571Y-84541271D01*
X157749019Y-84412682D01*
X157912682Y-84249019D01*
X158041271Y-84056571D01*
X158129845Y-83842735D01*
X158175000Y-83615727D01*
X158175000Y-83384273D01*
X158129845Y-83157265D01*
X158041271Y-82943429D01*
X157912682Y-82750981D01*
X157749019Y-82587318D01*
X157556571Y-82458729D01*
X157342735Y-82370155D01*
X157115727Y-82325000D01*
X156884273Y-82325000D01*
X156657265Y-82370155D01*
X156443429Y-82458729D01*
X156250981Y-82587318D01*
X156087318Y-82750981D01*
X156053743Y-82801230D01*
X155857278Y-82604765D01*
X155837700Y-82580910D01*
X155742531Y-82502807D01*
X155633954Y-82444771D01*
X155516141Y-82409033D01*
X155424324Y-82399990D01*
X155424314Y-82399990D01*
X155393620Y-82396967D01*
X155362926Y-82399990D01*
X150535261Y-82399990D01*
X150564890Y-82302316D01*
X150576814Y-82181250D01*
X150576814Y-81693750D01*
X150564890Y-81572684D01*
X150529576Y-81456270D01*
X150472230Y-81348983D01*
X150395055Y-81254945D01*
X150301017Y-81177770D01*
X150193730Y-81120424D01*
X150077316Y-81085110D01*
X149956250Y-81073186D01*
X149043750Y-81073186D01*
X148922684Y-81085110D01*
X148806270Y-81120424D01*
X148698983Y-81177770D01*
X148604945Y-81254945D01*
X148527770Y-81348983D01*
X148500000Y-81400937D01*
X148472230Y-81348983D01*
X148395055Y-81254945D01*
X148301017Y-81177770D01*
X148193730Y-81120424D01*
X148077316Y-81085110D01*
X147956250Y-81073186D01*
X147043750Y-81073186D01*
X146922684Y-81085110D01*
X146806270Y-81120424D01*
X146698983Y-81177770D01*
X146604945Y-81254945D01*
X146527770Y-81348983D01*
X146500000Y-81400937D01*
X146472230Y-81348983D01*
X146395055Y-81254945D01*
X146301017Y-81177770D01*
X146193730Y-81120424D01*
X146077316Y-81085110D01*
X145956250Y-81073186D01*
X145043750Y-81073186D01*
X144922684Y-81085110D01*
X144806270Y-81120424D01*
X144698983Y-81177770D01*
X144604945Y-81254945D01*
X144557711Y-81312500D01*
X144461062Y-81312500D01*
X144503765Y-81260467D01*
X144598652Y-81082945D01*
X144657084Y-80890321D01*
X144666422Y-80795508D01*
X144698983Y-80822230D01*
X144806270Y-80879576D01*
X144922684Y-80914890D01*
X145043750Y-80926814D01*
X145956250Y-80926814D01*
X146077316Y-80914890D01*
X146193730Y-80879576D01*
X146301017Y-80822230D01*
X146395055Y-80745055D01*
X146472230Y-80651017D01*
X146500000Y-80599063D01*
X146527770Y-80651017D01*
X146604945Y-80745055D01*
X146698983Y-80822230D01*
X146806270Y-80879576D01*
X146922684Y-80914890D01*
X147043750Y-80926814D01*
X147956250Y-80926814D01*
X148077316Y-80914890D01*
X148193730Y-80879576D01*
X148301017Y-80822230D01*
X148395055Y-80745055D01*
X148472230Y-80651017D01*
X148500000Y-80599063D01*
X148527770Y-80651017D01*
X148604945Y-80745055D01*
X148698983Y-80822230D01*
X148806270Y-80879576D01*
X148922684Y-80914890D01*
X149043750Y-80926814D01*
X149956250Y-80926814D01*
X150077316Y-80914890D01*
X150193730Y-80879576D01*
X150301017Y-80822230D01*
X150395055Y-80745055D01*
X150472230Y-80651017D01*
X150529576Y-80543730D01*
X150564890Y-80427316D01*
X150576814Y-80306250D01*
X150576814Y-79818750D01*
X150564890Y-79697684D01*
X150529576Y-79581270D01*
X150517911Y-79559446D01*
X150712750Y-79558000D01*
X150871000Y-79399750D01*
X150871000Y-78566500D01*
X151129000Y-78566500D01*
X151129000Y-79399750D01*
X151287250Y-79558000D01*
X151700000Y-79561063D01*
X151824090Y-79548841D01*
X151943411Y-79512646D01*
X152053378Y-79453867D01*
X152149764Y-79374764D01*
X152153107Y-79370690D01*
X152245910Y-79398841D01*
X152370000Y-79411063D01*
X152612750Y-79408000D01*
X152771000Y-79249750D01*
X152771000Y-78579000D01*
X152187250Y-78579000D01*
X152174750Y-78566500D01*
X151129000Y-78566500D01*
X150871000Y-78566500D01*
X149825250Y-78566500D01*
X149667000Y-78724750D01*
X149663937Y-78925000D01*
X149676159Y-79049090D01*
X149712354Y-79168411D01*
X149728269Y-79198186D01*
X149043750Y-79198186D01*
X148922684Y-79210110D01*
X148806270Y-79245424D01*
X148698983Y-79302770D01*
X148604945Y-79379945D01*
X148527770Y-79473983D01*
X148500000Y-79525937D01*
X148472230Y-79473983D01*
X148395055Y-79379945D01*
X148301017Y-79302770D01*
X148202291Y-79250000D01*
X148301017Y-79197230D01*
X148395055Y-79120055D01*
X148472230Y-79026017D01*
X148529576Y-78918730D01*
X148564890Y-78802316D01*
X148576814Y-78681250D01*
X148576814Y-78193750D01*
X148564890Y-78072684D01*
X148529576Y-77956270D01*
X148526225Y-77950000D01*
X149663937Y-77950000D01*
X149667000Y-78150250D01*
X149825250Y-78308500D01*
X150871000Y-78308500D01*
X150871000Y-78288500D01*
X151129000Y-78288500D01*
X151129000Y-78308500D01*
X151882750Y-78308500D01*
X151895250Y-78321000D01*
X152771000Y-78321000D01*
X152771000Y-77650250D01*
X152612750Y-77492000D01*
X152370000Y-77488937D01*
X152245910Y-77501159D01*
X152169535Y-77524327D01*
X152149764Y-77500236D01*
X152053378Y-77421133D01*
X151943411Y-77362354D01*
X151824090Y-77326159D01*
X151798400Y-77323629D01*
X151801017Y-77322230D01*
X151895055Y-77245055D01*
X151972230Y-77151017D01*
X152029576Y-77043730D01*
X152055424Y-76958521D01*
X152084077Y-77012127D01*
X152151147Y-77093853D01*
X152232873Y-77160923D01*
X152326113Y-77210761D01*
X152427285Y-77241451D01*
X152532500Y-77251814D01*
X153267500Y-77251814D01*
X153372715Y-77241451D01*
X153473887Y-77210761D01*
X153567127Y-77160923D01*
X153648853Y-77093853D01*
X153715923Y-77012127D01*
X153744991Y-76957745D01*
X153744990Y-77575614D01*
X153673411Y-77537354D01*
X153554090Y-77501159D01*
X153430000Y-77488937D01*
X153187250Y-77492000D01*
X153029000Y-77650250D01*
X153029000Y-78321000D01*
X153049000Y-78321000D01*
X153049000Y-78579000D01*
X153029000Y-78579000D01*
X153029000Y-79249750D01*
X153187250Y-79408000D01*
X153430000Y-79411063D01*
X153554090Y-79398841D01*
X153673411Y-79362646D01*
X153783378Y-79303867D01*
X153879764Y-79224764D01*
X153958867Y-79128378D01*
X154017646Y-79018411D01*
X154053841Y-78899090D01*
X154066063Y-78775000D01*
X154064135Y-78751240D01*
X154099071Y-78786176D01*
X154114736Y-78805264D01*
X154190871Y-78867746D01*
X154277733Y-78914175D01*
X154288418Y-78917416D01*
X154351147Y-78993853D01*
X154432873Y-79060923D01*
X154526113Y-79110761D01*
X154627285Y-79141451D01*
X154732500Y-79151814D01*
X155467500Y-79151814D01*
X155572715Y-79141451D01*
X155673887Y-79110761D01*
X155767127Y-79060923D01*
X155848853Y-78993853D01*
X155884842Y-78950000D01*
X155987138Y-78950000D01*
X156027770Y-79026017D01*
X156104945Y-79120055D01*
X156198983Y-79197230D01*
X156306270Y-79254576D01*
X156422684Y-79289890D01*
X156543750Y-79301814D01*
X157456250Y-79301814D01*
X157577316Y-79289890D01*
X157693730Y-79254576D01*
X157801017Y-79197230D01*
X157895055Y-79120055D01*
X157972230Y-79026017D01*
X158000000Y-78974063D01*
X158027770Y-79026017D01*
X158104945Y-79120055D01*
X158198983Y-79197230D01*
X158306270Y-79254576D01*
X158422684Y-79289890D01*
X158543750Y-79301814D01*
X159456250Y-79301814D01*
X159577316Y-79289890D01*
X159693730Y-79254576D01*
X159801017Y-79197230D01*
X159895055Y-79120055D01*
X159972230Y-79026017D01*
X160029576Y-78918730D01*
X160064890Y-78802316D01*
X160076814Y-78681250D01*
X160076814Y-78193750D01*
X160064890Y-78072684D01*
X160029576Y-77956270D01*
X159972230Y-77848983D01*
X159895055Y-77754945D01*
X159801017Y-77677770D01*
X159693730Y-77620424D01*
X159577316Y-77585110D01*
X159456250Y-77573186D01*
X158543750Y-77573186D01*
X158422684Y-77585110D01*
X158306270Y-77620424D01*
X158198983Y-77677770D01*
X158104945Y-77754945D01*
X158027770Y-77848983D01*
X158000000Y-77900937D01*
X157972230Y-77848983D01*
X157895055Y-77754945D01*
X157801017Y-77677770D01*
X157693730Y-77620424D01*
X157577316Y-77585110D01*
X157456250Y-77573186D01*
X156543750Y-77573186D01*
X156422684Y-77585110D01*
X156306270Y-77620424D01*
X156198983Y-77677770D01*
X156104945Y-77754945D01*
X156027770Y-77848983D01*
X155973775Y-77950000D01*
X155922405Y-77950000D01*
X155965761Y-77868887D01*
X155996451Y-77767715D01*
X156006814Y-77662500D01*
X156006814Y-77337500D01*
X155996451Y-77232285D01*
X155965761Y-77131113D01*
X155915923Y-77037873D01*
X155905359Y-77025000D01*
X155915923Y-77012127D01*
X155944576Y-76958521D01*
X155970424Y-77043730D01*
X156027770Y-77151017D01*
X156104945Y-77245055D01*
X156198983Y-77322230D01*
X156306270Y-77379576D01*
X156422684Y-77414890D01*
X156543750Y-77426814D01*
X157456250Y-77426814D01*
X157577316Y-77414890D01*
X157693730Y-77379576D01*
X157801017Y-77322230D01*
X157895055Y-77245055D01*
X157972230Y-77151017D01*
X158000000Y-77099063D01*
X158027770Y-77151017D01*
X158104945Y-77245055D01*
X158198983Y-77322230D01*
X158306270Y-77379576D01*
X158422684Y-77414890D01*
X158543750Y-77426814D01*
X159456250Y-77426814D01*
X159577316Y-77414890D01*
X159693730Y-77379576D01*
X159801017Y-77322230D01*
X159895055Y-77245055D01*
X159972230Y-77151017D01*
X160029576Y-77043730D01*
X160064890Y-76927316D01*
X160076814Y-76806250D01*
X160076814Y-76318750D01*
X160064890Y-76197684D01*
X160029576Y-76081270D01*
X159972230Y-75973983D01*
X159895055Y-75879945D01*
X159801017Y-75802770D01*
X159693730Y-75745424D01*
X159577316Y-75710110D01*
X159456250Y-75698186D01*
X158543750Y-75698186D01*
X158422684Y-75710110D01*
X158306270Y-75745424D01*
X158198983Y-75802770D01*
X158104945Y-75879945D01*
X158027770Y-75973983D01*
X158000000Y-76025937D01*
X157972230Y-75973983D01*
X157895055Y-75879945D01*
X157801017Y-75802770D01*
X157693730Y-75745424D01*
X157577316Y-75710110D01*
X157456250Y-75698186D01*
X156543750Y-75698186D01*
X156422684Y-75710110D01*
X156306270Y-75745424D01*
X156198983Y-75802770D01*
X156104945Y-75879945D01*
X156027770Y-75973983D01*
X155970424Y-76081270D01*
X155949414Y-76150530D01*
X155915923Y-76087873D01*
X155848853Y-76006147D01*
X155767127Y-75939077D01*
X155673887Y-75889239D01*
X155572715Y-75858549D01*
X155467500Y-75848186D01*
X154732500Y-75848186D01*
X154627285Y-75858549D01*
X154526113Y-75889239D01*
X154432873Y-75939077D01*
X154351147Y-76006147D01*
X154288418Y-76082584D01*
X154277733Y-76085825D01*
X154190871Y-76132254D01*
X154114736Y-76194736D01*
X154099071Y-76213824D01*
X153908810Y-76404085D01*
X153889727Y-76419746D01*
X153827245Y-76495881D01*
X153806814Y-76534104D01*
X153806814Y-76387500D01*
X153796451Y-76282285D01*
X153765761Y-76181113D01*
X153715923Y-76087873D01*
X153648853Y-76006147D01*
X153567127Y-75939077D01*
X153473887Y-75889239D01*
X153372715Y-75858549D01*
X153267500Y-75848186D01*
X152532500Y-75848186D01*
X152427285Y-75858549D01*
X152326113Y-75889239D01*
X152232873Y-75939077D01*
X152151147Y-76006147D01*
X152084077Y-76087873D01*
X152050586Y-76150530D01*
X152029576Y-76081270D01*
X151972230Y-75973983D01*
X151895055Y-75879945D01*
X151801017Y-75802770D01*
X151693730Y-75745424D01*
X151577316Y-75710110D01*
X151456250Y-75698186D01*
X150543750Y-75698186D01*
X150422684Y-75710110D01*
X150306270Y-75745424D01*
X150198983Y-75802770D01*
X150104945Y-75879945D01*
X150027770Y-75973983D01*
X149970424Y-76081270D01*
X149935110Y-76197684D01*
X149923186Y-76318750D01*
X149923186Y-76806250D01*
X149935110Y-76927316D01*
X149970424Y-77043730D01*
X150027770Y-77151017D01*
X150104945Y-77245055D01*
X150198983Y-77322230D01*
X150201600Y-77323629D01*
X150175910Y-77326159D01*
X150056589Y-77362354D01*
X149946622Y-77421133D01*
X149850236Y-77500236D01*
X149771133Y-77596622D01*
X149712354Y-77706589D01*
X149676159Y-77825910D01*
X149663937Y-77950000D01*
X148526225Y-77950000D01*
X148472230Y-77848983D01*
X148395055Y-77754945D01*
X148301017Y-77677770D01*
X148193730Y-77620424D01*
X148077316Y-77585110D01*
X147956250Y-77573186D01*
X147651477Y-77573186D01*
X147542979Y-77562500D01*
X144645478Y-77562500D01*
X144602499Y-77558267D01*
X144430969Y-77575161D01*
X144361835Y-77596133D01*
X144266032Y-77625195D01*
X144114024Y-77706444D01*
X143980788Y-77815788D01*
X143953388Y-77849175D01*
X143439377Y-78363186D01*
X142350000Y-78363186D01*
X142149679Y-78382916D01*
X141957055Y-78441348D01*
X141779533Y-78536235D01*
X141623933Y-78663933D01*
X141496235Y-78819533D01*
X141401348Y-78997055D01*
X141342916Y-79189679D01*
X141323186Y-79390000D01*
X141323186Y-80690000D01*
X141342916Y-80890321D01*
X141401348Y-81082945D01*
X141496235Y-81260467D01*
X141623933Y-81416067D01*
X141779533Y-81543765D01*
X141957055Y-81638652D01*
X142087802Y-81678314D01*
X140891116Y-82875000D01*
X127755581Y-82875000D01*
X127787956Y-82868118D01*
X127823526Y-82861075D01*
X127828861Y-82859424D01*
X128014892Y-82800411D01*
X128048219Y-82786127D01*
X128081731Y-82772314D01*
X128086640Y-82769659D01*
X128086645Y-82769657D01*
X128086649Y-82769654D01*
X128257669Y-82675635D01*
X128287566Y-82655164D01*
X128317778Y-82635091D01*
X128322082Y-82631531D01*
X128471588Y-82506081D01*
X128496968Y-82480164D01*
X128522679Y-82454632D01*
X128526209Y-82450304D01*
X128648500Y-82298204D01*
X128668361Y-82267853D01*
X128688623Y-82237814D01*
X128691245Y-82232883D01*
X128781665Y-82059927D01*
X128795244Y-82026318D01*
X128809296Y-81992889D01*
X128810910Y-81987542D01*
X128866013Y-81800317D01*
X128872804Y-81764715D01*
X128880096Y-81729194D01*
X128880641Y-81723635D01*
X128898330Y-81529274D01*
X128898077Y-81493019D01*
X128898330Y-81456765D01*
X128897785Y-81451206D01*
X128877384Y-81257109D01*
X128870092Y-81221588D01*
X128863301Y-81185986D01*
X128861687Y-81180643D01*
X128861686Y-81180637D01*
X128861684Y-81180631D01*
X128803974Y-80994201D01*
X128789942Y-80960821D01*
X128776345Y-80927166D01*
X128773723Y-80922235D01*
X128680898Y-80750558D01*
X128660620Y-80720494D01*
X128640773Y-80690165D01*
X128637243Y-80685837D01*
X128512839Y-80535459D01*
X128487113Y-80509912D01*
X128461749Y-80484011D01*
X128457446Y-80480451D01*
X128306204Y-80357101D01*
X128276030Y-80337054D01*
X128246094Y-80316556D01*
X128241181Y-80313900D01*
X128068858Y-80222275D01*
X128035360Y-80208468D01*
X128002018Y-80194178D01*
X127996683Y-80192526D01*
X127809847Y-80136117D01*
X127774262Y-80129071D01*
X127738822Y-80121538D01*
X127733267Y-80120954D01*
X127539034Y-80101909D01*
X127539030Y-80101909D01*
X127519647Y-80100000D01*
X122480353Y-80100000D01*
X122459986Y-80102006D01*
X122447005Y-80102006D01*
X122441450Y-80102590D01*
X122247500Y-80124345D01*
X122212036Y-80131883D01*
X122176474Y-80138925D01*
X122171139Y-80140576D01*
X121985109Y-80199589D01*
X121951795Y-80213867D01*
X121918269Y-80227686D01*
X121913356Y-80230342D01*
X121742331Y-80324365D01*
X121712434Y-80344836D01*
X121682222Y-80364909D01*
X121677922Y-80368467D01*
X121677917Y-80368470D01*
X121677913Y-80368474D01*
X121528412Y-80493919D01*
X121503032Y-80519836D01*
X121477321Y-80545368D01*
X121473791Y-80549696D01*
X121351500Y-80701796D01*
X121331649Y-80732132D01*
X121311377Y-80762186D01*
X121308755Y-80767118D01*
X121218335Y-80940073D01*
X121204756Y-80973682D01*
X121190704Y-81007111D01*
X121189090Y-81012458D01*
X121133987Y-81199684D01*
X121127197Y-81235278D01*
X121119904Y-81270806D01*
X121119359Y-81276365D01*
X121101670Y-81470727D01*
X121101923Y-81506981D01*
X121101670Y-81543235D01*
X121102215Y-81548794D01*
X121122616Y-81742890D01*
X121129905Y-81778398D01*
X121136699Y-81814014D01*
X121138314Y-81819361D01*
X121196026Y-82005799D01*
X121210064Y-82039196D01*
X121223655Y-82072834D01*
X121226277Y-82077765D01*
X121319102Y-82249442D01*
X121339380Y-82279506D01*
X121359227Y-82309835D01*
X121362757Y-82314163D01*
X121487161Y-82464541D01*
X121512887Y-82490088D01*
X121538251Y-82515989D01*
X121542554Y-82519549D01*
X121693796Y-82642899D01*
X121723988Y-82662958D01*
X121753907Y-82683444D01*
X121758820Y-82686100D01*
X121931142Y-82777725D01*
X121964640Y-82791532D01*
X121997982Y-82805822D01*
X122003317Y-82807474D01*
X122190154Y-82863883D01*
X122225717Y-82870925D01*
X122244891Y-82875000D01*
X107995548Y-82875000D01*
X107912682Y-82750981D01*
X107749019Y-82587318D01*
X107556571Y-82458729D01*
X107342735Y-82370155D01*
X107115727Y-82325000D01*
X106884273Y-82325000D01*
X106737982Y-82354099D01*
X106663657Y-82279775D01*
X106663653Y-82279770D01*
X105963658Y-81579776D01*
X105944080Y-81555920D01*
X105848911Y-81477817D01*
X105740334Y-81419781D01*
X105622521Y-81384043D01*
X105530704Y-81375000D01*
X105530694Y-81375000D01*
X105500000Y-81371977D01*
X105469306Y-81375000D01*
X94530693Y-81375000D01*
X94499999Y-81371977D01*
X94469305Y-81375000D01*
X94469296Y-81375000D01*
X94377479Y-81384043D01*
X94259666Y-81419781D01*
X94259664Y-81419782D01*
X94151087Y-81477818D01*
X94118468Y-81504588D01*
X94055920Y-81555920D01*
X94036346Y-81579771D01*
X93262018Y-82354099D01*
X93115727Y-82325000D01*
X92884273Y-82325000D01*
X92657265Y-82370155D01*
X92443429Y-82458729D01*
X92250981Y-82587318D01*
X92087318Y-82750981D01*
X91958729Y-82943429D01*
X91870155Y-83157265D01*
X91825000Y-83384273D01*
X91825000Y-83615727D01*
X91870155Y-83842735D01*
X91958729Y-84056571D01*
X92087318Y-84249019D01*
X92250981Y-84412682D01*
X92443429Y-84541271D01*
X92657265Y-84629845D01*
X92884273Y-84675000D01*
X93115727Y-84675000D01*
X93342735Y-84629845D01*
X93556571Y-84541271D01*
X93749019Y-84412682D01*
X93912682Y-84249019D01*
X94041271Y-84056571D01*
X94129845Y-83842735D01*
X94175000Y-83615727D01*
X94175000Y-83384273D01*
X94145901Y-83237982D01*
X94758883Y-82625000D01*
X105241118Y-82625000D01*
X105779770Y-83163653D01*
X105779775Y-83163657D01*
X105854099Y-83237982D01*
X105825000Y-83384273D01*
X105825000Y-83615727D01*
X105870155Y-83842735D01*
X105958729Y-84056571D01*
X106087318Y-84249019D01*
X106250981Y-84412682D01*
X106443429Y-84541271D01*
X106657265Y-84629845D01*
X106884273Y-84675000D01*
X107115727Y-84675000D01*
X107342735Y-84629845D01*
X107556571Y-84541271D01*
X107749019Y-84412682D01*
X107912682Y-84249019D01*
X107995548Y-84125000D01*
X141119304Y-84125000D01*
X141149998Y-84128023D01*
X141180692Y-84125000D01*
X141180702Y-84125000D01*
X141272519Y-84115957D01*
X141390332Y-84080219D01*
X141498909Y-84022183D01*
X141594078Y-83944080D01*
X141613656Y-83920224D01*
X141840455Y-83693425D01*
X141870155Y-83842735D01*
X141958729Y-84056571D01*
X142087318Y-84249019D01*
X142250981Y-84412682D01*
X142443429Y-84541271D01*
X142657265Y-84629845D01*
X142884273Y-84675000D01*
X143115727Y-84675000D01*
X143342735Y-84629845D01*
X143556571Y-84541271D01*
X143749019Y-84412682D01*
X143912682Y-84249019D01*
X143995548Y-84125000D01*
X144100676Y-84125000D01*
X144131370Y-84128023D01*
X144162064Y-84125000D01*
X144162074Y-84125000D01*
X144253891Y-84115957D01*
X144371704Y-84080219D01*
X144480281Y-84022183D01*
X144575450Y-83944080D01*
X144595028Y-83920225D01*
X144600000Y-83915252D01*
X144600001Y-88480343D01*
X144598065Y-88500000D01*
X144605788Y-88578414D01*
X144628660Y-88653814D01*
X144665803Y-88723303D01*
X144715789Y-88784211D01*
X144776697Y-88834197D01*
X144846186Y-88871340D01*
X144921586Y-88894212D01*
X144980251Y-88899990D01*
X142633892Y-88899990D01*
X143116966Y-88416917D01*
X143226059Y-88395217D01*
X143367100Y-88336796D01*
X143494034Y-88251982D01*
X143601982Y-88144034D01*
X143686796Y-88017100D01*
X143745217Y-87876059D01*
X143775000Y-87726331D01*
X143775000Y-87573669D01*
X143745217Y-87423941D01*
X143686796Y-87282900D01*
X143601982Y-87155966D01*
X143494034Y-87048018D01*
X143367100Y-86963204D01*
X143226059Y-86904783D01*
X143076331Y-86875000D01*
X142923669Y-86875000D01*
X142773941Y-86904783D01*
X142632900Y-86963204D01*
X142505966Y-87048018D01*
X142398018Y-87155966D01*
X142313204Y-87282900D01*
X142254783Y-87423941D01*
X142233083Y-87533034D01*
X141891118Y-87875000D01*
X108108884Y-87875000D01*
X107766917Y-87533034D01*
X107745217Y-87423941D01*
X107686796Y-87282900D01*
X107601982Y-87155966D01*
X107494034Y-87048018D01*
X107367100Y-86963204D01*
X107226059Y-86904783D01*
X107076331Y-86875000D01*
X106923669Y-86875000D01*
X106773941Y-86904783D01*
X106632900Y-86963204D01*
X106505966Y-87048018D01*
X106398018Y-87155966D01*
X106313204Y-87282900D01*
X106254783Y-87423941D01*
X106225000Y-87573669D01*
X106225000Y-87726331D01*
X106254783Y-87876059D01*
X106313204Y-88017100D01*
X106398018Y-88144034D01*
X106505966Y-88251982D01*
X106632900Y-88336796D01*
X106773941Y-88395217D01*
X106883034Y-88416917D01*
X107366106Y-88899990D01*
X105019749Y-88899990D01*
X105078414Y-88894212D01*
X105153814Y-88871340D01*
X105223303Y-88834197D01*
X105284211Y-88784211D01*
X105334197Y-88723303D01*
X105371340Y-88653814D01*
X105394212Y-88578414D01*
X105401935Y-88500000D01*
X105400000Y-88480353D01*
X105400000Y-83519647D01*
X105401935Y-83500000D01*
X105394212Y-83421586D01*
X105371340Y-83346186D01*
X105334197Y-83276697D01*
X105284211Y-83215789D01*
X105223303Y-83165803D01*
X105153814Y-83128660D01*
X105078414Y-83105788D01*
X105019647Y-83100000D01*
X105000000Y-83098065D01*
X104980354Y-83100000D01*
X95019646Y-83100000D01*
X95000000Y-83098065D01*
X94980353Y-83100000D01*
X94921586Y-83105788D01*
X94846186Y-83128660D01*
X94776697Y-83165803D01*
X94715789Y-83215789D01*
X94665803Y-83276697D01*
X94628660Y-83346186D01*
X94605788Y-83421586D01*
X94598065Y-83500000D01*
X94600000Y-83519647D01*
X94600001Y-88480343D01*
X94598065Y-88500000D01*
X94605788Y-88578414D01*
X94628660Y-88653814D01*
X94665803Y-88723303D01*
X94715789Y-88784211D01*
X94776697Y-88834197D01*
X94846186Y-88871340D01*
X94921586Y-88894212D01*
X94980251Y-88899990D01*
X94183874Y-88899990D01*
X93625000Y-88341118D01*
X93625000Y-88109585D01*
X93686796Y-88017100D01*
X93745217Y-87876059D01*
X93775000Y-87726331D01*
X93775000Y-87573669D01*
X93745217Y-87423941D01*
X93686796Y-87282900D01*
X93601982Y-87155966D01*
X93494034Y-87048018D01*
X93367100Y-86963204D01*
X93226059Y-86904783D01*
X93076331Y-86875000D01*
X92923669Y-86875000D01*
X92773941Y-86904783D01*
X92632900Y-86963204D01*
X92505966Y-87048018D01*
X92398018Y-87155966D01*
X92313204Y-87282900D01*
X92254783Y-87423941D01*
X92225000Y-87573669D01*
X92225000Y-87726331D01*
X92254783Y-87876059D01*
X92313204Y-88017100D01*
X92375000Y-88109586D01*
X92375001Y-88569297D01*
X92371977Y-88600000D01*
X92375001Y-88630704D01*
X92384044Y-88722521D01*
X92419782Y-88840334D01*
X92477818Y-88948911D01*
X92555921Y-89044080D01*
X92579771Y-89063653D01*
X93116117Y-89600000D01*
X84980353Y-89600000D01*
X84962604Y-89601748D01*
X84953276Y-89601683D01*
X84947718Y-89602228D01*
X84656572Y-89632828D01*
X84621090Y-89640112D01*
X84585446Y-89646911D01*
X84580100Y-89648526D01*
X84300444Y-89735094D01*
X84267027Y-89749141D01*
X84233408Y-89762724D01*
X84228477Y-89765346D01*
X84095983Y-89836986D01*
X84063144Y-89787839D01*
X83962161Y-89686856D01*
X83843416Y-89607513D01*
X83711475Y-89552861D01*
X83571406Y-89525000D01*
X83428594Y-89525000D01*
X83288525Y-89552861D01*
X83156584Y-89607513D01*
X83037839Y-89686856D01*
X83000000Y-89724695D01*
X82962161Y-89686856D01*
X82843416Y-89607513D01*
X82711475Y-89552861D01*
X82571406Y-89525000D01*
X82428594Y-89525000D01*
X82288525Y-89552861D01*
X82156584Y-89607513D01*
X82037839Y-89686856D01*
X82000000Y-89724695D01*
X81962161Y-89686856D01*
X81843416Y-89607513D01*
X81711475Y-89552861D01*
X81571406Y-89525000D01*
X81428594Y-89525000D01*
X81288525Y-89552861D01*
X81156584Y-89607513D01*
X81037839Y-89686856D01*
X80936856Y-89787839D01*
X80904060Y-89836922D01*
X80759395Y-89760002D01*
X80725857Y-89746178D01*
X80692555Y-89731905D01*
X80687219Y-89730253D01*
X80406965Y-89645639D01*
X80400000Y-89644260D01*
X80400000Y-82900000D01*
X85019647Y-82900000D01*
X85040014Y-82897994D01*
X85052995Y-82897994D01*
X85058550Y-82897410D01*
X85252499Y-82875655D01*
X85287956Y-82868118D01*
X85323526Y-82861075D01*
X85328861Y-82859424D01*
X85514892Y-82800411D01*
X85548219Y-82786127D01*
X85581731Y-82772314D01*
X85586640Y-82769659D01*
X85586645Y-82769657D01*
X85586649Y-82769654D01*
X85757669Y-82675635D01*
X85787566Y-82655164D01*
X85817778Y-82635091D01*
X85822082Y-82631531D01*
X85971588Y-82506081D01*
X85996968Y-82480164D01*
X86022679Y-82454632D01*
X86026209Y-82450304D01*
X86148500Y-82298204D01*
X86168361Y-82267853D01*
X86188623Y-82237814D01*
X86191245Y-82232883D01*
X86281665Y-82059927D01*
X86295244Y-82026318D01*
X86309296Y-81992889D01*
X86310910Y-81987542D01*
X86366013Y-81800317D01*
X86372804Y-81764715D01*
X86380096Y-81729194D01*
X86380641Y-81723635D01*
X86398330Y-81529274D01*
X86398077Y-81493019D01*
X86398330Y-81456765D01*
X86397785Y-81451206D01*
X86377384Y-81257109D01*
X86370092Y-81221588D01*
X86363301Y-81185986D01*
X86361687Y-81180643D01*
X86361686Y-81180637D01*
X86361684Y-81180631D01*
X86303974Y-80994201D01*
X86289942Y-80960821D01*
X86276345Y-80927166D01*
X86273723Y-80922235D01*
X86180898Y-80750558D01*
X86160620Y-80720494D01*
X86140773Y-80690165D01*
X86137243Y-80685837D01*
X86012839Y-80535459D01*
X85987113Y-80509912D01*
X85961749Y-80484011D01*
X85957446Y-80480451D01*
X85806204Y-80357101D01*
X85776030Y-80337054D01*
X85746094Y-80316556D01*
X85741181Y-80313900D01*
X85568858Y-80222275D01*
X85535360Y-80208468D01*
X85502018Y-80194178D01*
X85496683Y-80192526D01*
X85309847Y-80136117D01*
X85274262Y-80129071D01*
X85238822Y-80121538D01*
X85233267Y-80120954D01*
X85039034Y-80101909D01*
X85039030Y-80101909D01*
X85019647Y-80100000D01*
X80400000Y-80100000D01*
X80400000Y-79512845D01*
X88580090Y-79512845D01*
X88600104Y-79691279D01*
X88654395Y-79862427D01*
X88740896Y-80019770D01*
X88856310Y-80157315D01*
X88996242Y-80269823D01*
X89155362Y-80353009D01*
X89327609Y-80403704D01*
X89506423Y-80419978D01*
X89684992Y-80401209D01*
X89856514Y-80348114D01*
X90014457Y-80262715D01*
X90152805Y-80148263D01*
X90266288Y-80009120D01*
X90350582Y-79850585D01*
X90402479Y-79678696D01*
X90420000Y-79500000D01*
X90419641Y-79474312D01*
X90397137Y-79296175D01*
X90340462Y-79125802D01*
X90251773Y-78969682D01*
X90134450Y-78833762D01*
X89992961Y-78723218D01*
X89832695Y-78642262D01*
X89659756Y-78593977D01*
X89480733Y-78580202D01*
X89302443Y-78601462D01*
X89131679Y-78656946D01*
X88974944Y-78744543D01*
X88838207Y-78860914D01*
X88726679Y-79001628D01*
X88644606Y-79161325D01*
X88595114Y-79333922D01*
X88580090Y-79512845D01*
X80400000Y-79512845D01*
X80400000Y-75512845D01*
X88580090Y-75512845D01*
X88600104Y-75691279D01*
X88654395Y-75862427D01*
X88740896Y-76019770D01*
X88856310Y-76157315D01*
X88996242Y-76269823D01*
X89155362Y-76353009D01*
X89327609Y-76403704D01*
X89506423Y-76419978D01*
X89684992Y-76401209D01*
X89856514Y-76348114D01*
X90014457Y-76262715D01*
X90152805Y-76148263D01*
X90266288Y-76009120D01*
X90350582Y-75850585D01*
X90402479Y-75678696D01*
X90420000Y-75500000D01*
X90419641Y-75474312D01*
X90397137Y-75296175D01*
X90340462Y-75125802D01*
X90251773Y-74969682D01*
X90134450Y-74833762D01*
X89992961Y-74723218D01*
X89832695Y-74642262D01*
X89659756Y-74593977D01*
X89480733Y-74580202D01*
X89302443Y-74601462D01*
X89131679Y-74656946D01*
X88974944Y-74744543D01*
X88838207Y-74860914D01*
X88726679Y-75001628D01*
X88644606Y-75161325D01*
X88595114Y-75333922D01*
X88580090Y-75512845D01*
X80400000Y-75512845D01*
X80400000Y-74900000D01*
X85019647Y-74900000D01*
X85040014Y-74897994D01*
X85052995Y-74897994D01*
X85058550Y-74897410D01*
X85252499Y-74875655D01*
X85287956Y-74868118D01*
X85323526Y-74861075D01*
X85328861Y-74859424D01*
X85514892Y-74800411D01*
X85548219Y-74786127D01*
X85581731Y-74772314D01*
X85586640Y-74769659D01*
X85586645Y-74769657D01*
X85586649Y-74769654D01*
X85757669Y-74675635D01*
X85787566Y-74655164D01*
X85817778Y-74635091D01*
X85822082Y-74631531D01*
X85971588Y-74506081D01*
X85977543Y-74500000D01*
X94598065Y-74500000D01*
X94600001Y-74519657D01*
X94600000Y-80480353D01*
X94598065Y-80500000D01*
X94605788Y-80578414D01*
X94628660Y-80653814D01*
X94665803Y-80723303D01*
X94715789Y-80784211D01*
X94776697Y-80834197D01*
X94846186Y-80871340D01*
X94921586Y-80894212D01*
X94980252Y-80899990D01*
X95000000Y-80901935D01*
X95019646Y-80900000D01*
X104980354Y-80900000D01*
X105000000Y-80901935D01*
X105019749Y-80899990D01*
X105078414Y-80894212D01*
X105153814Y-80871340D01*
X105223303Y-80834197D01*
X105284211Y-80784211D01*
X105334197Y-80723303D01*
X105371340Y-80653814D01*
X105394212Y-80578414D01*
X105396212Y-80558103D01*
X105400000Y-80519647D01*
X105400000Y-80519646D01*
X105401935Y-80500000D01*
X105400000Y-80480353D01*
X105400000Y-74519647D01*
X105401935Y-74500000D01*
X105399131Y-74471525D01*
X105394212Y-74421586D01*
X105371340Y-74346186D01*
X105334197Y-74276697D01*
X105284211Y-74215789D01*
X105282810Y-74214639D01*
X105223303Y-74165803D01*
X105153814Y-74128660D01*
X105078414Y-74105788D01*
X105019647Y-74100000D01*
X105019646Y-74100000D01*
X105000000Y-74098065D01*
X104980353Y-74100000D01*
X95019647Y-74100000D01*
X95000000Y-74098065D01*
X94980354Y-74100000D01*
X94980353Y-74100000D01*
X94921586Y-74105788D01*
X94846186Y-74128660D01*
X94776697Y-74165803D01*
X94715789Y-74215789D01*
X94665803Y-74276697D01*
X94628660Y-74346186D01*
X94605788Y-74421586D01*
X94598065Y-74500000D01*
X85977543Y-74500000D01*
X85996968Y-74480164D01*
X86022679Y-74454632D01*
X86026209Y-74450304D01*
X86148500Y-74298204D01*
X86168361Y-74267853D01*
X86188623Y-74237814D01*
X86191245Y-74232883D01*
X86281665Y-74059927D01*
X86295244Y-74026318D01*
X86309296Y-73992889D01*
X86310910Y-73987542D01*
X86366013Y-73800317D01*
X86372804Y-73764715D01*
X86380096Y-73729194D01*
X86380641Y-73723635D01*
X86398330Y-73529274D01*
X86398077Y-73493019D01*
X86398330Y-73456765D01*
X86397785Y-73451206D01*
X86377384Y-73257109D01*
X86370092Y-73221588D01*
X86363301Y-73185986D01*
X86361687Y-73180643D01*
X86361686Y-73180637D01*
X86361684Y-73180631D01*
X86303974Y-72994201D01*
X86289942Y-72960821D01*
X86276345Y-72927166D01*
X86273723Y-72922235D01*
X86180898Y-72750558D01*
X86160620Y-72720494D01*
X86140773Y-72690165D01*
X86137243Y-72685837D01*
X86012839Y-72535459D01*
X85987113Y-72509912D01*
X85961749Y-72484011D01*
X85957446Y-72480451D01*
X85806204Y-72357101D01*
X85776030Y-72337054D01*
X85746094Y-72316556D01*
X85741181Y-72313900D01*
X85568858Y-72222275D01*
X85535360Y-72208468D01*
X85502018Y-72194178D01*
X85496683Y-72192526D01*
X85309847Y-72136117D01*
X85274262Y-72129071D01*
X85238822Y-72121538D01*
X85233267Y-72120954D01*
X85039034Y-72101909D01*
X85039030Y-72101909D01*
X85019647Y-72100000D01*
X80400000Y-72100000D01*
X80400000Y-65355865D01*
X80414553Y-65353089D01*
X80419900Y-65351474D01*
X80699556Y-65264906D01*
X80732973Y-65250859D01*
X80766592Y-65237276D01*
X80771523Y-65234654D01*
X80904017Y-65163014D01*
X80936856Y-65212161D01*
X81037839Y-65313144D01*
X81156584Y-65392487D01*
X81288525Y-65447139D01*
X81428594Y-65475000D01*
X81571406Y-65475000D01*
X81711475Y-65447139D01*
X81843416Y-65392487D01*
X81962161Y-65313144D01*
X82000000Y-65275305D01*
X82037839Y-65313144D01*
X82156584Y-65392487D01*
X82288525Y-65447139D01*
X82428594Y-65475000D01*
X82571406Y-65475000D01*
X82711475Y-65447139D01*
X82843416Y-65392487D01*
X82962161Y-65313144D01*
X83000000Y-65275305D01*
X83037839Y-65313144D01*
X83156584Y-65392487D01*
X83288525Y-65447139D01*
X83428594Y-65475000D01*
X83571406Y-65475000D01*
X83711475Y-65447139D01*
X83843416Y-65392487D01*
X83962161Y-65313144D01*
X84063144Y-65212161D01*
X84095940Y-65163078D01*
X84240605Y-65239998D01*
X84274157Y-65253827D01*
X84307446Y-65268095D01*
X84312781Y-65269747D01*
X84593035Y-65354361D01*
X84628627Y-65361408D01*
X84664061Y-65368940D01*
X84669615Y-65369524D01*
X84960967Y-65398091D01*
X84960970Y-65398091D01*
X84980353Y-65400000D01*
X93116117Y-65400000D01*
X92579772Y-65936346D01*
X92555921Y-65955920D01*
X92489916Y-66036347D01*
X92477818Y-66051089D01*
X92419782Y-66159666D01*
X92384044Y-66277479D01*
X92371977Y-66400000D01*
X92375001Y-66430703D01*
X92375000Y-66890414D01*
X92313204Y-66982900D01*
X92254783Y-67123941D01*
X92225000Y-67273669D01*
X92225000Y-67426331D01*
X92254783Y-67576059D01*
X92313204Y-67717100D01*
X92398018Y-67844034D01*
X92505966Y-67951982D01*
X92632900Y-68036796D01*
X92773941Y-68095217D01*
X92923669Y-68125000D01*
X93076331Y-68125000D01*
X93226059Y-68095217D01*
X93367100Y-68036796D01*
X93494034Y-67951982D01*
X93601982Y-67844034D01*
X93686796Y-67717100D01*
X93745217Y-67576059D01*
X93775000Y-67426331D01*
X93775000Y-67273669D01*
X93745217Y-67123941D01*
X93686796Y-66982900D01*
X93625000Y-66890415D01*
X93625000Y-66658882D01*
X94158883Y-66125000D01*
X94858252Y-66125000D01*
X94846186Y-66128660D01*
X94776697Y-66165803D01*
X94715789Y-66215789D01*
X94665803Y-66276697D01*
X94628660Y-66346186D01*
X94605788Y-66421586D01*
X94598065Y-66500000D01*
X94600000Y-66519647D01*
X94600001Y-71480343D01*
X94598065Y-71500000D01*
X94605788Y-71578414D01*
X94628660Y-71653814D01*
X94665803Y-71723303D01*
X94715789Y-71784211D01*
X94776697Y-71834197D01*
X94846186Y-71871340D01*
X94921586Y-71894212D01*
X94980353Y-71900000D01*
X94980354Y-71900000D01*
X95000000Y-71901935D01*
X95019647Y-71900000D01*
X104980353Y-71900000D01*
X105000000Y-71901935D01*
X105019646Y-71900000D01*
X105019647Y-71900000D01*
X105078414Y-71894212D01*
X105153814Y-71871340D01*
X105223303Y-71834197D01*
X105284211Y-71784211D01*
X105334197Y-71723303D01*
X105371340Y-71653814D01*
X105394212Y-71578414D01*
X105401935Y-71500000D01*
X105400000Y-71480353D01*
X105400000Y-66519647D01*
X105401935Y-66500000D01*
X105394212Y-66421586D01*
X105371340Y-66346186D01*
X105334197Y-66276697D01*
X105284211Y-66215789D01*
X105223303Y-66165803D01*
X105153814Y-66128660D01*
X105141748Y-66125000D01*
X107341116Y-66125000D01*
X106883034Y-66583083D01*
X106773941Y-66604783D01*
X106632900Y-66663204D01*
X106505966Y-66748018D01*
X106398018Y-66855966D01*
X106313204Y-66982900D01*
X106254783Y-67123941D01*
X106225000Y-67273669D01*
X106225000Y-67426331D01*
X106254783Y-67576059D01*
X106313204Y-67717100D01*
X106398018Y-67844034D01*
X106505966Y-67951982D01*
X106632900Y-68036796D01*
X106773941Y-68095217D01*
X106923669Y-68125000D01*
X107076331Y-68125000D01*
X107226059Y-68095217D01*
X107367100Y-68036796D01*
X107494034Y-67951982D01*
X107601982Y-67844034D01*
X107686796Y-67717100D01*
X107745217Y-67576059D01*
X107766917Y-67466966D01*
X108108884Y-67125000D01*
X141891118Y-67125000D01*
X142233083Y-67466966D01*
X142254783Y-67576059D01*
X142313204Y-67717100D01*
X142398018Y-67844034D01*
X142505966Y-67951982D01*
X142632900Y-68036796D01*
X142773941Y-68095217D01*
X142923669Y-68125000D01*
X143076331Y-68125000D01*
X143226059Y-68095217D01*
X143367100Y-68036796D01*
X143494034Y-67951982D01*
X143601982Y-67844034D01*
X143686796Y-67717100D01*
X143745217Y-67576059D01*
X143775000Y-67426331D01*
X143775000Y-67273669D01*
X143745217Y-67123941D01*
X143686796Y-66982900D01*
X143601982Y-66855966D01*
X143494034Y-66748018D01*
X143367100Y-66663204D01*
X143226059Y-66604783D01*
X143116966Y-66583083D01*
X142658882Y-66125000D01*
X144858252Y-66125000D01*
X144846186Y-66128660D01*
X144776697Y-66165803D01*
X144715789Y-66215789D01*
X144665803Y-66276697D01*
X144628660Y-66346186D01*
X144605788Y-66421586D01*
X144598065Y-66500000D01*
X144600000Y-66519647D01*
X144600001Y-71375000D01*
X144173155Y-71375000D01*
X144129845Y-71157265D01*
X144041271Y-70943429D01*
X143912682Y-70750981D01*
X143749019Y-70587318D01*
X143556571Y-70458729D01*
X143342735Y-70370155D01*
X143115727Y-70325000D01*
X142884273Y-70325000D01*
X142657265Y-70370155D01*
X142443429Y-70458729D01*
X142250981Y-70587318D01*
X142087318Y-70750981D01*
X141958729Y-70943429D01*
X141870155Y-71157265D01*
X141825000Y-71384273D01*
X141825000Y-71441118D01*
X141463658Y-71079776D01*
X141444080Y-71055920D01*
X141348911Y-70977817D01*
X141240334Y-70919781D01*
X141122521Y-70884043D01*
X141030704Y-70875000D01*
X141030694Y-70875000D01*
X141000000Y-70871977D01*
X140969306Y-70875000D01*
X107995548Y-70875000D01*
X107912682Y-70750981D01*
X107749019Y-70587318D01*
X107556571Y-70458729D01*
X107342735Y-70370155D01*
X107115727Y-70325000D01*
X106884273Y-70325000D01*
X106657265Y-70370155D01*
X106443429Y-70458729D01*
X106250981Y-70587318D01*
X106087318Y-70750981D01*
X105958729Y-70943429D01*
X105870155Y-71157265D01*
X105825000Y-71384273D01*
X105825000Y-71615727D01*
X105854099Y-71762018D01*
X105241118Y-72375000D01*
X94758883Y-72375000D01*
X94145901Y-71762018D01*
X94175000Y-71615727D01*
X94175000Y-71384273D01*
X94129845Y-71157265D01*
X94041271Y-70943429D01*
X93912682Y-70750981D01*
X93749019Y-70587318D01*
X93556571Y-70458729D01*
X93342735Y-70370155D01*
X93115727Y-70325000D01*
X92884273Y-70325000D01*
X92657265Y-70370155D01*
X92443429Y-70458729D01*
X92250981Y-70587318D01*
X92087318Y-70750981D01*
X91958729Y-70943429D01*
X91870155Y-71157265D01*
X91825000Y-71384273D01*
X91825000Y-71615727D01*
X91870155Y-71842735D01*
X91958729Y-72056571D01*
X92087318Y-72249019D01*
X92250981Y-72412682D01*
X92443429Y-72541271D01*
X92657265Y-72629845D01*
X92884273Y-72675000D01*
X93115727Y-72675000D01*
X93262018Y-72645901D01*
X94036346Y-73420229D01*
X94055920Y-73444080D01*
X94097948Y-73478571D01*
X94151087Y-73522182D01*
X94252392Y-73576331D01*
X94259666Y-73580219D01*
X94377479Y-73615957D01*
X94469296Y-73625000D01*
X94469305Y-73625000D01*
X94499999Y-73628023D01*
X94530693Y-73625000D01*
X105469306Y-73625000D01*
X105500000Y-73628023D01*
X105530694Y-73625000D01*
X105530704Y-73625000D01*
X105622521Y-73615957D01*
X105740334Y-73580219D01*
X105848911Y-73522183D01*
X105944080Y-73444080D01*
X105963658Y-73420224D01*
X106737982Y-72645901D01*
X106884273Y-72675000D01*
X107115727Y-72675000D01*
X107342735Y-72629845D01*
X107556571Y-72541271D01*
X107749019Y-72412682D01*
X107912682Y-72249019D01*
X107995548Y-72125000D01*
X122244419Y-72125000D01*
X122212036Y-72131883D01*
X122176474Y-72138925D01*
X122171139Y-72140576D01*
X121985109Y-72199589D01*
X121951795Y-72213867D01*
X121918269Y-72227686D01*
X121913356Y-72230342D01*
X121742331Y-72324365D01*
X121712434Y-72344836D01*
X121682222Y-72364909D01*
X121677922Y-72368467D01*
X121677917Y-72368470D01*
X121677913Y-72368474D01*
X121528412Y-72493919D01*
X121503032Y-72519836D01*
X121477321Y-72545368D01*
X121473791Y-72549696D01*
X121351500Y-72701796D01*
X121331649Y-72732132D01*
X121311377Y-72762186D01*
X121308755Y-72767118D01*
X121218335Y-72940073D01*
X121204756Y-72973682D01*
X121190704Y-73007111D01*
X121189090Y-73012458D01*
X121133987Y-73199684D01*
X121127197Y-73235278D01*
X121119904Y-73270806D01*
X121119359Y-73276365D01*
X121101670Y-73470727D01*
X121101923Y-73506981D01*
X121101670Y-73543235D01*
X121102215Y-73548794D01*
X121122616Y-73742890D01*
X121129905Y-73778398D01*
X121136699Y-73814014D01*
X121138314Y-73819361D01*
X121196026Y-74005799D01*
X121210064Y-74039196D01*
X121223655Y-74072834D01*
X121226277Y-74077765D01*
X121319102Y-74249442D01*
X121339380Y-74279506D01*
X121359227Y-74309835D01*
X121362757Y-74314163D01*
X121487161Y-74464541D01*
X121512887Y-74490088D01*
X121538251Y-74515989D01*
X121542554Y-74519549D01*
X121693796Y-74642899D01*
X121723988Y-74662958D01*
X121753907Y-74683444D01*
X121758820Y-74686100D01*
X121931142Y-74777725D01*
X121964640Y-74791532D01*
X121997982Y-74805822D01*
X122003317Y-74807474D01*
X122190154Y-74863883D01*
X122225717Y-74870925D01*
X122261178Y-74878462D01*
X122266732Y-74879046D01*
X122460966Y-74898091D01*
X122460970Y-74898091D01*
X122480353Y-74900000D01*
X127519647Y-74900000D01*
X127540014Y-74897994D01*
X127552995Y-74897994D01*
X127558550Y-74897410D01*
X127752499Y-74875655D01*
X127787956Y-74868118D01*
X127823526Y-74861075D01*
X127828861Y-74859424D01*
X128014892Y-74800411D01*
X128048219Y-74786127D01*
X128081731Y-74772314D01*
X128086640Y-74769659D01*
X128086645Y-74769657D01*
X128086649Y-74769654D01*
X128257669Y-74675635D01*
X128287566Y-74655164D01*
X128317778Y-74635091D01*
X128322082Y-74631531D01*
X128471588Y-74506081D01*
X128496968Y-74480164D01*
X128522679Y-74454632D01*
X128526209Y-74450304D01*
X128648500Y-74298204D01*
X128668361Y-74267853D01*
X128688623Y-74237814D01*
X128691245Y-74232883D01*
X128781665Y-74059927D01*
X128795244Y-74026318D01*
X128809296Y-73992889D01*
X128810910Y-73987542D01*
X128866013Y-73800317D01*
X128872804Y-73764715D01*
X128880096Y-73729194D01*
X128880641Y-73723635D01*
X128898330Y-73529274D01*
X128898077Y-73493019D01*
X128898330Y-73456765D01*
X128897785Y-73451206D01*
X128877384Y-73257109D01*
X128870092Y-73221588D01*
X128863301Y-73185986D01*
X128861687Y-73180643D01*
X128861686Y-73180637D01*
X128861684Y-73180631D01*
X128803974Y-72994201D01*
X128789942Y-72960821D01*
X128776345Y-72927166D01*
X128773723Y-72922235D01*
X128680898Y-72750558D01*
X128660620Y-72720494D01*
X128640773Y-72690165D01*
X128637243Y-72685837D01*
X128512839Y-72535459D01*
X128487113Y-72509912D01*
X128461749Y-72484011D01*
X128457446Y-72480451D01*
X128306204Y-72357101D01*
X128276030Y-72337054D01*
X128246094Y-72316556D01*
X128241181Y-72313900D01*
X128068858Y-72222275D01*
X128035360Y-72208468D01*
X128002018Y-72194178D01*
X127996683Y-72192526D01*
X127809847Y-72136117D01*
X127774262Y-72129071D01*
X127755109Y-72125000D01*
X140741118Y-72125000D01*
X142098846Y-73482729D01*
X142118420Y-73506580D01*
X142137204Y-73521996D01*
X141932249Y-73658942D01*
X141698942Y-73892249D01*
X141515634Y-74166590D01*
X141389369Y-74471420D01*
X141325000Y-74795027D01*
X141325000Y-75124973D01*
X141389369Y-75448580D01*
X141515634Y-75753410D01*
X141698942Y-76027751D01*
X141932249Y-76261058D01*
X142206590Y-76444366D01*
X142511420Y-76570631D01*
X142835027Y-76635000D01*
X143164973Y-76635000D01*
X143392338Y-76589775D01*
X143953388Y-77150825D01*
X143980788Y-77184212D01*
X144114024Y-77293556D01*
X144242738Y-77362354D01*
X144266032Y-77374805D01*
X144430969Y-77424839D01*
X144602499Y-77441733D01*
X144645478Y-77437500D01*
X147542979Y-77437500D01*
X147651477Y-77426814D01*
X147956250Y-77426814D01*
X148077316Y-77414890D01*
X148193730Y-77379576D01*
X148301017Y-77322230D01*
X148395055Y-77245055D01*
X148472230Y-77151017D01*
X148529576Y-77043730D01*
X148564890Y-76927316D01*
X148576814Y-76806250D01*
X148576814Y-76318750D01*
X148564890Y-76197684D01*
X148529576Y-76081270D01*
X148472230Y-75973983D01*
X148395055Y-75879945D01*
X148301017Y-75802770D01*
X148202291Y-75750000D01*
X148301017Y-75697230D01*
X148395055Y-75620055D01*
X148472230Y-75526017D01*
X148529576Y-75418730D01*
X148564890Y-75302316D01*
X148576814Y-75181250D01*
X148576814Y-74693750D01*
X148564890Y-74572684D01*
X148529576Y-74456270D01*
X148472230Y-74348983D01*
X148395055Y-74254945D01*
X148301017Y-74177770D01*
X148193730Y-74120424D01*
X148077316Y-74085110D01*
X147956250Y-74073186D01*
X147043750Y-74073186D01*
X146922684Y-74085110D01*
X146806270Y-74120424D01*
X146698983Y-74177770D01*
X146604945Y-74254945D01*
X146527770Y-74348983D01*
X146500000Y-74400937D01*
X146472230Y-74348983D01*
X146395055Y-74254945D01*
X146301017Y-74177770D01*
X146193730Y-74120424D01*
X146077316Y-74085110D01*
X145956250Y-74073186D01*
X145043750Y-74073186D01*
X144922684Y-74085110D01*
X144806270Y-74120424D01*
X144698983Y-74177770D01*
X144604945Y-74254945D01*
X144549133Y-74322952D01*
X144484366Y-74166590D01*
X144301058Y-73892249D01*
X144096309Y-73687500D01*
X144557711Y-73687500D01*
X144604945Y-73745055D01*
X144698983Y-73822230D01*
X144806270Y-73879576D01*
X144922684Y-73914890D01*
X145043750Y-73926814D01*
X145956250Y-73926814D01*
X146077316Y-73914890D01*
X146193730Y-73879576D01*
X146301017Y-73822230D01*
X146395055Y-73745055D01*
X146472230Y-73651017D01*
X146500000Y-73599063D01*
X146527770Y-73651017D01*
X146604945Y-73745055D01*
X146698983Y-73822230D01*
X146806270Y-73879576D01*
X146922684Y-73914890D01*
X147043750Y-73926814D01*
X147956250Y-73926814D01*
X148077316Y-73914890D01*
X148193730Y-73879576D01*
X148301017Y-73822230D01*
X148395055Y-73745055D01*
X148472230Y-73651017D01*
X148529576Y-73543730D01*
X148564890Y-73427316D01*
X148576814Y-73306250D01*
X148576814Y-72818750D01*
X148564890Y-72697684D01*
X148542841Y-72625000D01*
X156469306Y-72625000D01*
X156500000Y-72628023D01*
X156530694Y-72625000D01*
X156530704Y-72625000D01*
X156622521Y-72615957D01*
X156623223Y-72615744D01*
X156657265Y-72629845D01*
X156884273Y-72675000D01*
X157115727Y-72675000D01*
X157342735Y-72629845D01*
X157556571Y-72541271D01*
X157749019Y-72412682D01*
X157912682Y-72249019D01*
X158041271Y-72056571D01*
X158129845Y-71842735D01*
X158175000Y-71615727D01*
X158175000Y-71384273D01*
X158129845Y-71157265D01*
X158041271Y-70943429D01*
X157912682Y-70750981D01*
X157749019Y-70587318D01*
X157556571Y-70458729D01*
X157342735Y-70370155D01*
X157115727Y-70325000D01*
X156884273Y-70325000D01*
X156657265Y-70370155D01*
X156443429Y-70458729D01*
X156250981Y-70587318D01*
X156087318Y-70750981D01*
X155958729Y-70943429D01*
X155870155Y-71157265D01*
X155826845Y-71375000D01*
X155400000Y-71375000D01*
X155400000Y-66519647D01*
X155401935Y-66500000D01*
X155394212Y-66421586D01*
X155371340Y-66346186D01*
X155334197Y-66276697D01*
X155284211Y-66215789D01*
X155223303Y-66165803D01*
X155153814Y-66128660D01*
X155141748Y-66125000D01*
X156241118Y-66125000D01*
X156375000Y-66258883D01*
X156375001Y-66890414D01*
X156313204Y-66982900D01*
X156254783Y-67123941D01*
X156225000Y-67273669D01*
X156225000Y-67426331D01*
X156254783Y-67576059D01*
X156313204Y-67717100D01*
X156375000Y-67809586D01*
X156375001Y-68269287D01*
X156375000Y-68269297D01*
X156375000Y-68469306D01*
X156371977Y-68500000D01*
X156375000Y-68530694D01*
X156375000Y-68530704D01*
X156384043Y-68622521D01*
X156419781Y-68740334D01*
X156477818Y-68848911D01*
X156555921Y-68944080D01*
X156579772Y-68963654D01*
X160375000Y-72758883D01*
X160375001Y-73040414D01*
X160313204Y-73132900D01*
X160254783Y-73273941D01*
X160225000Y-73423669D01*
X160225000Y-73576331D01*
X160254783Y-73726059D01*
X160313204Y-73867100D01*
X160398018Y-73994034D01*
X160505966Y-74101982D01*
X160632900Y-74186796D01*
X160773941Y-74245217D01*
X160923669Y-74275000D01*
X161076331Y-74275000D01*
X161226059Y-74245217D01*
X161367100Y-74186796D01*
X161494034Y-74101982D01*
X161601982Y-73994034D01*
X161686796Y-73867100D01*
X161745217Y-73726059D01*
X161775000Y-73576331D01*
X161775000Y-73423669D01*
X161745217Y-73273941D01*
X161686796Y-73132900D01*
X161625000Y-73040415D01*
X161625000Y-72530693D01*
X161628023Y-72499999D01*
X161625000Y-72469305D01*
X161625000Y-72469296D01*
X161615957Y-72377479D01*
X161580219Y-72259666D01*
X161574528Y-72249019D01*
X161522182Y-72151087D01*
X161480255Y-72100000D01*
X161444080Y-72055920D01*
X161420230Y-72036347D01*
X157625000Y-68241118D01*
X157625000Y-67809585D01*
X157686796Y-67717100D01*
X157745217Y-67576059D01*
X157775000Y-67426331D01*
X157775000Y-67273669D01*
X157745217Y-67123941D01*
X157686796Y-66982900D01*
X157625000Y-66890415D01*
X157625000Y-66030701D01*
X157628024Y-66000000D01*
X157625000Y-65969296D01*
X157615957Y-65877479D01*
X157580219Y-65759666D01*
X157522183Y-65651089D01*
X157444080Y-65555920D01*
X157420230Y-65536347D01*
X157283883Y-65400000D01*
X165019647Y-65400000D01*
X165037396Y-65398252D01*
X165046724Y-65398317D01*
X165052283Y-65397772D01*
X165343428Y-65367172D01*
X165378917Y-65359887D01*
X165414553Y-65353089D01*
X165419900Y-65351474D01*
X165699556Y-65264906D01*
X165732973Y-65250859D01*
X165766592Y-65237276D01*
X165771523Y-65234654D01*
X165904017Y-65163014D01*
X165936856Y-65212161D01*
M02*
