G04 #@! TF.GenerationSoftware,KiCad,Pcbnew,(5.1.2)-2*
G04 #@! TF.CreationDate,2020-02-10T16:48:03+01:00*
G04 #@! TF.ProjectId,OpenHO_Engine,4f70656e-484f-45f4-956e-67696e652e6b,rev?*
G04 #@! TF.SameCoordinates,Original*
G04 #@! TF.FileFunction,Paste,Top*
G04 #@! TF.FilePolarity,Positive*
%FSLAX46Y46*%
G04 Gerber Fmt 4.6, Leading zero omitted, Abs format (unit mm)*
G04 Created by KiCad (PCBNEW (5.1.2)-2) date 2020-02-10 16:48:03*
%MOMM*%
%LPD*%
G04 APERTURE LIST*
%ADD10C,0.100000*%
%ADD11C,0.975000*%
%ADD12C,0.650000*%
G04 APERTURE END LIST*
D10*
G36*
X147980142Y-72576174D02*
G01*
X148003803Y-72579684D01*
X148027007Y-72585496D01*
X148049529Y-72593554D01*
X148071153Y-72603782D01*
X148091670Y-72616079D01*
X148110883Y-72630329D01*
X148128607Y-72646393D01*
X148144671Y-72664117D01*
X148158921Y-72683330D01*
X148171218Y-72703847D01*
X148181446Y-72725471D01*
X148189504Y-72747993D01*
X148195316Y-72771197D01*
X148198826Y-72794858D01*
X148200000Y-72818750D01*
X148200000Y-73306250D01*
X148198826Y-73330142D01*
X148195316Y-73353803D01*
X148189504Y-73377007D01*
X148181446Y-73399529D01*
X148171218Y-73421153D01*
X148158921Y-73441670D01*
X148144671Y-73460883D01*
X148128607Y-73478607D01*
X148110883Y-73494671D01*
X148091670Y-73508921D01*
X148071153Y-73521218D01*
X148049529Y-73531446D01*
X148027007Y-73539504D01*
X148003803Y-73545316D01*
X147980142Y-73548826D01*
X147956250Y-73550000D01*
X147043750Y-73550000D01*
X147019858Y-73548826D01*
X146996197Y-73545316D01*
X146972993Y-73539504D01*
X146950471Y-73531446D01*
X146928847Y-73521218D01*
X146908330Y-73508921D01*
X146889117Y-73494671D01*
X146871393Y-73478607D01*
X146855329Y-73460883D01*
X146841079Y-73441670D01*
X146828782Y-73421153D01*
X146818554Y-73399529D01*
X146810496Y-73377007D01*
X146804684Y-73353803D01*
X146801174Y-73330142D01*
X146800000Y-73306250D01*
X146800000Y-72818750D01*
X146801174Y-72794858D01*
X146804684Y-72771197D01*
X146810496Y-72747993D01*
X146818554Y-72725471D01*
X146828782Y-72703847D01*
X146841079Y-72683330D01*
X146855329Y-72664117D01*
X146871393Y-72646393D01*
X146889117Y-72630329D01*
X146908330Y-72616079D01*
X146928847Y-72603782D01*
X146950471Y-72593554D01*
X146972993Y-72585496D01*
X146996197Y-72579684D01*
X147019858Y-72576174D01*
X147043750Y-72575000D01*
X147956250Y-72575000D01*
X147980142Y-72576174D01*
X147980142Y-72576174D01*
G37*
D11*
X147500000Y-73062500D03*
D10*
G36*
X147980142Y-74451174D02*
G01*
X148003803Y-74454684D01*
X148027007Y-74460496D01*
X148049529Y-74468554D01*
X148071153Y-74478782D01*
X148091670Y-74491079D01*
X148110883Y-74505329D01*
X148128607Y-74521393D01*
X148144671Y-74539117D01*
X148158921Y-74558330D01*
X148171218Y-74578847D01*
X148181446Y-74600471D01*
X148189504Y-74622993D01*
X148195316Y-74646197D01*
X148198826Y-74669858D01*
X148200000Y-74693750D01*
X148200000Y-75181250D01*
X148198826Y-75205142D01*
X148195316Y-75228803D01*
X148189504Y-75252007D01*
X148181446Y-75274529D01*
X148171218Y-75296153D01*
X148158921Y-75316670D01*
X148144671Y-75335883D01*
X148128607Y-75353607D01*
X148110883Y-75369671D01*
X148091670Y-75383921D01*
X148071153Y-75396218D01*
X148049529Y-75406446D01*
X148027007Y-75414504D01*
X148003803Y-75420316D01*
X147980142Y-75423826D01*
X147956250Y-75425000D01*
X147043750Y-75425000D01*
X147019858Y-75423826D01*
X146996197Y-75420316D01*
X146972993Y-75414504D01*
X146950471Y-75406446D01*
X146928847Y-75396218D01*
X146908330Y-75383921D01*
X146889117Y-75369671D01*
X146871393Y-75353607D01*
X146855329Y-75335883D01*
X146841079Y-75316670D01*
X146828782Y-75296153D01*
X146818554Y-75274529D01*
X146810496Y-75252007D01*
X146804684Y-75228803D01*
X146801174Y-75205142D01*
X146800000Y-75181250D01*
X146800000Y-74693750D01*
X146801174Y-74669858D01*
X146804684Y-74646197D01*
X146810496Y-74622993D01*
X146818554Y-74600471D01*
X146828782Y-74578847D01*
X146841079Y-74558330D01*
X146855329Y-74539117D01*
X146871393Y-74521393D01*
X146889117Y-74505329D01*
X146908330Y-74491079D01*
X146928847Y-74478782D01*
X146950471Y-74468554D01*
X146972993Y-74460496D01*
X146996197Y-74454684D01*
X147019858Y-74451174D01*
X147043750Y-74450000D01*
X147956250Y-74450000D01*
X147980142Y-74451174D01*
X147980142Y-74451174D01*
G37*
D11*
X147500000Y-74937500D03*
D10*
G36*
X145980142Y-72576174D02*
G01*
X146003803Y-72579684D01*
X146027007Y-72585496D01*
X146049529Y-72593554D01*
X146071153Y-72603782D01*
X146091670Y-72616079D01*
X146110883Y-72630329D01*
X146128607Y-72646393D01*
X146144671Y-72664117D01*
X146158921Y-72683330D01*
X146171218Y-72703847D01*
X146181446Y-72725471D01*
X146189504Y-72747993D01*
X146195316Y-72771197D01*
X146198826Y-72794858D01*
X146200000Y-72818750D01*
X146200000Y-73306250D01*
X146198826Y-73330142D01*
X146195316Y-73353803D01*
X146189504Y-73377007D01*
X146181446Y-73399529D01*
X146171218Y-73421153D01*
X146158921Y-73441670D01*
X146144671Y-73460883D01*
X146128607Y-73478607D01*
X146110883Y-73494671D01*
X146091670Y-73508921D01*
X146071153Y-73521218D01*
X146049529Y-73531446D01*
X146027007Y-73539504D01*
X146003803Y-73545316D01*
X145980142Y-73548826D01*
X145956250Y-73550000D01*
X145043750Y-73550000D01*
X145019858Y-73548826D01*
X144996197Y-73545316D01*
X144972993Y-73539504D01*
X144950471Y-73531446D01*
X144928847Y-73521218D01*
X144908330Y-73508921D01*
X144889117Y-73494671D01*
X144871393Y-73478607D01*
X144855329Y-73460883D01*
X144841079Y-73441670D01*
X144828782Y-73421153D01*
X144818554Y-73399529D01*
X144810496Y-73377007D01*
X144804684Y-73353803D01*
X144801174Y-73330142D01*
X144800000Y-73306250D01*
X144800000Y-72818750D01*
X144801174Y-72794858D01*
X144804684Y-72771197D01*
X144810496Y-72747993D01*
X144818554Y-72725471D01*
X144828782Y-72703847D01*
X144841079Y-72683330D01*
X144855329Y-72664117D01*
X144871393Y-72646393D01*
X144889117Y-72630329D01*
X144908330Y-72616079D01*
X144928847Y-72603782D01*
X144950471Y-72593554D01*
X144972993Y-72585496D01*
X144996197Y-72579684D01*
X145019858Y-72576174D01*
X145043750Y-72575000D01*
X145956250Y-72575000D01*
X145980142Y-72576174D01*
X145980142Y-72576174D01*
G37*
D11*
X145500000Y-73062500D03*
D10*
G36*
X145980142Y-74451174D02*
G01*
X146003803Y-74454684D01*
X146027007Y-74460496D01*
X146049529Y-74468554D01*
X146071153Y-74478782D01*
X146091670Y-74491079D01*
X146110883Y-74505329D01*
X146128607Y-74521393D01*
X146144671Y-74539117D01*
X146158921Y-74558330D01*
X146171218Y-74578847D01*
X146181446Y-74600471D01*
X146189504Y-74622993D01*
X146195316Y-74646197D01*
X146198826Y-74669858D01*
X146200000Y-74693750D01*
X146200000Y-75181250D01*
X146198826Y-75205142D01*
X146195316Y-75228803D01*
X146189504Y-75252007D01*
X146181446Y-75274529D01*
X146171218Y-75296153D01*
X146158921Y-75316670D01*
X146144671Y-75335883D01*
X146128607Y-75353607D01*
X146110883Y-75369671D01*
X146091670Y-75383921D01*
X146071153Y-75396218D01*
X146049529Y-75406446D01*
X146027007Y-75414504D01*
X146003803Y-75420316D01*
X145980142Y-75423826D01*
X145956250Y-75425000D01*
X145043750Y-75425000D01*
X145019858Y-75423826D01*
X144996197Y-75420316D01*
X144972993Y-75414504D01*
X144950471Y-75406446D01*
X144928847Y-75396218D01*
X144908330Y-75383921D01*
X144889117Y-75369671D01*
X144871393Y-75353607D01*
X144855329Y-75335883D01*
X144841079Y-75316670D01*
X144828782Y-75296153D01*
X144818554Y-75274529D01*
X144810496Y-75252007D01*
X144804684Y-75228803D01*
X144801174Y-75205142D01*
X144800000Y-75181250D01*
X144800000Y-74693750D01*
X144801174Y-74669858D01*
X144804684Y-74646197D01*
X144810496Y-74622993D01*
X144818554Y-74600471D01*
X144828782Y-74578847D01*
X144841079Y-74558330D01*
X144855329Y-74539117D01*
X144871393Y-74521393D01*
X144889117Y-74505329D01*
X144908330Y-74491079D01*
X144928847Y-74478782D01*
X144950471Y-74468554D01*
X144972993Y-74460496D01*
X144996197Y-74454684D01*
X145019858Y-74451174D01*
X145043750Y-74450000D01*
X145956250Y-74450000D01*
X145980142Y-74451174D01*
X145980142Y-74451174D01*
G37*
D11*
X145500000Y-74937500D03*
D10*
G36*
X147980142Y-81451174D02*
G01*
X148003803Y-81454684D01*
X148027007Y-81460496D01*
X148049529Y-81468554D01*
X148071153Y-81478782D01*
X148091670Y-81491079D01*
X148110883Y-81505329D01*
X148128607Y-81521393D01*
X148144671Y-81539117D01*
X148158921Y-81558330D01*
X148171218Y-81578847D01*
X148181446Y-81600471D01*
X148189504Y-81622993D01*
X148195316Y-81646197D01*
X148198826Y-81669858D01*
X148200000Y-81693750D01*
X148200000Y-82181250D01*
X148198826Y-82205142D01*
X148195316Y-82228803D01*
X148189504Y-82252007D01*
X148181446Y-82274529D01*
X148171218Y-82296153D01*
X148158921Y-82316670D01*
X148144671Y-82335883D01*
X148128607Y-82353607D01*
X148110883Y-82369671D01*
X148091670Y-82383921D01*
X148071153Y-82396218D01*
X148049529Y-82406446D01*
X148027007Y-82414504D01*
X148003803Y-82420316D01*
X147980142Y-82423826D01*
X147956250Y-82425000D01*
X147043750Y-82425000D01*
X147019858Y-82423826D01*
X146996197Y-82420316D01*
X146972993Y-82414504D01*
X146950471Y-82406446D01*
X146928847Y-82396218D01*
X146908330Y-82383921D01*
X146889117Y-82369671D01*
X146871393Y-82353607D01*
X146855329Y-82335883D01*
X146841079Y-82316670D01*
X146828782Y-82296153D01*
X146818554Y-82274529D01*
X146810496Y-82252007D01*
X146804684Y-82228803D01*
X146801174Y-82205142D01*
X146800000Y-82181250D01*
X146800000Y-81693750D01*
X146801174Y-81669858D01*
X146804684Y-81646197D01*
X146810496Y-81622993D01*
X146818554Y-81600471D01*
X146828782Y-81578847D01*
X146841079Y-81558330D01*
X146855329Y-81539117D01*
X146871393Y-81521393D01*
X146889117Y-81505329D01*
X146908330Y-81491079D01*
X146928847Y-81478782D01*
X146950471Y-81468554D01*
X146972993Y-81460496D01*
X146996197Y-81454684D01*
X147019858Y-81451174D01*
X147043750Y-81450000D01*
X147956250Y-81450000D01*
X147980142Y-81451174D01*
X147980142Y-81451174D01*
G37*
D11*
X147500000Y-81937500D03*
D10*
G36*
X147980142Y-79576174D02*
G01*
X148003803Y-79579684D01*
X148027007Y-79585496D01*
X148049529Y-79593554D01*
X148071153Y-79603782D01*
X148091670Y-79616079D01*
X148110883Y-79630329D01*
X148128607Y-79646393D01*
X148144671Y-79664117D01*
X148158921Y-79683330D01*
X148171218Y-79703847D01*
X148181446Y-79725471D01*
X148189504Y-79747993D01*
X148195316Y-79771197D01*
X148198826Y-79794858D01*
X148200000Y-79818750D01*
X148200000Y-80306250D01*
X148198826Y-80330142D01*
X148195316Y-80353803D01*
X148189504Y-80377007D01*
X148181446Y-80399529D01*
X148171218Y-80421153D01*
X148158921Y-80441670D01*
X148144671Y-80460883D01*
X148128607Y-80478607D01*
X148110883Y-80494671D01*
X148091670Y-80508921D01*
X148071153Y-80521218D01*
X148049529Y-80531446D01*
X148027007Y-80539504D01*
X148003803Y-80545316D01*
X147980142Y-80548826D01*
X147956250Y-80550000D01*
X147043750Y-80550000D01*
X147019858Y-80548826D01*
X146996197Y-80545316D01*
X146972993Y-80539504D01*
X146950471Y-80531446D01*
X146928847Y-80521218D01*
X146908330Y-80508921D01*
X146889117Y-80494671D01*
X146871393Y-80478607D01*
X146855329Y-80460883D01*
X146841079Y-80441670D01*
X146828782Y-80421153D01*
X146818554Y-80399529D01*
X146810496Y-80377007D01*
X146804684Y-80353803D01*
X146801174Y-80330142D01*
X146800000Y-80306250D01*
X146800000Y-79818750D01*
X146801174Y-79794858D01*
X146804684Y-79771197D01*
X146810496Y-79747993D01*
X146818554Y-79725471D01*
X146828782Y-79703847D01*
X146841079Y-79683330D01*
X146855329Y-79664117D01*
X146871393Y-79646393D01*
X146889117Y-79630329D01*
X146908330Y-79616079D01*
X146928847Y-79603782D01*
X146950471Y-79593554D01*
X146972993Y-79585496D01*
X146996197Y-79579684D01*
X147019858Y-79576174D01*
X147043750Y-79575000D01*
X147956250Y-79575000D01*
X147980142Y-79576174D01*
X147980142Y-79576174D01*
G37*
D11*
X147500000Y-80062500D03*
D10*
G36*
X145980142Y-81451174D02*
G01*
X146003803Y-81454684D01*
X146027007Y-81460496D01*
X146049529Y-81468554D01*
X146071153Y-81478782D01*
X146091670Y-81491079D01*
X146110883Y-81505329D01*
X146128607Y-81521393D01*
X146144671Y-81539117D01*
X146158921Y-81558330D01*
X146171218Y-81578847D01*
X146181446Y-81600471D01*
X146189504Y-81622993D01*
X146195316Y-81646197D01*
X146198826Y-81669858D01*
X146200000Y-81693750D01*
X146200000Y-82181250D01*
X146198826Y-82205142D01*
X146195316Y-82228803D01*
X146189504Y-82252007D01*
X146181446Y-82274529D01*
X146171218Y-82296153D01*
X146158921Y-82316670D01*
X146144671Y-82335883D01*
X146128607Y-82353607D01*
X146110883Y-82369671D01*
X146091670Y-82383921D01*
X146071153Y-82396218D01*
X146049529Y-82406446D01*
X146027007Y-82414504D01*
X146003803Y-82420316D01*
X145980142Y-82423826D01*
X145956250Y-82425000D01*
X145043750Y-82425000D01*
X145019858Y-82423826D01*
X144996197Y-82420316D01*
X144972993Y-82414504D01*
X144950471Y-82406446D01*
X144928847Y-82396218D01*
X144908330Y-82383921D01*
X144889117Y-82369671D01*
X144871393Y-82353607D01*
X144855329Y-82335883D01*
X144841079Y-82316670D01*
X144828782Y-82296153D01*
X144818554Y-82274529D01*
X144810496Y-82252007D01*
X144804684Y-82228803D01*
X144801174Y-82205142D01*
X144800000Y-82181250D01*
X144800000Y-81693750D01*
X144801174Y-81669858D01*
X144804684Y-81646197D01*
X144810496Y-81622993D01*
X144818554Y-81600471D01*
X144828782Y-81578847D01*
X144841079Y-81558330D01*
X144855329Y-81539117D01*
X144871393Y-81521393D01*
X144889117Y-81505329D01*
X144908330Y-81491079D01*
X144928847Y-81478782D01*
X144950471Y-81468554D01*
X144972993Y-81460496D01*
X144996197Y-81454684D01*
X145019858Y-81451174D01*
X145043750Y-81450000D01*
X145956250Y-81450000D01*
X145980142Y-81451174D01*
X145980142Y-81451174D01*
G37*
D11*
X145500000Y-81937500D03*
D10*
G36*
X145980142Y-79576174D02*
G01*
X146003803Y-79579684D01*
X146027007Y-79585496D01*
X146049529Y-79593554D01*
X146071153Y-79603782D01*
X146091670Y-79616079D01*
X146110883Y-79630329D01*
X146128607Y-79646393D01*
X146144671Y-79664117D01*
X146158921Y-79683330D01*
X146171218Y-79703847D01*
X146181446Y-79725471D01*
X146189504Y-79747993D01*
X146195316Y-79771197D01*
X146198826Y-79794858D01*
X146200000Y-79818750D01*
X146200000Y-80306250D01*
X146198826Y-80330142D01*
X146195316Y-80353803D01*
X146189504Y-80377007D01*
X146181446Y-80399529D01*
X146171218Y-80421153D01*
X146158921Y-80441670D01*
X146144671Y-80460883D01*
X146128607Y-80478607D01*
X146110883Y-80494671D01*
X146091670Y-80508921D01*
X146071153Y-80521218D01*
X146049529Y-80531446D01*
X146027007Y-80539504D01*
X146003803Y-80545316D01*
X145980142Y-80548826D01*
X145956250Y-80550000D01*
X145043750Y-80550000D01*
X145019858Y-80548826D01*
X144996197Y-80545316D01*
X144972993Y-80539504D01*
X144950471Y-80531446D01*
X144928847Y-80521218D01*
X144908330Y-80508921D01*
X144889117Y-80494671D01*
X144871393Y-80478607D01*
X144855329Y-80460883D01*
X144841079Y-80441670D01*
X144828782Y-80421153D01*
X144818554Y-80399529D01*
X144810496Y-80377007D01*
X144804684Y-80353803D01*
X144801174Y-80330142D01*
X144800000Y-80306250D01*
X144800000Y-79818750D01*
X144801174Y-79794858D01*
X144804684Y-79771197D01*
X144810496Y-79747993D01*
X144818554Y-79725471D01*
X144828782Y-79703847D01*
X144841079Y-79683330D01*
X144855329Y-79664117D01*
X144871393Y-79646393D01*
X144889117Y-79630329D01*
X144908330Y-79616079D01*
X144928847Y-79603782D01*
X144950471Y-79593554D01*
X144972993Y-79585496D01*
X144996197Y-79579684D01*
X145019858Y-79576174D01*
X145043750Y-79575000D01*
X145956250Y-79575000D01*
X145980142Y-79576174D01*
X145980142Y-79576174D01*
G37*
D11*
X145500000Y-80062500D03*
D10*
G36*
X149980142Y-81451174D02*
G01*
X150003803Y-81454684D01*
X150027007Y-81460496D01*
X150049529Y-81468554D01*
X150071153Y-81478782D01*
X150091670Y-81491079D01*
X150110883Y-81505329D01*
X150128607Y-81521393D01*
X150144671Y-81539117D01*
X150158921Y-81558330D01*
X150171218Y-81578847D01*
X150181446Y-81600471D01*
X150189504Y-81622993D01*
X150195316Y-81646197D01*
X150198826Y-81669858D01*
X150200000Y-81693750D01*
X150200000Y-82181250D01*
X150198826Y-82205142D01*
X150195316Y-82228803D01*
X150189504Y-82252007D01*
X150181446Y-82274529D01*
X150171218Y-82296153D01*
X150158921Y-82316670D01*
X150144671Y-82335883D01*
X150128607Y-82353607D01*
X150110883Y-82369671D01*
X150091670Y-82383921D01*
X150071153Y-82396218D01*
X150049529Y-82406446D01*
X150027007Y-82414504D01*
X150003803Y-82420316D01*
X149980142Y-82423826D01*
X149956250Y-82425000D01*
X149043750Y-82425000D01*
X149019858Y-82423826D01*
X148996197Y-82420316D01*
X148972993Y-82414504D01*
X148950471Y-82406446D01*
X148928847Y-82396218D01*
X148908330Y-82383921D01*
X148889117Y-82369671D01*
X148871393Y-82353607D01*
X148855329Y-82335883D01*
X148841079Y-82316670D01*
X148828782Y-82296153D01*
X148818554Y-82274529D01*
X148810496Y-82252007D01*
X148804684Y-82228803D01*
X148801174Y-82205142D01*
X148800000Y-82181250D01*
X148800000Y-81693750D01*
X148801174Y-81669858D01*
X148804684Y-81646197D01*
X148810496Y-81622993D01*
X148818554Y-81600471D01*
X148828782Y-81578847D01*
X148841079Y-81558330D01*
X148855329Y-81539117D01*
X148871393Y-81521393D01*
X148889117Y-81505329D01*
X148908330Y-81491079D01*
X148928847Y-81478782D01*
X148950471Y-81468554D01*
X148972993Y-81460496D01*
X148996197Y-81454684D01*
X149019858Y-81451174D01*
X149043750Y-81450000D01*
X149956250Y-81450000D01*
X149980142Y-81451174D01*
X149980142Y-81451174D01*
G37*
D11*
X149500000Y-81937500D03*
D10*
G36*
X149980142Y-79576174D02*
G01*
X150003803Y-79579684D01*
X150027007Y-79585496D01*
X150049529Y-79593554D01*
X150071153Y-79603782D01*
X150091670Y-79616079D01*
X150110883Y-79630329D01*
X150128607Y-79646393D01*
X150144671Y-79664117D01*
X150158921Y-79683330D01*
X150171218Y-79703847D01*
X150181446Y-79725471D01*
X150189504Y-79747993D01*
X150195316Y-79771197D01*
X150198826Y-79794858D01*
X150200000Y-79818750D01*
X150200000Y-80306250D01*
X150198826Y-80330142D01*
X150195316Y-80353803D01*
X150189504Y-80377007D01*
X150181446Y-80399529D01*
X150171218Y-80421153D01*
X150158921Y-80441670D01*
X150144671Y-80460883D01*
X150128607Y-80478607D01*
X150110883Y-80494671D01*
X150091670Y-80508921D01*
X150071153Y-80521218D01*
X150049529Y-80531446D01*
X150027007Y-80539504D01*
X150003803Y-80545316D01*
X149980142Y-80548826D01*
X149956250Y-80550000D01*
X149043750Y-80550000D01*
X149019858Y-80548826D01*
X148996197Y-80545316D01*
X148972993Y-80539504D01*
X148950471Y-80531446D01*
X148928847Y-80521218D01*
X148908330Y-80508921D01*
X148889117Y-80494671D01*
X148871393Y-80478607D01*
X148855329Y-80460883D01*
X148841079Y-80441670D01*
X148828782Y-80421153D01*
X148818554Y-80399529D01*
X148810496Y-80377007D01*
X148804684Y-80353803D01*
X148801174Y-80330142D01*
X148800000Y-80306250D01*
X148800000Y-79818750D01*
X148801174Y-79794858D01*
X148804684Y-79771197D01*
X148810496Y-79747993D01*
X148818554Y-79725471D01*
X148828782Y-79703847D01*
X148841079Y-79683330D01*
X148855329Y-79664117D01*
X148871393Y-79646393D01*
X148889117Y-79630329D01*
X148908330Y-79616079D01*
X148928847Y-79603782D01*
X148950471Y-79593554D01*
X148972993Y-79585496D01*
X148996197Y-79579684D01*
X149019858Y-79576174D01*
X149043750Y-79575000D01*
X149956250Y-79575000D01*
X149980142Y-79576174D01*
X149980142Y-79576174D01*
G37*
D11*
X149500000Y-80062500D03*
D10*
G36*
X145980142Y-76076174D02*
G01*
X146003803Y-76079684D01*
X146027007Y-76085496D01*
X146049529Y-76093554D01*
X146071153Y-76103782D01*
X146091670Y-76116079D01*
X146110883Y-76130329D01*
X146128607Y-76146393D01*
X146144671Y-76164117D01*
X146158921Y-76183330D01*
X146171218Y-76203847D01*
X146181446Y-76225471D01*
X146189504Y-76247993D01*
X146195316Y-76271197D01*
X146198826Y-76294858D01*
X146200000Y-76318750D01*
X146200000Y-76806250D01*
X146198826Y-76830142D01*
X146195316Y-76853803D01*
X146189504Y-76877007D01*
X146181446Y-76899529D01*
X146171218Y-76921153D01*
X146158921Y-76941670D01*
X146144671Y-76960883D01*
X146128607Y-76978607D01*
X146110883Y-76994671D01*
X146091670Y-77008921D01*
X146071153Y-77021218D01*
X146049529Y-77031446D01*
X146027007Y-77039504D01*
X146003803Y-77045316D01*
X145980142Y-77048826D01*
X145956250Y-77050000D01*
X145043750Y-77050000D01*
X145019858Y-77048826D01*
X144996197Y-77045316D01*
X144972993Y-77039504D01*
X144950471Y-77031446D01*
X144928847Y-77021218D01*
X144908330Y-77008921D01*
X144889117Y-76994671D01*
X144871393Y-76978607D01*
X144855329Y-76960883D01*
X144841079Y-76941670D01*
X144828782Y-76921153D01*
X144818554Y-76899529D01*
X144810496Y-76877007D01*
X144804684Y-76853803D01*
X144801174Y-76830142D01*
X144800000Y-76806250D01*
X144800000Y-76318750D01*
X144801174Y-76294858D01*
X144804684Y-76271197D01*
X144810496Y-76247993D01*
X144818554Y-76225471D01*
X144828782Y-76203847D01*
X144841079Y-76183330D01*
X144855329Y-76164117D01*
X144871393Y-76146393D01*
X144889117Y-76130329D01*
X144908330Y-76116079D01*
X144928847Y-76103782D01*
X144950471Y-76093554D01*
X144972993Y-76085496D01*
X144996197Y-76079684D01*
X145019858Y-76076174D01*
X145043750Y-76075000D01*
X145956250Y-76075000D01*
X145980142Y-76076174D01*
X145980142Y-76076174D01*
G37*
D11*
X145500000Y-76562500D03*
D10*
G36*
X145980142Y-77951174D02*
G01*
X146003803Y-77954684D01*
X146027007Y-77960496D01*
X146049529Y-77968554D01*
X146071153Y-77978782D01*
X146091670Y-77991079D01*
X146110883Y-78005329D01*
X146128607Y-78021393D01*
X146144671Y-78039117D01*
X146158921Y-78058330D01*
X146171218Y-78078847D01*
X146181446Y-78100471D01*
X146189504Y-78122993D01*
X146195316Y-78146197D01*
X146198826Y-78169858D01*
X146200000Y-78193750D01*
X146200000Y-78681250D01*
X146198826Y-78705142D01*
X146195316Y-78728803D01*
X146189504Y-78752007D01*
X146181446Y-78774529D01*
X146171218Y-78796153D01*
X146158921Y-78816670D01*
X146144671Y-78835883D01*
X146128607Y-78853607D01*
X146110883Y-78869671D01*
X146091670Y-78883921D01*
X146071153Y-78896218D01*
X146049529Y-78906446D01*
X146027007Y-78914504D01*
X146003803Y-78920316D01*
X145980142Y-78923826D01*
X145956250Y-78925000D01*
X145043750Y-78925000D01*
X145019858Y-78923826D01*
X144996197Y-78920316D01*
X144972993Y-78914504D01*
X144950471Y-78906446D01*
X144928847Y-78896218D01*
X144908330Y-78883921D01*
X144889117Y-78869671D01*
X144871393Y-78853607D01*
X144855329Y-78835883D01*
X144841079Y-78816670D01*
X144828782Y-78796153D01*
X144818554Y-78774529D01*
X144810496Y-78752007D01*
X144804684Y-78728803D01*
X144801174Y-78705142D01*
X144800000Y-78681250D01*
X144800000Y-78193750D01*
X144801174Y-78169858D01*
X144804684Y-78146197D01*
X144810496Y-78122993D01*
X144818554Y-78100471D01*
X144828782Y-78078847D01*
X144841079Y-78058330D01*
X144855329Y-78039117D01*
X144871393Y-78021393D01*
X144889117Y-78005329D01*
X144908330Y-77991079D01*
X144928847Y-77978782D01*
X144950471Y-77968554D01*
X144972993Y-77960496D01*
X144996197Y-77954684D01*
X145019858Y-77951174D01*
X145043750Y-77950000D01*
X145956250Y-77950000D01*
X145980142Y-77951174D01*
X145980142Y-77951174D01*
G37*
D11*
X145500000Y-78437500D03*
D10*
G36*
X147980142Y-76076174D02*
G01*
X148003803Y-76079684D01*
X148027007Y-76085496D01*
X148049529Y-76093554D01*
X148071153Y-76103782D01*
X148091670Y-76116079D01*
X148110883Y-76130329D01*
X148128607Y-76146393D01*
X148144671Y-76164117D01*
X148158921Y-76183330D01*
X148171218Y-76203847D01*
X148181446Y-76225471D01*
X148189504Y-76247993D01*
X148195316Y-76271197D01*
X148198826Y-76294858D01*
X148200000Y-76318750D01*
X148200000Y-76806250D01*
X148198826Y-76830142D01*
X148195316Y-76853803D01*
X148189504Y-76877007D01*
X148181446Y-76899529D01*
X148171218Y-76921153D01*
X148158921Y-76941670D01*
X148144671Y-76960883D01*
X148128607Y-76978607D01*
X148110883Y-76994671D01*
X148091670Y-77008921D01*
X148071153Y-77021218D01*
X148049529Y-77031446D01*
X148027007Y-77039504D01*
X148003803Y-77045316D01*
X147980142Y-77048826D01*
X147956250Y-77050000D01*
X147043750Y-77050000D01*
X147019858Y-77048826D01*
X146996197Y-77045316D01*
X146972993Y-77039504D01*
X146950471Y-77031446D01*
X146928847Y-77021218D01*
X146908330Y-77008921D01*
X146889117Y-76994671D01*
X146871393Y-76978607D01*
X146855329Y-76960883D01*
X146841079Y-76941670D01*
X146828782Y-76921153D01*
X146818554Y-76899529D01*
X146810496Y-76877007D01*
X146804684Y-76853803D01*
X146801174Y-76830142D01*
X146800000Y-76806250D01*
X146800000Y-76318750D01*
X146801174Y-76294858D01*
X146804684Y-76271197D01*
X146810496Y-76247993D01*
X146818554Y-76225471D01*
X146828782Y-76203847D01*
X146841079Y-76183330D01*
X146855329Y-76164117D01*
X146871393Y-76146393D01*
X146889117Y-76130329D01*
X146908330Y-76116079D01*
X146928847Y-76103782D01*
X146950471Y-76093554D01*
X146972993Y-76085496D01*
X146996197Y-76079684D01*
X147019858Y-76076174D01*
X147043750Y-76075000D01*
X147956250Y-76075000D01*
X147980142Y-76076174D01*
X147980142Y-76076174D01*
G37*
D11*
X147500000Y-76562500D03*
D10*
G36*
X147980142Y-77951174D02*
G01*
X148003803Y-77954684D01*
X148027007Y-77960496D01*
X148049529Y-77968554D01*
X148071153Y-77978782D01*
X148091670Y-77991079D01*
X148110883Y-78005329D01*
X148128607Y-78021393D01*
X148144671Y-78039117D01*
X148158921Y-78058330D01*
X148171218Y-78078847D01*
X148181446Y-78100471D01*
X148189504Y-78122993D01*
X148195316Y-78146197D01*
X148198826Y-78169858D01*
X148200000Y-78193750D01*
X148200000Y-78681250D01*
X148198826Y-78705142D01*
X148195316Y-78728803D01*
X148189504Y-78752007D01*
X148181446Y-78774529D01*
X148171218Y-78796153D01*
X148158921Y-78816670D01*
X148144671Y-78835883D01*
X148128607Y-78853607D01*
X148110883Y-78869671D01*
X148091670Y-78883921D01*
X148071153Y-78896218D01*
X148049529Y-78906446D01*
X148027007Y-78914504D01*
X148003803Y-78920316D01*
X147980142Y-78923826D01*
X147956250Y-78925000D01*
X147043750Y-78925000D01*
X147019858Y-78923826D01*
X146996197Y-78920316D01*
X146972993Y-78914504D01*
X146950471Y-78906446D01*
X146928847Y-78896218D01*
X146908330Y-78883921D01*
X146889117Y-78869671D01*
X146871393Y-78853607D01*
X146855329Y-78835883D01*
X146841079Y-78816670D01*
X146828782Y-78796153D01*
X146818554Y-78774529D01*
X146810496Y-78752007D01*
X146804684Y-78728803D01*
X146801174Y-78705142D01*
X146800000Y-78681250D01*
X146800000Y-78193750D01*
X146801174Y-78169858D01*
X146804684Y-78146197D01*
X146810496Y-78122993D01*
X146818554Y-78100471D01*
X146828782Y-78078847D01*
X146841079Y-78058330D01*
X146855329Y-78039117D01*
X146871393Y-78021393D01*
X146889117Y-78005329D01*
X146908330Y-77991079D01*
X146928847Y-77978782D01*
X146950471Y-77968554D01*
X146972993Y-77960496D01*
X146996197Y-77954684D01*
X147019858Y-77951174D01*
X147043750Y-77950000D01*
X147956250Y-77950000D01*
X147980142Y-77951174D01*
X147980142Y-77951174D01*
G37*
D11*
X147500000Y-78437500D03*
D10*
G36*
X159480142Y-76076174D02*
G01*
X159503803Y-76079684D01*
X159527007Y-76085496D01*
X159549529Y-76093554D01*
X159571153Y-76103782D01*
X159591670Y-76116079D01*
X159610883Y-76130329D01*
X159628607Y-76146393D01*
X159644671Y-76164117D01*
X159658921Y-76183330D01*
X159671218Y-76203847D01*
X159681446Y-76225471D01*
X159689504Y-76247993D01*
X159695316Y-76271197D01*
X159698826Y-76294858D01*
X159700000Y-76318750D01*
X159700000Y-76806250D01*
X159698826Y-76830142D01*
X159695316Y-76853803D01*
X159689504Y-76877007D01*
X159681446Y-76899529D01*
X159671218Y-76921153D01*
X159658921Y-76941670D01*
X159644671Y-76960883D01*
X159628607Y-76978607D01*
X159610883Y-76994671D01*
X159591670Y-77008921D01*
X159571153Y-77021218D01*
X159549529Y-77031446D01*
X159527007Y-77039504D01*
X159503803Y-77045316D01*
X159480142Y-77048826D01*
X159456250Y-77050000D01*
X158543750Y-77050000D01*
X158519858Y-77048826D01*
X158496197Y-77045316D01*
X158472993Y-77039504D01*
X158450471Y-77031446D01*
X158428847Y-77021218D01*
X158408330Y-77008921D01*
X158389117Y-76994671D01*
X158371393Y-76978607D01*
X158355329Y-76960883D01*
X158341079Y-76941670D01*
X158328782Y-76921153D01*
X158318554Y-76899529D01*
X158310496Y-76877007D01*
X158304684Y-76853803D01*
X158301174Y-76830142D01*
X158300000Y-76806250D01*
X158300000Y-76318750D01*
X158301174Y-76294858D01*
X158304684Y-76271197D01*
X158310496Y-76247993D01*
X158318554Y-76225471D01*
X158328782Y-76203847D01*
X158341079Y-76183330D01*
X158355329Y-76164117D01*
X158371393Y-76146393D01*
X158389117Y-76130329D01*
X158408330Y-76116079D01*
X158428847Y-76103782D01*
X158450471Y-76093554D01*
X158472993Y-76085496D01*
X158496197Y-76079684D01*
X158519858Y-76076174D01*
X158543750Y-76075000D01*
X159456250Y-76075000D01*
X159480142Y-76076174D01*
X159480142Y-76076174D01*
G37*
D11*
X159000000Y-76562500D03*
D10*
G36*
X159480142Y-77951174D02*
G01*
X159503803Y-77954684D01*
X159527007Y-77960496D01*
X159549529Y-77968554D01*
X159571153Y-77978782D01*
X159591670Y-77991079D01*
X159610883Y-78005329D01*
X159628607Y-78021393D01*
X159644671Y-78039117D01*
X159658921Y-78058330D01*
X159671218Y-78078847D01*
X159681446Y-78100471D01*
X159689504Y-78122993D01*
X159695316Y-78146197D01*
X159698826Y-78169858D01*
X159700000Y-78193750D01*
X159700000Y-78681250D01*
X159698826Y-78705142D01*
X159695316Y-78728803D01*
X159689504Y-78752007D01*
X159681446Y-78774529D01*
X159671218Y-78796153D01*
X159658921Y-78816670D01*
X159644671Y-78835883D01*
X159628607Y-78853607D01*
X159610883Y-78869671D01*
X159591670Y-78883921D01*
X159571153Y-78896218D01*
X159549529Y-78906446D01*
X159527007Y-78914504D01*
X159503803Y-78920316D01*
X159480142Y-78923826D01*
X159456250Y-78925000D01*
X158543750Y-78925000D01*
X158519858Y-78923826D01*
X158496197Y-78920316D01*
X158472993Y-78914504D01*
X158450471Y-78906446D01*
X158428847Y-78896218D01*
X158408330Y-78883921D01*
X158389117Y-78869671D01*
X158371393Y-78853607D01*
X158355329Y-78835883D01*
X158341079Y-78816670D01*
X158328782Y-78796153D01*
X158318554Y-78774529D01*
X158310496Y-78752007D01*
X158304684Y-78728803D01*
X158301174Y-78705142D01*
X158300000Y-78681250D01*
X158300000Y-78193750D01*
X158301174Y-78169858D01*
X158304684Y-78146197D01*
X158310496Y-78122993D01*
X158318554Y-78100471D01*
X158328782Y-78078847D01*
X158341079Y-78058330D01*
X158355329Y-78039117D01*
X158371393Y-78021393D01*
X158389117Y-78005329D01*
X158408330Y-77991079D01*
X158428847Y-77978782D01*
X158450471Y-77968554D01*
X158472993Y-77960496D01*
X158496197Y-77954684D01*
X158519858Y-77951174D01*
X158543750Y-77950000D01*
X159456250Y-77950000D01*
X159480142Y-77951174D01*
X159480142Y-77951174D01*
G37*
D11*
X159000000Y-78437500D03*
D10*
G36*
X151480142Y-76076174D02*
G01*
X151503803Y-76079684D01*
X151527007Y-76085496D01*
X151549529Y-76093554D01*
X151571153Y-76103782D01*
X151591670Y-76116079D01*
X151610883Y-76130329D01*
X151628607Y-76146393D01*
X151644671Y-76164117D01*
X151658921Y-76183330D01*
X151671218Y-76203847D01*
X151681446Y-76225471D01*
X151689504Y-76247993D01*
X151695316Y-76271197D01*
X151698826Y-76294858D01*
X151700000Y-76318750D01*
X151700000Y-76806250D01*
X151698826Y-76830142D01*
X151695316Y-76853803D01*
X151689504Y-76877007D01*
X151681446Y-76899529D01*
X151671218Y-76921153D01*
X151658921Y-76941670D01*
X151644671Y-76960883D01*
X151628607Y-76978607D01*
X151610883Y-76994671D01*
X151591670Y-77008921D01*
X151571153Y-77021218D01*
X151549529Y-77031446D01*
X151527007Y-77039504D01*
X151503803Y-77045316D01*
X151480142Y-77048826D01*
X151456250Y-77050000D01*
X150543750Y-77050000D01*
X150519858Y-77048826D01*
X150496197Y-77045316D01*
X150472993Y-77039504D01*
X150450471Y-77031446D01*
X150428847Y-77021218D01*
X150408330Y-77008921D01*
X150389117Y-76994671D01*
X150371393Y-76978607D01*
X150355329Y-76960883D01*
X150341079Y-76941670D01*
X150328782Y-76921153D01*
X150318554Y-76899529D01*
X150310496Y-76877007D01*
X150304684Y-76853803D01*
X150301174Y-76830142D01*
X150300000Y-76806250D01*
X150300000Y-76318750D01*
X150301174Y-76294858D01*
X150304684Y-76271197D01*
X150310496Y-76247993D01*
X150318554Y-76225471D01*
X150328782Y-76203847D01*
X150341079Y-76183330D01*
X150355329Y-76164117D01*
X150371393Y-76146393D01*
X150389117Y-76130329D01*
X150408330Y-76116079D01*
X150428847Y-76103782D01*
X150450471Y-76093554D01*
X150472993Y-76085496D01*
X150496197Y-76079684D01*
X150519858Y-76076174D01*
X150543750Y-76075000D01*
X151456250Y-76075000D01*
X151480142Y-76076174D01*
X151480142Y-76076174D01*
G37*
D11*
X151000000Y-76562500D03*
D10*
G36*
X151480142Y-77951174D02*
G01*
X151503803Y-77954684D01*
X151527007Y-77960496D01*
X151549529Y-77968554D01*
X151571153Y-77978782D01*
X151591670Y-77991079D01*
X151610883Y-78005329D01*
X151628607Y-78021393D01*
X151644671Y-78039117D01*
X151658921Y-78058330D01*
X151671218Y-78078847D01*
X151681446Y-78100471D01*
X151689504Y-78122993D01*
X151695316Y-78146197D01*
X151698826Y-78169858D01*
X151700000Y-78193750D01*
X151700000Y-78681250D01*
X151698826Y-78705142D01*
X151695316Y-78728803D01*
X151689504Y-78752007D01*
X151681446Y-78774529D01*
X151671218Y-78796153D01*
X151658921Y-78816670D01*
X151644671Y-78835883D01*
X151628607Y-78853607D01*
X151610883Y-78869671D01*
X151591670Y-78883921D01*
X151571153Y-78896218D01*
X151549529Y-78906446D01*
X151527007Y-78914504D01*
X151503803Y-78920316D01*
X151480142Y-78923826D01*
X151456250Y-78925000D01*
X150543750Y-78925000D01*
X150519858Y-78923826D01*
X150496197Y-78920316D01*
X150472993Y-78914504D01*
X150450471Y-78906446D01*
X150428847Y-78896218D01*
X150408330Y-78883921D01*
X150389117Y-78869671D01*
X150371393Y-78853607D01*
X150355329Y-78835883D01*
X150341079Y-78816670D01*
X150328782Y-78796153D01*
X150318554Y-78774529D01*
X150310496Y-78752007D01*
X150304684Y-78728803D01*
X150301174Y-78705142D01*
X150300000Y-78681250D01*
X150300000Y-78193750D01*
X150301174Y-78169858D01*
X150304684Y-78146197D01*
X150310496Y-78122993D01*
X150318554Y-78100471D01*
X150328782Y-78078847D01*
X150341079Y-78058330D01*
X150355329Y-78039117D01*
X150371393Y-78021393D01*
X150389117Y-78005329D01*
X150408330Y-77991079D01*
X150428847Y-77978782D01*
X150450471Y-77968554D01*
X150472993Y-77960496D01*
X150496197Y-77954684D01*
X150519858Y-77951174D01*
X150543750Y-77950000D01*
X151456250Y-77950000D01*
X151480142Y-77951174D01*
X151480142Y-77951174D01*
G37*
D11*
X151000000Y-78437500D03*
D10*
G36*
X157480142Y-76076174D02*
G01*
X157503803Y-76079684D01*
X157527007Y-76085496D01*
X157549529Y-76093554D01*
X157571153Y-76103782D01*
X157591670Y-76116079D01*
X157610883Y-76130329D01*
X157628607Y-76146393D01*
X157644671Y-76164117D01*
X157658921Y-76183330D01*
X157671218Y-76203847D01*
X157681446Y-76225471D01*
X157689504Y-76247993D01*
X157695316Y-76271197D01*
X157698826Y-76294858D01*
X157700000Y-76318750D01*
X157700000Y-76806250D01*
X157698826Y-76830142D01*
X157695316Y-76853803D01*
X157689504Y-76877007D01*
X157681446Y-76899529D01*
X157671218Y-76921153D01*
X157658921Y-76941670D01*
X157644671Y-76960883D01*
X157628607Y-76978607D01*
X157610883Y-76994671D01*
X157591670Y-77008921D01*
X157571153Y-77021218D01*
X157549529Y-77031446D01*
X157527007Y-77039504D01*
X157503803Y-77045316D01*
X157480142Y-77048826D01*
X157456250Y-77050000D01*
X156543750Y-77050000D01*
X156519858Y-77048826D01*
X156496197Y-77045316D01*
X156472993Y-77039504D01*
X156450471Y-77031446D01*
X156428847Y-77021218D01*
X156408330Y-77008921D01*
X156389117Y-76994671D01*
X156371393Y-76978607D01*
X156355329Y-76960883D01*
X156341079Y-76941670D01*
X156328782Y-76921153D01*
X156318554Y-76899529D01*
X156310496Y-76877007D01*
X156304684Y-76853803D01*
X156301174Y-76830142D01*
X156300000Y-76806250D01*
X156300000Y-76318750D01*
X156301174Y-76294858D01*
X156304684Y-76271197D01*
X156310496Y-76247993D01*
X156318554Y-76225471D01*
X156328782Y-76203847D01*
X156341079Y-76183330D01*
X156355329Y-76164117D01*
X156371393Y-76146393D01*
X156389117Y-76130329D01*
X156408330Y-76116079D01*
X156428847Y-76103782D01*
X156450471Y-76093554D01*
X156472993Y-76085496D01*
X156496197Y-76079684D01*
X156519858Y-76076174D01*
X156543750Y-76075000D01*
X157456250Y-76075000D01*
X157480142Y-76076174D01*
X157480142Y-76076174D01*
G37*
D11*
X157000000Y-76562500D03*
D10*
G36*
X157480142Y-77951174D02*
G01*
X157503803Y-77954684D01*
X157527007Y-77960496D01*
X157549529Y-77968554D01*
X157571153Y-77978782D01*
X157591670Y-77991079D01*
X157610883Y-78005329D01*
X157628607Y-78021393D01*
X157644671Y-78039117D01*
X157658921Y-78058330D01*
X157671218Y-78078847D01*
X157681446Y-78100471D01*
X157689504Y-78122993D01*
X157695316Y-78146197D01*
X157698826Y-78169858D01*
X157700000Y-78193750D01*
X157700000Y-78681250D01*
X157698826Y-78705142D01*
X157695316Y-78728803D01*
X157689504Y-78752007D01*
X157681446Y-78774529D01*
X157671218Y-78796153D01*
X157658921Y-78816670D01*
X157644671Y-78835883D01*
X157628607Y-78853607D01*
X157610883Y-78869671D01*
X157591670Y-78883921D01*
X157571153Y-78896218D01*
X157549529Y-78906446D01*
X157527007Y-78914504D01*
X157503803Y-78920316D01*
X157480142Y-78923826D01*
X157456250Y-78925000D01*
X156543750Y-78925000D01*
X156519858Y-78923826D01*
X156496197Y-78920316D01*
X156472993Y-78914504D01*
X156450471Y-78906446D01*
X156428847Y-78896218D01*
X156408330Y-78883921D01*
X156389117Y-78869671D01*
X156371393Y-78853607D01*
X156355329Y-78835883D01*
X156341079Y-78816670D01*
X156328782Y-78796153D01*
X156318554Y-78774529D01*
X156310496Y-78752007D01*
X156304684Y-78728803D01*
X156301174Y-78705142D01*
X156300000Y-78681250D01*
X156300000Y-78193750D01*
X156301174Y-78169858D01*
X156304684Y-78146197D01*
X156310496Y-78122993D01*
X156318554Y-78100471D01*
X156328782Y-78078847D01*
X156341079Y-78058330D01*
X156355329Y-78039117D01*
X156371393Y-78021393D01*
X156389117Y-78005329D01*
X156408330Y-77991079D01*
X156428847Y-77978782D01*
X156450471Y-77968554D01*
X156472993Y-77960496D01*
X156496197Y-77954684D01*
X156519858Y-77951174D01*
X156543750Y-77950000D01*
X157456250Y-77950000D01*
X157480142Y-77951174D01*
X157480142Y-77951174D01*
G37*
D11*
X157000000Y-78437500D03*
D10*
G36*
X153283428Y-78125782D02*
G01*
X153299202Y-78128122D01*
X153314671Y-78131997D01*
X153329686Y-78137370D01*
X153344102Y-78144188D01*
X153357780Y-78152386D01*
X153370589Y-78161886D01*
X153382405Y-78172595D01*
X153393114Y-78184411D01*
X153402614Y-78197220D01*
X153410812Y-78210898D01*
X153417630Y-78225314D01*
X153423003Y-78240329D01*
X153426878Y-78255798D01*
X153429218Y-78271572D01*
X153430000Y-78287500D01*
X153430000Y-78612500D01*
X153429218Y-78628428D01*
X153426878Y-78644202D01*
X153423003Y-78659671D01*
X153417630Y-78674686D01*
X153410812Y-78689102D01*
X153402614Y-78702780D01*
X153393114Y-78715589D01*
X153382405Y-78727405D01*
X153370589Y-78738114D01*
X153357780Y-78747614D01*
X153344102Y-78755812D01*
X153329686Y-78762630D01*
X153314671Y-78768003D01*
X153299202Y-78771878D01*
X153283428Y-78774218D01*
X153267500Y-78775000D01*
X152532500Y-78775000D01*
X152516572Y-78774218D01*
X152500798Y-78771878D01*
X152485329Y-78768003D01*
X152470314Y-78762630D01*
X152455898Y-78755812D01*
X152442220Y-78747614D01*
X152429411Y-78738114D01*
X152417595Y-78727405D01*
X152406886Y-78715589D01*
X152397386Y-78702780D01*
X152389188Y-78689102D01*
X152382370Y-78674686D01*
X152376997Y-78659671D01*
X152373122Y-78644202D01*
X152370782Y-78628428D01*
X152370000Y-78612500D01*
X152370000Y-78287500D01*
X152370782Y-78271572D01*
X152373122Y-78255798D01*
X152376997Y-78240329D01*
X152382370Y-78225314D01*
X152389188Y-78210898D01*
X152397386Y-78197220D01*
X152406886Y-78184411D01*
X152417595Y-78172595D01*
X152429411Y-78161886D01*
X152442220Y-78152386D01*
X152455898Y-78144188D01*
X152470314Y-78137370D01*
X152485329Y-78131997D01*
X152500798Y-78128122D01*
X152516572Y-78125782D01*
X152532500Y-78125000D01*
X153267500Y-78125000D01*
X153283428Y-78125782D01*
X153283428Y-78125782D01*
G37*
D12*
X152900000Y-78450000D03*
D10*
G36*
X153283428Y-76225782D02*
G01*
X153299202Y-76228122D01*
X153314671Y-76231997D01*
X153329686Y-76237370D01*
X153344102Y-76244188D01*
X153357780Y-76252386D01*
X153370589Y-76261886D01*
X153382405Y-76272595D01*
X153393114Y-76284411D01*
X153402614Y-76297220D01*
X153410812Y-76310898D01*
X153417630Y-76325314D01*
X153423003Y-76340329D01*
X153426878Y-76355798D01*
X153429218Y-76371572D01*
X153430000Y-76387500D01*
X153430000Y-76712500D01*
X153429218Y-76728428D01*
X153426878Y-76744202D01*
X153423003Y-76759671D01*
X153417630Y-76774686D01*
X153410812Y-76789102D01*
X153402614Y-76802780D01*
X153393114Y-76815589D01*
X153382405Y-76827405D01*
X153370589Y-76838114D01*
X153357780Y-76847614D01*
X153344102Y-76855812D01*
X153329686Y-76862630D01*
X153314671Y-76868003D01*
X153299202Y-76871878D01*
X153283428Y-76874218D01*
X153267500Y-76875000D01*
X152532500Y-76875000D01*
X152516572Y-76874218D01*
X152500798Y-76871878D01*
X152485329Y-76868003D01*
X152470314Y-76862630D01*
X152455898Y-76855812D01*
X152442220Y-76847614D01*
X152429411Y-76838114D01*
X152417595Y-76827405D01*
X152406886Y-76815589D01*
X152397386Y-76802780D01*
X152389188Y-76789102D01*
X152382370Y-76774686D01*
X152376997Y-76759671D01*
X152373122Y-76744202D01*
X152370782Y-76728428D01*
X152370000Y-76712500D01*
X152370000Y-76387500D01*
X152370782Y-76371572D01*
X152373122Y-76355798D01*
X152376997Y-76340329D01*
X152382370Y-76325314D01*
X152389188Y-76310898D01*
X152397386Y-76297220D01*
X152406886Y-76284411D01*
X152417595Y-76272595D01*
X152429411Y-76261886D01*
X152442220Y-76252386D01*
X152455898Y-76244188D01*
X152470314Y-76237370D01*
X152485329Y-76231997D01*
X152500798Y-76228122D01*
X152516572Y-76225782D01*
X152532500Y-76225000D01*
X153267500Y-76225000D01*
X153283428Y-76225782D01*
X153283428Y-76225782D01*
G37*
D12*
X152900000Y-76550000D03*
D10*
G36*
X155483428Y-76225782D02*
G01*
X155499202Y-76228122D01*
X155514671Y-76231997D01*
X155529686Y-76237370D01*
X155544102Y-76244188D01*
X155557780Y-76252386D01*
X155570589Y-76261886D01*
X155582405Y-76272595D01*
X155593114Y-76284411D01*
X155602614Y-76297220D01*
X155610812Y-76310898D01*
X155617630Y-76325314D01*
X155623003Y-76340329D01*
X155626878Y-76355798D01*
X155629218Y-76371572D01*
X155630000Y-76387500D01*
X155630000Y-76712500D01*
X155629218Y-76728428D01*
X155626878Y-76744202D01*
X155623003Y-76759671D01*
X155617630Y-76774686D01*
X155610812Y-76789102D01*
X155602614Y-76802780D01*
X155593114Y-76815589D01*
X155582405Y-76827405D01*
X155570589Y-76838114D01*
X155557780Y-76847614D01*
X155544102Y-76855812D01*
X155529686Y-76862630D01*
X155514671Y-76868003D01*
X155499202Y-76871878D01*
X155483428Y-76874218D01*
X155467500Y-76875000D01*
X154732500Y-76875000D01*
X154716572Y-76874218D01*
X154700798Y-76871878D01*
X154685329Y-76868003D01*
X154670314Y-76862630D01*
X154655898Y-76855812D01*
X154642220Y-76847614D01*
X154629411Y-76838114D01*
X154617595Y-76827405D01*
X154606886Y-76815589D01*
X154597386Y-76802780D01*
X154589188Y-76789102D01*
X154582370Y-76774686D01*
X154576997Y-76759671D01*
X154573122Y-76744202D01*
X154570782Y-76728428D01*
X154570000Y-76712500D01*
X154570000Y-76387500D01*
X154570782Y-76371572D01*
X154573122Y-76355798D01*
X154576997Y-76340329D01*
X154582370Y-76325314D01*
X154589188Y-76310898D01*
X154597386Y-76297220D01*
X154606886Y-76284411D01*
X154617595Y-76272595D01*
X154629411Y-76261886D01*
X154642220Y-76252386D01*
X154655898Y-76244188D01*
X154670314Y-76237370D01*
X154685329Y-76231997D01*
X154700798Y-76228122D01*
X154716572Y-76225782D01*
X154732500Y-76225000D01*
X155467500Y-76225000D01*
X155483428Y-76225782D01*
X155483428Y-76225782D01*
G37*
D12*
X155100000Y-76550000D03*
D10*
G36*
X155483428Y-77175782D02*
G01*
X155499202Y-77178122D01*
X155514671Y-77181997D01*
X155529686Y-77187370D01*
X155544102Y-77194188D01*
X155557780Y-77202386D01*
X155570589Y-77211886D01*
X155582405Y-77222595D01*
X155593114Y-77234411D01*
X155602614Y-77247220D01*
X155610812Y-77260898D01*
X155617630Y-77275314D01*
X155623003Y-77290329D01*
X155626878Y-77305798D01*
X155629218Y-77321572D01*
X155630000Y-77337500D01*
X155630000Y-77662500D01*
X155629218Y-77678428D01*
X155626878Y-77694202D01*
X155623003Y-77709671D01*
X155617630Y-77724686D01*
X155610812Y-77739102D01*
X155602614Y-77752780D01*
X155593114Y-77765589D01*
X155582405Y-77777405D01*
X155570589Y-77788114D01*
X155557780Y-77797614D01*
X155544102Y-77805812D01*
X155529686Y-77812630D01*
X155514671Y-77818003D01*
X155499202Y-77821878D01*
X155483428Y-77824218D01*
X155467500Y-77825000D01*
X154732500Y-77825000D01*
X154716572Y-77824218D01*
X154700798Y-77821878D01*
X154685329Y-77818003D01*
X154670314Y-77812630D01*
X154655898Y-77805812D01*
X154642220Y-77797614D01*
X154629411Y-77788114D01*
X154617595Y-77777405D01*
X154606886Y-77765589D01*
X154597386Y-77752780D01*
X154589188Y-77739102D01*
X154582370Y-77724686D01*
X154576997Y-77709671D01*
X154573122Y-77694202D01*
X154570782Y-77678428D01*
X154570000Y-77662500D01*
X154570000Y-77337500D01*
X154570782Y-77321572D01*
X154573122Y-77305798D01*
X154576997Y-77290329D01*
X154582370Y-77275314D01*
X154589188Y-77260898D01*
X154597386Y-77247220D01*
X154606886Y-77234411D01*
X154617595Y-77222595D01*
X154629411Y-77211886D01*
X154642220Y-77202386D01*
X154655898Y-77194188D01*
X154670314Y-77187370D01*
X154685329Y-77181997D01*
X154700798Y-77178122D01*
X154716572Y-77175782D01*
X154732500Y-77175000D01*
X155467500Y-77175000D01*
X155483428Y-77175782D01*
X155483428Y-77175782D01*
G37*
D12*
X155100000Y-77500000D03*
D10*
G36*
X155483428Y-78125782D02*
G01*
X155499202Y-78128122D01*
X155514671Y-78131997D01*
X155529686Y-78137370D01*
X155544102Y-78144188D01*
X155557780Y-78152386D01*
X155570589Y-78161886D01*
X155582405Y-78172595D01*
X155593114Y-78184411D01*
X155602614Y-78197220D01*
X155610812Y-78210898D01*
X155617630Y-78225314D01*
X155623003Y-78240329D01*
X155626878Y-78255798D01*
X155629218Y-78271572D01*
X155630000Y-78287500D01*
X155630000Y-78612500D01*
X155629218Y-78628428D01*
X155626878Y-78644202D01*
X155623003Y-78659671D01*
X155617630Y-78674686D01*
X155610812Y-78689102D01*
X155602614Y-78702780D01*
X155593114Y-78715589D01*
X155582405Y-78727405D01*
X155570589Y-78738114D01*
X155557780Y-78747614D01*
X155544102Y-78755812D01*
X155529686Y-78762630D01*
X155514671Y-78768003D01*
X155499202Y-78771878D01*
X155483428Y-78774218D01*
X155467500Y-78775000D01*
X154732500Y-78775000D01*
X154716572Y-78774218D01*
X154700798Y-78771878D01*
X154685329Y-78768003D01*
X154670314Y-78762630D01*
X154655898Y-78755812D01*
X154642220Y-78747614D01*
X154629411Y-78738114D01*
X154617595Y-78727405D01*
X154606886Y-78715589D01*
X154597386Y-78702780D01*
X154589188Y-78689102D01*
X154582370Y-78674686D01*
X154576997Y-78659671D01*
X154573122Y-78644202D01*
X154570782Y-78628428D01*
X154570000Y-78612500D01*
X154570000Y-78287500D01*
X154570782Y-78271572D01*
X154573122Y-78255798D01*
X154576997Y-78240329D01*
X154582370Y-78225314D01*
X154589188Y-78210898D01*
X154597386Y-78197220D01*
X154606886Y-78184411D01*
X154617595Y-78172595D01*
X154629411Y-78161886D01*
X154642220Y-78152386D01*
X154655898Y-78144188D01*
X154670314Y-78137370D01*
X154685329Y-78131997D01*
X154700798Y-78128122D01*
X154716572Y-78125782D01*
X154732500Y-78125000D01*
X155467500Y-78125000D01*
X155483428Y-78125782D01*
X155483428Y-78125782D01*
G37*
D12*
X155100000Y-78450000D03*
M02*
