G04 #@! TF.GenerationSoftware,KiCad,Pcbnew,(5.1.2)-2*
G04 #@! TF.CreationDate,2020-02-10T16:48:03+01:00*
G04 #@! TF.ProjectId,OpenHO_Engine,4f70656e-484f-45f4-956e-67696e652e6b,rev?*
G04 #@! TF.SameCoordinates,Original*
G04 #@! TF.FileFunction,Paste,Bot*
G04 #@! TF.FilePolarity,Positive*
%FSLAX46Y46*%
G04 Gerber Fmt 4.6, Leading zero omitted, Abs format (unit mm)*
G04 Created by KiCad (PCBNEW (5.1.2)-2) date 2020-02-10 16:48:03*
%MOMM*%
%LPD*%
G04 APERTURE LIST*
%ADD10C,0.100000*%
%ADD11C,0.975000*%
%ADD12R,1.200000X0.900000*%
G04 APERTURE END LIST*
D10*
G36*
X166205142Y-67301174D02*
G01*
X166228803Y-67304684D01*
X166252007Y-67310496D01*
X166274529Y-67318554D01*
X166296153Y-67328782D01*
X166316670Y-67341079D01*
X166335883Y-67355329D01*
X166353607Y-67371393D01*
X166369671Y-67389117D01*
X166383921Y-67408330D01*
X166396218Y-67428847D01*
X166406446Y-67450471D01*
X166414504Y-67472993D01*
X166420316Y-67496197D01*
X166423826Y-67519858D01*
X166425000Y-67543750D01*
X166425000Y-68456250D01*
X166423826Y-68480142D01*
X166420316Y-68503803D01*
X166414504Y-68527007D01*
X166406446Y-68549529D01*
X166396218Y-68571153D01*
X166383921Y-68591670D01*
X166369671Y-68610883D01*
X166353607Y-68628607D01*
X166335883Y-68644671D01*
X166316670Y-68658921D01*
X166296153Y-68671218D01*
X166274529Y-68681446D01*
X166252007Y-68689504D01*
X166228803Y-68695316D01*
X166205142Y-68698826D01*
X166181250Y-68700000D01*
X165693750Y-68700000D01*
X165669858Y-68698826D01*
X165646197Y-68695316D01*
X165622993Y-68689504D01*
X165600471Y-68681446D01*
X165578847Y-68671218D01*
X165558330Y-68658921D01*
X165539117Y-68644671D01*
X165521393Y-68628607D01*
X165505329Y-68610883D01*
X165491079Y-68591670D01*
X165478782Y-68571153D01*
X165468554Y-68549529D01*
X165460496Y-68527007D01*
X165454684Y-68503803D01*
X165451174Y-68480142D01*
X165450000Y-68456250D01*
X165450000Y-67543750D01*
X165451174Y-67519858D01*
X165454684Y-67496197D01*
X165460496Y-67472993D01*
X165468554Y-67450471D01*
X165478782Y-67428847D01*
X165491079Y-67408330D01*
X165505329Y-67389117D01*
X165521393Y-67371393D01*
X165539117Y-67355329D01*
X165558330Y-67341079D01*
X165578847Y-67328782D01*
X165600471Y-67318554D01*
X165622993Y-67310496D01*
X165646197Y-67304684D01*
X165669858Y-67301174D01*
X165693750Y-67300000D01*
X166181250Y-67300000D01*
X166205142Y-67301174D01*
X166205142Y-67301174D01*
G37*
D11*
X165937500Y-68000000D03*
D10*
G36*
X164330142Y-67301174D02*
G01*
X164353803Y-67304684D01*
X164377007Y-67310496D01*
X164399529Y-67318554D01*
X164421153Y-67328782D01*
X164441670Y-67341079D01*
X164460883Y-67355329D01*
X164478607Y-67371393D01*
X164494671Y-67389117D01*
X164508921Y-67408330D01*
X164521218Y-67428847D01*
X164531446Y-67450471D01*
X164539504Y-67472993D01*
X164545316Y-67496197D01*
X164548826Y-67519858D01*
X164550000Y-67543750D01*
X164550000Y-68456250D01*
X164548826Y-68480142D01*
X164545316Y-68503803D01*
X164539504Y-68527007D01*
X164531446Y-68549529D01*
X164521218Y-68571153D01*
X164508921Y-68591670D01*
X164494671Y-68610883D01*
X164478607Y-68628607D01*
X164460883Y-68644671D01*
X164441670Y-68658921D01*
X164421153Y-68671218D01*
X164399529Y-68681446D01*
X164377007Y-68689504D01*
X164353803Y-68695316D01*
X164330142Y-68698826D01*
X164306250Y-68700000D01*
X163818750Y-68700000D01*
X163794858Y-68698826D01*
X163771197Y-68695316D01*
X163747993Y-68689504D01*
X163725471Y-68681446D01*
X163703847Y-68671218D01*
X163683330Y-68658921D01*
X163664117Y-68644671D01*
X163646393Y-68628607D01*
X163630329Y-68610883D01*
X163616079Y-68591670D01*
X163603782Y-68571153D01*
X163593554Y-68549529D01*
X163585496Y-68527007D01*
X163579684Y-68503803D01*
X163576174Y-68480142D01*
X163575000Y-68456250D01*
X163575000Y-67543750D01*
X163576174Y-67519858D01*
X163579684Y-67496197D01*
X163585496Y-67472993D01*
X163593554Y-67450471D01*
X163603782Y-67428847D01*
X163616079Y-67408330D01*
X163630329Y-67389117D01*
X163646393Y-67371393D01*
X163664117Y-67355329D01*
X163683330Y-67341079D01*
X163703847Y-67328782D01*
X163725471Y-67318554D01*
X163747993Y-67310496D01*
X163771197Y-67304684D01*
X163794858Y-67301174D01*
X163818750Y-67300000D01*
X164306250Y-67300000D01*
X164330142Y-67301174D01*
X164330142Y-67301174D01*
G37*
D11*
X164062500Y-68000000D03*
D10*
G36*
X161205142Y-67301174D02*
G01*
X161228803Y-67304684D01*
X161252007Y-67310496D01*
X161274529Y-67318554D01*
X161296153Y-67328782D01*
X161316670Y-67341079D01*
X161335883Y-67355329D01*
X161353607Y-67371393D01*
X161369671Y-67389117D01*
X161383921Y-67408330D01*
X161396218Y-67428847D01*
X161406446Y-67450471D01*
X161414504Y-67472993D01*
X161420316Y-67496197D01*
X161423826Y-67519858D01*
X161425000Y-67543750D01*
X161425000Y-68456250D01*
X161423826Y-68480142D01*
X161420316Y-68503803D01*
X161414504Y-68527007D01*
X161406446Y-68549529D01*
X161396218Y-68571153D01*
X161383921Y-68591670D01*
X161369671Y-68610883D01*
X161353607Y-68628607D01*
X161335883Y-68644671D01*
X161316670Y-68658921D01*
X161296153Y-68671218D01*
X161274529Y-68681446D01*
X161252007Y-68689504D01*
X161228803Y-68695316D01*
X161205142Y-68698826D01*
X161181250Y-68700000D01*
X160693750Y-68700000D01*
X160669858Y-68698826D01*
X160646197Y-68695316D01*
X160622993Y-68689504D01*
X160600471Y-68681446D01*
X160578847Y-68671218D01*
X160558330Y-68658921D01*
X160539117Y-68644671D01*
X160521393Y-68628607D01*
X160505329Y-68610883D01*
X160491079Y-68591670D01*
X160478782Y-68571153D01*
X160468554Y-68549529D01*
X160460496Y-68527007D01*
X160454684Y-68503803D01*
X160451174Y-68480142D01*
X160450000Y-68456250D01*
X160450000Y-67543750D01*
X160451174Y-67519858D01*
X160454684Y-67496197D01*
X160460496Y-67472993D01*
X160468554Y-67450471D01*
X160478782Y-67428847D01*
X160491079Y-67408330D01*
X160505329Y-67389117D01*
X160521393Y-67371393D01*
X160539117Y-67355329D01*
X160558330Y-67341079D01*
X160578847Y-67328782D01*
X160600471Y-67318554D01*
X160622993Y-67310496D01*
X160646197Y-67304684D01*
X160669858Y-67301174D01*
X160693750Y-67300000D01*
X161181250Y-67300000D01*
X161205142Y-67301174D01*
X161205142Y-67301174D01*
G37*
D11*
X160937500Y-68000000D03*
D10*
G36*
X159330142Y-67301174D02*
G01*
X159353803Y-67304684D01*
X159377007Y-67310496D01*
X159399529Y-67318554D01*
X159421153Y-67328782D01*
X159441670Y-67341079D01*
X159460883Y-67355329D01*
X159478607Y-67371393D01*
X159494671Y-67389117D01*
X159508921Y-67408330D01*
X159521218Y-67428847D01*
X159531446Y-67450471D01*
X159539504Y-67472993D01*
X159545316Y-67496197D01*
X159548826Y-67519858D01*
X159550000Y-67543750D01*
X159550000Y-68456250D01*
X159548826Y-68480142D01*
X159545316Y-68503803D01*
X159539504Y-68527007D01*
X159531446Y-68549529D01*
X159521218Y-68571153D01*
X159508921Y-68591670D01*
X159494671Y-68610883D01*
X159478607Y-68628607D01*
X159460883Y-68644671D01*
X159441670Y-68658921D01*
X159421153Y-68671218D01*
X159399529Y-68681446D01*
X159377007Y-68689504D01*
X159353803Y-68695316D01*
X159330142Y-68698826D01*
X159306250Y-68700000D01*
X158818750Y-68700000D01*
X158794858Y-68698826D01*
X158771197Y-68695316D01*
X158747993Y-68689504D01*
X158725471Y-68681446D01*
X158703847Y-68671218D01*
X158683330Y-68658921D01*
X158664117Y-68644671D01*
X158646393Y-68628607D01*
X158630329Y-68610883D01*
X158616079Y-68591670D01*
X158603782Y-68571153D01*
X158593554Y-68549529D01*
X158585496Y-68527007D01*
X158579684Y-68503803D01*
X158576174Y-68480142D01*
X158575000Y-68456250D01*
X158575000Y-67543750D01*
X158576174Y-67519858D01*
X158579684Y-67496197D01*
X158585496Y-67472993D01*
X158593554Y-67450471D01*
X158603782Y-67428847D01*
X158616079Y-67408330D01*
X158630329Y-67389117D01*
X158646393Y-67371393D01*
X158664117Y-67355329D01*
X158683330Y-67341079D01*
X158703847Y-67328782D01*
X158725471Y-67318554D01*
X158747993Y-67310496D01*
X158771197Y-67304684D01*
X158794858Y-67301174D01*
X158818750Y-67300000D01*
X159306250Y-67300000D01*
X159330142Y-67301174D01*
X159330142Y-67301174D01*
G37*
D11*
X159062500Y-68000000D03*
D10*
G36*
X141205142Y-67301174D02*
G01*
X141228803Y-67304684D01*
X141252007Y-67310496D01*
X141274529Y-67318554D01*
X141296153Y-67328782D01*
X141316670Y-67341079D01*
X141335883Y-67355329D01*
X141353607Y-67371393D01*
X141369671Y-67389117D01*
X141383921Y-67408330D01*
X141396218Y-67428847D01*
X141406446Y-67450471D01*
X141414504Y-67472993D01*
X141420316Y-67496197D01*
X141423826Y-67519858D01*
X141425000Y-67543750D01*
X141425000Y-68456250D01*
X141423826Y-68480142D01*
X141420316Y-68503803D01*
X141414504Y-68527007D01*
X141406446Y-68549529D01*
X141396218Y-68571153D01*
X141383921Y-68591670D01*
X141369671Y-68610883D01*
X141353607Y-68628607D01*
X141335883Y-68644671D01*
X141316670Y-68658921D01*
X141296153Y-68671218D01*
X141274529Y-68681446D01*
X141252007Y-68689504D01*
X141228803Y-68695316D01*
X141205142Y-68698826D01*
X141181250Y-68700000D01*
X140693750Y-68700000D01*
X140669858Y-68698826D01*
X140646197Y-68695316D01*
X140622993Y-68689504D01*
X140600471Y-68681446D01*
X140578847Y-68671218D01*
X140558330Y-68658921D01*
X140539117Y-68644671D01*
X140521393Y-68628607D01*
X140505329Y-68610883D01*
X140491079Y-68591670D01*
X140478782Y-68571153D01*
X140468554Y-68549529D01*
X140460496Y-68527007D01*
X140454684Y-68503803D01*
X140451174Y-68480142D01*
X140450000Y-68456250D01*
X140450000Y-67543750D01*
X140451174Y-67519858D01*
X140454684Y-67496197D01*
X140460496Y-67472993D01*
X140468554Y-67450471D01*
X140478782Y-67428847D01*
X140491079Y-67408330D01*
X140505329Y-67389117D01*
X140521393Y-67371393D01*
X140539117Y-67355329D01*
X140558330Y-67341079D01*
X140578847Y-67328782D01*
X140600471Y-67318554D01*
X140622993Y-67310496D01*
X140646197Y-67304684D01*
X140669858Y-67301174D01*
X140693750Y-67300000D01*
X141181250Y-67300000D01*
X141205142Y-67301174D01*
X141205142Y-67301174D01*
G37*
D11*
X140937500Y-68000000D03*
D10*
G36*
X139330142Y-67301174D02*
G01*
X139353803Y-67304684D01*
X139377007Y-67310496D01*
X139399529Y-67318554D01*
X139421153Y-67328782D01*
X139441670Y-67341079D01*
X139460883Y-67355329D01*
X139478607Y-67371393D01*
X139494671Y-67389117D01*
X139508921Y-67408330D01*
X139521218Y-67428847D01*
X139531446Y-67450471D01*
X139539504Y-67472993D01*
X139545316Y-67496197D01*
X139548826Y-67519858D01*
X139550000Y-67543750D01*
X139550000Y-68456250D01*
X139548826Y-68480142D01*
X139545316Y-68503803D01*
X139539504Y-68527007D01*
X139531446Y-68549529D01*
X139521218Y-68571153D01*
X139508921Y-68591670D01*
X139494671Y-68610883D01*
X139478607Y-68628607D01*
X139460883Y-68644671D01*
X139441670Y-68658921D01*
X139421153Y-68671218D01*
X139399529Y-68681446D01*
X139377007Y-68689504D01*
X139353803Y-68695316D01*
X139330142Y-68698826D01*
X139306250Y-68700000D01*
X138818750Y-68700000D01*
X138794858Y-68698826D01*
X138771197Y-68695316D01*
X138747993Y-68689504D01*
X138725471Y-68681446D01*
X138703847Y-68671218D01*
X138683330Y-68658921D01*
X138664117Y-68644671D01*
X138646393Y-68628607D01*
X138630329Y-68610883D01*
X138616079Y-68591670D01*
X138603782Y-68571153D01*
X138593554Y-68549529D01*
X138585496Y-68527007D01*
X138579684Y-68503803D01*
X138576174Y-68480142D01*
X138575000Y-68456250D01*
X138575000Y-67543750D01*
X138576174Y-67519858D01*
X138579684Y-67496197D01*
X138585496Y-67472993D01*
X138593554Y-67450471D01*
X138603782Y-67428847D01*
X138616079Y-67408330D01*
X138630329Y-67389117D01*
X138646393Y-67371393D01*
X138664117Y-67355329D01*
X138683330Y-67341079D01*
X138703847Y-67328782D01*
X138725471Y-67318554D01*
X138747993Y-67310496D01*
X138771197Y-67304684D01*
X138794858Y-67301174D01*
X138818750Y-67300000D01*
X139306250Y-67300000D01*
X139330142Y-67301174D01*
X139330142Y-67301174D01*
G37*
D11*
X139062500Y-68000000D03*
D10*
G36*
X136205142Y-67301174D02*
G01*
X136228803Y-67304684D01*
X136252007Y-67310496D01*
X136274529Y-67318554D01*
X136296153Y-67328782D01*
X136316670Y-67341079D01*
X136335883Y-67355329D01*
X136353607Y-67371393D01*
X136369671Y-67389117D01*
X136383921Y-67408330D01*
X136396218Y-67428847D01*
X136406446Y-67450471D01*
X136414504Y-67472993D01*
X136420316Y-67496197D01*
X136423826Y-67519858D01*
X136425000Y-67543750D01*
X136425000Y-68456250D01*
X136423826Y-68480142D01*
X136420316Y-68503803D01*
X136414504Y-68527007D01*
X136406446Y-68549529D01*
X136396218Y-68571153D01*
X136383921Y-68591670D01*
X136369671Y-68610883D01*
X136353607Y-68628607D01*
X136335883Y-68644671D01*
X136316670Y-68658921D01*
X136296153Y-68671218D01*
X136274529Y-68681446D01*
X136252007Y-68689504D01*
X136228803Y-68695316D01*
X136205142Y-68698826D01*
X136181250Y-68700000D01*
X135693750Y-68700000D01*
X135669858Y-68698826D01*
X135646197Y-68695316D01*
X135622993Y-68689504D01*
X135600471Y-68681446D01*
X135578847Y-68671218D01*
X135558330Y-68658921D01*
X135539117Y-68644671D01*
X135521393Y-68628607D01*
X135505329Y-68610883D01*
X135491079Y-68591670D01*
X135478782Y-68571153D01*
X135468554Y-68549529D01*
X135460496Y-68527007D01*
X135454684Y-68503803D01*
X135451174Y-68480142D01*
X135450000Y-68456250D01*
X135450000Y-67543750D01*
X135451174Y-67519858D01*
X135454684Y-67496197D01*
X135460496Y-67472993D01*
X135468554Y-67450471D01*
X135478782Y-67428847D01*
X135491079Y-67408330D01*
X135505329Y-67389117D01*
X135521393Y-67371393D01*
X135539117Y-67355329D01*
X135558330Y-67341079D01*
X135578847Y-67328782D01*
X135600471Y-67318554D01*
X135622993Y-67310496D01*
X135646197Y-67304684D01*
X135669858Y-67301174D01*
X135693750Y-67300000D01*
X136181250Y-67300000D01*
X136205142Y-67301174D01*
X136205142Y-67301174D01*
G37*
D11*
X135937500Y-68000000D03*
D10*
G36*
X134330142Y-67301174D02*
G01*
X134353803Y-67304684D01*
X134377007Y-67310496D01*
X134399529Y-67318554D01*
X134421153Y-67328782D01*
X134441670Y-67341079D01*
X134460883Y-67355329D01*
X134478607Y-67371393D01*
X134494671Y-67389117D01*
X134508921Y-67408330D01*
X134521218Y-67428847D01*
X134531446Y-67450471D01*
X134539504Y-67472993D01*
X134545316Y-67496197D01*
X134548826Y-67519858D01*
X134550000Y-67543750D01*
X134550000Y-68456250D01*
X134548826Y-68480142D01*
X134545316Y-68503803D01*
X134539504Y-68527007D01*
X134531446Y-68549529D01*
X134521218Y-68571153D01*
X134508921Y-68591670D01*
X134494671Y-68610883D01*
X134478607Y-68628607D01*
X134460883Y-68644671D01*
X134441670Y-68658921D01*
X134421153Y-68671218D01*
X134399529Y-68681446D01*
X134377007Y-68689504D01*
X134353803Y-68695316D01*
X134330142Y-68698826D01*
X134306250Y-68700000D01*
X133818750Y-68700000D01*
X133794858Y-68698826D01*
X133771197Y-68695316D01*
X133747993Y-68689504D01*
X133725471Y-68681446D01*
X133703847Y-68671218D01*
X133683330Y-68658921D01*
X133664117Y-68644671D01*
X133646393Y-68628607D01*
X133630329Y-68610883D01*
X133616079Y-68591670D01*
X133603782Y-68571153D01*
X133593554Y-68549529D01*
X133585496Y-68527007D01*
X133579684Y-68503803D01*
X133576174Y-68480142D01*
X133575000Y-68456250D01*
X133575000Y-67543750D01*
X133576174Y-67519858D01*
X133579684Y-67496197D01*
X133585496Y-67472993D01*
X133593554Y-67450471D01*
X133603782Y-67428847D01*
X133616079Y-67408330D01*
X133630329Y-67389117D01*
X133646393Y-67371393D01*
X133664117Y-67355329D01*
X133683330Y-67341079D01*
X133703847Y-67328782D01*
X133725471Y-67318554D01*
X133747993Y-67310496D01*
X133771197Y-67304684D01*
X133794858Y-67301174D01*
X133818750Y-67300000D01*
X134306250Y-67300000D01*
X134330142Y-67301174D01*
X134330142Y-67301174D01*
G37*
D11*
X134062500Y-68000000D03*
D10*
G36*
X131205142Y-67301174D02*
G01*
X131228803Y-67304684D01*
X131252007Y-67310496D01*
X131274529Y-67318554D01*
X131296153Y-67328782D01*
X131316670Y-67341079D01*
X131335883Y-67355329D01*
X131353607Y-67371393D01*
X131369671Y-67389117D01*
X131383921Y-67408330D01*
X131396218Y-67428847D01*
X131406446Y-67450471D01*
X131414504Y-67472993D01*
X131420316Y-67496197D01*
X131423826Y-67519858D01*
X131425000Y-67543750D01*
X131425000Y-68456250D01*
X131423826Y-68480142D01*
X131420316Y-68503803D01*
X131414504Y-68527007D01*
X131406446Y-68549529D01*
X131396218Y-68571153D01*
X131383921Y-68591670D01*
X131369671Y-68610883D01*
X131353607Y-68628607D01*
X131335883Y-68644671D01*
X131316670Y-68658921D01*
X131296153Y-68671218D01*
X131274529Y-68681446D01*
X131252007Y-68689504D01*
X131228803Y-68695316D01*
X131205142Y-68698826D01*
X131181250Y-68700000D01*
X130693750Y-68700000D01*
X130669858Y-68698826D01*
X130646197Y-68695316D01*
X130622993Y-68689504D01*
X130600471Y-68681446D01*
X130578847Y-68671218D01*
X130558330Y-68658921D01*
X130539117Y-68644671D01*
X130521393Y-68628607D01*
X130505329Y-68610883D01*
X130491079Y-68591670D01*
X130478782Y-68571153D01*
X130468554Y-68549529D01*
X130460496Y-68527007D01*
X130454684Y-68503803D01*
X130451174Y-68480142D01*
X130450000Y-68456250D01*
X130450000Y-67543750D01*
X130451174Y-67519858D01*
X130454684Y-67496197D01*
X130460496Y-67472993D01*
X130468554Y-67450471D01*
X130478782Y-67428847D01*
X130491079Y-67408330D01*
X130505329Y-67389117D01*
X130521393Y-67371393D01*
X130539117Y-67355329D01*
X130558330Y-67341079D01*
X130578847Y-67328782D01*
X130600471Y-67318554D01*
X130622993Y-67310496D01*
X130646197Y-67304684D01*
X130669858Y-67301174D01*
X130693750Y-67300000D01*
X131181250Y-67300000D01*
X131205142Y-67301174D01*
X131205142Y-67301174D01*
G37*
D11*
X130937500Y-68000000D03*
D10*
G36*
X129330142Y-67301174D02*
G01*
X129353803Y-67304684D01*
X129377007Y-67310496D01*
X129399529Y-67318554D01*
X129421153Y-67328782D01*
X129441670Y-67341079D01*
X129460883Y-67355329D01*
X129478607Y-67371393D01*
X129494671Y-67389117D01*
X129508921Y-67408330D01*
X129521218Y-67428847D01*
X129531446Y-67450471D01*
X129539504Y-67472993D01*
X129545316Y-67496197D01*
X129548826Y-67519858D01*
X129550000Y-67543750D01*
X129550000Y-68456250D01*
X129548826Y-68480142D01*
X129545316Y-68503803D01*
X129539504Y-68527007D01*
X129531446Y-68549529D01*
X129521218Y-68571153D01*
X129508921Y-68591670D01*
X129494671Y-68610883D01*
X129478607Y-68628607D01*
X129460883Y-68644671D01*
X129441670Y-68658921D01*
X129421153Y-68671218D01*
X129399529Y-68681446D01*
X129377007Y-68689504D01*
X129353803Y-68695316D01*
X129330142Y-68698826D01*
X129306250Y-68700000D01*
X128818750Y-68700000D01*
X128794858Y-68698826D01*
X128771197Y-68695316D01*
X128747993Y-68689504D01*
X128725471Y-68681446D01*
X128703847Y-68671218D01*
X128683330Y-68658921D01*
X128664117Y-68644671D01*
X128646393Y-68628607D01*
X128630329Y-68610883D01*
X128616079Y-68591670D01*
X128603782Y-68571153D01*
X128593554Y-68549529D01*
X128585496Y-68527007D01*
X128579684Y-68503803D01*
X128576174Y-68480142D01*
X128575000Y-68456250D01*
X128575000Y-67543750D01*
X128576174Y-67519858D01*
X128579684Y-67496197D01*
X128585496Y-67472993D01*
X128593554Y-67450471D01*
X128603782Y-67428847D01*
X128616079Y-67408330D01*
X128630329Y-67389117D01*
X128646393Y-67371393D01*
X128664117Y-67355329D01*
X128683330Y-67341079D01*
X128703847Y-67328782D01*
X128725471Y-67318554D01*
X128747993Y-67310496D01*
X128771197Y-67304684D01*
X128794858Y-67301174D01*
X128818750Y-67300000D01*
X129306250Y-67300000D01*
X129330142Y-67301174D01*
X129330142Y-67301174D01*
G37*
D11*
X129062500Y-68000000D03*
D10*
G36*
X126205142Y-67301174D02*
G01*
X126228803Y-67304684D01*
X126252007Y-67310496D01*
X126274529Y-67318554D01*
X126296153Y-67328782D01*
X126316670Y-67341079D01*
X126335883Y-67355329D01*
X126353607Y-67371393D01*
X126369671Y-67389117D01*
X126383921Y-67408330D01*
X126396218Y-67428847D01*
X126406446Y-67450471D01*
X126414504Y-67472993D01*
X126420316Y-67496197D01*
X126423826Y-67519858D01*
X126425000Y-67543750D01*
X126425000Y-68456250D01*
X126423826Y-68480142D01*
X126420316Y-68503803D01*
X126414504Y-68527007D01*
X126406446Y-68549529D01*
X126396218Y-68571153D01*
X126383921Y-68591670D01*
X126369671Y-68610883D01*
X126353607Y-68628607D01*
X126335883Y-68644671D01*
X126316670Y-68658921D01*
X126296153Y-68671218D01*
X126274529Y-68681446D01*
X126252007Y-68689504D01*
X126228803Y-68695316D01*
X126205142Y-68698826D01*
X126181250Y-68700000D01*
X125693750Y-68700000D01*
X125669858Y-68698826D01*
X125646197Y-68695316D01*
X125622993Y-68689504D01*
X125600471Y-68681446D01*
X125578847Y-68671218D01*
X125558330Y-68658921D01*
X125539117Y-68644671D01*
X125521393Y-68628607D01*
X125505329Y-68610883D01*
X125491079Y-68591670D01*
X125478782Y-68571153D01*
X125468554Y-68549529D01*
X125460496Y-68527007D01*
X125454684Y-68503803D01*
X125451174Y-68480142D01*
X125450000Y-68456250D01*
X125450000Y-67543750D01*
X125451174Y-67519858D01*
X125454684Y-67496197D01*
X125460496Y-67472993D01*
X125468554Y-67450471D01*
X125478782Y-67428847D01*
X125491079Y-67408330D01*
X125505329Y-67389117D01*
X125521393Y-67371393D01*
X125539117Y-67355329D01*
X125558330Y-67341079D01*
X125578847Y-67328782D01*
X125600471Y-67318554D01*
X125622993Y-67310496D01*
X125646197Y-67304684D01*
X125669858Y-67301174D01*
X125693750Y-67300000D01*
X126181250Y-67300000D01*
X126205142Y-67301174D01*
X126205142Y-67301174D01*
G37*
D11*
X125937500Y-68000000D03*
D10*
G36*
X124330142Y-67301174D02*
G01*
X124353803Y-67304684D01*
X124377007Y-67310496D01*
X124399529Y-67318554D01*
X124421153Y-67328782D01*
X124441670Y-67341079D01*
X124460883Y-67355329D01*
X124478607Y-67371393D01*
X124494671Y-67389117D01*
X124508921Y-67408330D01*
X124521218Y-67428847D01*
X124531446Y-67450471D01*
X124539504Y-67472993D01*
X124545316Y-67496197D01*
X124548826Y-67519858D01*
X124550000Y-67543750D01*
X124550000Y-68456250D01*
X124548826Y-68480142D01*
X124545316Y-68503803D01*
X124539504Y-68527007D01*
X124531446Y-68549529D01*
X124521218Y-68571153D01*
X124508921Y-68591670D01*
X124494671Y-68610883D01*
X124478607Y-68628607D01*
X124460883Y-68644671D01*
X124441670Y-68658921D01*
X124421153Y-68671218D01*
X124399529Y-68681446D01*
X124377007Y-68689504D01*
X124353803Y-68695316D01*
X124330142Y-68698826D01*
X124306250Y-68700000D01*
X123818750Y-68700000D01*
X123794858Y-68698826D01*
X123771197Y-68695316D01*
X123747993Y-68689504D01*
X123725471Y-68681446D01*
X123703847Y-68671218D01*
X123683330Y-68658921D01*
X123664117Y-68644671D01*
X123646393Y-68628607D01*
X123630329Y-68610883D01*
X123616079Y-68591670D01*
X123603782Y-68571153D01*
X123593554Y-68549529D01*
X123585496Y-68527007D01*
X123579684Y-68503803D01*
X123576174Y-68480142D01*
X123575000Y-68456250D01*
X123575000Y-67543750D01*
X123576174Y-67519858D01*
X123579684Y-67496197D01*
X123585496Y-67472993D01*
X123593554Y-67450471D01*
X123603782Y-67428847D01*
X123616079Y-67408330D01*
X123630329Y-67389117D01*
X123646393Y-67371393D01*
X123664117Y-67355329D01*
X123683330Y-67341079D01*
X123703847Y-67328782D01*
X123725471Y-67318554D01*
X123747993Y-67310496D01*
X123771197Y-67304684D01*
X123794858Y-67301174D01*
X123818750Y-67300000D01*
X124306250Y-67300000D01*
X124330142Y-67301174D01*
X124330142Y-67301174D01*
G37*
D11*
X124062500Y-68000000D03*
D10*
G36*
X121205142Y-67301174D02*
G01*
X121228803Y-67304684D01*
X121252007Y-67310496D01*
X121274529Y-67318554D01*
X121296153Y-67328782D01*
X121316670Y-67341079D01*
X121335883Y-67355329D01*
X121353607Y-67371393D01*
X121369671Y-67389117D01*
X121383921Y-67408330D01*
X121396218Y-67428847D01*
X121406446Y-67450471D01*
X121414504Y-67472993D01*
X121420316Y-67496197D01*
X121423826Y-67519858D01*
X121425000Y-67543750D01*
X121425000Y-68456250D01*
X121423826Y-68480142D01*
X121420316Y-68503803D01*
X121414504Y-68527007D01*
X121406446Y-68549529D01*
X121396218Y-68571153D01*
X121383921Y-68591670D01*
X121369671Y-68610883D01*
X121353607Y-68628607D01*
X121335883Y-68644671D01*
X121316670Y-68658921D01*
X121296153Y-68671218D01*
X121274529Y-68681446D01*
X121252007Y-68689504D01*
X121228803Y-68695316D01*
X121205142Y-68698826D01*
X121181250Y-68700000D01*
X120693750Y-68700000D01*
X120669858Y-68698826D01*
X120646197Y-68695316D01*
X120622993Y-68689504D01*
X120600471Y-68681446D01*
X120578847Y-68671218D01*
X120558330Y-68658921D01*
X120539117Y-68644671D01*
X120521393Y-68628607D01*
X120505329Y-68610883D01*
X120491079Y-68591670D01*
X120478782Y-68571153D01*
X120468554Y-68549529D01*
X120460496Y-68527007D01*
X120454684Y-68503803D01*
X120451174Y-68480142D01*
X120450000Y-68456250D01*
X120450000Y-67543750D01*
X120451174Y-67519858D01*
X120454684Y-67496197D01*
X120460496Y-67472993D01*
X120468554Y-67450471D01*
X120478782Y-67428847D01*
X120491079Y-67408330D01*
X120505329Y-67389117D01*
X120521393Y-67371393D01*
X120539117Y-67355329D01*
X120558330Y-67341079D01*
X120578847Y-67328782D01*
X120600471Y-67318554D01*
X120622993Y-67310496D01*
X120646197Y-67304684D01*
X120669858Y-67301174D01*
X120693750Y-67300000D01*
X121181250Y-67300000D01*
X121205142Y-67301174D01*
X121205142Y-67301174D01*
G37*
D11*
X120937500Y-68000000D03*
D10*
G36*
X119330142Y-67301174D02*
G01*
X119353803Y-67304684D01*
X119377007Y-67310496D01*
X119399529Y-67318554D01*
X119421153Y-67328782D01*
X119441670Y-67341079D01*
X119460883Y-67355329D01*
X119478607Y-67371393D01*
X119494671Y-67389117D01*
X119508921Y-67408330D01*
X119521218Y-67428847D01*
X119531446Y-67450471D01*
X119539504Y-67472993D01*
X119545316Y-67496197D01*
X119548826Y-67519858D01*
X119550000Y-67543750D01*
X119550000Y-68456250D01*
X119548826Y-68480142D01*
X119545316Y-68503803D01*
X119539504Y-68527007D01*
X119531446Y-68549529D01*
X119521218Y-68571153D01*
X119508921Y-68591670D01*
X119494671Y-68610883D01*
X119478607Y-68628607D01*
X119460883Y-68644671D01*
X119441670Y-68658921D01*
X119421153Y-68671218D01*
X119399529Y-68681446D01*
X119377007Y-68689504D01*
X119353803Y-68695316D01*
X119330142Y-68698826D01*
X119306250Y-68700000D01*
X118818750Y-68700000D01*
X118794858Y-68698826D01*
X118771197Y-68695316D01*
X118747993Y-68689504D01*
X118725471Y-68681446D01*
X118703847Y-68671218D01*
X118683330Y-68658921D01*
X118664117Y-68644671D01*
X118646393Y-68628607D01*
X118630329Y-68610883D01*
X118616079Y-68591670D01*
X118603782Y-68571153D01*
X118593554Y-68549529D01*
X118585496Y-68527007D01*
X118579684Y-68503803D01*
X118576174Y-68480142D01*
X118575000Y-68456250D01*
X118575000Y-67543750D01*
X118576174Y-67519858D01*
X118579684Y-67496197D01*
X118585496Y-67472993D01*
X118593554Y-67450471D01*
X118603782Y-67428847D01*
X118616079Y-67408330D01*
X118630329Y-67389117D01*
X118646393Y-67371393D01*
X118664117Y-67355329D01*
X118683330Y-67341079D01*
X118703847Y-67328782D01*
X118725471Y-67318554D01*
X118747993Y-67310496D01*
X118771197Y-67304684D01*
X118794858Y-67301174D01*
X118818750Y-67300000D01*
X119306250Y-67300000D01*
X119330142Y-67301174D01*
X119330142Y-67301174D01*
G37*
D11*
X119062500Y-68000000D03*
D10*
G36*
X116205142Y-67301174D02*
G01*
X116228803Y-67304684D01*
X116252007Y-67310496D01*
X116274529Y-67318554D01*
X116296153Y-67328782D01*
X116316670Y-67341079D01*
X116335883Y-67355329D01*
X116353607Y-67371393D01*
X116369671Y-67389117D01*
X116383921Y-67408330D01*
X116396218Y-67428847D01*
X116406446Y-67450471D01*
X116414504Y-67472993D01*
X116420316Y-67496197D01*
X116423826Y-67519858D01*
X116425000Y-67543750D01*
X116425000Y-68456250D01*
X116423826Y-68480142D01*
X116420316Y-68503803D01*
X116414504Y-68527007D01*
X116406446Y-68549529D01*
X116396218Y-68571153D01*
X116383921Y-68591670D01*
X116369671Y-68610883D01*
X116353607Y-68628607D01*
X116335883Y-68644671D01*
X116316670Y-68658921D01*
X116296153Y-68671218D01*
X116274529Y-68681446D01*
X116252007Y-68689504D01*
X116228803Y-68695316D01*
X116205142Y-68698826D01*
X116181250Y-68700000D01*
X115693750Y-68700000D01*
X115669858Y-68698826D01*
X115646197Y-68695316D01*
X115622993Y-68689504D01*
X115600471Y-68681446D01*
X115578847Y-68671218D01*
X115558330Y-68658921D01*
X115539117Y-68644671D01*
X115521393Y-68628607D01*
X115505329Y-68610883D01*
X115491079Y-68591670D01*
X115478782Y-68571153D01*
X115468554Y-68549529D01*
X115460496Y-68527007D01*
X115454684Y-68503803D01*
X115451174Y-68480142D01*
X115450000Y-68456250D01*
X115450000Y-67543750D01*
X115451174Y-67519858D01*
X115454684Y-67496197D01*
X115460496Y-67472993D01*
X115468554Y-67450471D01*
X115478782Y-67428847D01*
X115491079Y-67408330D01*
X115505329Y-67389117D01*
X115521393Y-67371393D01*
X115539117Y-67355329D01*
X115558330Y-67341079D01*
X115578847Y-67328782D01*
X115600471Y-67318554D01*
X115622993Y-67310496D01*
X115646197Y-67304684D01*
X115669858Y-67301174D01*
X115693750Y-67300000D01*
X116181250Y-67300000D01*
X116205142Y-67301174D01*
X116205142Y-67301174D01*
G37*
D11*
X115937500Y-68000000D03*
D10*
G36*
X114330142Y-67301174D02*
G01*
X114353803Y-67304684D01*
X114377007Y-67310496D01*
X114399529Y-67318554D01*
X114421153Y-67328782D01*
X114441670Y-67341079D01*
X114460883Y-67355329D01*
X114478607Y-67371393D01*
X114494671Y-67389117D01*
X114508921Y-67408330D01*
X114521218Y-67428847D01*
X114531446Y-67450471D01*
X114539504Y-67472993D01*
X114545316Y-67496197D01*
X114548826Y-67519858D01*
X114550000Y-67543750D01*
X114550000Y-68456250D01*
X114548826Y-68480142D01*
X114545316Y-68503803D01*
X114539504Y-68527007D01*
X114531446Y-68549529D01*
X114521218Y-68571153D01*
X114508921Y-68591670D01*
X114494671Y-68610883D01*
X114478607Y-68628607D01*
X114460883Y-68644671D01*
X114441670Y-68658921D01*
X114421153Y-68671218D01*
X114399529Y-68681446D01*
X114377007Y-68689504D01*
X114353803Y-68695316D01*
X114330142Y-68698826D01*
X114306250Y-68700000D01*
X113818750Y-68700000D01*
X113794858Y-68698826D01*
X113771197Y-68695316D01*
X113747993Y-68689504D01*
X113725471Y-68681446D01*
X113703847Y-68671218D01*
X113683330Y-68658921D01*
X113664117Y-68644671D01*
X113646393Y-68628607D01*
X113630329Y-68610883D01*
X113616079Y-68591670D01*
X113603782Y-68571153D01*
X113593554Y-68549529D01*
X113585496Y-68527007D01*
X113579684Y-68503803D01*
X113576174Y-68480142D01*
X113575000Y-68456250D01*
X113575000Y-67543750D01*
X113576174Y-67519858D01*
X113579684Y-67496197D01*
X113585496Y-67472993D01*
X113593554Y-67450471D01*
X113603782Y-67428847D01*
X113616079Y-67408330D01*
X113630329Y-67389117D01*
X113646393Y-67371393D01*
X113664117Y-67355329D01*
X113683330Y-67341079D01*
X113703847Y-67328782D01*
X113725471Y-67318554D01*
X113747993Y-67310496D01*
X113771197Y-67304684D01*
X113794858Y-67301174D01*
X113818750Y-67300000D01*
X114306250Y-67300000D01*
X114330142Y-67301174D01*
X114330142Y-67301174D01*
G37*
D11*
X114062500Y-68000000D03*
D10*
G36*
X111205142Y-67301174D02*
G01*
X111228803Y-67304684D01*
X111252007Y-67310496D01*
X111274529Y-67318554D01*
X111296153Y-67328782D01*
X111316670Y-67341079D01*
X111335883Y-67355329D01*
X111353607Y-67371393D01*
X111369671Y-67389117D01*
X111383921Y-67408330D01*
X111396218Y-67428847D01*
X111406446Y-67450471D01*
X111414504Y-67472993D01*
X111420316Y-67496197D01*
X111423826Y-67519858D01*
X111425000Y-67543750D01*
X111425000Y-68456250D01*
X111423826Y-68480142D01*
X111420316Y-68503803D01*
X111414504Y-68527007D01*
X111406446Y-68549529D01*
X111396218Y-68571153D01*
X111383921Y-68591670D01*
X111369671Y-68610883D01*
X111353607Y-68628607D01*
X111335883Y-68644671D01*
X111316670Y-68658921D01*
X111296153Y-68671218D01*
X111274529Y-68681446D01*
X111252007Y-68689504D01*
X111228803Y-68695316D01*
X111205142Y-68698826D01*
X111181250Y-68700000D01*
X110693750Y-68700000D01*
X110669858Y-68698826D01*
X110646197Y-68695316D01*
X110622993Y-68689504D01*
X110600471Y-68681446D01*
X110578847Y-68671218D01*
X110558330Y-68658921D01*
X110539117Y-68644671D01*
X110521393Y-68628607D01*
X110505329Y-68610883D01*
X110491079Y-68591670D01*
X110478782Y-68571153D01*
X110468554Y-68549529D01*
X110460496Y-68527007D01*
X110454684Y-68503803D01*
X110451174Y-68480142D01*
X110450000Y-68456250D01*
X110450000Y-67543750D01*
X110451174Y-67519858D01*
X110454684Y-67496197D01*
X110460496Y-67472993D01*
X110468554Y-67450471D01*
X110478782Y-67428847D01*
X110491079Y-67408330D01*
X110505329Y-67389117D01*
X110521393Y-67371393D01*
X110539117Y-67355329D01*
X110558330Y-67341079D01*
X110578847Y-67328782D01*
X110600471Y-67318554D01*
X110622993Y-67310496D01*
X110646197Y-67304684D01*
X110669858Y-67301174D01*
X110693750Y-67300000D01*
X111181250Y-67300000D01*
X111205142Y-67301174D01*
X111205142Y-67301174D01*
G37*
D11*
X110937500Y-68000000D03*
D10*
G36*
X109330142Y-67301174D02*
G01*
X109353803Y-67304684D01*
X109377007Y-67310496D01*
X109399529Y-67318554D01*
X109421153Y-67328782D01*
X109441670Y-67341079D01*
X109460883Y-67355329D01*
X109478607Y-67371393D01*
X109494671Y-67389117D01*
X109508921Y-67408330D01*
X109521218Y-67428847D01*
X109531446Y-67450471D01*
X109539504Y-67472993D01*
X109545316Y-67496197D01*
X109548826Y-67519858D01*
X109550000Y-67543750D01*
X109550000Y-68456250D01*
X109548826Y-68480142D01*
X109545316Y-68503803D01*
X109539504Y-68527007D01*
X109531446Y-68549529D01*
X109521218Y-68571153D01*
X109508921Y-68591670D01*
X109494671Y-68610883D01*
X109478607Y-68628607D01*
X109460883Y-68644671D01*
X109441670Y-68658921D01*
X109421153Y-68671218D01*
X109399529Y-68681446D01*
X109377007Y-68689504D01*
X109353803Y-68695316D01*
X109330142Y-68698826D01*
X109306250Y-68700000D01*
X108818750Y-68700000D01*
X108794858Y-68698826D01*
X108771197Y-68695316D01*
X108747993Y-68689504D01*
X108725471Y-68681446D01*
X108703847Y-68671218D01*
X108683330Y-68658921D01*
X108664117Y-68644671D01*
X108646393Y-68628607D01*
X108630329Y-68610883D01*
X108616079Y-68591670D01*
X108603782Y-68571153D01*
X108593554Y-68549529D01*
X108585496Y-68527007D01*
X108579684Y-68503803D01*
X108576174Y-68480142D01*
X108575000Y-68456250D01*
X108575000Y-67543750D01*
X108576174Y-67519858D01*
X108579684Y-67496197D01*
X108585496Y-67472993D01*
X108593554Y-67450471D01*
X108603782Y-67428847D01*
X108616079Y-67408330D01*
X108630329Y-67389117D01*
X108646393Y-67371393D01*
X108664117Y-67355329D01*
X108683330Y-67341079D01*
X108703847Y-67328782D01*
X108725471Y-67318554D01*
X108747993Y-67310496D01*
X108771197Y-67304684D01*
X108794858Y-67301174D01*
X108818750Y-67300000D01*
X109306250Y-67300000D01*
X109330142Y-67301174D01*
X109330142Y-67301174D01*
G37*
D11*
X109062500Y-68000000D03*
D10*
G36*
X91205142Y-67301174D02*
G01*
X91228803Y-67304684D01*
X91252007Y-67310496D01*
X91274529Y-67318554D01*
X91296153Y-67328782D01*
X91316670Y-67341079D01*
X91335883Y-67355329D01*
X91353607Y-67371393D01*
X91369671Y-67389117D01*
X91383921Y-67408330D01*
X91396218Y-67428847D01*
X91406446Y-67450471D01*
X91414504Y-67472993D01*
X91420316Y-67496197D01*
X91423826Y-67519858D01*
X91425000Y-67543750D01*
X91425000Y-68456250D01*
X91423826Y-68480142D01*
X91420316Y-68503803D01*
X91414504Y-68527007D01*
X91406446Y-68549529D01*
X91396218Y-68571153D01*
X91383921Y-68591670D01*
X91369671Y-68610883D01*
X91353607Y-68628607D01*
X91335883Y-68644671D01*
X91316670Y-68658921D01*
X91296153Y-68671218D01*
X91274529Y-68681446D01*
X91252007Y-68689504D01*
X91228803Y-68695316D01*
X91205142Y-68698826D01*
X91181250Y-68700000D01*
X90693750Y-68700000D01*
X90669858Y-68698826D01*
X90646197Y-68695316D01*
X90622993Y-68689504D01*
X90600471Y-68681446D01*
X90578847Y-68671218D01*
X90558330Y-68658921D01*
X90539117Y-68644671D01*
X90521393Y-68628607D01*
X90505329Y-68610883D01*
X90491079Y-68591670D01*
X90478782Y-68571153D01*
X90468554Y-68549529D01*
X90460496Y-68527007D01*
X90454684Y-68503803D01*
X90451174Y-68480142D01*
X90450000Y-68456250D01*
X90450000Y-67543750D01*
X90451174Y-67519858D01*
X90454684Y-67496197D01*
X90460496Y-67472993D01*
X90468554Y-67450471D01*
X90478782Y-67428847D01*
X90491079Y-67408330D01*
X90505329Y-67389117D01*
X90521393Y-67371393D01*
X90539117Y-67355329D01*
X90558330Y-67341079D01*
X90578847Y-67328782D01*
X90600471Y-67318554D01*
X90622993Y-67310496D01*
X90646197Y-67304684D01*
X90669858Y-67301174D01*
X90693750Y-67300000D01*
X91181250Y-67300000D01*
X91205142Y-67301174D01*
X91205142Y-67301174D01*
G37*
D11*
X90937500Y-68000000D03*
D10*
G36*
X89330142Y-67301174D02*
G01*
X89353803Y-67304684D01*
X89377007Y-67310496D01*
X89399529Y-67318554D01*
X89421153Y-67328782D01*
X89441670Y-67341079D01*
X89460883Y-67355329D01*
X89478607Y-67371393D01*
X89494671Y-67389117D01*
X89508921Y-67408330D01*
X89521218Y-67428847D01*
X89531446Y-67450471D01*
X89539504Y-67472993D01*
X89545316Y-67496197D01*
X89548826Y-67519858D01*
X89550000Y-67543750D01*
X89550000Y-68456250D01*
X89548826Y-68480142D01*
X89545316Y-68503803D01*
X89539504Y-68527007D01*
X89531446Y-68549529D01*
X89521218Y-68571153D01*
X89508921Y-68591670D01*
X89494671Y-68610883D01*
X89478607Y-68628607D01*
X89460883Y-68644671D01*
X89441670Y-68658921D01*
X89421153Y-68671218D01*
X89399529Y-68681446D01*
X89377007Y-68689504D01*
X89353803Y-68695316D01*
X89330142Y-68698826D01*
X89306250Y-68700000D01*
X88818750Y-68700000D01*
X88794858Y-68698826D01*
X88771197Y-68695316D01*
X88747993Y-68689504D01*
X88725471Y-68681446D01*
X88703847Y-68671218D01*
X88683330Y-68658921D01*
X88664117Y-68644671D01*
X88646393Y-68628607D01*
X88630329Y-68610883D01*
X88616079Y-68591670D01*
X88603782Y-68571153D01*
X88593554Y-68549529D01*
X88585496Y-68527007D01*
X88579684Y-68503803D01*
X88576174Y-68480142D01*
X88575000Y-68456250D01*
X88575000Y-67543750D01*
X88576174Y-67519858D01*
X88579684Y-67496197D01*
X88585496Y-67472993D01*
X88593554Y-67450471D01*
X88603782Y-67428847D01*
X88616079Y-67408330D01*
X88630329Y-67389117D01*
X88646393Y-67371393D01*
X88664117Y-67355329D01*
X88683330Y-67341079D01*
X88703847Y-67328782D01*
X88725471Y-67318554D01*
X88747993Y-67310496D01*
X88771197Y-67304684D01*
X88794858Y-67301174D01*
X88818750Y-67300000D01*
X89306250Y-67300000D01*
X89330142Y-67301174D01*
X89330142Y-67301174D01*
G37*
D11*
X89062500Y-68000000D03*
D10*
G36*
X86205142Y-67301174D02*
G01*
X86228803Y-67304684D01*
X86252007Y-67310496D01*
X86274529Y-67318554D01*
X86296153Y-67328782D01*
X86316670Y-67341079D01*
X86335883Y-67355329D01*
X86353607Y-67371393D01*
X86369671Y-67389117D01*
X86383921Y-67408330D01*
X86396218Y-67428847D01*
X86406446Y-67450471D01*
X86414504Y-67472993D01*
X86420316Y-67496197D01*
X86423826Y-67519858D01*
X86425000Y-67543750D01*
X86425000Y-68456250D01*
X86423826Y-68480142D01*
X86420316Y-68503803D01*
X86414504Y-68527007D01*
X86406446Y-68549529D01*
X86396218Y-68571153D01*
X86383921Y-68591670D01*
X86369671Y-68610883D01*
X86353607Y-68628607D01*
X86335883Y-68644671D01*
X86316670Y-68658921D01*
X86296153Y-68671218D01*
X86274529Y-68681446D01*
X86252007Y-68689504D01*
X86228803Y-68695316D01*
X86205142Y-68698826D01*
X86181250Y-68700000D01*
X85693750Y-68700000D01*
X85669858Y-68698826D01*
X85646197Y-68695316D01*
X85622993Y-68689504D01*
X85600471Y-68681446D01*
X85578847Y-68671218D01*
X85558330Y-68658921D01*
X85539117Y-68644671D01*
X85521393Y-68628607D01*
X85505329Y-68610883D01*
X85491079Y-68591670D01*
X85478782Y-68571153D01*
X85468554Y-68549529D01*
X85460496Y-68527007D01*
X85454684Y-68503803D01*
X85451174Y-68480142D01*
X85450000Y-68456250D01*
X85450000Y-67543750D01*
X85451174Y-67519858D01*
X85454684Y-67496197D01*
X85460496Y-67472993D01*
X85468554Y-67450471D01*
X85478782Y-67428847D01*
X85491079Y-67408330D01*
X85505329Y-67389117D01*
X85521393Y-67371393D01*
X85539117Y-67355329D01*
X85558330Y-67341079D01*
X85578847Y-67328782D01*
X85600471Y-67318554D01*
X85622993Y-67310496D01*
X85646197Y-67304684D01*
X85669858Y-67301174D01*
X85693750Y-67300000D01*
X86181250Y-67300000D01*
X86205142Y-67301174D01*
X86205142Y-67301174D01*
G37*
D11*
X85937500Y-68000000D03*
D10*
G36*
X84330142Y-67301174D02*
G01*
X84353803Y-67304684D01*
X84377007Y-67310496D01*
X84399529Y-67318554D01*
X84421153Y-67328782D01*
X84441670Y-67341079D01*
X84460883Y-67355329D01*
X84478607Y-67371393D01*
X84494671Y-67389117D01*
X84508921Y-67408330D01*
X84521218Y-67428847D01*
X84531446Y-67450471D01*
X84539504Y-67472993D01*
X84545316Y-67496197D01*
X84548826Y-67519858D01*
X84550000Y-67543750D01*
X84550000Y-68456250D01*
X84548826Y-68480142D01*
X84545316Y-68503803D01*
X84539504Y-68527007D01*
X84531446Y-68549529D01*
X84521218Y-68571153D01*
X84508921Y-68591670D01*
X84494671Y-68610883D01*
X84478607Y-68628607D01*
X84460883Y-68644671D01*
X84441670Y-68658921D01*
X84421153Y-68671218D01*
X84399529Y-68681446D01*
X84377007Y-68689504D01*
X84353803Y-68695316D01*
X84330142Y-68698826D01*
X84306250Y-68700000D01*
X83818750Y-68700000D01*
X83794858Y-68698826D01*
X83771197Y-68695316D01*
X83747993Y-68689504D01*
X83725471Y-68681446D01*
X83703847Y-68671218D01*
X83683330Y-68658921D01*
X83664117Y-68644671D01*
X83646393Y-68628607D01*
X83630329Y-68610883D01*
X83616079Y-68591670D01*
X83603782Y-68571153D01*
X83593554Y-68549529D01*
X83585496Y-68527007D01*
X83579684Y-68503803D01*
X83576174Y-68480142D01*
X83575000Y-68456250D01*
X83575000Y-67543750D01*
X83576174Y-67519858D01*
X83579684Y-67496197D01*
X83585496Y-67472993D01*
X83593554Y-67450471D01*
X83603782Y-67428847D01*
X83616079Y-67408330D01*
X83630329Y-67389117D01*
X83646393Y-67371393D01*
X83664117Y-67355329D01*
X83683330Y-67341079D01*
X83703847Y-67328782D01*
X83725471Y-67318554D01*
X83747993Y-67310496D01*
X83771197Y-67304684D01*
X83794858Y-67301174D01*
X83818750Y-67300000D01*
X84306250Y-67300000D01*
X84330142Y-67301174D01*
X84330142Y-67301174D01*
G37*
D11*
X84062500Y-68000000D03*
D10*
G36*
X166205142Y-65301174D02*
G01*
X166228803Y-65304684D01*
X166252007Y-65310496D01*
X166274529Y-65318554D01*
X166296153Y-65328782D01*
X166316670Y-65341079D01*
X166335883Y-65355329D01*
X166353607Y-65371393D01*
X166369671Y-65389117D01*
X166383921Y-65408330D01*
X166396218Y-65428847D01*
X166406446Y-65450471D01*
X166414504Y-65472993D01*
X166420316Y-65496197D01*
X166423826Y-65519858D01*
X166425000Y-65543750D01*
X166425000Y-66456250D01*
X166423826Y-66480142D01*
X166420316Y-66503803D01*
X166414504Y-66527007D01*
X166406446Y-66549529D01*
X166396218Y-66571153D01*
X166383921Y-66591670D01*
X166369671Y-66610883D01*
X166353607Y-66628607D01*
X166335883Y-66644671D01*
X166316670Y-66658921D01*
X166296153Y-66671218D01*
X166274529Y-66681446D01*
X166252007Y-66689504D01*
X166228803Y-66695316D01*
X166205142Y-66698826D01*
X166181250Y-66700000D01*
X165693750Y-66700000D01*
X165669858Y-66698826D01*
X165646197Y-66695316D01*
X165622993Y-66689504D01*
X165600471Y-66681446D01*
X165578847Y-66671218D01*
X165558330Y-66658921D01*
X165539117Y-66644671D01*
X165521393Y-66628607D01*
X165505329Y-66610883D01*
X165491079Y-66591670D01*
X165478782Y-66571153D01*
X165468554Y-66549529D01*
X165460496Y-66527007D01*
X165454684Y-66503803D01*
X165451174Y-66480142D01*
X165450000Y-66456250D01*
X165450000Y-65543750D01*
X165451174Y-65519858D01*
X165454684Y-65496197D01*
X165460496Y-65472993D01*
X165468554Y-65450471D01*
X165478782Y-65428847D01*
X165491079Y-65408330D01*
X165505329Y-65389117D01*
X165521393Y-65371393D01*
X165539117Y-65355329D01*
X165558330Y-65341079D01*
X165578847Y-65328782D01*
X165600471Y-65318554D01*
X165622993Y-65310496D01*
X165646197Y-65304684D01*
X165669858Y-65301174D01*
X165693750Y-65300000D01*
X166181250Y-65300000D01*
X166205142Y-65301174D01*
X166205142Y-65301174D01*
G37*
D11*
X165937500Y-66000000D03*
D10*
G36*
X164330142Y-65301174D02*
G01*
X164353803Y-65304684D01*
X164377007Y-65310496D01*
X164399529Y-65318554D01*
X164421153Y-65328782D01*
X164441670Y-65341079D01*
X164460883Y-65355329D01*
X164478607Y-65371393D01*
X164494671Y-65389117D01*
X164508921Y-65408330D01*
X164521218Y-65428847D01*
X164531446Y-65450471D01*
X164539504Y-65472993D01*
X164545316Y-65496197D01*
X164548826Y-65519858D01*
X164550000Y-65543750D01*
X164550000Y-66456250D01*
X164548826Y-66480142D01*
X164545316Y-66503803D01*
X164539504Y-66527007D01*
X164531446Y-66549529D01*
X164521218Y-66571153D01*
X164508921Y-66591670D01*
X164494671Y-66610883D01*
X164478607Y-66628607D01*
X164460883Y-66644671D01*
X164441670Y-66658921D01*
X164421153Y-66671218D01*
X164399529Y-66681446D01*
X164377007Y-66689504D01*
X164353803Y-66695316D01*
X164330142Y-66698826D01*
X164306250Y-66700000D01*
X163818750Y-66700000D01*
X163794858Y-66698826D01*
X163771197Y-66695316D01*
X163747993Y-66689504D01*
X163725471Y-66681446D01*
X163703847Y-66671218D01*
X163683330Y-66658921D01*
X163664117Y-66644671D01*
X163646393Y-66628607D01*
X163630329Y-66610883D01*
X163616079Y-66591670D01*
X163603782Y-66571153D01*
X163593554Y-66549529D01*
X163585496Y-66527007D01*
X163579684Y-66503803D01*
X163576174Y-66480142D01*
X163575000Y-66456250D01*
X163575000Y-65543750D01*
X163576174Y-65519858D01*
X163579684Y-65496197D01*
X163585496Y-65472993D01*
X163593554Y-65450471D01*
X163603782Y-65428847D01*
X163616079Y-65408330D01*
X163630329Y-65389117D01*
X163646393Y-65371393D01*
X163664117Y-65355329D01*
X163683330Y-65341079D01*
X163703847Y-65328782D01*
X163725471Y-65318554D01*
X163747993Y-65310496D01*
X163771197Y-65304684D01*
X163794858Y-65301174D01*
X163818750Y-65300000D01*
X164306250Y-65300000D01*
X164330142Y-65301174D01*
X164330142Y-65301174D01*
G37*
D11*
X164062500Y-66000000D03*
D10*
G36*
X161205142Y-65301174D02*
G01*
X161228803Y-65304684D01*
X161252007Y-65310496D01*
X161274529Y-65318554D01*
X161296153Y-65328782D01*
X161316670Y-65341079D01*
X161335883Y-65355329D01*
X161353607Y-65371393D01*
X161369671Y-65389117D01*
X161383921Y-65408330D01*
X161396218Y-65428847D01*
X161406446Y-65450471D01*
X161414504Y-65472993D01*
X161420316Y-65496197D01*
X161423826Y-65519858D01*
X161425000Y-65543750D01*
X161425000Y-66456250D01*
X161423826Y-66480142D01*
X161420316Y-66503803D01*
X161414504Y-66527007D01*
X161406446Y-66549529D01*
X161396218Y-66571153D01*
X161383921Y-66591670D01*
X161369671Y-66610883D01*
X161353607Y-66628607D01*
X161335883Y-66644671D01*
X161316670Y-66658921D01*
X161296153Y-66671218D01*
X161274529Y-66681446D01*
X161252007Y-66689504D01*
X161228803Y-66695316D01*
X161205142Y-66698826D01*
X161181250Y-66700000D01*
X160693750Y-66700000D01*
X160669858Y-66698826D01*
X160646197Y-66695316D01*
X160622993Y-66689504D01*
X160600471Y-66681446D01*
X160578847Y-66671218D01*
X160558330Y-66658921D01*
X160539117Y-66644671D01*
X160521393Y-66628607D01*
X160505329Y-66610883D01*
X160491079Y-66591670D01*
X160478782Y-66571153D01*
X160468554Y-66549529D01*
X160460496Y-66527007D01*
X160454684Y-66503803D01*
X160451174Y-66480142D01*
X160450000Y-66456250D01*
X160450000Y-65543750D01*
X160451174Y-65519858D01*
X160454684Y-65496197D01*
X160460496Y-65472993D01*
X160468554Y-65450471D01*
X160478782Y-65428847D01*
X160491079Y-65408330D01*
X160505329Y-65389117D01*
X160521393Y-65371393D01*
X160539117Y-65355329D01*
X160558330Y-65341079D01*
X160578847Y-65328782D01*
X160600471Y-65318554D01*
X160622993Y-65310496D01*
X160646197Y-65304684D01*
X160669858Y-65301174D01*
X160693750Y-65300000D01*
X161181250Y-65300000D01*
X161205142Y-65301174D01*
X161205142Y-65301174D01*
G37*
D11*
X160937500Y-66000000D03*
D10*
G36*
X159330142Y-65301174D02*
G01*
X159353803Y-65304684D01*
X159377007Y-65310496D01*
X159399529Y-65318554D01*
X159421153Y-65328782D01*
X159441670Y-65341079D01*
X159460883Y-65355329D01*
X159478607Y-65371393D01*
X159494671Y-65389117D01*
X159508921Y-65408330D01*
X159521218Y-65428847D01*
X159531446Y-65450471D01*
X159539504Y-65472993D01*
X159545316Y-65496197D01*
X159548826Y-65519858D01*
X159550000Y-65543750D01*
X159550000Y-66456250D01*
X159548826Y-66480142D01*
X159545316Y-66503803D01*
X159539504Y-66527007D01*
X159531446Y-66549529D01*
X159521218Y-66571153D01*
X159508921Y-66591670D01*
X159494671Y-66610883D01*
X159478607Y-66628607D01*
X159460883Y-66644671D01*
X159441670Y-66658921D01*
X159421153Y-66671218D01*
X159399529Y-66681446D01*
X159377007Y-66689504D01*
X159353803Y-66695316D01*
X159330142Y-66698826D01*
X159306250Y-66700000D01*
X158818750Y-66700000D01*
X158794858Y-66698826D01*
X158771197Y-66695316D01*
X158747993Y-66689504D01*
X158725471Y-66681446D01*
X158703847Y-66671218D01*
X158683330Y-66658921D01*
X158664117Y-66644671D01*
X158646393Y-66628607D01*
X158630329Y-66610883D01*
X158616079Y-66591670D01*
X158603782Y-66571153D01*
X158593554Y-66549529D01*
X158585496Y-66527007D01*
X158579684Y-66503803D01*
X158576174Y-66480142D01*
X158575000Y-66456250D01*
X158575000Y-65543750D01*
X158576174Y-65519858D01*
X158579684Y-65496197D01*
X158585496Y-65472993D01*
X158593554Y-65450471D01*
X158603782Y-65428847D01*
X158616079Y-65408330D01*
X158630329Y-65389117D01*
X158646393Y-65371393D01*
X158664117Y-65355329D01*
X158683330Y-65341079D01*
X158703847Y-65328782D01*
X158725471Y-65318554D01*
X158747993Y-65310496D01*
X158771197Y-65304684D01*
X158794858Y-65301174D01*
X158818750Y-65300000D01*
X159306250Y-65300000D01*
X159330142Y-65301174D01*
X159330142Y-65301174D01*
G37*
D11*
X159062500Y-66000000D03*
D12*
X157000000Y-67350000D03*
X157000000Y-70650000D03*
X143000000Y-70650000D03*
X143000000Y-67350000D03*
D10*
G36*
X141205142Y-65301174D02*
G01*
X141228803Y-65304684D01*
X141252007Y-65310496D01*
X141274529Y-65318554D01*
X141296153Y-65328782D01*
X141316670Y-65341079D01*
X141335883Y-65355329D01*
X141353607Y-65371393D01*
X141369671Y-65389117D01*
X141383921Y-65408330D01*
X141396218Y-65428847D01*
X141406446Y-65450471D01*
X141414504Y-65472993D01*
X141420316Y-65496197D01*
X141423826Y-65519858D01*
X141425000Y-65543750D01*
X141425000Y-66456250D01*
X141423826Y-66480142D01*
X141420316Y-66503803D01*
X141414504Y-66527007D01*
X141406446Y-66549529D01*
X141396218Y-66571153D01*
X141383921Y-66591670D01*
X141369671Y-66610883D01*
X141353607Y-66628607D01*
X141335883Y-66644671D01*
X141316670Y-66658921D01*
X141296153Y-66671218D01*
X141274529Y-66681446D01*
X141252007Y-66689504D01*
X141228803Y-66695316D01*
X141205142Y-66698826D01*
X141181250Y-66700000D01*
X140693750Y-66700000D01*
X140669858Y-66698826D01*
X140646197Y-66695316D01*
X140622993Y-66689504D01*
X140600471Y-66681446D01*
X140578847Y-66671218D01*
X140558330Y-66658921D01*
X140539117Y-66644671D01*
X140521393Y-66628607D01*
X140505329Y-66610883D01*
X140491079Y-66591670D01*
X140478782Y-66571153D01*
X140468554Y-66549529D01*
X140460496Y-66527007D01*
X140454684Y-66503803D01*
X140451174Y-66480142D01*
X140450000Y-66456250D01*
X140450000Y-65543750D01*
X140451174Y-65519858D01*
X140454684Y-65496197D01*
X140460496Y-65472993D01*
X140468554Y-65450471D01*
X140478782Y-65428847D01*
X140491079Y-65408330D01*
X140505329Y-65389117D01*
X140521393Y-65371393D01*
X140539117Y-65355329D01*
X140558330Y-65341079D01*
X140578847Y-65328782D01*
X140600471Y-65318554D01*
X140622993Y-65310496D01*
X140646197Y-65304684D01*
X140669858Y-65301174D01*
X140693750Y-65300000D01*
X141181250Y-65300000D01*
X141205142Y-65301174D01*
X141205142Y-65301174D01*
G37*
D11*
X140937500Y-66000000D03*
D10*
G36*
X139330142Y-65301174D02*
G01*
X139353803Y-65304684D01*
X139377007Y-65310496D01*
X139399529Y-65318554D01*
X139421153Y-65328782D01*
X139441670Y-65341079D01*
X139460883Y-65355329D01*
X139478607Y-65371393D01*
X139494671Y-65389117D01*
X139508921Y-65408330D01*
X139521218Y-65428847D01*
X139531446Y-65450471D01*
X139539504Y-65472993D01*
X139545316Y-65496197D01*
X139548826Y-65519858D01*
X139550000Y-65543750D01*
X139550000Y-66456250D01*
X139548826Y-66480142D01*
X139545316Y-66503803D01*
X139539504Y-66527007D01*
X139531446Y-66549529D01*
X139521218Y-66571153D01*
X139508921Y-66591670D01*
X139494671Y-66610883D01*
X139478607Y-66628607D01*
X139460883Y-66644671D01*
X139441670Y-66658921D01*
X139421153Y-66671218D01*
X139399529Y-66681446D01*
X139377007Y-66689504D01*
X139353803Y-66695316D01*
X139330142Y-66698826D01*
X139306250Y-66700000D01*
X138818750Y-66700000D01*
X138794858Y-66698826D01*
X138771197Y-66695316D01*
X138747993Y-66689504D01*
X138725471Y-66681446D01*
X138703847Y-66671218D01*
X138683330Y-66658921D01*
X138664117Y-66644671D01*
X138646393Y-66628607D01*
X138630329Y-66610883D01*
X138616079Y-66591670D01*
X138603782Y-66571153D01*
X138593554Y-66549529D01*
X138585496Y-66527007D01*
X138579684Y-66503803D01*
X138576174Y-66480142D01*
X138575000Y-66456250D01*
X138575000Y-65543750D01*
X138576174Y-65519858D01*
X138579684Y-65496197D01*
X138585496Y-65472993D01*
X138593554Y-65450471D01*
X138603782Y-65428847D01*
X138616079Y-65408330D01*
X138630329Y-65389117D01*
X138646393Y-65371393D01*
X138664117Y-65355329D01*
X138683330Y-65341079D01*
X138703847Y-65328782D01*
X138725471Y-65318554D01*
X138747993Y-65310496D01*
X138771197Y-65304684D01*
X138794858Y-65301174D01*
X138818750Y-65300000D01*
X139306250Y-65300000D01*
X139330142Y-65301174D01*
X139330142Y-65301174D01*
G37*
D11*
X139062500Y-66000000D03*
D10*
G36*
X136205142Y-65301174D02*
G01*
X136228803Y-65304684D01*
X136252007Y-65310496D01*
X136274529Y-65318554D01*
X136296153Y-65328782D01*
X136316670Y-65341079D01*
X136335883Y-65355329D01*
X136353607Y-65371393D01*
X136369671Y-65389117D01*
X136383921Y-65408330D01*
X136396218Y-65428847D01*
X136406446Y-65450471D01*
X136414504Y-65472993D01*
X136420316Y-65496197D01*
X136423826Y-65519858D01*
X136425000Y-65543750D01*
X136425000Y-66456250D01*
X136423826Y-66480142D01*
X136420316Y-66503803D01*
X136414504Y-66527007D01*
X136406446Y-66549529D01*
X136396218Y-66571153D01*
X136383921Y-66591670D01*
X136369671Y-66610883D01*
X136353607Y-66628607D01*
X136335883Y-66644671D01*
X136316670Y-66658921D01*
X136296153Y-66671218D01*
X136274529Y-66681446D01*
X136252007Y-66689504D01*
X136228803Y-66695316D01*
X136205142Y-66698826D01*
X136181250Y-66700000D01*
X135693750Y-66700000D01*
X135669858Y-66698826D01*
X135646197Y-66695316D01*
X135622993Y-66689504D01*
X135600471Y-66681446D01*
X135578847Y-66671218D01*
X135558330Y-66658921D01*
X135539117Y-66644671D01*
X135521393Y-66628607D01*
X135505329Y-66610883D01*
X135491079Y-66591670D01*
X135478782Y-66571153D01*
X135468554Y-66549529D01*
X135460496Y-66527007D01*
X135454684Y-66503803D01*
X135451174Y-66480142D01*
X135450000Y-66456250D01*
X135450000Y-65543750D01*
X135451174Y-65519858D01*
X135454684Y-65496197D01*
X135460496Y-65472993D01*
X135468554Y-65450471D01*
X135478782Y-65428847D01*
X135491079Y-65408330D01*
X135505329Y-65389117D01*
X135521393Y-65371393D01*
X135539117Y-65355329D01*
X135558330Y-65341079D01*
X135578847Y-65328782D01*
X135600471Y-65318554D01*
X135622993Y-65310496D01*
X135646197Y-65304684D01*
X135669858Y-65301174D01*
X135693750Y-65300000D01*
X136181250Y-65300000D01*
X136205142Y-65301174D01*
X136205142Y-65301174D01*
G37*
D11*
X135937500Y-66000000D03*
D10*
G36*
X134330142Y-65301174D02*
G01*
X134353803Y-65304684D01*
X134377007Y-65310496D01*
X134399529Y-65318554D01*
X134421153Y-65328782D01*
X134441670Y-65341079D01*
X134460883Y-65355329D01*
X134478607Y-65371393D01*
X134494671Y-65389117D01*
X134508921Y-65408330D01*
X134521218Y-65428847D01*
X134531446Y-65450471D01*
X134539504Y-65472993D01*
X134545316Y-65496197D01*
X134548826Y-65519858D01*
X134550000Y-65543750D01*
X134550000Y-66456250D01*
X134548826Y-66480142D01*
X134545316Y-66503803D01*
X134539504Y-66527007D01*
X134531446Y-66549529D01*
X134521218Y-66571153D01*
X134508921Y-66591670D01*
X134494671Y-66610883D01*
X134478607Y-66628607D01*
X134460883Y-66644671D01*
X134441670Y-66658921D01*
X134421153Y-66671218D01*
X134399529Y-66681446D01*
X134377007Y-66689504D01*
X134353803Y-66695316D01*
X134330142Y-66698826D01*
X134306250Y-66700000D01*
X133818750Y-66700000D01*
X133794858Y-66698826D01*
X133771197Y-66695316D01*
X133747993Y-66689504D01*
X133725471Y-66681446D01*
X133703847Y-66671218D01*
X133683330Y-66658921D01*
X133664117Y-66644671D01*
X133646393Y-66628607D01*
X133630329Y-66610883D01*
X133616079Y-66591670D01*
X133603782Y-66571153D01*
X133593554Y-66549529D01*
X133585496Y-66527007D01*
X133579684Y-66503803D01*
X133576174Y-66480142D01*
X133575000Y-66456250D01*
X133575000Y-65543750D01*
X133576174Y-65519858D01*
X133579684Y-65496197D01*
X133585496Y-65472993D01*
X133593554Y-65450471D01*
X133603782Y-65428847D01*
X133616079Y-65408330D01*
X133630329Y-65389117D01*
X133646393Y-65371393D01*
X133664117Y-65355329D01*
X133683330Y-65341079D01*
X133703847Y-65328782D01*
X133725471Y-65318554D01*
X133747993Y-65310496D01*
X133771197Y-65304684D01*
X133794858Y-65301174D01*
X133818750Y-65300000D01*
X134306250Y-65300000D01*
X134330142Y-65301174D01*
X134330142Y-65301174D01*
G37*
D11*
X134062500Y-66000000D03*
D10*
G36*
X131205142Y-65301174D02*
G01*
X131228803Y-65304684D01*
X131252007Y-65310496D01*
X131274529Y-65318554D01*
X131296153Y-65328782D01*
X131316670Y-65341079D01*
X131335883Y-65355329D01*
X131353607Y-65371393D01*
X131369671Y-65389117D01*
X131383921Y-65408330D01*
X131396218Y-65428847D01*
X131406446Y-65450471D01*
X131414504Y-65472993D01*
X131420316Y-65496197D01*
X131423826Y-65519858D01*
X131425000Y-65543750D01*
X131425000Y-66456250D01*
X131423826Y-66480142D01*
X131420316Y-66503803D01*
X131414504Y-66527007D01*
X131406446Y-66549529D01*
X131396218Y-66571153D01*
X131383921Y-66591670D01*
X131369671Y-66610883D01*
X131353607Y-66628607D01*
X131335883Y-66644671D01*
X131316670Y-66658921D01*
X131296153Y-66671218D01*
X131274529Y-66681446D01*
X131252007Y-66689504D01*
X131228803Y-66695316D01*
X131205142Y-66698826D01*
X131181250Y-66700000D01*
X130693750Y-66700000D01*
X130669858Y-66698826D01*
X130646197Y-66695316D01*
X130622993Y-66689504D01*
X130600471Y-66681446D01*
X130578847Y-66671218D01*
X130558330Y-66658921D01*
X130539117Y-66644671D01*
X130521393Y-66628607D01*
X130505329Y-66610883D01*
X130491079Y-66591670D01*
X130478782Y-66571153D01*
X130468554Y-66549529D01*
X130460496Y-66527007D01*
X130454684Y-66503803D01*
X130451174Y-66480142D01*
X130450000Y-66456250D01*
X130450000Y-65543750D01*
X130451174Y-65519858D01*
X130454684Y-65496197D01*
X130460496Y-65472993D01*
X130468554Y-65450471D01*
X130478782Y-65428847D01*
X130491079Y-65408330D01*
X130505329Y-65389117D01*
X130521393Y-65371393D01*
X130539117Y-65355329D01*
X130558330Y-65341079D01*
X130578847Y-65328782D01*
X130600471Y-65318554D01*
X130622993Y-65310496D01*
X130646197Y-65304684D01*
X130669858Y-65301174D01*
X130693750Y-65300000D01*
X131181250Y-65300000D01*
X131205142Y-65301174D01*
X131205142Y-65301174D01*
G37*
D11*
X130937500Y-66000000D03*
D10*
G36*
X129330142Y-65301174D02*
G01*
X129353803Y-65304684D01*
X129377007Y-65310496D01*
X129399529Y-65318554D01*
X129421153Y-65328782D01*
X129441670Y-65341079D01*
X129460883Y-65355329D01*
X129478607Y-65371393D01*
X129494671Y-65389117D01*
X129508921Y-65408330D01*
X129521218Y-65428847D01*
X129531446Y-65450471D01*
X129539504Y-65472993D01*
X129545316Y-65496197D01*
X129548826Y-65519858D01*
X129550000Y-65543750D01*
X129550000Y-66456250D01*
X129548826Y-66480142D01*
X129545316Y-66503803D01*
X129539504Y-66527007D01*
X129531446Y-66549529D01*
X129521218Y-66571153D01*
X129508921Y-66591670D01*
X129494671Y-66610883D01*
X129478607Y-66628607D01*
X129460883Y-66644671D01*
X129441670Y-66658921D01*
X129421153Y-66671218D01*
X129399529Y-66681446D01*
X129377007Y-66689504D01*
X129353803Y-66695316D01*
X129330142Y-66698826D01*
X129306250Y-66700000D01*
X128818750Y-66700000D01*
X128794858Y-66698826D01*
X128771197Y-66695316D01*
X128747993Y-66689504D01*
X128725471Y-66681446D01*
X128703847Y-66671218D01*
X128683330Y-66658921D01*
X128664117Y-66644671D01*
X128646393Y-66628607D01*
X128630329Y-66610883D01*
X128616079Y-66591670D01*
X128603782Y-66571153D01*
X128593554Y-66549529D01*
X128585496Y-66527007D01*
X128579684Y-66503803D01*
X128576174Y-66480142D01*
X128575000Y-66456250D01*
X128575000Y-65543750D01*
X128576174Y-65519858D01*
X128579684Y-65496197D01*
X128585496Y-65472993D01*
X128593554Y-65450471D01*
X128603782Y-65428847D01*
X128616079Y-65408330D01*
X128630329Y-65389117D01*
X128646393Y-65371393D01*
X128664117Y-65355329D01*
X128683330Y-65341079D01*
X128703847Y-65328782D01*
X128725471Y-65318554D01*
X128747993Y-65310496D01*
X128771197Y-65304684D01*
X128794858Y-65301174D01*
X128818750Y-65300000D01*
X129306250Y-65300000D01*
X129330142Y-65301174D01*
X129330142Y-65301174D01*
G37*
D11*
X129062500Y-66000000D03*
D10*
G36*
X126205142Y-65301174D02*
G01*
X126228803Y-65304684D01*
X126252007Y-65310496D01*
X126274529Y-65318554D01*
X126296153Y-65328782D01*
X126316670Y-65341079D01*
X126335883Y-65355329D01*
X126353607Y-65371393D01*
X126369671Y-65389117D01*
X126383921Y-65408330D01*
X126396218Y-65428847D01*
X126406446Y-65450471D01*
X126414504Y-65472993D01*
X126420316Y-65496197D01*
X126423826Y-65519858D01*
X126425000Y-65543750D01*
X126425000Y-66456250D01*
X126423826Y-66480142D01*
X126420316Y-66503803D01*
X126414504Y-66527007D01*
X126406446Y-66549529D01*
X126396218Y-66571153D01*
X126383921Y-66591670D01*
X126369671Y-66610883D01*
X126353607Y-66628607D01*
X126335883Y-66644671D01*
X126316670Y-66658921D01*
X126296153Y-66671218D01*
X126274529Y-66681446D01*
X126252007Y-66689504D01*
X126228803Y-66695316D01*
X126205142Y-66698826D01*
X126181250Y-66700000D01*
X125693750Y-66700000D01*
X125669858Y-66698826D01*
X125646197Y-66695316D01*
X125622993Y-66689504D01*
X125600471Y-66681446D01*
X125578847Y-66671218D01*
X125558330Y-66658921D01*
X125539117Y-66644671D01*
X125521393Y-66628607D01*
X125505329Y-66610883D01*
X125491079Y-66591670D01*
X125478782Y-66571153D01*
X125468554Y-66549529D01*
X125460496Y-66527007D01*
X125454684Y-66503803D01*
X125451174Y-66480142D01*
X125450000Y-66456250D01*
X125450000Y-65543750D01*
X125451174Y-65519858D01*
X125454684Y-65496197D01*
X125460496Y-65472993D01*
X125468554Y-65450471D01*
X125478782Y-65428847D01*
X125491079Y-65408330D01*
X125505329Y-65389117D01*
X125521393Y-65371393D01*
X125539117Y-65355329D01*
X125558330Y-65341079D01*
X125578847Y-65328782D01*
X125600471Y-65318554D01*
X125622993Y-65310496D01*
X125646197Y-65304684D01*
X125669858Y-65301174D01*
X125693750Y-65300000D01*
X126181250Y-65300000D01*
X126205142Y-65301174D01*
X126205142Y-65301174D01*
G37*
D11*
X125937500Y-66000000D03*
D10*
G36*
X124330142Y-65301174D02*
G01*
X124353803Y-65304684D01*
X124377007Y-65310496D01*
X124399529Y-65318554D01*
X124421153Y-65328782D01*
X124441670Y-65341079D01*
X124460883Y-65355329D01*
X124478607Y-65371393D01*
X124494671Y-65389117D01*
X124508921Y-65408330D01*
X124521218Y-65428847D01*
X124531446Y-65450471D01*
X124539504Y-65472993D01*
X124545316Y-65496197D01*
X124548826Y-65519858D01*
X124550000Y-65543750D01*
X124550000Y-66456250D01*
X124548826Y-66480142D01*
X124545316Y-66503803D01*
X124539504Y-66527007D01*
X124531446Y-66549529D01*
X124521218Y-66571153D01*
X124508921Y-66591670D01*
X124494671Y-66610883D01*
X124478607Y-66628607D01*
X124460883Y-66644671D01*
X124441670Y-66658921D01*
X124421153Y-66671218D01*
X124399529Y-66681446D01*
X124377007Y-66689504D01*
X124353803Y-66695316D01*
X124330142Y-66698826D01*
X124306250Y-66700000D01*
X123818750Y-66700000D01*
X123794858Y-66698826D01*
X123771197Y-66695316D01*
X123747993Y-66689504D01*
X123725471Y-66681446D01*
X123703847Y-66671218D01*
X123683330Y-66658921D01*
X123664117Y-66644671D01*
X123646393Y-66628607D01*
X123630329Y-66610883D01*
X123616079Y-66591670D01*
X123603782Y-66571153D01*
X123593554Y-66549529D01*
X123585496Y-66527007D01*
X123579684Y-66503803D01*
X123576174Y-66480142D01*
X123575000Y-66456250D01*
X123575000Y-65543750D01*
X123576174Y-65519858D01*
X123579684Y-65496197D01*
X123585496Y-65472993D01*
X123593554Y-65450471D01*
X123603782Y-65428847D01*
X123616079Y-65408330D01*
X123630329Y-65389117D01*
X123646393Y-65371393D01*
X123664117Y-65355329D01*
X123683330Y-65341079D01*
X123703847Y-65328782D01*
X123725471Y-65318554D01*
X123747993Y-65310496D01*
X123771197Y-65304684D01*
X123794858Y-65301174D01*
X123818750Y-65300000D01*
X124306250Y-65300000D01*
X124330142Y-65301174D01*
X124330142Y-65301174D01*
G37*
D11*
X124062500Y-66000000D03*
D10*
G36*
X121205142Y-65301174D02*
G01*
X121228803Y-65304684D01*
X121252007Y-65310496D01*
X121274529Y-65318554D01*
X121296153Y-65328782D01*
X121316670Y-65341079D01*
X121335883Y-65355329D01*
X121353607Y-65371393D01*
X121369671Y-65389117D01*
X121383921Y-65408330D01*
X121396218Y-65428847D01*
X121406446Y-65450471D01*
X121414504Y-65472993D01*
X121420316Y-65496197D01*
X121423826Y-65519858D01*
X121425000Y-65543750D01*
X121425000Y-66456250D01*
X121423826Y-66480142D01*
X121420316Y-66503803D01*
X121414504Y-66527007D01*
X121406446Y-66549529D01*
X121396218Y-66571153D01*
X121383921Y-66591670D01*
X121369671Y-66610883D01*
X121353607Y-66628607D01*
X121335883Y-66644671D01*
X121316670Y-66658921D01*
X121296153Y-66671218D01*
X121274529Y-66681446D01*
X121252007Y-66689504D01*
X121228803Y-66695316D01*
X121205142Y-66698826D01*
X121181250Y-66700000D01*
X120693750Y-66700000D01*
X120669858Y-66698826D01*
X120646197Y-66695316D01*
X120622993Y-66689504D01*
X120600471Y-66681446D01*
X120578847Y-66671218D01*
X120558330Y-66658921D01*
X120539117Y-66644671D01*
X120521393Y-66628607D01*
X120505329Y-66610883D01*
X120491079Y-66591670D01*
X120478782Y-66571153D01*
X120468554Y-66549529D01*
X120460496Y-66527007D01*
X120454684Y-66503803D01*
X120451174Y-66480142D01*
X120450000Y-66456250D01*
X120450000Y-65543750D01*
X120451174Y-65519858D01*
X120454684Y-65496197D01*
X120460496Y-65472993D01*
X120468554Y-65450471D01*
X120478782Y-65428847D01*
X120491079Y-65408330D01*
X120505329Y-65389117D01*
X120521393Y-65371393D01*
X120539117Y-65355329D01*
X120558330Y-65341079D01*
X120578847Y-65328782D01*
X120600471Y-65318554D01*
X120622993Y-65310496D01*
X120646197Y-65304684D01*
X120669858Y-65301174D01*
X120693750Y-65300000D01*
X121181250Y-65300000D01*
X121205142Y-65301174D01*
X121205142Y-65301174D01*
G37*
D11*
X120937500Y-66000000D03*
D10*
G36*
X119330142Y-65301174D02*
G01*
X119353803Y-65304684D01*
X119377007Y-65310496D01*
X119399529Y-65318554D01*
X119421153Y-65328782D01*
X119441670Y-65341079D01*
X119460883Y-65355329D01*
X119478607Y-65371393D01*
X119494671Y-65389117D01*
X119508921Y-65408330D01*
X119521218Y-65428847D01*
X119531446Y-65450471D01*
X119539504Y-65472993D01*
X119545316Y-65496197D01*
X119548826Y-65519858D01*
X119550000Y-65543750D01*
X119550000Y-66456250D01*
X119548826Y-66480142D01*
X119545316Y-66503803D01*
X119539504Y-66527007D01*
X119531446Y-66549529D01*
X119521218Y-66571153D01*
X119508921Y-66591670D01*
X119494671Y-66610883D01*
X119478607Y-66628607D01*
X119460883Y-66644671D01*
X119441670Y-66658921D01*
X119421153Y-66671218D01*
X119399529Y-66681446D01*
X119377007Y-66689504D01*
X119353803Y-66695316D01*
X119330142Y-66698826D01*
X119306250Y-66700000D01*
X118818750Y-66700000D01*
X118794858Y-66698826D01*
X118771197Y-66695316D01*
X118747993Y-66689504D01*
X118725471Y-66681446D01*
X118703847Y-66671218D01*
X118683330Y-66658921D01*
X118664117Y-66644671D01*
X118646393Y-66628607D01*
X118630329Y-66610883D01*
X118616079Y-66591670D01*
X118603782Y-66571153D01*
X118593554Y-66549529D01*
X118585496Y-66527007D01*
X118579684Y-66503803D01*
X118576174Y-66480142D01*
X118575000Y-66456250D01*
X118575000Y-65543750D01*
X118576174Y-65519858D01*
X118579684Y-65496197D01*
X118585496Y-65472993D01*
X118593554Y-65450471D01*
X118603782Y-65428847D01*
X118616079Y-65408330D01*
X118630329Y-65389117D01*
X118646393Y-65371393D01*
X118664117Y-65355329D01*
X118683330Y-65341079D01*
X118703847Y-65328782D01*
X118725471Y-65318554D01*
X118747993Y-65310496D01*
X118771197Y-65304684D01*
X118794858Y-65301174D01*
X118818750Y-65300000D01*
X119306250Y-65300000D01*
X119330142Y-65301174D01*
X119330142Y-65301174D01*
G37*
D11*
X119062500Y-66000000D03*
D10*
G36*
X116205142Y-65301174D02*
G01*
X116228803Y-65304684D01*
X116252007Y-65310496D01*
X116274529Y-65318554D01*
X116296153Y-65328782D01*
X116316670Y-65341079D01*
X116335883Y-65355329D01*
X116353607Y-65371393D01*
X116369671Y-65389117D01*
X116383921Y-65408330D01*
X116396218Y-65428847D01*
X116406446Y-65450471D01*
X116414504Y-65472993D01*
X116420316Y-65496197D01*
X116423826Y-65519858D01*
X116425000Y-65543750D01*
X116425000Y-66456250D01*
X116423826Y-66480142D01*
X116420316Y-66503803D01*
X116414504Y-66527007D01*
X116406446Y-66549529D01*
X116396218Y-66571153D01*
X116383921Y-66591670D01*
X116369671Y-66610883D01*
X116353607Y-66628607D01*
X116335883Y-66644671D01*
X116316670Y-66658921D01*
X116296153Y-66671218D01*
X116274529Y-66681446D01*
X116252007Y-66689504D01*
X116228803Y-66695316D01*
X116205142Y-66698826D01*
X116181250Y-66700000D01*
X115693750Y-66700000D01*
X115669858Y-66698826D01*
X115646197Y-66695316D01*
X115622993Y-66689504D01*
X115600471Y-66681446D01*
X115578847Y-66671218D01*
X115558330Y-66658921D01*
X115539117Y-66644671D01*
X115521393Y-66628607D01*
X115505329Y-66610883D01*
X115491079Y-66591670D01*
X115478782Y-66571153D01*
X115468554Y-66549529D01*
X115460496Y-66527007D01*
X115454684Y-66503803D01*
X115451174Y-66480142D01*
X115450000Y-66456250D01*
X115450000Y-65543750D01*
X115451174Y-65519858D01*
X115454684Y-65496197D01*
X115460496Y-65472993D01*
X115468554Y-65450471D01*
X115478782Y-65428847D01*
X115491079Y-65408330D01*
X115505329Y-65389117D01*
X115521393Y-65371393D01*
X115539117Y-65355329D01*
X115558330Y-65341079D01*
X115578847Y-65328782D01*
X115600471Y-65318554D01*
X115622993Y-65310496D01*
X115646197Y-65304684D01*
X115669858Y-65301174D01*
X115693750Y-65300000D01*
X116181250Y-65300000D01*
X116205142Y-65301174D01*
X116205142Y-65301174D01*
G37*
D11*
X115937500Y-66000000D03*
D10*
G36*
X114330142Y-65301174D02*
G01*
X114353803Y-65304684D01*
X114377007Y-65310496D01*
X114399529Y-65318554D01*
X114421153Y-65328782D01*
X114441670Y-65341079D01*
X114460883Y-65355329D01*
X114478607Y-65371393D01*
X114494671Y-65389117D01*
X114508921Y-65408330D01*
X114521218Y-65428847D01*
X114531446Y-65450471D01*
X114539504Y-65472993D01*
X114545316Y-65496197D01*
X114548826Y-65519858D01*
X114550000Y-65543750D01*
X114550000Y-66456250D01*
X114548826Y-66480142D01*
X114545316Y-66503803D01*
X114539504Y-66527007D01*
X114531446Y-66549529D01*
X114521218Y-66571153D01*
X114508921Y-66591670D01*
X114494671Y-66610883D01*
X114478607Y-66628607D01*
X114460883Y-66644671D01*
X114441670Y-66658921D01*
X114421153Y-66671218D01*
X114399529Y-66681446D01*
X114377007Y-66689504D01*
X114353803Y-66695316D01*
X114330142Y-66698826D01*
X114306250Y-66700000D01*
X113818750Y-66700000D01*
X113794858Y-66698826D01*
X113771197Y-66695316D01*
X113747993Y-66689504D01*
X113725471Y-66681446D01*
X113703847Y-66671218D01*
X113683330Y-66658921D01*
X113664117Y-66644671D01*
X113646393Y-66628607D01*
X113630329Y-66610883D01*
X113616079Y-66591670D01*
X113603782Y-66571153D01*
X113593554Y-66549529D01*
X113585496Y-66527007D01*
X113579684Y-66503803D01*
X113576174Y-66480142D01*
X113575000Y-66456250D01*
X113575000Y-65543750D01*
X113576174Y-65519858D01*
X113579684Y-65496197D01*
X113585496Y-65472993D01*
X113593554Y-65450471D01*
X113603782Y-65428847D01*
X113616079Y-65408330D01*
X113630329Y-65389117D01*
X113646393Y-65371393D01*
X113664117Y-65355329D01*
X113683330Y-65341079D01*
X113703847Y-65328782D01*
X113725471Y-65318554D01*
X113747993Y-65310496D01*
X113771197Y-65304684D01*
X113794858Y-65301174D01*
X113818750Y-65300000D01*
X114306250Y-65300000D01*
X114330142Y-65301174D01*
X114330142Y-65301174D01*
G37*
D11*
X114062500Y-66000000D03*
D10*
G36*
X111205142Y-65301174D02*
G01*
X111228803Y-65304684D01*
X111252007Y-65310496D01*
X111274529Y-65318554D01*
X111296153Y-65328782D01*
X111316670Y-65341079D01*
X111335883Y-65355329D01*
X111353607Y-65371393D01*
X111369671Y-65389117D01*
X111383921Y-65408330D01*
X111396218Y-65428847D01*
X111406446Y-65450471D01*
X111414504Y-65472993D01*
X111420316Y-65496197D01*
X111423826Y-65519858D01*
X111425000Y-65543750D01*
X111425000Y-66456250D01*
X111423826Y-66480142D01*
X111420316Y-66503803D01*
X111414504Y-66527007D01*
X111406446Y-66549529D01*
X111396218Y-66571153D01*
X111383921Y-66591670D01*
X111369671Y-66610883D01*
X111353607Y-66628607D01*
X111335883Y-66644671D01*
X111316670Y-66658921D01*
X111296153Y-66671218D01*
X111274529Y-66681446D01*
X111252007Y-66689504D01*
X111228803Y-66695316D01*
X111205142Y-66698826D01*
X111181250Y-66700000D01*
X110693750Y-66700000D01*
X110669858Y-66698826D01*
X110646197Y-66695316D01*
X110622993Y-66689504D01*
X110600471Y-66681446D01*
X110578847Y-66671218D01*
X110558330Y-66658921D01*
X110539117Y-66644671D01*
X110521393Y-66628607D01*
X110505329Y-66610883D01*
X110491079Y-66591670D01*
X110478782Y-66571153D01*
X110468554Y-66549529D01*
X110460496Y-66527007D01*
X110454684Y-66503803D01*
X110451174Y-66480142D01*
X110450000Y-66456250D01*
X110450000Y-65543750D01*
X110451174Y-65519858D01*
X110454684Y-65496197D01*
X110460496Y-65472993D01*
X110468554Y-65450471D01*
X110478782Y-65428847D01*
X110491079Y-65408330D01*
X110505329Y-65389117D01*
X110521393Y-65371393D01*
X110539117Y-65355329D01*
X110558330Y-65341079D01*
X110578847Y-65328782D01*
X110600471Y-65318554D01*
X110622993Y-65310496D01*
X110646197Y-65304684D01*
X110669858Y-65301174D01*
X110693750Y-65300000D01*
X111181250Y-65300000D01*
X111205142Y-65301174D01*
X111205142Y-65301174D01*
G37*
D11*
X110937500Y-66000000D03*
D10*
G36*
X109330142Y-65301174D02*
G01*
X109353803Y-65304684D01*
X109377007Y-65310496D01*
X109399529Y-65318554D01*
X109421153Y-65328782D01*
X109441670Y-65341079D01*
X109460883Y-65355329D01*
X109478607Y-65371393D01*
X109494671Y-65389117D01*
X109508921Y-65408330D01*
X109521218Y-65428847D01*
X109531446Y-65450471D01*
X109539504Y-65472993D01*
X109545316Y-65496197D01*
X109548826Y-65519858D01*
X109550000Y-65543750D01*
X109550000Y-66456250D01*
X109548826Y-66480142D01*
X109545316Y-66503803D01*
X109539504Y-66527007D01*
X109531446Y-66549529D01*
X109521218Y-66571153D01*
X109508921Y-66591670D01*
X109494671Y-66610883D01*
X109478607Y-66628607D01*
X109460883Y-66644671D01*
X109441670Y-66658921D01*
X109421153Y-66671218D01*
X109399529Y-66681446D01*
X109377007Y-66689504D01*
X109353803Y-66695316D01*
X109330142Y-66698826D01*
X109306250Y-66700000D01*
X108818750Y-66700000D01*
X108794858Y-66698826D01*
X108771197Y-66695316D01*
X108747993Y-66689504D01*
X108725471Y-66681446D01*
X108703847Y-66671218D01*
X108683330Y-66658921D01*
X108664117Y-66644671D01*
X108646393Y-66628607D01*
X108630329Y-66610883D01*
X108616079Y-66591670D01*
X108603782Y-66571153D01*
X108593554Y-66549529D01*
X108585496Y-66527007D01*
X108579684Y-66503803D01*
X108576174Y-66480142D01*
X108575000Y-66456250D01*
X108575000Y-65543750D01*
X108576174Y-65519858D01*
X108579684Y-65496197D01*
X108585496Y-65472993D01*
X108593554Y-65450471D01*
X108603782Y-65428847D01*
X108616079Y-65408330D01*
X108630329Y-65389117D01*
X108646393Y-65371393D01*
X108664117Y-65355329D01*
X108683330Y-65341079D01*
X108703847Y-65328782D01*
X108725471Y-65318554D01*
X108747993Y-65310496D01*
X108771197Y-65304684D01*
X108794858Y-65301174D01*
X108818750Y-65300000D01*
X109306250Y-65300000D01*
X109330142Y-65301174D01*
X109330142Y-65301174D01*
G37*
D11*
X109062500Y-66000000D03*
D12*
X93000000Y-67350000D03*
X93000000Y-70650000D03*
X107000000Y-70650000D03*
X107000000Y-67350000D03*
D10*
G36*
X91205142Y-65301174D02*
G01*
X91228803Y-65304684D01*
X91252007Y-65310496D01*
X91274529Y-65318554D01*
X91296153Y-65328782D01*
X91316670Y-65341079D01*
X91335883Y-65355329D01*
X91353607Y-65371393D01*
X91369671Y-65389117D01*
X91383921Y-65408330D01*
X91396218Y-65428847D01*
X91406446Y-65450471D01*
X91414504Y-65472993D01*
X91420316Y-65496197D01*
X91423826Y-65519858D01*
X91425000Y-65543750D01*
X91425000Y-66456250D01*
X91423826Y-66480142D01*
X91420316Y-66503803D01*
X91414504Y-66527007D01*
X91406446Y-66549529D01*
X91396218Y-66571153D01*
X91383921Y-66591670D01*
X91369671Y-66610883D01*
X91353607Y-66628607D01*
X91335883Y-66644671D01*
X91316670Y-66658921D01*
X91296153Y-66671218D01*
X91274529Y-66681446D01*
X91252007Y-66689504D01*
X91228803Y-66695316D01*
X91205142Y-66698826D01*
X91181250Y-66700000D01*
X90693750Y-66700000D01*
X90669858Y-66698826D01*
X90646197Y-66695316D01*
X90622993Y-66689504D01*
X90600471Y-66681446D01*
X90578847Y-66671218D01*
X90558330Y-66658921D01*
X90539117Y-66644671D01*
X90521393Y-66628607D01*
X90505329Y-66610883D01*
X90491079Y-66591670D01*
X90478782Y-66571153D01*
X90468554Y-66549529D01*
X90460496Y-66527007D01*
X90454684Y-66503803D01*
X90451174Y-66480142D01*
X90450000Y-66456250D01*
X90450000Y-65543750D01*
X90451174Y-65519858D01*
X90454684Y-65496197D01*
X90460496Y-65472993D01*
X90468554Y-65450471D01*
X90478782Y-65428847D01*
X90491079Y-65408330D01*
X90505329Y-65389117D01*
X90521393Y-65371393D01*
X90539117Y-65355329D01*
X90558330Y-65341079D01*
X90578847Y-65328782D01*
X90600471Y-65318554D01*
X90622993Y-65310496D01*
X90646197Y-65304684D01*
X90669858Y-65301174D01*
X90693750Y-65300000D01*
X91181250Y-65300000D01*
X91205142Y-65301174D01*
X91205142Y-65301174D01*
G37*
D11*
X90937500Y-66000000D03*
D10*
G36*
X89330142Y-65301174D02*
G01*
X89353803Y-65304684D01*
X89377007Y-65310496D01*
X89399529Y-65318554D01*
X89421153Y-65328782D01*
X89441670Y-65341079D01*
X89460883Y-65355329D01*
X89478607Y-65371393D01*
X89494671Y-65389117D01*
X89508921Y-65408330D01*
X89521218Y-65428847D01*
X89531446Y-65450471D01*
X89539504Y-65472993D01*
X89545316Y-65496197D01*
X89548826Y-65519858D01*
X89550000Y-65543750D01*
X89550000Y-66456250D01*
X89548826Y-66480142D01*
X89545316Y-66503803D01*
X89539504Y-66527007D01*
X89531446Y-66549529D01*
X89521218Y-66571153D01*
X89508921Y-66591670D01*
X89494671Y-66610883D01*
X89478607Y-66628607D01*
X89460883Y-66644671D01*
X89441670Y-66658921D01*
X89421153Y-66671218D01*
X89399529Y-66681446D01*
X89377007Y-66689504D01*
X89353803Y-66695316D01*
X89330142Y-66698826D01*
X89306250Y-66700000D01*
X88818750Y-66700000D01*
X88794858Y-66698826D01*
X88771197Y-66695316D01*
X88747993Y-66689504D01*
X88725471Y-66681446D01*
X88703847Y-66671218D01*
X88683330Y-66658921D01*
X88664117Y-66644671D01*
X88646393Y-66628607D01*
X88630329Y-66610883D01*
X88616079Y-66591670D01*
X88603782Y-66571153D01*
X88593554Y-66549529D01*
X88585496Y-66527007D01*
X88579684Y-66503803D01*
X88576174Y-66480142D01*
X88575000Y-66456250D01*
X88575000Y-65543750D01*
X88576174Y-65519858D01*
X88579684Y-65496197D01*
X88585496Y-65472993D01*
X88593554Y-65450471D01*
X88603782Y-65428847D01*
X88616079Y-65408330D01*
X88630329Y-65389117D01*
X88646393Y-65371393D01*
X88664117Y-65355329D01*
X88683330Y-65341079D01*
X88703847Y-65328782D01*
X88725471Y-65318554D01*
X88747993Y-65310496D01*
X88771197Y-65304684D01*
X88794858Y-65301174D01*
X88818750Y-65300000D01*
X89306250Y-65300000D01*
X89330142Y-65301174D01*
X89330142Y-65301174D01*
G37*
D11*
X89062500Y-66000000D03*
D10*
G36*
X86205142Y-65301174D02*
G01*
X86228803Y-65304684D01*
X86252007Y-65310496D01*
X86274529Y-65318554D01*
X86296153Y-65328782D01*
X86316670Y-65341079D01*
X86335883Y-65355329D01*
X86353607Y-65371393D01*
X86369671Y-65389117D01*
X86383921Y-65408330D01*
X86396218Y-65428847D01*
X86406446Y-65450471D01*
X86414504Y-65472993D01*
X86420316Y-65496197D01*
X86423826Y-65519858D01*
X86425000Y-65543750D01*
X86425000Y-66456250D01*
X86423826Y-66480142D01*
X86420316Y-66503803D01*
X86414504Y-66527007D01*
X86406446Y-66549529D01*
X86396218Y-66571153D01*
X86383921Y-66591670D01*
X86369671Y-66610883D01*
X86353607Y-66628607D01*
X86335883Y-66644671D01*
X86316670Y-66658921D01*
X86296153Y-66671218D01*
X86274529Y-66681446D01*
X86252007Y-66689504D01*
X86228803Y-66695316D01*
X86205142Y-66698826D01*
X86181250Y-66700000D01*
X85693750Y-66700000D01*
X85669858Y-66698826D01*
X85646197Y-66695316D01*
X85622993Y-66689504D01*
X85600471Y-66681446D01*
X85578847Y-66671218D01*
X85558330Y-66658921D01*
X85539117Y-66644671D01*
X85521393Y-66628607D01*
X85505329Y-66610883D01*
X85491079Y-66591670D01*
X85478782Y-66571153D01*
X85468554Y-66549529D01*
X85460496Y-66527007D01*
X85454684Y-66503803D01*
X85451174Y-66480142D01*
X85450000Y-66456250D01*
X85450000Y-65543750D01*
X85451174Y-65519858D01*
X85454684Y-65496197D01*
X85460496Y-65472993D01*
X85468554Y-65450471D01*
X85478782Y-65428847D01*
X85491079Y-65408330D01*
X85505329Y-65389117D01*
X85521393Y-65371393D01*
X85539117Y-65355329D01*
X85558330Y-65341079D01*
X85578847Y-65328782D01*
X85600471Y-65318554D01*
X85622993Y-65310496D01*
X85646197Y-65304684D01*
X85669858Y-65301174D01*
X85693750Y-65300000D01*
X86181250Y-65300000D01*
X86205142Y-65301174D01*
X86205142Y-65301174D01*
G37*
D11*
X85937500Y-66000000D03*
D10*
G36*
X84330142Y-65301174D02*
G01*
X84353803Y-65304684D01*
X84377007Y-65310496D01*
X84399529Y-65318554D01*
X84421153Y-65328782D01*
X84441670Y-65341079D01*
X84460883Y-65355329D01*
X84478607Y-65371393D01*
X84494671Y-65389117D01*
X84508921Y-65408330D01*
X84521218Y-65428847D01*
X84531446Y-65450471D01*
X84539504Y-65472993D01*
X84545316Y-65496197D01*
X84548826Y-65519858D01*
X84550000Y-65543750D01*
X84550000Y-66456250D01*
X84548826Y-66480142D01*
X84545316Y-66503803D01*
X84539504Y-66527007D01*
X84531446Y-66549529D01*
X84521218Y-66571153D01*
X84508921Y-66591670D01*
X84494671Y-66610883D01*
X84478607Y-66628607D01*
X84460883Y-66644671D01*
X84441670Y-66658921D01*
X84421153Y-66671218D01*
X84399529Y-66681446D01*
X84377007Y-66689504D01*
X84353803Y-66695316D01*
X84330142Y-66698826D01*
X84306250Y-66700000D01*
X83818750Y-66700000D01*
X83794858Y-66698826D01*
X83771197Y-66695316D01*
X83747993Y-66689504D01*
X83725471Y-66681446D01*
X83703847Y-66671218D01*
X83683330Y-66658921D01*
X83664117Y-66644671D01*
X83646393Y-66628607D01*
X83630329Y-66610883D01*
X83616079Y-66591670D01*
X83603782Y-66571153D01*
X83593554Y-66549529D01*
X83585496Y-66527007D01*
X83579684Y-66503803D01*
X83576174Y-66480142D01*
X83575000Y-66456250D01*
X83575000Y-65543750D01*
X83576174Y-65519858D01*
X83579684Y-65496197D01*
X83585496Y-65472993D01*
X83593554Y-65450471D01*
X83603782Y-65428847D01*
X83616079Y-65408330D01*
X83630329Y-65389117D01*
X83646393Y-65371393D01*
X83664117Y-65355329D01*
X83683330Y-65341079D01*
X83703847Y-65328782D01*
X83725471Y-65318554D01*
X83747993Y-65310496D01*
X83771197Y-65304684D01*
X83794858Y-65301174D01*
X83818750Y-65300000D01*
X84306250Y-65300000D01*
X84330142Y-65301174D01*
X84330142Y-65301174D01*
G37*
D11*
X84062500Y-66000000D03*
D10*
G36*
X166205142Y-86301174D02*
G01*
X166228803Y-86304684D01*
X166252007Y-86310496D01*
X166274529Y-86318554D01*
X166296153Y-86328782D01*
X166316670Y-86341079D01*
X166335883Y-86355329D01*
X166353607Y-86371393D01*
X166369671Y-86389117D01*
X166383921Y-86408330D01*
X166396218Y-86428847D01*
X166406446Y-86450471D01*
X166414504Y-86472993D01*
X166420316Y-86496197D01*
X166423826Y-86519858D01*
X166425000Y-86543750D01*
X166425000Y-87456250D01*
X166423826Y-87480142D01*
X166420316Y-87503803D01*
X166414504Y-87527007D01*
X166406446Y-87549529D01*
X166396218Y-87571153D01*
X166383921Y-87591670D01*
X166369671Y-87610883D01*
X166353607Y-87628607D01*
X166335883Y-87644671D01*
X166316670Y-87658921D01*
X166296153Y-87671218D01*
X166274529Y-87681446D01*
X166252007Y-87689504D01*
X166228803Y-87695316D01*
X166205142Y-87698826D01*
X166181250Y-87700000D01*
X165693750Y-87700000D01*
X165669858Y-87698826D01*
X165646197Y-87695316D01*
X165622993Y-87689504D01*
X165600471Y-87681446D01*
X165578847Y-87671218D01*
X165558330Y-87658921D01*
X165539117Y-87644671D01*
X165521393Y-87628607D01*
X165505329Y-87610883D01*
X165491079Y-87591670D01*
X165478782Y-87571153D01*
X165468554Y-87549529D01*
X165460496Y-87527007D01*
X165454684Y-87503803D01*
X165451174Y-87480142D01*
X165450000Y-87456250D01*
X165450000Y-86543750D01*
X165451174Y-86519858D01*
X165454684Y-86496197D01*
X165460496Y-86472993D01*
X165468554Y-86450471D01*
X165478782Y-86428847D01*
X165491079Y-86408330D01*
X165505329Y-86389117D01*
X165521393Y-86371393D01*
X165539117Y-86355329D01*
X165558330Y-86341079D01*
X165578847Y-86328782D01*
X165600471Y-86318554D01*
X165622993Y-86310496D01*
X165646197Y-86304684D01*
X165669858Y-86301174D01*
X165693750Y-86300000D01*
X166181250Y-86300000D01*
X166205142Y-86301174D01*
X166205142Y-86301174D01*
G37*
D11*
X165937500Y-87000000D03*
D10*
G36*
X164330142Y-86301174D02*
G01*
X164353803Y-86304684D01*
X164377007Y-86310496D01*
X164399529Y-86318554D01*
X164421153Y-86328782D01*
X164441670Y-86341079D01*
X164460883Y-86355329D01*
X164478607Y-86371393D01*
X164494671Y-86389117D01*
X164508921Y-86408330D01*
X164521218Y-86428847D01*
X164531446Y-86450471D01*
X164539504Y-86472993D01*
X164545316Y-86496197D01*
X164548826Y-86519858D01*
X164550000Y-86543750D01*
X164550000Y-87456250D01*
X164548826Y-87480142D01*
X164545316Y-87503803D01*
X164539504Y-87527007D01*
X164531446Y-87549529D01*
X164521218Y-87571153D01*
X164508921Y-87591670D01*
X164494671Y-87610883D01*
X164478607Y-87628607D01*
X164460883Y-87644671D01*
X164441670Y-87658921D01*
X164421153Y-87671218D01*
X164399529Y-87681446D01*
X164377007Y-87689504D01*
X164353803Y-87695316D01*
X164330142Y-87698826D01*
X164306250Y-87700000D01*
X163818750Y-87700000D01*
X163794858Y-87698826D01*
X163771197Y-87695316D01*
X163747993Y-87689504D01*
X163725471Y-87681446D01*
X163703847Y-87671218D01*
X163683330Y-87658921D01*
X163664117Y-87644671D01*
X163646393Y-87628607D01*
X163630329Y-87610883D01*
X163616079Y-87591670D01*
X163603782Y-87571153D01*
X163593554Y-87549529D01*
X163585496Y-87527007D01*
X163579684Y-87503803D01*
X163576174Y-87480142D01*
X163575000Y-87456250D01*
X163575000Y-86543750D01*
X163576174Y-86519858D01*
X163579684Y-86496197D01*
X163585496Y-86472993D01*
X163593554Y-86450471D01*
X163603782Y-86428847D01*
X163616079Y-86408330D01*
X163630329Y-86389117D01*
X163646393Y-86371393D01*
X163664117Y-86355329D01*
X163683330Y-86341079D01*
X163703847Y-86328782D01*
X163725471Y-86318554D01*
X163747993Y-86310496D01*
X163771197Y-86304684D01*
X163794858Y-86301174D01*
X163818750Y-86300000D01*
X164306250Y-86300000D01*
X164330142Y-86301174D01*
X164330142Y-86301174D01*
G37*
D11*
X164062500Y-87000000D03*
D10*
G36*
X161205142Y-86301174D02*
G01*
X161228803Y-86304684D01*
X161252007Y-86310496D01*
X161274529Y-86318554D01*
X161296153Y-86328782D01*
X161316670Y-86341079D01*
X161335883Y-86355329D01*
X161353607Y-86371393D01*
X161369671Y-86389117D01*
X161383921Y-86408330D01*
X161396218Y-86428847D01*
X161406446Y-86450471D01*
X161414504Y-86472993D01*
X161420316Y-86496197D01*
X161423826Y-86519858D01*
X161425000Y-86543750D01*
X161425000Y-87456250D01*
X161423826Y-87480142D01*
X161420316Y-87503803D01*
X161414504Y-87527007D01*
X161406446Y-87549529D01*
X161396218Y-87571153D01*
X161383921Y-87591670D01*
X161369671Y-87610883D01*
X161353607Y-87628607D01*
X161335883Y-87644671D01*
X161316670Y-87658921D01*
X161296153Y-87671218D01*
X161274529Y-87681446D01*
X161252007Y-87689504D01*
X161228803Y-87695316D01*
X161205142Y-87698826D01*
X161181250Y-87700000D01*
X160693750Y-87700000D01*
X160669858Y-87698826D01*
X160646197Y-87695316D01*
X160622993Y-87689504D01*
X160600471Y-87681446D01*
X160578847Y-87671218D01*
X160558330Y-87658921D01*
X160539117Y-87644671D01*
X160521393Y-87628607D01*
X160505329Y-87610883D01*
X160491079Y-87591670D01*
X160478782Y-87571153D01*
X160468554Y-87549529D01*
X160460496Y-87527007D01*
X160454684Y-87503803D01*
X160451174Y-87480142D01*
X160450000Y-87456250D01*
X160450000Y-86543750D01*
X160451174Y-86519858D01*
X160454684Y-86496197D01*
X160460496Y-86472993D01*
X160468554Y-86450471D01*
X160478782Y-86428847D01*
X160491079Y-86408330D01*
X160505329Y-86389117D01*
X160521393Y-86371393D01*
X160539117Y-86355329D01*
X160558330Y-86341079D01*
X160578847Y-86328782D01*
X160600471Y-86318554D01*
X160622993Y-86310496D01*
X160646197Y-86304684D01*
X160669858Y-86301174D01*
X160693750Y-86300000D01*
X161181250Y-86300000D01*
X161205142Y-86301174D01*
X161205142Y-86301174D01*
G37*
D11*
X160937500Y-87000000D03*
D10*
G36*
X159330142Y-86301174D02*
G01*
X159353803Y-86304684D01*
X159377007Y-86310496D01*
X159399529Y-86318554D01*
X159421153Y-86328782D01*
X159441670Y-86341079D01*
X159460883Y-86355329D01*
X159478607Y-86371393D01*
X159494671Y-86389117D01*
X159508921Y-86408330D01*
X159521218Y-86428847D01*
X159531446Y-86450471D01*
X159539504Y-86472993D01*
X159545316Y-86496197D01*
X159548826Y-86519858D01*
X159550000Y-86543750D01*
X159550000Y-87456250D01*
X159548826Y-87480142D01*
X159545316Y-87503803D01*
X159539504Y-87527007D01*
X159531446Y-87549529D01*
X159521218Y-87571153D01*
X159508921Y-87591670D01*
X159494671Y-87610883D01*
X159478607Y-87628607D01*
X159460883Y-87644671D01*
X159441670Y-87658921D01*
X159421153Y-87671218D01*
X159399529Y-87681446D01*
X159377007Y-87689504D01*
X159353803Y-87695316D01*
X159330142Y-87698826D01*
X159306250Y-87700000D01*
X158818750Y-87700000D01*
X158794858Y-87698826D01*
X158771197Y-87695316D01*
X158747993Y-87689504D01*
X158725471Y-87681446D01*
X158703847Y-87671218D01*
X158683330Y-87658921D01*
X158664117Y-87644671D01*
X158646393Y-87628607D01*
X158630329Y-87610883D01*
X158616079Y-87591670D01*
X158603782Y-87571153D01*
X158593554Y-87549529D01*
X158585496Y-87527007D01*
X158579684Y-87503803D01*
X158576174Y-87480142D01*
X158575000Y-87456250D01*
X158575000Y-86543750D01*
X158576174Y-86519858D01*
X158579684Y-86496197D01*
X158585496Y-86472993D01*
X158593554Y-86450471D01*
X158603782Y-86428847D01*
X158616079Y-86408330D01*
X158630329Y-86389117D01*
X158646393Y-86371393D01*
X158664117Y-86355329D01*
X158683330Y-86341079D01*
X158703847Y-86328782D01*
X158725471Y-86318554D01*
X158747993Y-86310496D01*
X158771197Y-86304684D01*
X158794858Y-86301174D01*
X158818750Y-86300000D01*
X159306250Y-86300000D01*
X159330142Y-86301174D01*
X159330142Y-86301174D01*
G37*
D11*
X159062500Y-87000000D03*
D10*
G36*
X141205142Y-86301174D02*
G01*
X141228803Y-86304684D01*
X141252007Y-86310496D01*
X141274529Y-86318554D01*
X141296153Y-86328782D01*
X141316670Y-86341079D01*
X141335883Y-86355329D01*
X141353607Y-86371393D01*
X141369671Y-86389117D01*
X141383921Y-86408330D01*
X141396218Y-86428847D01*
X141406446Y-86450471D01*
X141414504Y-86472993D01*
X141420316Y-86496197D01*
X141423826Y-86519858D01*
X141425000Y-86543750D01*
X141425000Y-87456250D01*
X141423826Y-87480142D01*
X141420316Y-87503803D01*
X141414504Y-87527007D01*
X141406446Y-87549529D01*
X141396218Y-87571153D01*
X141383921Y-87591670D01*
X141369671Y-87610883D01*
X141353607Y-87628607D01*
X141335883Y-87644671D01*
X141316670Y-87658921D01*
X141296153Y-87671218D01*
X141274529Y-87681446D01*
X141252007Y-87689504D01*
X141228803Y-87695316D01*
X141205142Y-87698826D01*
X141181250Y-87700000D01*
X140693750Y-87700000D01*
X140669858Y-87698826D01*
X140646197Y-87695316D01*
X140622993Y-87689504D01*
X140600471Y-87681446D01*
X140578847Y-87671218D01*
X140558330Y-87658921D01*
X140539117Y-87644671D01*
X140521393Y-87628607D01*
X140505329Y-87610883D01*
X140491079Y-87591670D01*
X140478782Y-87571153D01*
X140468554Y-87549529D01*
X140460496Y-87527007D01*
X140454684Y-87503803D01*
X140451174Y-87480142D01*
X140450000Y-87456250D01*
X140450000Y-86543750D01*
X140451174Y-86519858D01*
X140454684Y-86496197D01*
X140460496Y-86472993D01*
X140468554Y-86450471D01*
X140478782Y-86428847D01*
X140491079Y-86408330D01*
X140505329Y-86389117D01*
X140521393Y-86371393D01*
X140539117Y-86355329D01*
X140558330Y-86341079D01*
X140578847Y-86328782D01*
X140600471Y-86318554D01*
X140622993Y-86310496D01*
X140646197Y-86304684D01*
X140669858Y-86301174D01*
X140693750Y-86300000D01*
X141181250Y-86300000D01*
X141205142Y-86301174D01*
X141205142Y-86301174D01*
G37*
D11*
X140937500Y-87000000D03*
D10*
G36*
X139330142Y-86301174D02*
G01*
X139353803Y-86304684D01*
X139377007Y-86310496D01*
X139399529Y-86318554D01*
X139421153Y-86328782D01*
X139441670Y-86341079D01*
X139460883Y-86355329D01*
X139478607Y-86371393D01*
X139494671Y-86389117D01*
X139508921Y-86408330D01*
X139521218Y-86428847D01*
X139531446Y-86450471D01*
X139539504Y-86472993D01*
X139545316Y-86496197D01*
X139548826Y-86519858D01*
X139550000Y-86543750D01*
X139550000Y-87456250D01*
X139548826Y-87480142D01*
X139545316Y-87503803D01*
X139539504Y-87527007D01*
X139531446Y-87549529D01*
X139521218Y-87571153D01*
X139508921Y-87591670D01*
X139494671Y-87610883D01*
X139478607Y-87628607D01*
X139460883Y-87644671D01*
X139441670Y-87658921D01*
X139421153Y-87671218D01*
X139399529Y-87681446D01*
X139377007Y-87689504D01*
X139353803Y-87695316D01*
X139330142Y-87698826D01*
X139306250Y-87700000D01*
X138818750Y-87700000D01*
X138794858Y-87698826D01*
X138771197Y-87695316D01*
X138747993Y-87689504D01*
X138725471Y-87681446D01*
X138703847Y-87671218D01*
X138683330Y-87658921D01*
X138664117Y-87644671D01*
X138646393Y-87628607D01*
X138630329Y-87610883D01*
X138616079Y-87591670D01*
X138603782Y-87571153D01*
X138593554Y-87549529D01*
X138585496Y-87527007D01*
X138579684Y-87503803D01*
X138576174Y-87480142D01*
X138575000Y-87456250D01*
X138575000Y-86543750D01*
X138576174Y-86519858D01*
X138579684Y-86496197D01*
X138585496Y-86472993D01*
X138593554Y-86450471D01*
X138603782Y-86428847D01*
X138616079Y-86408330D01*
X138630329Y-86389117D01*
X138646393Y-86371393D01*
X138664117Y-86355329D01*
X138683330Y-86341079D01*
X138703847Y-86328782D01*
X138725471Y-86318554D01*
X138747993Y-86310496D01*
X138771197Y-86304684D01*
X138794858Y-86301174D01*
X138818750Y-86300000D01*
X139306250Y-86300000D01*
X139330142Y-86301174D01*
X139330142Y-86301174D01*
G37*
D11*
X139062500Y-87000000D03*
D10*
G36*
X136205142Y-86301174D02*
G01*
X136228803Y-86304684D01*
X136252007Y-86310496D01*
X136274529Y-86318554D01*
X136296153Y-86328782D01*
X136316670Y-86341079D01*
X136335883Y-86355329D01*
X136353607Y-86371393D01*
X136369671Y-86389117D01*
X136383921Y-86408330D01*
X136396218Y-86428847D01*
X136406446Y-86450471D01*
X136414504Y-86472993D01*
X136420316Y-86496197D01*
X136423826Y-86519858D01*
X136425000Y-86543750D01*
X136425000Y-87456250D01*
X136423826Y-87480142D01*
X136420316Y-87503803D01*
X136414504Y-87527007D01*
X136406446Y-87549529D01*
X136396218Y-87571153D01*
X136383921Y-87591670D01*
X136369671Y-87610883D01*
X136353607Y-87628607D01*
X136335883Y-87644671D01*
X136316670Y-87658921D01*
X136296153Y-87671218D01*
X136274529Y-87681446D01*
X136252007Y-87689504D01*
X136228803Y-87695316D01*
X136205142Y-87698826D01*
X136181250Y-87700000D01*
X135693750Y-87700000D01*
X135669858Y-87698826D01*
X135646197Y-87695316D01*
X135622993Y-87689504D01*
X135600471Y-87681446D01*
X135578847Y-87671218D01*
X135558330Y-87658921D01*
X135539117Y-87644671D01*
X135521393Y-87628607D01*
X135505329Y-87610883D01*
X135491079Y-87591670D01*
X135478782Y-87571153D01*
X135468554Y-87549529D01*
X135460496Y-87527007D01*
X135454684Y-87503803D01*
X135451174Y-87480142D01*
X135450000Y-87456250D01*
X135450000Y-86543750D01*
X135451174Y-86519858D01*
X135454684Y-86496197D01*
X135460496Y-86472993D01*
X135468554Y-86450471D01*
X135478782Y-86428847D01*
X135491079Y-86408330D01*
X135505329Y-86389117D01*
X135521393Y-86371393D01*
X135539117Y-86355329D01*
X135558330Y-86341079D01*
X135578847Y-86328782D01*
X135600471Y-86318554D01*
X135622993Y-86310496D01*
X135646197Y-86304684D01*
X135669858Y-86301174D01*
X135693750Y-86300000D01*
X136181250Y-86300000D01*
X136205142Y-86301174D01*
X136205142Y-86301174D01*
G37*
D11*
X135937500Y-87000000D03*
D10*
G36*
X134330142Y-86301174D02*
G01*
X134353803Y-86304684D01*
X134377007Y-86310496D01*
X134399529Y-86318554D01*
X134421153Y-86328782D01*
X134441670Y-86341079D01*
X134460883Y-86355329D01*
X134478607Y-86371393D01*
X134494671Y-86389117D01*
X134508921Y-86408330D01*
X134521218Y-86428847D01*
X134531446Y-86450471D01*
X134539504Y-86472993D01*
X134545316Y-86496197D01*
X134548826Y-86519858D01*
X134550000Y-86543750D01*
X134550000Y-87456250D01*
X134548826Y-87480142D01*
X134545316Y-87503803D01*
X134539504Y-87527007D01*
X134531446Y-87549529D01*
X134521218Y-87571153D01*
X134508921Y-87591670D01*
X134494671Y-87610883D01*
X134478607Y-87628607D01*
X134460883Y-87644671D01*
X134441670Y-87658921D01*
X134421153Y-87671218D01*
X134399529Y-87681446D01*
X134377007Y-87689504D01*
X134353803Y-87695316D01*
X134330142Y-87698826D01*
X134306250Y-87700000D01*
X133818750Y-87700000D01*
X133794858Y-87698826D01*
X133771197Y-87695316D01*
X133747993Y-87689504D01*
X133725471Y-87681446D01*
X133703847Y-87671218D01*
X133683330Y-87658921D01*
X133664117Y-87644671D01*
X133646393Y-87628607D01*
X133630329Y-87610883D01*
X133616079Y-87591670D01*
X133603782Y-87571153D01*
X133593554Y-87549529D01*
X133585496Y-87527007D01*
X133579684Y-87503803D01*
X133576174Y-87480142D01*
X133575000Y-87456250D01*
X133575000Y-86543750D01*
X133576174Y-86519858D01*
X133579684Y-86496197D01*
X133585496Y-86472993D01*
X133593554Y-86450471D01*
X133603782Y-86428847D01*
X133616079Y-86408330D01*
X133630329Y-86389117D01*
X133646393Y-86371393D01*
X133664117Y-86355329D01*
X133683330Y-86341079D01*
X133703847Y-86328782D01*
X133725471Y-86318554D01*
X133747993Y-86310496D01*
X133771197Y-86304684D01*
X133794858Y-86301174D01*
X133818750Y-86300000D01*
X134306250Y-86300000D01*
X134330142Y-86301174D01*
X134330142Y-86301174D01*
G37*
D11*
X134062500Y-87000000D03*
D10*
G36*
X131205142Y-86301174D02*
G01*
X131228803Y-86304684D01*
X131252007Y-86310496D01*
X131274529Y-86318554D01*
X131296153Y-86328782D01*
X131316670Y-86341079D01*
X131335883Y-86355329D01*
X131353607Y-86371393D01*
X131369671Y-86389117D01*
X131383921Y-86408330D01*
X131396218Y-86428847D01*
X131406446Y-86450471D01*
X131414504Y-86472993D01*
X131420316Y-86496197D01*
X131423826Y-86519858D01*
X131425000Y-86543750D01*
X131425000Y-87456250D01*
X131423826Y-87480142D01*
X131420316Y-87503803D01*
X131414504Y-87527007D01*
X131406446Y-87549529D01*
X131396218Y-87571153D01*
X131383921Y-87591670D01*
X131369671Y-87610883D01*
X131353607Y-87628607D01*
X131335883Y-87644671D01*
X131316670Y-87658921D01*
X131296153Y-87671218D01*
X131274529Y-87681446D01*
X131252007Y-87689504D01*
X131228803Y-87695316D01*
X131205142Y-87698826D01*
X131181250Y-87700000D01*
X130693750Y-87700000D01*
X130669858Y-87698826D01*
X130646197Y-87695316D01*
X130622993Y-87689504D01*
X130600471Y-87681446D01*
X130578847Y-87671218D01*
X130558330Y-87658921D01*
X130539117Y-87644671D01*
X130521393Y-87628607D01*
X130505329Y-87610883D01*
X130491079Y-87591670D01*
X130478782Y-87571153D01*
X130468554Y-87549529D01*
X130460496Y-87527007D01*
X130454684Y-87503803D01*
X130451174Y-87480142D01*
X130450000Y-87456250D01*
X130450000Y-86543750D01*
X130451174Y-86519858D01*
X130454684Y-86496197D01*
X130460496Y-86472993D01*
X130468554Y-86450471D01*
X130478782Y-86428847D01*
X130491079Y-86408330D01*
X130505329Y-86389117D01*
X130521393Y-86371393D01*
X130539117Y-86355329D01*
X130558330Y-86341079D01*
X130578847Y-86328782D01*
X130600471Y-86318554D01*
X130622993Y-86310496D01*
X130646197Y-86304684D01*
X130669858Y-86301174D01*
X130693750Y-86300000D01*
X131181250Y-86300000D01*
X131205142Y-86301174D01*
X131205142Y-86301174D01*
G37*
D11*
X130937500Y-87000000D03*
D10*
G36*
X129330142Y-86301174D02*
G01*
X129353803Y-86304684D01*
X129377007Y-86310496D01*
X129399529Y-86318554D01*
X129421153Y-86328782D01*
X129441670Y-86341079D01*
X129460883Y-86355329D01*
X129478607Y-86371393D01*
X129494671Y-86389117D01*
X129508921Y-86408330D01*
X129521218Y-86428847D01*
X129531446Y-86450471D01*
X129539504Y-86472993D01*
X129545316Y-86496197D01*
X129548826Y-86519858D01*
X129550000Y-86543750D01*
X129550000Y-87456250D01*
X129548826Y-87480142D01*
X129545316Y-87503803D01*
X129539504Y-87527007D01*
X129531446Y-87549529D01*
X129521218Y-87571153D01*
X129508921Y-87591670D01*
X129494671Y-87610883D01*
X129478607Y-87628607D01*
X129460883Y-87644671D01*
X129441670Y-87658921D01*
X129421153Y-87671218D01*
X129399529Y-87681446D01*
X129377007Y-87689504D01*
X129353803Y-87695316D01*
X129330142Y-87698826D01*
X129306250Y-87700000D01*
X128818750Y-87700000D01*
X128794858Y-87698826D01*
X128771197Y-87695316D01*
X128747993Y-87689504D01*
X128725471Y-87681446D01*
X128703847Y-87671218D01*
X128683330Y-87658921D01*
X128664117Y-87644671D01*
X128646393Y-87628607D01*
X128630329Y-87610883D01*
X128616079Y-87591670D01*
X128603782Y-87571153D01*
X128593554Y-87549529D01*
X128585496Y-87527007D01*
X128579684Y-87503803D01*
X128576174Y-87480142D01*
X128575000Y-87456250D01*
X128575000Y-86543750D01*
X128576174Y-86519858D01*
X128579684Y-86496197D01*
X128585496Y-86472993D01*
X128593554Y-86450471D01*
X128603782Y-86428847D01*
X128616079Y-86408330D01*
X128630329Y-86389117D01*
X128646393Y-86371393D01*
X128664117Y-86355329D01*
X128683330Y-86341079D01*
X128703847Y-86328782D01*
X128725471Y-86318554D01*
X128747993Y-86310496D01*
X128771197Y-86304684D01*
X128794858Y-86301174D01*
X128818750Y-86300000D01*
X129306250Y-86300000D01*
X129330142Y-86301174D01*
X129330142Y-86301174D01*
G37*
D11*
X129062500Y-87000000D03*
D10*
G36*
X126205142Y-86301174D02*
G01*
X126228803Y-86304684D01*
X126252007Y-86310496D01*
X126274529Y-86318554D01*
X126296153Y-86328782D01*
X126316670Y-86341079D01*
X126335883Y-86355329D01*
X126353607Y-86371393D01*
X126369671Y-86389117D01*
X126383921Y-86408330D01*
X126396218Y-86428847D01*
X126406446Y-86450471D01*
X126414504Y-86472993D01*
X126420316Y-86496197D01*
X126423826Y-86519858D01*
X126425000Y-86543750D01*
X126425000Y-87456250D01*
X126423826Y-87480142D01*
X126420316Y-87503803D01*
X126414504Y-87527007D01*
X126406446Y-87549529D01*
X126396218Y-87571153D01*
X126383921Y-87591670D01*
X126369671Y-87610883D01*
X126353607Y-87628607D01*
X126335883Y-87644671D01*
X126316670Y-87658921D01*
X126296153Y-87671218D01*
X126274529Y-87681446D01*
X126252007Y-87689504D01*
X126228803Y-87695316D01*
X126205142Y-87698826D01*
X126181250Y-87700000D01*
X125693750Y-87700000D01*
X125669858Y-87698826D01*
X125646197Y-87695316D01*
X125622993Y-87689504D01*
X125600471Y-87681446D01*
X125578847Y-87671218D01*
X125558330Y-87658921D01*
X125539117Y-87644671D01*
X125521393Y-87628607D01*
X125505329Y-87610883D01*
X125491079Y-87591670D01*
X125478782Y-87571153D01*
X125468554Y-87549529D01*
X125460496Y-87527007D01*
X125454684Y-87503803D01*
X125451174Y-87480142D01*
X125450000Y-87456250D01*
X125450000Y-86543750D01*
X125451174Y-86519858D01*
X125454684Y-86496197D01*
X125460496Y-86472993D01*
X125468554Y-86450471D01*
X125478782Y-86428847D01*
X125491079Y-86408330D01*
X125505329Y-86389117D01*
X125521393Y-86371393D01*
X125539117Y-86355329D01*
X125558330Y-86341079D01*
X125578847Y-86328782D01*
X125600471Y-86318554D01*
X125622993Y-86310496D01*
X125646197Y-86304684D01*
X125669858Y-86301174D01*
X125693750Y-86300000D01*
X126181250Y-86300000D01*
X126205142Y-86301174D01*
X126205142Y-86301174D01*
G37*
D11*
X125937500Y-87000000D03*
D10*
G36*
X124330142Y-86301174D02*
G01*
X124353803Y-86304684D01*
X124377007Y-86310496D01*
X124399529Y-86318554D01*
X124421153Y-86328782D01*
X124441670Y-86341079D01*
X124460883Y-86355329D01*
X124478607Y-86371393D01*
X124494671Y-86389117D01*
X124508921Y-86408330D01*
X124521218Y-86428847D01*
X124531446Y-86450471D01*
X124539504Y-86472993D01*
X124545316Y-86496197D01*
X124548826Y-86519858D01*
X124550000Y-86543750D01*
X124550000Y-87456250D01*
X124548826Y-87480142D01*
X124545316Y-87503803D01*
X124539504Y-87527007D01*
X124531446Y-87549529D01*
X124521218Y-87571153D01*
X124508921Y-87591670D01*
X124494671Y-87610883D01*
X124478607Y-87628607D01*
X124460883Y-87644671D01*
X124441670Y-87658921D01*
X124421153Y-87671218D01*
X124399529Y-87681446D01*
X124377007Y-87689504D01*
X124353803Y-87695316D01*
X124330142Y-87698826D01*
X124306250Y-87700000D01*
X123818750Y-87700000D01*
X123794858Y-87698826D01*
X123771197Y-87695316D01*
X123747993Y-87689504D01*
X123725471Y-87681446D01*
X123703847Y-87671218D01*
X123683330Y-87658921D01*
X123664117Y-87644671D01*
X123646393Y-87628607D01*
X123630329Y-87610883D01*
X123616079Y-87591670D01*
X123603782Y-87571153D01*
X123593554Y-87549529D01*
X123585496Y-87527007D01*
X123579684Y-87503803D01*
X123576174Y-87480142D01*
X123575000Y-87456250D01*
X123575000Y-86543750D01*
X123576174Y-86519858D01*
X123579684Y-86496197D01*
X123585496Y-86472993D01*
X123593554Y-86450471D01*
X123603782Y-86428847D01*
X123616079Y-86408330D01*
X123630329Y-86389117D01*
X123646393Y-86371393D01*
X123664117Y-86355329D01*
X123683330Y-86341079D01*
X123703847Y-86328782D01*
X123725471Y-86318554D01*
X123747993Y-86310496D01*
X123771197Y-86304684D01*
X123794858Y-86301174D01*
X123818750Y-86300000D01*
X124306250Y-86300000D01*
X124330142Y-86301174D01*
X124330142Y-86301174D01*
G37*
D11*
X124062500Y-87000000D03*
D10*
G36*
X121205142Y-86301174D02*
G01*
X121228803Y-86304684D01*
X121252007Y-86310496D01*
X121274529Y-86318554D01*
X121296153Y-86328782D01*
X121316670Y-86341079D01*
X121335883Y-86355329D01*
X121353607Y-86371393D01*
X121369671Y-86389117D01*
X121383921Y-86408330D01*
X121396218Y-86428847D01*
X121406446Y-86450471D01*
X121414504Y-86472993D01*
X121420316Y-86496197D01*
X121423826Y-86519858D01*
X121425000Y-86543750D01*
X121425000Y-87456250D01*
X121423826Y-87480142D01*
X121420316Y-87503803D01*
X121414504Y-87527007D01*
X121406446Y-87549529D01*
X121396218Y-87571153D01*
X121383921Y-87591670D01*
X121369671Y-87610883D01*
X121353607Y-87628607D01*
X121335883Y-87644671D01*
X121316670Y-87658921D01*
X121296153Y-87671218D01*
X121274529Y-87681446D01*
X121252007Y-87689504D01*
X121228803Y-87695316D01*
X121205142Y-87698826D01*
X121181250Y-87700000D01*
X120693750Y-87700000D01*
X120669858Y-87698826D01*
X120646197Y-87695316D01*
X120622993Y-87689504D01*
X120600471Y-87681446D01*
X120578847Y-87671218D01*
X120558330Y-87658921D01*
X120539117Y-87644671D01*
X120521393Y-87628607D01*
X120505329Y-87610883D01*
X120491079Y-87591670D01*
X120478782Y-87571153D01*
X120468554Y-87549529D01*
X120460496Y-87527007D01*
X120454684Y-87503803D01*
X120451174Y-87480142D01*
X120450000Y-87456250D01*
X120450000Y-86543750D01*
X120451174Y-86519858D01*
X120454684Y-86496197D01*
X120460496Y-86472993D01*
X120468554Y-86450471D01*
X120478782Y-86428847D01*
X120491079Y-86408330D01*
X120505329Y-86389117D01*
X120521393Y-86371393D01*
X120539117Y-86355329D01*
X120558330Y-86341079D01*
X120578847Y-86328782D01*
X120600471Y-86318554D01*
X120622993Y-86310496D01*
X120646197Y-86304684D01*
X120669858Y-86301174D01*
X120693750Y-86300000D01*
X121181250Y-86300000D01*
X121205142Y-86301174D01*
X121205142Y-86301174D01*
G37*
D11*
X120937500Y-87000000D03*
D10*
G36*
X119330142Y-86301174D02*
G01*
X119353803Y-86304684D01*
X119377007Y-86310496D01*
X119399529Y-86318554D01*
X119421153Y-86328782D01*
X119441670Y-86341079D01*
X119460883Y-86355329D01*
X119478607Y-86371393D01*
X119494671Y-86389117D01*
X119508921Y-86408330D01*
X119521218Y-86428847D01*
X119531446Y-86450471D01*
X119539504Y-86472993D01*
X119545316Y-86496197D01*
X119548826Y-86519858D01*
X119550000Y-86543750D01*
X119550000Y-87456250D01*
X119548826Y-87480142D01*
X119545316Y-87503803D01*
X119539504Y-87527007D01*
X119531446Y-87549529D01*
X119521218Y-87571153D01*
X119508921Y-87591670D01*
X119494671Y-87610883D01*
X119478607Y-87628607D01*
X119460883Y-87644671D01*
X119441670Y-87658921D01*
X119421153Y-87671218D01*
X119399529Y-87681446D01*
X119377007Y-87689504D01*
X119353803Y-87695316D01*
X119330142Y-87698826D01*
X119306250Y-87700000D01*
X118818750Y-87700000D01*
X118794858Y-87698826D01*
X118771197Y-87695316D01*
X118747993Y-87689504D01*
X118725471Y-87681446D01*
X118703847Y-87671218D01*
X118683330Y-87658921D01*
X118664117Y-87644671D01*
X118646393Y-87628607D01*
X118630329Y-87610883D01*
X118616079Y-87591670D01*
X118603782Y-87571153D01*
X118593554Y-87549529D01*
X118585496Y-87527007D01*
X118579684Y-87503803D01*
X118576174Y-87480142D01*
X118575000Y-87456250D01*
X118575000Y-86543750D01*
X118576174Y-86519858D01*
X118579684Y-86496197D01*
X118585496Y-86472993D01*
X118593554Y-86450471D01*
X118603782Y-86428847D01*
X118616079Y-86408330D01*
X118630329Y-86389117D01*
X118646393Y-86371393D01*
X118664117Y-86355329D01*
X118683330Y-86341079D01*
X118703847Y-86328782D01*
X118725471Y-86318554D01*
X118747993Y-86310496D01*
X118771197Y-86304684D01*
X118794858Y-86301174D01*
X118818750Y-86300000D01*
X119306250Y-86300000D01*
X119330142Y-86301174D01*
X119330142Y-86301174D01*
G37*
D11*
X119062500Y-87000000D03*
D10*
G36*
X116205142Y-86301174D02*
G01*
X116228803Y-86304684D01*
X116252007Y-86310496D01*
X116274529Y-86318554D01*
X116296153Y-86328782D01*
X116316670Y-86341079D01*
X116335883Y-86355329D01*
X116353607Y-86371393D01*
X116369671Y-86389117D01*
X116383921Y-86408330D01*
X116396218Y-86428847D01*
X116406446Y-86450471D01*
X116414504Y-86472993D01*
X116420316Y-86496197D01*
X116423826Y-86519858D01*
X116425000Y-86543750D01*
X116425000Y-87456250D01*
X116423826Y-87480142D01*
X116420316Y-87503803D01*
X116414504Y-87527007D01*
X116406446Y-87549529D01*
X116396218Y-87571153D01*
X116383921Y-87591670D01*
X116369671Y-87610883D01*
X116353607Y-87628607D01*
X116335883Y-87644671D01*
X116316670Y-87658921D01*
X116296153Y-87671218D01*
X116274529Y-87681446D01*
X116252007Y-87689504D01*
X116228803Y-87695316D01*
X116205142Y-87698826D01*
X116181250Y-87700000D01*
X115693750Y-87700000D01*
X115669858Y-87698826D01*
X115646197Y-87695316D01*
X115622993Y-87689504D01*
X115600471Y-87681446D01*
X115578847Y-87671218D01*
X115558330Y-87658921D01*
X115539117Y-87644671D01*
X115521393Y-87628607D01*
X115505329Y-87610883D01*
X115491079Y-87591670D01*
X115478782Y-87571153D01*
X115468554Y-87549529D01*
X115460496Y-87527007D01*
X115454684Y-87503803D01*
X115451174Y-87480142D01*
X115450000Y-87456250D01*
X115450000Y-86543750D01*
X115451174Y-86519858D01*
X115454684Y-86496197D01*
X115460496Y-86472993D01*
X115468554Y-86450471D01*
X115478782Y-86428847D01*
X115491079Y-86408330D01*
X115505329Y-86389117D01*
X115521393Y-86371393D01*
X115539117Y-86355329D01*
X115558330Y-86341079D01*
X115578847Y-86328782D01*
X115600471Y-86318554D01*
X115622993Y-86310496D01*
X115646197Y-86304684D01*
X115669858Y-86301174D01*
X115693750Y-86300000D01*
X116181250Y-86300000D01*
X116205142Y-86301174D01*
X116205142Y-86301174D01*
G37*
D11*
X115937500Y-87000000D03*
D10*
G36*
X114330142Y-86301174D02*
G01*
X114353803Y-86304684D01*
X114377007Y-86310496D01*
X114399529Y-86318554D01*
X114421153Y-86328782D01*
X114441670Y-86341079D01*
X114460883Y-86355329D01*
X114478607Y-86371393D01*
X114494671Y-86389117D01*
X114508921Y-86408330D01*
X114521218Y-86428847D01*
X114531446Y-86450471D01*
X114539504Y-86472993D01*
X114545316Y-86496197D01*
X114548826Y-86519858D01*
X114550000Y-86543750D01*
X114550000Y-87456250D01*
X114548826Y-87480142D01*
X114545316Y-87503803D01*
X114539504Y-87527007D01*
X114531446Y-87549529D01*
X114521218Y-87571153D01*
X114508921Y-87591670D01*
X114494671Y-87610883D01*
X114478607Y-87628607D01*
X114460883Y-87644671D01*
X114441670Y-87658921D01*
X114421153Y-87671218D01*
X114399529Y-87681446D01*
X114377007Y-87689504D01*
X114353803Y-87695316D01*
X114330142Y-87698826D01*
X114306250Y-87700000D01*
X113818750Y-87700000D01*
X113794858Y-87698826D01*
X113771197Y-87695316D01*
X113747993Y-87689504D01*
X113725471Y-87681446D01*
X113703847Y-87671218D01*
X113683330Y-87658921D01*
X113664117Y-87644671D01*
X113646393Y-87628607D01*
X113630329Y-87610883D01*
X113616079Y-87591670D01*
X113603782Y-87571153D01*
X113593554Y-87549529D01*
X113585496Y-87527007D01*
X113579684Y-87503803D01*
X113576174Y-87480142D01*
X113575000Y-87456250D01*
X113575000Y-86543750D01*
X113576174Y-86519858D01*
X113579684Y-86496197D01*
X113585496Y-86472993D01*
X113593554Y-86450471D01*
X113603782Y-86428847D01*
X113616079Y-86408330D01*
X113630329Y-86389117D01*
X113646393Y-86371393D01*
X113664117Y-86355329D01*
X113683330Y-86341079D01*
X113703847Y-86328782D01*
X113725471Y-86318554D01*
X113747993Y-86310496D01*
X113771197Y-86304684D01*
X113794858Y-86301174D01*
X113818750Y-86300000D01*
X114306250Y-86300000D01*
X114330142Y-86301174D01*
X114330142Y-86301174D01*
G37*
D11*
X114062500Y-87000000D03*
D10*
G36*
X111205142Y-86301174D02*
G01*
X111228803Y-86304684D01*
X111252007Y-86310496D01*
X111274529Y-86318554D01*
X111296153Y-86328782D01*
X111316670Y-86341079D01*
X111335883Y-86355329D01*
X111353607Y-86371393D01*
X111369671Y-86389117D01*
X111383921Y-86408330D01*
X111396218Y-86428847D01*
X111406446Y-86450471D01*
X111414504Y-86472993D01*
X111420316Y-86496197D01*
X111423826Y-86519858D01*
X111425000Y-86543750D01*
X111425000Y-87456250D01*
X111423826Y-87480142D01*
X111420316Y-87503803D01*
X111414504Y-87527007D01*
X111406446Y-87549529D01*
X111396218Y-87571153D01*
X111383921Y-87591670D01*
X111369671Y-87610883D01*
X111353607Y-87628607D01*
X111335883Y-87644671D01*
X111316670Y-87658921D01*
X111296153Y-87671218D01*
X111274529Y-87681446D01*
X111252007Y-87689504D01*
X111228803Y-87695316D01*
X111205142Y-87698826D01*
X111181250Y-87700000D01*
X110693750Y-87700000D01*
X110669858Y-87698826D01*
X110646197Y-87695316D01*
X110622993Y-87689504D01*
X110600471Y-87681446D01*
X110578847Y-87671218D01*
X110558330Y-87658921D01*
X110539117Y-87644671D01*
X110521393Y-87628607D01*
X110505329Y-87610883D01*
X110491079Y-87591670D01*
X110478782Y-87571153D01*
X110468554Y-87549529D01*
X110460496Y-87527007D01*
X110454684Y-87503803D01*
X110451174Y-87480142D01*
X110450000Y-87456250D01*
X110450000Y-86543750D01*
X110451174Y-86519858D01*
X110454684Y-86496197D01*
X110460496Y-86472993D01*
X110468554Y-86450471D01*
X110478782Y-86428847D01*
X110491079Y-86408330D01*
X110505329Y-86389117D01*
X110521393Y-86371393D01*
X110539117Y-86355329D01*
X110558330Y-86341079D01*
X110578847Y-86328782D01*
X110600471Y-86318554D01*
X110622993Y-86310496D01*
X110646197Y-86304684D01*
X110669858Y-86301174D01*
X110693750Y-86300000D01*
X111181250Y-86300000D01*
X111205142Y-86301174D01*
X111205142Y-86301174D01*
G37*
D11*
X110937500Y-87000000D03*
D10*
G36*
X109330142Y-86301174D02*
G01*
X109353803Y-86304684D01*
X109377007Y-86310496D01*
X109399529Y-86318554D01*
X109421153Y-86328782D01*
X109441670Y-86341079D01*
X109460883Y-86355329D01*
X109478607Y-86371393D01*
X109494671Y-86389117D01*
X109508921Y-86408330D01*
X109521218Y-86428847D01*
X109531446Y-86450471D01*
X109539504Y-86472993D01*
X109545316Y-86496197D01*
X109548826Y-86519858D01*
X109550000Y-86543750D01*
X109550000Y-87456250D01*
X109548826Y-87480142D01*
X109545316Y-87503803D01*
X109539504Y-87527007D01*
X109531446Y-87549529D01*
X109521218Y-87571153D01*
X109508921Y-87591670D01*
X109494671Y-87610883D01*
X109478607Y-87628607D01*
X109460883Y-87644671D01*
X109441670Y-87658921D01*
X109421153Y-87671218D01*
X109399529Y-87681446D01*
X109377007Y-87689504D01*
X109353803Y-87695316D01*
X109330142Y-87698826D01*
X109306250Y-87700000D01*
X108818750Y-87700000D01*
X108794858Y-87698826D01*
X108771197Y-87695316D01*
X108747993Y-87689504D01*
X108725471Y-87681446D01*
X108703847Y-87671218D01*
X108683330Y-87658921D01*
X108664117Y-87644671D01*
X108646393Y-87628607D01*
X108630329Y-87610883D01*
X108616079Y-87591670D01*
X108603782Y-87571153D01*
X108593554Y-87549529D01*
X108585496Y-87527007D01*
X108579684Y-87503803D01*
X108576174Y-87480142D01*
X108575000Y-87456250D01*
X108575000Y-86543750D01*
X108576174Y-86519858D01*
X108579684Y-86496197D01*
X108585496Y-86472993D01*
X108593554Y-86450471D01*
X108603782Y-86428847D01*
X108616079Y-86408330D01*
X108630329Y-86389117D01*
X108646393Y-86371393D01*
X108664117Y-86355329D01*
X108683330Y-86341079D01*
X108703847Y-86328782D01*
X108725471Y-86318554D01*
X108747993Y-86310496D01*
X108771197Y-86304684D01*
X108794858Y-86301174D01*
X108818750Y-86300000D01*
X109306250Y-86300000D01*
X109330142Y-86301174D01*
X109330142Y-86301174D01*
G37*
D11*
X109062500Y-87000000D03*
D10*
G36*
X91205142Y-86301174D02*
G01*
X91228803Y-86304684D01*
X91252007Y-86310496D01*
X91274529Y-86318554D01*
X91296153Y-86328782D01*
X91316670Y-86341079D01*
X91335883Y-86355329D01*
X91353607Y-86371393D01*
X91369671Y-86389117D01*
X91383921Y-86408330D01*
X91396218Y-86428847D01*
X91406446Y-86450471D01*
X91414504Y-86472993D01*
X91420316Y-86496197D01*
X91423826Y-86519858D01*
X91425000Y-86543750D01*
X91425000Y-87456250D01*
X91423826Y-87480142D01*
X91420316Y-87503803D01*
X91414504Y-87527007D01*
X91406446Y-87549529D01*
X91396218Y-87571153D01*
X91383921Y-87591670D01*
X91369671Y-87610883D01*
X91353607Y-87628607D01*
X91335883Y-87644671D01*
X91316670Y-87658921D01*
X91296153Y-87671218D01*
X91274529Y-87681446D01*
X91252007Y-87689504D01*
X91228803Y-87695316D01*
X91205142Y-87698826D01*
X91181250Y-87700000D01*
X90693750Y-87700000D01*
X90669858Y-87698826D01*
X90646197Y-87695316D01*
X90622993Y-87689504D01*
X90600471Y-87681446D01*
X90578847Y-87671218D01*
X90558330Y-87658921D01*
X90539117Y-87644671D01*
X90521393Y-87628607D01*
X90505329Y-87610883D01*
X90491079Y-87591670D01*
X90478782Y-87571153D01*
X90468554Y-87549529D01*
X90460496Y-87527007D01*
X90454684Y-87503803D01*
X90451174Y-87480142D01*
X90450000Y-87456250D01*
X90450000Y-86543750D01*
X90451174Y-86519858D01*
X90454684Y-86496197D01*
X90460496Y-86472993D01*
X90468554Y-86450471D01*
X90478782Y-86428847D01*
X90491079Y-86408330D01*
X90505329Y-86389117D01*
X90521393Y-86371393D01*
X90539117Y-86355329D01*
X90558330Y-86341079D01*
X90578847Y-86328782D01*
X90600471Y-86318554D01*
X90622993Y-86310496D01*
X90646197Y-86304684D01*
X90669858Y-86301174D01*
X90693750Y-86300000D01*
X91181250Y-86300000D01*
X91205142Y-86301174D01*
X91205142Y-86301174D01*
G37*
D11*
X90937500Y-87000000D03*
D10*
G36*
X89330142Y-86301174D02*
G01*
X89353803Y-86304684D01*
X89377007Y-86310496D01*
X89399529Y-86318554D01*
X89421153Y-86328782D01*
X89441670Y-86341079D01*
X89460883Y-86355329D01*
X89478607Y-86371393D01*
X89494671Y-86389117D01*
X89508921Y-86408330D01*
X89521218Y-86428847D01*
X89531446Y-86450471D01*
X89539504Y-86472993D01*
X89545316Y-86496197D01*
X89548826Y-86519858D01*
X89550000Y-86543750D01*
X89550000Y-87456250D01*
X89548826Y-87480142D01*
X89545316Y-87503803D01*
X89539504Y-87527007D01*
X89531446Y-87549529D01*
X89521218Y-87571153D01*
X89508921Y-87591670D01*
X89494671Y-87610883D01*
X89478607Y-87628607D01*
X89460883Y-87644671D01*
X89441670Y-87658921D01*
X89421153Y-87671218D01*
X89399529Y-87681446D01*
X89377007Y-87689504D01*
X89353803Y-87695316D01*
X89330142Y-87698826D01*
X89306250Y-87700000D01*
X88818750Y-87700000D01*
X88794858Y-87698826D01*
X88771197Y-87695316D01*
X88747993Y-87689504D01*
X88725471Y-87681446D01*
X88703847Y-87671218D01*
X88683330Y-87658921D01*
X88664117Y-87644671D01*
X88646393Y-87628607D01*
X88630329Y-87610883D01*
X88616079Y-87591670D01*
X88603782Y-87571153D01*
X88593554Y-87549529D01*
X88585496Y-87527007D01*
X88579684Y-87503803D01*
X88576174Y-87480142D01*
X88575000Y-87456250D01*
X88575000Y-86543750D01*
X88576174Y-86519858D01*
X88579684Y-86496197D01*
X88585496Y-86472993D01*
X88593554Y-86450471D01*
X88603782Y-86428847D01*
X88616079Y-86408330D01*
X88630329Y-86389117D01*
X88646393Y-86371393D01*
X88664117Y-86355329D01*
X88683330Y-86341079D01*
X88703847Y-86328782D01*
X88725471Y-86318554D01*
X88747993Y-86310496D01*
X88771197Y-86304684D01*
X88794858Y-86301174D01*
X88818750Y-86300000D01*
X89306250Y-86300000D01*
X89330142Y-86301174D01*
X89330142Y-86301174D01*
G37*
D11*
X89062500Y-87000000D03*
D10*
G36*
X86205142Y-86301174D02*
G01*
X86228803Y-86304684D01*
X86252007Y-86310496D01*
X86274529Y-86318554D01*
X86296153Y-86328782D01*
X86316670Y-86341079D01*
X86335883Y-86355329D01*
X86353607Y-86371393D01*
X86369671Y-86389117D01*
X86383921Y-86408330D01*
X86396218Y-86428847D01*
X86406446Y-86450471D01*
X86414504Y-86472993D01*
X86420316Y-86496197D01*
X86423826Y-86519858D01*
X86425000Y-86543750D01*
X86425000Y-87456250D01*
X86423826Y-87480142D01*
X86420316Y-87503803D01*
X86414504Y-87527007D01*
X86406446Y-87549529D01*
X86396218Y-87571153D01*
X86383921Y-87591670D01*
X86369671Y-87610883D01*
X86353607Y-87628607D01*
X86335883Y-87644671D01*
X86316670Y-87658921D01*
X86296153Y-87671218D01*
X86274529Y-87681446D01*
X86252007Y-87689504D01*
X86228803Y-87695316D01*
X86205142Y-87698826D01*
X86181250Y-87700000D01*
X85693750Y-87700000D01*
X85669858Y-87698826D01*
X85646197Y-87695316D01*
X85622993Y-87689504D01*
X85600471Y-87681446D01*
X85578847Y-87671218D01*
X85558330Y-87658921D01*
X85539117Y-87644671D01*
X85521393Y-87628607D01*
X85505329Y-87610883D01*
X85491079Y-87591670D01*
X85478782Y-87571153D01*
X85468554Y-87549529D01*
X85460496Y-87527007D01*
X85454684Y-87503803D01*
X85451174Y-87480142D01*
X85450000Y-87456250D01*
X85450000Y-86543750D01*
X85451174Y-86519858D01*
X85454684Y-86496197D01*
X85460496Y-86472993D01*
X85468554Y-86450471D01*
X85478782Y-86428847D01*
X85491079Y-86408330D01*
X85505329Y-86389117D01*
X85521393Y-86371393D01*
X85539117Y-86355329D01*
X85558330Y-86341079D01*
X85578847Y-86328782D01*
X85600471Y-86318554D01*
X85622993Y-86310496D01*
X85646197Y-86304684D01*
X85669858Y-86301174D01*
X85693750Y-86300000D01*
X86181250Y-86300000D01*
X86205142Y-86301174D01*
X86205142Y-86301174D01*
G37*
D11*
X85937500Y-87000000D03*
D10*
G36*
X84330142Y-86301174D02*
G01*
X84353803Y-86304684D01*
X84377007Y-86310496D01*
X84399529Y-86318554D01*
X84421153Y-86328782D01*
X84441670Y-86341079D01*
X84460883Y-86355329D01*
X84478607Y-86371393D01*
X84494671Y-86389117D01*
X84508921Y-86408330D01*
X84521218Y-86428847D01*
X84531446Y-86450471D01*
X84539504Y-86472993D01*
X84545316Y-86496197D01*
X84548826Y-86519858D01*
X84550000Y-86543750D01*
X84550000Y-87456250D01*
X84548826Y-87480142D01*
X84545316Y-87503803D01*
X84539504Y-87527007D01*
X84531446Y-87549529D01*
X84521218Y-87571153D01*
X84508921Y-87591670D01*
X84494671Y-87610883D01*
X84478607Y-87628607D01*
X84460883Y-87644671D01*
X84441670Y-87658921D01*
X84421153Y-87671218D01*
X84399529Y-87681446D01*
X84377007Y-87689504D01*
X84353803Y-87695316D01*
X84330142Y-87698826D01*
X84306250Y-87700000D01*
X83818750Y-87700000D01*
X83794858Y-87698826D01*
X83771197Y-87695316D01*
X83747993Y-87689504D01*
X83725471Y-87681446D01*
X83703847Y-87671218D01*
X83683330Y-87658921D01*
X83664117Y-87644671D01*
X83646393Y-87628607D01*
X83630329Y-87610883D01*
X83616079Y-87591670D01*
X83603782Y-87571153D01*
X83593554Y-87549529D01*
X83585496Y-87527007D01*
X83579684Y-87503803D01*
X83576174Y-87480142D01*
X83575000Y-87456250D01*
X83575000Y-86543750D01*
X83576174Y-86519858D01*
X83579684Y-86496197D01*
X83585496Y-86472993D01*
X83593554Y-86450471D01*
X83603782Y-86428847D01*
X83616079Y-86408330D01*
X83630329Y-86389117D01*
X83646393Y-86371393D01*
X83664117Y-86355329D01*
X83683330Y-86341079D01*
X83703847Y-86328782D01*
X83725471Y-86318554D01*
X83747993Y-86310496D01*
X83771197Y-86304684D01*
X83794858Y-86301174D01*
X83818750Y-86300000D01*
X84306250Y-86300000D01*
X84330142Y-86301174D01*
X84330142Y-86301174D01*
G37*
D11*
X84062500Y-87000000D03*
D10*
G36*
X166205142Y-88301174D02*
G01*
X166228803Y-88304684D01*
X166252007Y-88310496D01*
X166274529Y-88318554D01*
X166296153Y-88328782D01*
X166316670Y-88341079D01*
X166335883Y-88355329D01*
X166353607Y-88371393D01*
X166369671Y-88389117D01*
X166383921Y-88408330D01*
X166396218Y-88428847D01*
X166406446Y-88450471D01*
X166414504Y-88472993D01*
X166420316Y-88496197D01*
X166423826Y-88519858D01*
X166425000Y-88543750D01*
X166425000Y-89456250D01*
X166423826Y-89480142D01*
X166420316Y-89503803D01*
X166414504Y-89527007D01*
X166406446Y-89549529D01*
X166396218Y-89571153D01*
X166383921Y-89591670D01*
X166369671Y-89610883D01*
X166353607Y-89628607D01*
X166335883Y-89644671D01*
X166316670Y-89658921D01*
X166296153Y-89671218D01*
X166274529Y-89681446D01*
X166252007Y-89689504D01*
X166228803Y-89695316D01*
X166205142Y-89698826D01*
X166181250Y-89700000D01*
X165693750Y-89700000D01*
X165669858Y-89698826D01*
X165646197Y-89695316D01*
X165622993Y-89689504D01*
X165600471Y-89681446D01*
X165578847Y-89671218D01*
X165558330Y-89658921D01*
X165539117Y-89644671D01*
X165521393Y-89628607D01*
X165505329Y-89610883D01*
X165491079Y-89591670D01*
X165478782Y-89571153D01*
X165468554Y-89549529D01*
X165460496Y-89527007D01*
X165454684Y-89503803D01*
X165451174Y-89480142D01*
X165450000Y-89456250D01*
X165450000Y-88543750D01*
X165451174Y-88519858D01*
X165454684Y-88496197D01*
X165460496Y-88472993D01*
X165468554Y-88450471D01*
X165478782Y-88428847D01*
X165491079Y-88408330D01*
X165505329Y-88389117D01*
X165521393Y-88371393D01*
X165539117Y-88355329D01*
X165558330Y-88341079D01*
X165578847Y-88328782D01*
X165600471Y-88318554D01*
X165622993Y-88310496D01*
X165646197Y-88304684D01*
X165669858Y-88301174D01*
X165693750Y-88300000D01*
X166181250Y-88300000D01*
X166205142Y-88301174D01*
X166205142Y-88301174D01*
G37*
D11*
X165937500Y-89000000D03*
D10*
G36*
X164330142Y-88301174D02*
G01*
X164353803Y-88304684D01*
X164377007Y-88310496D01*
X164399529Y-88318554D01*
X164421153Y-88328782D01*
X164441670Y-88341079D01*
X164460883Y-88355329D01*
X164478607Y-88371393D01*
X164494671Y-88389117D01*
X164508921Y-88408330D01*
X164521218Y-88428847D01*
X164531446Y-88450471D01*
X164539504Y-88472993D01*
X164545316Y-88496197D01*
X164548826Y-88519858D01*
X164550000Y-88543750D01*
X164550000Y-89456250D01*
X164548826Y-89480142D01*
X164545316Y-89503803D01*
X164539504Y-89527007D01*
X164531446Y-89549529D01*
X164521218Y-89571153D01*
X164508921Y-89591670D01*
X164494671Y-89610883D01*
X164478607Y-89628607D01*
X164460883Y-89644671D01*
X164441670Y-89658921D01*
X164421153Y-89671218D01*
X164399529Y-89681446D01*
X164377007Y-89689504D01*
X164353803Y-89695316D01*
X164330142Y-89698826D01*
X164306250Y-89700000D01*
X163818750Y-89700000D01*
X163794858Y-89698826D01*
X163771197Y-89695316D01*
X163747993Y-89689504D01*
X163725471Y-89681446D01*
X163703847Y-89671218D01*
X163683330Y-89658921D01*
X163664117Y-89644671D01*
X163646393Y-89628607D01*
X163630329Y-89610883D01*
X163616079Y-89591670D01*
X163603782Y-89571153D01*
X163593554Y-89549529D01*
X163585496Y-89527007D01*
X163579684Y-89503803D01*
X163576174Y-89480142D01*
X163575000Y-89456250D01*
X163575000Y-88543750D01*
X163576174Y-88519858D01*
X163579684Y-88496197D01*
X163585496Y-88472993D01*
X163593554Y-88450471D01*
X163603782Y-88428847D01*
X163616079Y-88408330D01*
X163630329Y-88389117D01*
X163646393Y-88371393D01*
X163664117Y-88355329D01*
X163683330Y-88341079D01*
X163703847Y-88328782D01*
X163725471Y-88318554D01*
X163747993Y-88310496D01*
X163771197Y-88304684D01*
X163794858Y-88301174D01*
X163818750Y-88300000D01*
X164306250Y-88300000D01*
X164330142Y-88301174D01*
X164330142Y-88301174D01*
G37*
D11*
X164062500Y-89000000D03*
D10*
G36*
X161205142Y-88301174D02*
G01*
X161228803Y-88304684D01*
X161252007Y-88310496D01*
X161274529Y-88318554D01*
X161296153Y-88328782D01*
X161316670Y-88341079D01*
X161335883Y-88355329D01*
X161353607Y-88371393D01*
X161369671Y-88389117D01*
X161383921Y-88408330D01*
X161396218Y-88428847D01*
X161406446Y-88450471D01*
X161414504Y-88472993D01*
X161420316Y-88496197D01*
X161423826Y-88519858D01*
X161425000Y-88543750D01*
X161425000Y-89456250D01*
X161423826Y-89480142D01*
X161420316Y-89503803D01*
X161414504Y-89527007D01*
X161406446Y-89549529D01*
X161396218Y-89571153D01*
X161383921Y-89591670D01*
X161369671Y-89610883D01*
X161353607Y-89628607D01*
X161335883Y-89644671D01*
X161316670Y-89658921D01*
X161296153Y-89671218D01*
X161274529Y-89681446D01*
X161252007Y-89689504D01*
X161228803Y-89695316D01*
X161205142Y-89698826D01*
X161181250Y-89700000D01*
X160693750Y-89700000D01*
X160669858Y-89698826D01*
X160646197Y-89695316D01*
X160622993Y-89689504D01*
X160600471Y-89681446D01*
X160578847Y-89671218D01*
X160558330Y-89658921D01*
X160539117Y-89644671D01*
X160521393Y-89628607D01*
X160505329Y-89610883D01*
X160491079Y-89591670D01*
X160478782Y-89571153D01*
X160468554Y-89549529D01*
X160460496Y-89527007D01*
X160454684Y-89503803D01*
X160451174Y-89480142D01*
X160450000Y-89456250D01*
X160450000Y-88543750D01*
X160451174Y-88519858D01*
X160454684Y-88496197D01*
X160460496Y-88472993D01*
X160468554Y-88450471D01*
X160478782Y-88428847D01*
X160491079Y-88408330D01*
X160505329Y-88389117D01*
X160521393Y-88371393D01*
X160539117Y-88355329D01*
X160558330Y-88341079D01*
X160578847Y-88328782D01*
X160600471Y-88318554D01*
X160622993Y-88310496D01*
X160646197Y-88304684D01*
X160669858Y-88301174D01*
X160693750Y-88300000D01*
X161181250Y-88300000D01*
X161205142Y-88301174D01*
X161205142Y-88301174D01*
G37*
D11*
X160937500Y-89000000D03*
D10*
G36*
X159330142Y-88301174D02*
G01*
X159353803Y-88304684D01*
X159377007Y-88310496D01*
X159399529Y-88318554D01*
X159421153Y-88328782D01*
X159441670Y-88341079D01*
X159460883Y-88355329D01*
X159478607Y-88371393D01*
X159494671Y-88389117D01*
X159508921Y-88408330D01*
X159521218Y-88428847D01*
X159531446Y-88450471D01*
X159539504Y-88472993D01*
X159545316Y-88496197D01*
X159548826Y-88519858D01*
X159550000Y-88543750D01*
X159550000Y-89456250D01*
X159548826Y-89480142D01*
X159545316Y-89503803D01*
X159539504Y-89527007D01*
X159531446Y-89549529D01*
X159521218Y-89571153D01*
X159508921Y-89591670D01*
X159494671Y-89610883D01*
X159478607Y-89628607D01*
X159460883Y-89644671D01*
X159441670Y-89658921D01*
X159421153Y-89671218D01*
X159399529Y-89681446D01*
X159377007Y-89689504D01*
X159353803Y-89695316D01*
X159330142Y-89698826D01*
X159306250Y-89700000D01*
X158818750Y-89700000D01*
X158794858Y-89698826D01*
X158771197Y-89695316D01*
X158747993Y-89689504D01*
X158725471Y-89681446D01*
X158703847Y-89671218D01*
X158683330Y-89658921D01*
X158664117Y-89644671D01*
X158646393Y-89628607D01*
X158630329Y-89610883D01*
X158616079Y-89591670D01*
X158603782Y-89571153D01*
X158593554Y-89549529D01*
X158585496Y-89527007D01*
X158579684Y-89503803D01*
X158576174Y-89480142D01*
X158575000Y-89456250D01*
X158575000Y-88543750D01*
X158576174Y-88519858D01*
X158579684Y-88496197D01*
X158585496Y-88472993D01*
X158593554Y-88450471D01*
X158603782Y-88428847D01*
X158616079Y-88408330D01*
X158630329Y-88389117D01*
X158646393Y-88371393D01*
X158664117Y-88355329D01*
X158683330Y-88341079D01*
X158703847Y-88328782D01*
X158725471Y-88318554D01*
X158747993Y-88310496D01*
X158771197Y-88304684D01*
X158794858Y-88301174D01*
X158818750Y-88300000D01*
X159306250Y-88300000D01*
X159330142Y-88301174D01*
X159330142Y-88301174D01*
G37*
D11*
X159062500Y-89000000D03*
D12*
X157000000Y-87650000D03*
X157000000Y-84350000D03*
X143000000Y-84350000D03*
X143000000Y-87650000D03*
D10*
G36*
X141205142Y-88301174D02*
G01*
X141228803Y-88304684D01*
X141252007Y-88310496D01*
X141274529Y-88318554D01*
X141296153Y-88328782D01*
X141316670Y-88341079D01*
X141335883Y-88355329D01*
X141353607Y-88371393D01*
X141369671Y-88389117D01*
X141383921Y-88408330D01*
X141396218Y-88428847D01*
X141406446Y-88450471D01*
X141414504Y-88472993D01*
X141420316Y-88496197D01*
X141423826Y-88519858D01*
X141425000Y-88543750D01*
X141425000Y-89456250D01*
X141423826Y-89480142D01*
X141420316Y-89503803D01*
X141414504Y-89527007D01*
X141406446Y-89549529D01*
X141396218Y-89571153D01*
X141383921Y-89591670D01*
X141369671Y-89610883D01*
X141353607Y-89628607D01*
X141335883Y-89644671D01*
X141316670Y-89658921D01*
X141296153Y-89671218D01*
X141274529Y-89681446D01*
X141252007Y-89689504D01*
X141228803Y-89695316D01*
X141205142Y-89698826D01*
X141181250Y-89700000D01*
X140693750Y-89700000D01*
X140669858Y-89698826D01*
X140646197Y-89695316D01*
X140622993Y-89689504D01*
X140600471Y-89681446D01*
X140578847Y-89671218D01*
X140558330Y-89658921D01*
X140539117Y-89644671D01*
X140521393Y-89628607D01*
X140505329Y-89610883D01*
X140491079Y-89591670D01*
X140478782Y-89571153D01*
X140468554Y-89549529D01*
X140460496Y-89527007D01*
X140454684Y-89503803D01*
X140451174Y-89480142D01*
X140450000Y-89456250D01*
X140450000Y-88543750D01*
X140451174Y-88519858D01*
X140454684Y-88496197D01*
X140460496Y-88472993D01*
X140468554Y-88450471D01*
X140478782Y-88428847D01*
X140491079Y-88408330D01*
X140505329Y-88389117D01*
X140521393Y-88371393D01*
X140539117Y-88355329D01*
X140558330Y-88341079D01*
X140578847Y-88328782D01*
X140600471Y-88318554D01*
X140622993Y-88310496D01*
X140646197Y-88304684D01*
X140669858Y-88301174D01*
X140693750Y-88300000D01*
X141181250Y-88300000D01*
X141205142Y-88301174D01*
X141205142Y-88301174D01*
G37*
D11*
X140937500Y-89000000D03*
D10*
G36*
X139330142Y-88301174D02*
G01*
X139353803Y-88304684D01*
X139377007Y-88310496D01*
X139399529Y-88318554D01*
X139421153Y-88328782D01*
X139441670Y-88341079D01*
X139460883Y-88355329D01*
X139478607Y-88371393D01*
X139494671Y-88389117D01*
X139508921Y-88408330D01*
X139521218Y-88428847D01*
X139531446Y-88450471D01*
X139539504Y-88472993D01*
X139545316Y-88496197D01*
X139548826Y-88519858D01*
X139550000Y-88543750D01*
X139550000Y-89456250D01*
X139548826Y-89480142D01*
X139545316Y-89503803D01*
X139539504Y-89527007D01*
X139531446Y-89549529D01*
X139521218Y-89571153D01*
X139508921Y-89591670D01*
X139494671Y-89610883D01*
X139478607Y-89628607D01*
X139460883Y-89644671D01*
X139441670Y-89658921D01*
X139421153Y-89671218D01*
X139399529Y-89681446D01*
X139377007Y-89689504D01*
X139353803Y-89695316D01*
X139330142Y-89698826D01*
X139306250Y-89700000D01*
X138818750Y-89700000D01*
X138794858Y-89698826D01*
X138771197Y-89695316D01*
X138747993Y-89689504D01*
X138725471Y-89681446D01*
X138703847Y-89671218D01*
X138683330Y-89658921D01*
X138664117Y-89644671D01*
X138646393Y-89628607D01*
X138630329Y-89610883D01*
X138616079Y-89591670D01*
X138603782Y-89571153D01*
X138593554Y-89549529D01*
X138585496Y-89527007D01*
X138579684Y-89503803D01*
X138576174Y-89480142D01*
X138575000Y-89456250D01*
X138575000Y-88543750D01*
X138576174Y-88519858D01*
X138579684Y-88496197D01*
X138585496Y-88472993D01*
X138593554Y-88450471D01*
X138603782Y-88428847D01*
X138616079Y-88408330D01*
X138630329Y-88389117D01*
X138646393Y-88371393D01*
X138664117Y-88355329D01*
X138683330Y-88341079D01*
X138703847Y-88328782D01*
X138725471Y-88318554D01*
X138747993Y-88310496D01*
X138771197Y-88304684D01*
X138794858Y-88301174D01*
X138818750Y-88300000D01*
X139306250Y-88300000D01*
X139330142Y-88301174D01*
X139330142Y-88301174D01*
G37*
D11*
X139062500Y-89000000D03*
D10*
G36*
X136205142Y-88301174D02*
G01*
X136228803Y-88304684D01*
X136252007Y-88310496D01*
X136274529Y-88318554D01*
X136296153Y-88328782D01*
X136316670Y-88341079D01*
X136335883Y-88355329D01*
X136353607Y-88371393D01*
X136369671Y-88389117D01*
X136383921Y-88408330D01*
X136396218Y-88428847D01*
X136406446Y-88450471D01*
X136414504Y-88472993D01*
X136420316Y-88496197D01*
X136423826Y-88519858D01*
X136425000Y-88543750D01*
X136425000Y-89456250D01*
X136423826Y-89480142D01*
X136420316Y-89503803D01*
X136414504Y-89527007D01*
X136406446Y-89549529D01*
X136396218Y-89571153D01*
X136383921Y-89591670D01*
X136369671Y-89610883D01*
X136353607Y-89628607D01*
X136335883Y-89644671D01*
X136316670Y-89658921D01*
X136296153Y-89671218D01*
X136274529Y-89681446D01*
X136252007Y-89689504D01*
X136228803Y-89695316D01*
X136205142Y-89698826D01*
X136181250Y-89700000D01*
X135693750Y-89700000D01*
X135669858Y-89698826D01*
X135646197Y-89695316D01*
X135622993Y-89689504D01*
X135600471Y-89681446D01*
X135578847Y-89671218D01*
X135558330Y-89658921D01*
X135539117Y-89644671D01*
X135521393Y-89628607D01*
X135505329Y-89610883D01*
X135491079Y-89591670D01*
X135478782Y-89571153D01*
X135468554Y-89549529D01*
X135460496Y-89527007D01*
X135454684Y-89503803D01*
X135451174Y-89480142D01*
X135450000Y-89456250D01*
X135450000Y-88543750D01*
X135451174Y-88519858D01*
X135454684Y-88496197D01*
X135460496Y-88472993D01*
X135468554Y-88450471D01*
X135478782Y-88428847D01*
X135491079Y-88408330D01*
X135505329Y-88389117D01*
X135521393Y-88371393D01*
X135539117Y-88355329D01*
X135558330Y-88341079D01*
X135578847Y-88328782D01*
X135600471Y-88318554D01*
X135622993Y-88310496D01*
X135646197Y-88304684D01*
X135669858Y-88301174D01*
X135693750Y-88300000D01*
X136181250Y-88300000D01*
X136205142Y-88301174D01*
X136205142Y-88301174D01*
G37*
D11*
X135937500Y-89000000D03*
D10*
G36*
X134330142Y-88301174D02*
G01*
X134353803Y-88304684D01*
X134377007Y-88310496D01*
X134399529Y-88318554D01*
X134421153Y-88328782D01*
X134441670Y-88341079D01*
X134460883Y-88355329D01*
X134478607Y-88371393D01*
X134494671Y-88389117D01*
X134508921Y-88408330D01*
X134521218Y-88428847D01*
X134531446Y-88450471D01*
X134539504Y-88472993D01*
X134545316Y-88496197D01*
X134548826Y-88519858D01*
X134550000Y-88543750D01*
X134550000Y-89456250D01*
X134548826Y-89480142D01*
X134545316Y-89503803D01*
X134539504Y-89527007D01*
X134531446Y-89549529D01*
X134521218Y-89571153D01*
X134508921Y-89591670D01*
X134494671Y-89610883D01*
X134478607Y-89628607D01*
X134460883Y-89644671D01*
X134441670Y-89658921D01*
X134421153Y-89671218D01*
X134399529Y-89681446D01*
X134377007Y-89689504D01*
X134353803Y-89695316D01*
X134330142Y-89698826D01*
X134306250Y-89700000D01*
X133818750Y-89700000D01*
X133794858Y-89698826D01*
X133771197Y-89695316D01*
X133747993Y-89689504D01*
X133725471Y-89681446D01*
X133703847Y-89671218D01*
X133683330Y-89658921D01*
X133664117Y-89644671D01*
X133646393Y-89628607D01*
X133630329Y-89610883D01*
X133616079Y-89591670D01*
X133603782Y-89571153D01*
X133593554Y-89549529D01*
X133585496Y-89527007D01*
X133579684Y-89503803D01*
X133576174Y-89480142D01*
X133575000Y-89456250D01*
X133575000Y-88543750D01*
X133576174Y-88519858D01*
X133579684Y-88496197D01*
X133585496Y-88472993D01*
X133593554Y-88450471D01*
X133603782Y-88428847D01*
X133616079Y-88408330D01*
X133630329Y-88389117D01*
X133646393Y-88371393D01*
X133664117Y-88355329D01*
X133683330Y-88341079D01*
X133703847Y-88328782D01*
X133725471Y-88318554D01*
X133747993Y-88310496D01*
X133771197Y-88304684D01*
X133794858Y-88301174D01*
X133818750Y-88300000D01*
X134306250Y-88300000D01*
X134330142Y-88301174D01*
X134330142Y-88301174D01*
G37*
D11*
X134062500Y-89000000D03*
D10*
G36*
X131205142Y-88301174D02*
G01*
X131228803Y-88304684D01*
X131252007Y-88310496D01*
X131274529Y-88318554D01*
X131296153Y-88328782D01*
X131316670Y-88341079D01*
X131335883Y-88355329D01*
X131353607Y-88371393D01*
X131369671Y-88389117D01*
X131383921Y-88408330D01*
X131396218Y-88428847D01*
X131406446Y-88450471D01*
X131414504Y-88472993D01*
X131420316Y-88496197D01*
X131423826Y-88519858D01*
X131425000Y-88543750D01*
X131425000Y-89456250D01*
X131423826Y-89480142D01*
X131420316Y-89503803D01*
X131414504Y-89527007D01*
X131406446Y-89549529D01*
X131396218Y-89571153D01*
X131383921Y-89591670D01*
X131369671Y-89610883D01*
X131353607Y-89628607D01*
X131335883Y-89644671D01*
X131316670Y-89658921D01*
X131296153Y-89671218D01*
X131274529Y-89681446D01*
X131252007Y-89689504D01*
X131228803Y-89695316D01*
X131205142Y-89698826D01*
X131181250Y-89700000D01*
X130693750Y-89700000D01*
X130669858Y-89698826D01*
X130646197Y-89695316D01*
X130622993Y-89689504D01*
X130600471Y-89681446D01*
X130578847Y-89671218D01*
X130558330Y-89658921D01*
X130539117Y-89644671D01*
X130521393Y-89628607D01*
X130505329Y-89610883D01*
X130491079Y-89591670D01*
X130478782Y-89571153D01*
X130468554Y-89549529D01*
X130460496Y-89527007D01*
X130454684Y-89503803D01*
X130451174Y-89480142D01*
X130450000Y-89456250D01*
X130450000Y-88543750D01*
X130451174Y-88519858D01*
X130454684Y-88496197D01*
X130460496Y-88472993D01*
X130468554Y-88450471D01*
X130478782Y-88428847D01*
X130491079Y-88408330D01*
X130505329Y-88389117D01*
X130521393Y-88371393D01*
X130539117Y-88355329D01*
X130558330Y-88341079D01*
X130578847Y-88328782D01*
X130600471Y-88318554D01*
X130622993Y-88310496D01*
X130646197Y-88304684D01*
X130669858Y-88301174D01*
X130693750Y-88300000D01*
X131181250Y-88300000D01*
X131205142Y-88301174D01*
X131205142Y-88301174D01*
G37*
D11*
X130937500Y-89000000D03*
D10*
G36*
X129330142Y-88301174D02*
G01*
X129353803Y-88304684D01*
X129377007Y-88310496D01*
X129399529Y-88318554D01*
X129421153Y-88328782D01*
X129441670Y-88341079D01*
X129460883Y-88355329D01*
X129478607Y-88371393D01*
X129494671Y-88389117D01*
X129508921Y-88408330D01*
X129521218Y-88428847D01*
X129531446Y-88450471D01*
X129539504Y-88472993D01*
X129545316Y-88496197D01*
X129548826Y-88519858D01*
X129550000Y-88543750D01*
X129550000Y-89456250D01*
X129548826Y-89480142D01*
X129545316Y-89503803D01*
X129539504Y-89527007D01*
X129531446Y-89549529D01*
X129521218Y-89571153D01*
X129508921Y-89591670D01*
X129494671Y-89610883D01*
X129478607Y-89628607D01*
X129460883Y-89644671D01*
X129441670Y-89658921D01*
X129421153Y-89671218D01*
X129399529Y-89681446D01*
X129377007Y-89689504D01*
X129353803Y-89695316D01*
X129330142Y-89698826D01*
X129306250Y-89700000D01*
X128818750Y-89700000D01*
X128794858Y-89698826D01*
X128771197Y-89695316D01*
X128747993Y-89689504D01*
X128725471Y-89681446D01*
X128703847Y-89671218D01*
X128683330Y-89658921D01*
X128664117Y-89644671D01*
X128646393Y-89628607D01*
X128630329Y-89610883D01*
X128616079Y-89591670D01*
X128603782Y-89571153D01*
X128593554Y-89549529D01*
X128585496Y-89527007D01*
X128579684Y-89503803D01*
X128576174Y-89480142D01*
X128575000Y-89456250D01*
X128575000Y-88543750D01*
X128576174Y-88519858D01*
X128579684Y-88496197D01*
X128585496Y-88472993D01*
X128593554Y-88450471D01*
X128603782Y-88428847D01*
X128616079Y-88408330D01*
X128630329Y-88389117D01*
X128646393Y-88371393D01*
X128664117Y-88355329D01*
X128683330Y-88341079D01*
X128703847Y-88328782D01*
X128725471Y-88318554D01*
X128747993Y-88310496D01*
X128771197Y-88304684D01*
X128794858Y-88301174D01*
X128818750Y-88300000D01*
X129306250Y-88300000D01*
X129330142Y-88301174D01*
X129330142Y-88301174D01*
G37*
D11*
X129062500Y-89000000D03*
D10*
G36*
X126205142Y-88301174D02*
G01*
X126228803Y-88304684D01*
X126252007Y-88310496D01*
X126274529Y-88318554D01*
X126296153Y-88328782D01*
X126316670Y-88341079D01*
X126335883Y-88355329D01*
X126353607Y-88371393D01*
X126369671Y-88389117D01*
X126383921Y-88408330D01*
X126396218Y-88428847D01*
X126406446Y-88450471D01*
X126414504Y-88472993D01*
X126420316Y-88496197D01*
X126423826Y-88519858D01*
X126425000Y-88543750D01*
X126425000Y-89456250D01*
X126423826Y-89480142D01*
X126420316Y-89503803D01*
X126414504Y-89527007D01*
X126406446Y-89549529D01*
X126396218Y-89571153D01*
X126383921Y-89591670D01*
X126369671Y-89610883D01*
X126353607Y-89628607D01*
X126335883Y-89644671D01*
X126316670Y-89658921D01*
X126296153Y-89671218D01*
X126274529Y-89681446D01*
X126252007Y-89689504D01*
X126228803Y-89695316D01*
X126205142Y-89698826D01*
X126181250Y-89700000D01*
X125693750Y-89700000D01*
X125669858Y-89698826D01*
X125646197Y-89695316D01*
X125622993Y-89689504D01*
X125600471Y-89681446D01*
X125578847Y-89671218D01*
X125558330Y-89658921D01*
X125539117Y-89644671D01*
X125521393Y-89628607D01*
X125505329Y-89610883D01*
X125491079Y-89591670D01*
X125478782Y-89571153D01*
X125468554Y-89549529D01*
X125460496Y-89527007D01*
X125454684Y-89503803D01*
X125451174Y-89480142D01*
X125450000Y-89456250D01*
X125450000Y-88543750D01*
X125451174Y-88519858D01*
X125454684Y-88496197D01*
X125460496Y-88472993D01*
X125468554Y-88450471D01*
X125478782Y-88428847D01*
X125491079Y-88408330D01*
X125505329Y-88389117D01*
X125521393Y-88371393D01*
X125539117Y-88355329D01*
X125558330Y-88341079D01*
X125578847Y-88328782D01*
X125600471Y-88318554D01*
X125622993Y-88310496D01*
X125646197Y-88304684D01*
X125669858Y-88301174D01*
X125693750Y-88300000D01*
X126181250Y-88300000D01*
X126205142Y-88301174D01*
X126205142Y-88301174D01*
G37*
D11*
X125937500Y-89000000D03*
D10*
G36*
X124330142Y-88301174D02*
G01*
X124353803Y-88304684D01*
X124377007Y-88310496D01*
X124399529Y-88318554D01*
X124421153Y-88328782D01*
X124441670Y-88341079D01*
X124460883Y-88355329D01*
X124478607Y-88371393D01*
X124494671Y-88389117D01*
X124508921Y-88408330D01*
X124521218Y-88428847D01*
X124531446Y-88450471D01*
X124539504Y-88472993D01*
X124545316Y-88496197D01*
X124548826Y-88519858D01*
X124550000Y-88543750D01*
X124550000Y-89456250D01*
X124548826Y-89480142D01*
X124545316Y-89503803D01*
X124539504Y-89527007D01*
X124531446Y-89549529D01*
X124521218Y-89571153D01*
X124508921Y-89591670D01*
X124494671Y-89610883D01*
X124478607Y-89628607D01*
X124460883Y-89644671D01*
X124441670Y-89658921D01*
X124421153Y-89671218D01*
X124399529Y-89681446D01*
X124377007Y-89689504D01*
X124353803Y-89695316D01*
X124330142Y-89698826D01*
X124306250Y-89700000D01*
X123818750Y-89700000D01*
X123794858Y-89698826D01*
X123771197Y-89695316D01*
X123747993Y-89689504D01*
X123725471Y-89681446D01*
X123703847Y-89671218D01*
X123683330Y-89658921D01*
X123664117Y-89644671D01*
X123646393Y-89628607D01*
X123630329Y-89610883D01*
X123616079Y-89591670D01*
X123603782Y-89571153D01*
X123593554Y-89549529D01*
X123585496Y-89527007D01*
X123579684Y-89503803D01*
X123576174Y-89480142D01*
X123575000Y-89456250D01*
X123575000Y-88543750D01*
X123576174Y-88519858D01*
X123579684Y-88496197D01*
X123585496Y-88472993D01*
X123593554Y-88450471D01*
X123603782Y-88428847D01*
X123616079Y-88408330D01*
X123630329Y-88389117D01*
X123646393Y-88371393D01*
X123664117Y-88355329D01*
X123683330Y-88341079D01*
X123703847Y-88328782D01*
X123725471Y-88318554D01*
X123747993Y-88310496D01*
X123771197Y-88304684D01*
X123794858Y-88301174D01*
X123818750Y-88300000D01*
X124306250Y-88300000D01*
X124330142Y-88301174D01*
X124330142Y-88301174D01*
G37*
D11*
X124062500Y-89000000D03*
D10*
G36*
X121205142Y-88301174D02*
G01*
X121228803Y-88304684D01*
X121252007Y-88310496D01*
X121274529Y-88318554D01*
X121296153Y-88328782D01*
X121316670Y-88341079D01*
X121335883Y-88355329D01*
X121353607Y-88371393D01*
X121369671Y-88389117D01*
X121383921Y-88408330D01*
X121396218Y-88428847D01*
X121406446Y-88450471D01*
X121414504Y-88472993D01*
X121420316Y-88496197D01*
X121423826Y-88519858D01*
X121425000Y-88543750D01*
X121425000Y-89456250D01*
X121423826Y-89480142D01*
X121420316Y-89503803D01*
X121414504Y-89527007D01*
X121406446Y-89549529D01*
X121396218Y-89571153D01*
X121383921Y-89591670D01*
X121369671Y-89610883D01*
X121353607Y-89628607D01*
X121335883Y-89644671D01*
X121316670Y-89658921D01*
X121296153Y-89671218D01*
X121274529Y-89681446D01*
X121252007Y-89689504D01*
X121228803Y-89695316D01*
X121205142Y-89698826D01*
X121181250Y-89700000D01*
X120693750Y-89700000D01*
X120669858Y-89698826D01*
X120646197Y-89695316D01*
X120622993Y-89689504D01*
X120600471Y-89681446D01*
X120578847Y-89671218D01*
X120558330Y-89658921D01*
X120539117Y-89644671D01*
X120521393Y-89628607D01*
X120505329Y-89610883D01*
X120491079Y-89591670D01*
X120478782Y-89571153D01*
X120468554Y-89549529D01*
X120460496Y-89527007D01*
X120454684Y-89503803D01*
X120451174Y-89480142D01*
X120450000Y-89456250D01*
X120450000Y-88543750D01*
X120451174Y-88519858D01*
X120454684Y-88496197D01*
X120460496Y-88472993D01*
X120468554Y-88450471D01*
X120478782Y-88428847D01*
X120491079Y-88408330D01*
X120505329Y-88389117D01*
X120521393Y-88371393D01*
X120539117Y-88355329D01*
X120558330Y-88341079D01*
X120578847Y-88328782D01*
X120600471Y-88318554D01*
X120622993Y-88310496D01*
X120646197Y-88304684D01*
X120669858Y-88301174D01*
X120693750Y-88300000D01*
X121181250Y-88300000D01*
X121205142Y-88301174D01*
X121205142Y-88301174D01*
G37*
D11*
X120937500Y-89000000D03*
D10*
G36*
X119330142Y-88301174D02*
G01*
X119353803Y-88304684D01*
X119377007Y-88310496D01*
X119399529Y-88318554D01*
X119421153Y-88328782D01*
X119441670Y-88341079D01*
X119460883Y-88355329D01*
X119478607Y-88371393D01*
X119494671Y-88389117D01*
X119508921Y-88408330D01*
X119521218Y-88428847D01*
X119531446Y-88450471D01*
X119539504Y-88472993D01*
X119545316Y-88496197D01*
X119548826Y-88519858D01*
X119550000Y-88543750D01*
X119550000Y-89456250D01*
X119548826Y-89480142D01*
X119545316Y-89503803D01*
X119539504Y-89527007D01*
X119531446Y-89549529D01*
X119521218Y-89571153D01*
X119508921Y-89591670D01*
X119494671Y-89610883D01*
X119478607Y-89628607D01*
X119460883Y-89644671D01*
X119441670Y-89658921D01*
X119421153Y-89671218D01*
X119399529Y-89681446D01*
X119377007Y-89689504D01*
X119353803Y-89695316D01*
X119330142Y-89698826D01*
X119306250Y-89700000D01*
X118818750Y-89700000D01*
X118794858Y-89698826D01*
X118771197Y-89695316D01*
X118747993Y-89689504D01*
X118725471Y-89681446D01*
X118703847Y-89671218D01*
X118683330Y-89658921D01*
X118664117Y-89644671D01*
X118646393Y-89628607D01*
X118630329Y-89610883D01*
X118616079Y-89591670D01*
X118603782Y-89571153D01*
X118593554Y-89549529D01*
X118585496Y-89527007D01*
X118579684Y-89503803D01*
X118576174Y-89480142D01*
X118575000Y-89456250D01*
X118575000Y-88543750D01*
X118576174Y-88519858D01*
X118579684Y-88496197D01*
X118585496Y-88472993D01*
X118593554Y-88450471D01*
X118603782Y-88428847D01*
X118616079Y-88408330D01*
X118630329Y-88389117D01*
X118646393Y-88371393D01*
X118664117Y-88355329D01*
X118683330Y-88341079D01*
X118703847Y-88328782D01*
X118725471Y-88318554D01*
X118747993Y-88310496D01*
X118771197Y-88304684D01*
X118794858Y-88301174D01*
X118818750Y-88300000D01*
X119306250Y-88300000D01*
X119330142Y-88301174D01*
X119330142Y-88301174D01*
G37*
D11*
X119062500Y-89000000D03*
D10*
G36*
X116205142Y-88301174D02*
G01*
X116228803Y-88304684D01*
X116252007Y-88310496D01*
X116274529Y-88318554D01*
X116296153Y-88328782D01*
X116316670Y-88341079D01*
X116335883Y-88355329D01*
X116353607Y-88371393D01*
X116369671Y-88389117D01*
X116383921Y-88408330D01*
X116396218Y-88428847D01*
X116406446Y-88450471D01*
X116414504Y-88472993D01*
X116420316Y-88496197D01*
X116423826Y-88519858D01*
X116425000Y-88543750D01*
X116425000Y-89456250D01*
X116423826Y-89480142D01*
X116420316Y-89503803D01*
X116414504Y-89527007D01*
X116406446Y-89549529D01*
X116396218Y-89571153D01*
X116383921Y-89591670D01*
X116369671Y-89610883D01*
X116353607Y-89628607D01*
X116335883Y-89644671D01*
X116316670Y-89658921D01*
X116296153Y-89671218D01*
X116274529Y-89681446D01*
X116252007Y-89689504D01*
X116228803Y-89695316D01*
X116205142Y-89698826D01*
X116181250Y-89700000D01*
X115693750Y-89700000D01*
X115669858Y-89698826D01*
X115646197Y-89695316D01*
X115622993Y-89689504D01*
X115600471Y-89681446D01*
X115578847Y-89671218D01*
X115558330Y-89658921D01*
X115539117Y-89644671D01*
X115521393Y-89628607D01*
X115505329Y-89610883D01*
X115491079Y-89591670D01*
X115478782Y-89571153D01*
X115468554Y-89549529D01*
X115460496Y-89527007D01*
X115454684Y-89503803D01*
X115451174Y-89480142D01*
X115450000Y-89456250D01*
X115450000Y-88543750D01*
X115451174Y-88519858D01*
X115454684Y-88496197D01*
X115460496Y-88472993D01*
X115468554Y-88450471D01*
X115478782Y-88428847D01*
X115491079Y-88408330D01*
X115505329Y-88389117D01*
X115521393Y-88371393D01*
X115539117Y-88355329D01*
X115558330Y-88341079D01*
X115578847Y-88328782D01*
X115600471Y-88318554D01*
X115622993Y-88310496D01*
X115646197Y-88304684D01*
X115669858Y-88301174D01*
X115693750Y-88300000D01*
X116181250Y-88300000D01*
X116205142Y-88301174D01*
X116205142Y-88301174D01*
G37*
D11*
X115937500Y-89000000D03*
D10*
G36*
X114330142Y-88301174D02*
G01*
X114353803Y-88304684D01*
X114377007Y-88310496D01*
X114399529Y-88318554D01*
X114421153Y-88328782D01*
X114441670Y-88341079D01*
X114460883Y-88355329D01*
X114478607Y-88371393D01*
X114494671Y-88389117D01*
X114508921Y-88408330D01*
X114521218Y-88428847D01*
X114531446Y-88450471D01*
X114539504Y-88472993D01*
X114545316Y-88496197D01*
X114548826Y-88519858D01*
X114550000Y-88543750D01*
X114550000Y-89456250D01*
X114548826Y-89480142D01*
X114545316Y-89503803D01*
X114539504Y-89527007D01*
X114531446Y-89549529D01*
X114521218Y-89571153D01*
X114508921Y-89591670D01*
X114494671Y-89610883D01*
X114478607Y-89628607D01*
X114460883Y-89644671D01*
X114441670Y-89658921D01*
X114421153Y-89671218D01*
X114399529Y-89681446D01*
X114377007Y-89689504D01*
X114353803Y-89695316D01*
X114330142Y-89698826D01*
X114306250Y-89700000D01*
X113818750Y-89700000D01*
X113794858Y-89698826D01*
X113771197Y-89695316D01*
X113747993Y-89689504D01*
X113725471Y-89681446D01*
X113703847Y-89671218D01*
X113683330Y-89658921D01*
X113664117Y-89644671D01*
X113646393Y-89628607D01*
X113630329Y-89610883D01*
X113616079Y-89591670D01*
X113603782Y-89571153D01*
X113593554Y-89549529D01*
X113585496Y-89527007D01*
X113579684Y-89503803D01*
X113576174Y-89480142D01*
X113575000Y-89456250D01*
X113575000Y-88543750D01*
X113576174Y-88519858D01*
X113579684Y-88496197D01*
X113585496Y-88472993D01*
X113593554Y-88450471D01*
X113603782Y-88428847D01*
X113616079Y-88408330D01*
X113630329Y-88389117D01*
X113646393Y-88371393D01*
X113664117Y-88355329D01*
X113683330Y-88341079D01*
X113703847Y-88328782D01*
X113725471Y-88318554D01*
X113747993Y-88310496D01*
X113771197Y-88304684D01*
X113794858Y-88301174D01*
X113818750Y-88300000D01*
X114306250Y-88300000D01*
X114330142Y-88301174D01*
X114330142Y-88301174D01*
G37*
D11*
X114062500Y-89000000D03*
D10*
G36*
X111205142Y-88301174D02*
G01*
X111228803Y-88304684D01*
X111252007Y-88310496D01*
X111274529Y-88318554D01*
X111296153Y-88328782D01*
X111316670Y-88341079D01*
X111335883Y-88355329D01*
X111353607Y-88371393D01*
X111369671Y-88389117D01*
X111383921Y-88408330D01*
X111396218Y-88428847D01*
X111406446Y-88450471D01*
X111414504Y-88472993D01*
X111420316Y-88496197D01*
X111423826Y-88519858D01*
X111425000Y-88543750D01*
X111425000Y-89456250D01*
X111423826Y-89480142D01*
X111420316Y-89503803D01*
X111414504Y-89527007D01*
X111406446Y-89549529D01*
X111396218Y-89571153D01*
X111383921Y-89591670D01*
X111369671Y-89610883D01*
X111353607Y-89628607D01*
X111335883Y-89644671D01*
X111316670Y-89658921D01*
X111296153Y-89671218D01*
X111274529Y-89681446D01*
X111252007Y-89689504D01*
X111228803Y-89695316D01*
X111205142Y-89698826D01*
X111181250Y-89700000D01*
X110693750Y-89700000D01*
X110669858Y-89698826D01*
X110646197Y-89695316D01*
X110622993Y-89689504D01*
X110600471Y-89681446D01*
X110578847Y-89671218D01*
X110558330Y-89658921D01*
X110539117Y-89644671D01*
X110521393Y-89628607D01*
X110505329Y-89610883D01*
X110491079Y-89591670D01*
X110478782Y-89571153D01*
X110468554Y-89549529D01*
X110460496Y-89527007D01*
X110454684Y-89503803D01*
X110451174Y-89480142D01*
X110450000Y-89456250D01*
X110450000Y-88543750D01*
X110451174Y-88519858D01*
X110454684Y-88496197D01*
X110460496Y-88472993D01*
X110468554Y-88450471D01*
X110478782Y-88428847D01*
X110491079Y-88408330D01*
X110505329Y-88389117D01*
X110521393Y-88371393D01*
X110539117Y-88355329D01*
X110558330Y-88341079D01*
X110578847Y-88328782D01*
X110600471Y-88318554D01*
X110622993Y-88310496D01*
X110646197Y-88304684D01*
X110669858Y-88301174D01*
X110693750Y-88300000D01*
X111181250Y-88300000D01*
X111205142Y-88301174D01*
X111205142Y-88301174D01*
G37*
D11*
X110937500Y-89000000D03*
D10*
G36*
X109330142Y-88301174D02*
G01*
X109353803Y-88304684D01*
X109377007Y-88310496D01*
X109399529Y-88318554D01*
X109421153Y-88328782D01*
X109441670Y-88341079D01*
X109460883Y-88355329D01*
X109478607Y-88371393D01*
X109494671Y-88389117D01*
X109508921Y-88408330D01*
X109521218Y-88428847D01*
X109531446Y-88450471D01*
X109539504Y-88472993D01*
X109545316Y-88496197D01*
X109548826Y-88519858D01*
X109550000Y-88543750D01*
X109550000Y-89456250D01*
X109548826Y-89480142D01*
X109545316Y-89503803D01*
X109539504Y-89527007D01*
X109531446Y-89549529D01*
X109521218Y-89571153D01*
X109508921Y-89591670D01*
X109494671Y-89610883D01*
X109478607Y-89628607D01*
X109460883Y-89644671D01*
X109441670Y-89658921D01*
X109421153Y-89671218D01*
X109399529Y-89681446D01*
X109377007Y-89689504D01*
X109353803Y-89695316D01*
X109330142Y-89698826D01*
X109306250Y-89700000D01*
X108818750Y-89700000D01*
X108794858Y-89698826D01*
X108771197Y-89695316D01*
X108747993Y-89689504D01*
X108725471Y-89681446D01*
X108703847Y-89671218D01*
X108683330Y-89658921D01*
X108664117Y-89644671D01*
X108646393Y-89628607D01*
X108630329Y-89610883D01*
X108616079Y-89591670D01*
X108603782Y-89571153D01*
X108593554Y-89549529D01*
X108585496Y-89527007D01*
X108579684Y-89503803D01*
X108576174Y-89480142D01*
X108575000Y-89456250D01*
X108575000Y-88543750D01*
X108576174Y-88519858D01*
X108579684Y-88496197D01*
X108585496Y-88472993D01*
X108593554Y-88450471D01*
X108603782Y-88428847D01*
X108616079Y-88408330D01*
X108630329Y-88389117D01*
X108646393Y-88371393D01*
X108664117Y-88355329D01*
X108683330Y-88341079D01*
X108703847Y-88328782D01*
X108725471Y-88318554D01*
X108747993Y-88310496D01*
X108771197Y-88304684D01*
X108794858Y-88301174D01*
X108818750Y-88300000D01*
X109306250Y-88300000D01*
X109330142Y-88301174D01*
X109330142Y-88301174D01*
G37*
D11*
X109062500Y-89000000D03*
D12*
X93000000Y-87650000D03*
X93000000Y-84350000D03*
X107000000Y-84350000D03*
X107000000Y-87650000D03*
D10*
G36*
X91205142Y-88301174D02*
G01*
X91228803Y-88304684D01*
X91252007Y-88310496D01*
X91274529Y-88318554D01*
X91296153Y-88328782D01*
X91316670Y-88341079D01*
X91335883Y-88355329D01*
X91353607Y-88371393D01*
X91369671Y-88389117D01*
X91383921Y-88408330D01*
X91396218Y-88428847D01*
X91406446Y-88450471D01*
X91414504Y-88472993D01*
X91420316Y-88496197D01*
X91423826Y-88519858D01*
X91425000Y-88543750D01*
X91425000Y-89456250D01*
X91423826Y-89480142D01*
X91420316Y-89503803D01*
X91414504Y-89527007D01*
X91406446Y-89549529D01*
X91396218Y-89571153D01*
X91383921Y-89591670D01*
X91369671Y-89610883D01*
X91353607Y-89628607D01*
X91335883Y-89644671D01*
X91316670Y-89658921D01*
X91296153Y-89671218D01*
X91274529Y-89681446D01*
X91252007Y-89689504D01*
X91228803Y-89695316D01*
X91205142Y-89698826D01*
X91181250Y-89700000D01*
X90693750Y-89700000D01*
X90669858Y-89698826D01*
X90646197Y-89695316D01*
X90622993Y-89689504D01*
X90600471Y-89681446D01*
X90578847Y-89671218D01*
X90558330Y-89658921D01*
X90539117Y-89644671D01*
X90521393Y-89628607D01*
X90505329Y-89610883D01*
X90491079Y-89591670D01*
X90478782Y-89571153D01*
X90468554Y-89549529D01*
X90460496Y-89527007D01*
X90454684Y-89503803D01*
X90451174Y-89480142D01*
X90450000Y-89456250D01*
X90450000Y-88543750D01*
X90451174Y-88519858D01*
X90454684Y-88496197D01*
X90460496Y-88472993D01*
X90468554Y-88450471D01*
X90478782Y-88428847D01*
X90491079Y-88408330D01*
X90505329Y-88389117D01*
X90521393Y-88371393D01*
X90539117Y-88355329D01*
X90558330Y-88341079D01*
X90578847Y-88328782D01*
X90600471Y-88318554D01*
X90622993Y-88310496D01*
X90646197Y-88304684D01*
X90669858Y-88301174D01*
X90693750Y-88300000D01*
X91181250Y-88300000D01*
X91205142Y-88301174D01*
X91205142Y-88301174D01*
G37*
D11*
X90937500Y-89000000D03*
D10*
G36*
X89330142Y-88301174D02*
G01*
X89353803Y-88304684D01*
X89377007Y-88310496D01*
X89399529Y-88318554D01*
X89421153Y-88328782D01*
X89441670Y-88341079D01*
X89460883Y-88355329D01*
X89478607Y-88371393D01*
X89494671Y-88389117D01*
X89508921Y-88408330D01*
X89521218Y-88428847D01*
X89531446Y-88450471D01*
X89539504Y-88472993D01*
X89545316Y-88496197D01*
X89548826Y-88519858D01*
X89550000Y-88543750D01*
X89550000Y-89456250D01*
X89548826Y-89480142D01*
X89545316Y-89503803D01*
X89539504Y-89527007D01*
X89531446Y-89549529D01*
X89521218Y-89571153D01*
X89508921Y-89591670D01*
X89494671Y-89610883D01*
X89478607Y-89628607D01*
X89460883Y-89644671D01*
X89441670Y-89658921D01*
X89421153Y-89671218D01*
X89399529Y-89681446D01*
X89377007Y-89689504D01*
X89353803Y-89695316D01*
X89330142Y-89698826D01*
X89306250Y-89700000D01*
X88818750Y-89700000D01*
X88794858Y-89698826D01*
X88771197Y-89695316D01*
X88747993Y-89689504D01*
X88725471Y-89681446D01*
X88703847Y-89671218D01*
X88683330Y-89658921D01*
X88664117Y-89644671D01*
X88646393Y-89628607D01*
X88630329Y-89610883D01*
X88616079Y-89591670D01*
X88603782Y-89571153D01*
X88593554Y-89549529D01*
X88585496Y-89527007D01*
X88579684Y-89503803D01*
X88576174Y-89480142D01*
X88575000Y-89456250D01*
X88575000Y-88543750D01*
X88576174Y-88519858D01*
X88579684Y-88496197D01*
X88585496Y-88472993D01*
X88593554Y-88450471D01*
X88603782Y-88428847D01*
X88616079Y-88408330D01*
X88630329Y-88389117D01*
X88646393Y-88371393D01*
X88664117Y-88355329D01*
X88683330Y-88341079D01*
X88703847Y-88328782D01*
X88725471Y-88318554D01*
X88747993Y-88310496D01*
X88771197Y-88304684D01*
X88794858Y-88301174D01*
X88818750Y-88300000D01*
X89306250Y-88300000D01*
X89330142Y-88301174D01*
X89330142Y-88301174D01*
G37*
D11*
X89062500Y-89000000D03*
D10*
G36*
X86205142Y-88301174D02*
G01*
X86228803Y-88304684D01*
X86252007Y-88310496D01*
X86274529Y-88318554D01*
X86296153Y-88328782D01*
X86316670Y-88341079D01*
X86335883Y-88355329D01*
X86353607Y-88371393D01*
X86369671Y-88389117D01*
X86383921Y-88408330D01*
X86396218Y-88428847D01*
X86406446Y-88450471D01*
X86414504Y-88472993D01*
X86420316Y-88496197D01*
X86423826Y-88519858D01*
X86425000Y-88543750D01*
X86425000Y-89456250D01*
X86423826Y-89480142D01*
X86420316Y-89503803D01*
X86414504Y-89527007D01*
X86406446Y-89549529D01*
X86396218Y-89571153D01*
X86383921Y-89591670D01*
X86369671Y-89610883D01*
X86353607Y-89628607D01*
X86335883Y-89644671D01*
X86316670Y-89658921D01*
X86296153Y-89671218D01*
X86274529Y-89681446D01*
X86252007Y-89689504D01*
X86228803Y-89695316D01*
X86205142Y-89698826D01*
X86181250Y-89700000D01*
X85693750Y-89700000D01*
X85669858Y-89698826D01*
X85646197Y-89695316D01*
X85622993Y-89689504D01*
X85600471Y-89681446D01*
X85578847Y-89671218D01*
X85558330Y-89658921D01*
X85539117Y-89644671D01*
X85521393Y-89628607D01*
X85505329Y-89610883D01*
X85491079Y-89591670D01*
X85478782Y-89571153D01*
X85468554Y-89549529D01*
X85460496Y-89527007D01*
X85454684Y-89503803D01*
X85451174Y-89480142D01*
X85450000Y-89456250D01*
X85450000Y-88543750D01*
X85451174Y-88519858D01*
X85454684Y-88496197D01*
X85460496Y-88472993D01*
X85468554Y-88450471D01*
X85478782Y-88428847D01*
X85491079Y-88408330D01*
X85505329Y-88389117D01*
X85521393Y-88371393D01*
X85539117Y-88355329D01*
X85558330Y-88341079D01*
X85578847Y-88328782D01*
X85600471Y-88318554D01*
X85622993Y-88310496D01*
X85646197Y-88304684D01*
X85669858Y-88301174D01*
X85693750Y-88300000D01*
X86181250Y-88300000D01*
X86205142Y-88301174D01*
X86205142Y-88301174D01*
G37*
D11*
X85937500Y-89000000D03*
D10*
G36*
X84330142Y-88301174D02*
G01*
X84353803Y-88304684D01*
X84377007Y-88310496D01*
X84399529Y-88318554D01*
X84421153Y-88328782D01*
X84441670Y-88341079D01*
X84460883Y-88355329D01*
X84478607Y-88371393D01*
X84494671Y-88389117D01*
X84508921Y-88408330D01*
X84521218Y-88428847D01*
X84531446Y-88450471D01*
X84539504Y-88472993D01*
X84545316Y-88496197D01*
X84548826Y-88519858D01*
X84550000Y-88543750D01*
X84550000Y-89456250D01*
X84548826Y-89480142D01*
X84545316Y-89503803D01*
X84539504Y-89527007D01*
X84531446Y-89549529D01*
X84521218Y-89571153D01*
X84508921Y-89591670D01*
X84494671Y-89610883D01*
X84478607Y-89628607D01*
X84460883Y-89644671D01*
X84441670Y-89658921D01*
X84421153Y-89671218D01*
X84399529Y-89681446D01*
X84377007Y-89689504D01*
X84353803Y-89695316D01*
X84330142Y-89698826D01*
X84306250Y-89700000D01*
X83818750Y-89700000D01*
X83794858Y-89698826D01*
X83771197Y-89695316D01*
X83747993Y-89689504D01*
X83725471Y-89681446D01*
X83703847Y-89671218D01*
X83683330Y-89658921D01*
X83664117Y-89644671D01*
X83646393Y-89628607D01*
X83630329Y-89610883D01*
X83616079Y-89591670D01*
X83603782Y-89571153D01*
X83593554Y-89549529D01*
X83585496Y-89527007D01*
X83579684Y-89503803D01*
X83576174Y-89480142D01*
X83575000Y-89456250D01*
X83575000Y-88543750D01*
X83576174Y-88519858D01*
X83579684Y-88496197D01*
X83585496Y-88472993D01*
X83593554Y-88450471D01*
X83603782Y-88428847D01*
X83616079Y-88408330D01*
X83630329Y-88389117D01*
X83646393Y-88371393D01*
X83664117Y-88355329D01*
X83683330Y-88341079D01*
X83703847Y-88328782D01*
X83725471Y-88318554D01*
X83747993Y-88310496D01*
X83771197Y-88304684D01*
X83794858Y-88301174D01*
X83818750Y-88300000D01*
X84306250Y-88300000D01*
X84330142Y-88301174D01*
X84330142Y-88301174D01*
G37*
D11*
X84062500Y-89000000D03*
M02*
