G04 #@! TF.GenerationSoftware,KiCad,Pcbnew,(5.1.2)-2*
G04 #@! TF.CreationDate,2020-02-10T16:48:03+01:00*
G04 #@! TF.ProjectId,OpenHO_Engine,4f70656e-484f-45f4-956e-67696e652e6b,rev?*
G04 #@! TF.SameCoordinates,Original*
G04 #@! TF.FileFunction,Legend,Bot*
G04 #@! TF.FilePolarity,Positive*
%FSLAX46Y46*%
G04 Gerber Fmt 4.6, Leading zero omitted, Abs format (unit mm)*
G04 Created by KiCad (PCBNEW (5.1.2)-2) date 2020-02-10 16:48:03*
%MOMM*%
%LPD*%
G04 APERTURE LIST*
%ADD10C,0.120000*%
G04 APERTURE END LIST*
D10*
X95800000Y-54300000D02*
X95800000Y-55700000D01*
X97200000Y-54300000D02*
X95800000Y-54300000D01*
X97200000Y-55700000D02*
X97200000Y-54300000D01*
X95800000Y-55700000D02*
X97200000Y-55700000D01*
X102800000Y-54300000D02*
X102800000Y-55700000D01*
X104200000Y-54300000D02*
X102800000Y-54300000D01*
X104200000Y-55700000D02*
X104200000Y-54300000D01*
X102800000Y-55700000D02*
X104200000Y-55700000D01*
X145800000Y-54300000D02*
X145800000Y-55700000D01*
X147200000Y-54300000D02*
X145800000Y-54300000D01*
X147200000Y-55700000D02*
X147200000Y-54300000D01*
X145800000Y-55700000D02*
X147200000Y-55700000D01*
X152800000Y-54300000D02*
X152800000Y-55700000D01*
X154200000Y-54300000D02*
X152800000Y-54300000D01*
X154200000Y-55700000D02*
X154200000Y-54300000D01*
X152800000Y-55700000D02*
X154200000Y-55700000D01*
X165025400Y-68406400D02*
G75*
G03X165025400Y-68000000I0J203200D01*
G01*
X165228600Y-67669800D02*
X165000000Y-68000000D01*
X164796800Y-68000000D02*
X165025400Y-68000000D01*
X164796800Y-68406400D02*
X165076200Y-68406400D01*
X164796800Y-67669800D02*
X164796800Y-68406400D01*
X164741422Y-67290000D02*
X165258578Y-67290000D01*
X164741422Y-68710000D02*
X165258578Y-68710000D01*
X160025400Y-68406400D02*
G75*
G03X160025400Y-68000000I0J203200D01*
G01*
X160228600Y-67669800D02*
X160000000Y-68000000D01*
X159796800Y-68000000D02*
X160025400Y-68000000D01*
X159796800Y-68406400D02*
X160076200Y-68406400D01*
X159796800Y-67669800D02*
X159796800Y-68406400D01*
X159741422Y-67290000D02*
X160258578Y-67290000D01*
X159741422Y-68710000D02*
X160258578Y-68710000D01*
X157000000Y-59840000D02*
X157000000Y-60530000D01*
X157000000Y-70460000D02*
X157000000Y-69770000D01*
X158720000Y-60530000D02*
X158720000Y-69770000D01*
X155280000Y-60530000D02*
X158720000Y-60530000D01*
X155280000Y-69770000D02*
X155280000Y-60530000D01*
X158720000Y-69770000D02*
X155280000Y-69770000D01*
X143000000Y-59840000D02*
X143000000Y-60530000D01*
X143000000Y-70460000D02*
X143000000Y-69770000D01*
X144720000Y-60530000D02*
X144720000Y-69770000D01*
X141280000Y-60530000D02*
X144720000Y-60530000D01*
X141280000Y-69770000D02*
X141280000Y-60530000D01*
X144720000Y-69770000D02*
X141280000Y-69770000D01*
X140025400Y-68406400D02*
G75*
G03X140025400Y-68000000I0J203200D01*
G01*
X140228600Y-67669800D02*
X140000000Y-68000000D01*
X139796800Y-68000000D02*
X140025400Y-68000000D01*
X139796800Y-68406400D02*
X140076200Y-68406400D01*
X139796800Y-67669800D02*
X139796800Y-68406400D01*
X139741422Y-67290000D02*
X140258578Y-67290000D01*
X139741422Y-68710000D02*
X140258578Y-68710000D01*
X135025400Y-68406400D02*
G75*
G03X135025400Y-68000000I0J203200D01*
G01*
X135228600Y-67669800D02*
X135000000Y-68000000D01*
X134796800Y-68000000D02*
X135025400Y-68000000D01*
X134796800Y-68406400D02*
X135076200Y-68406400D01*
X134796800Y-67669800D02*
X134796800Y-68406400D01*
X134741422Y-67290000D02*
X135258578Y-67290000D01*
X134741422Y-68710000D02*
X135258578Y-68710000D01*
X130025400Y-68406400D02*
G75*
G03X130025400Y-68000000I0J203200D01*
G01*
X130228600Y-67669800D02*
X130000000Y-68000000D01*
X129796800Y-68000000D02*
X130025400Y-68000000D01*
X129796800Y-68406400D02*
X130076200Y-68406400D01*
X129796800Y-67669800D02*
X129796800Y-68406400D01*
X129741422Y-67290000D02*
X130258578Y-67290000D01*
X129741422Y-68710000D02*
X130258578Y-68710000D01*
X125025400Y-68406400D02*
G75*
G03X125025400Y-68000000I0J203200D01*
G01*
X125228600Y-67669800D02*
X125000000Y-68000000D01*
X124796800Y-68000000D02*
X125025400Y-68000000D01*
X124796800Y-68406400D02*
X125076200Y-68406400D01*
X124796800Y-67669800D02*
X124796800Y-68406400D01*
X124741422Y-67290000D02*
X125258578Y-67290000D01*
X124741422Y-68710000D02*
X125258578Y-68710000D01*
X120025400Y-68406400D02*
G75*
G03X120025400Y-68000000I0J203200D01*
G01*
X120228600Y-67669800D02*
X120000000Y-68000000D01*
X119796800Y-68000000D02*
X120025400Y-68000000D01*
X119796800Y-68406400D02*
X120076200Y-68406400D01*
X119796800Y-67669800D02*
X119796800Y-68406400D01*
X119741422Y-67290000D02*
X120258578Y-67290000D01*
X119741422Y-68710000D02*
X120258578Y-68710000D01*
X115025400Y-68406400D02*
G75*
G03X115025400Y-68000000I0J203200D01*
G01*
X115228600Y-67669800D02*
X115000000Y-68000000D01*
X114796800Y-68000000D02*
X115025400Y-68000000D01*
X114796800Y-68406400D02*
X115076200Y-68406400D01*
X114796800Y-67669800D02*
X114796800Y-68406400D01*
X114741422Y-67290000D02*
X115258578Y-67290000D01*
X114741422Y-68710000D02*
X115258578Y-68710000D01*
X110025400Y-68406400D02*
G75*
G03X110025400Y-68000000I0J203200D01*
G01*
X110228600Y-67669800D02*
X110000000Y-68000000D01*
X109796800Y-68000000D02*
X110025400Y-68000000D01*
X109796800Y-68406400D02*
X110076200Y-68406400D01*
X109796800Y-67669800D02*
X109796800Y-68406400D01*
X109741422Y-67290000D02*
X110258578Y-67290000D01*
X109741422Y-68710000D02*
X110258578Y-68710000D01*
X107000000Y-59840000D02*
X107000000Y-60530000D01*
X107000000Y-70460000D02*
X107000000Y-69770000D01*
X108720000Y-60530000D02*
X108720000Y-69770000D01*
X105280000Y-60530000D02*
X108720000Y-60530000D01*
X105280000Y-69770000D02*
X105280000Y-60530000D01*
X108720000Y-69770000D02*
X105280000Y-69770000D01*
X93000000Y-59840000D02*
X93000000Y-60530000D01*
X93000000Y-70460000D02*
X93000000Y-69770000D01*
X94720000Y-60530000D02*
X94720000Y-69770000D01*
X91280000Y-60530000D02*
X94720000Y-60530000D01*
X91280000Y-69770000D02*
X91280000Y-60530000D01*
X94720000Y-69770000D02*
X91280000Y-69770000D01*
X90025400Y-68406400D02*
G75*
G03X90025400Y-68000000I0J203200D01*
G01*
X90228600Y-67669800D02*
X90000000Y-68000000D01*
X89796800Y-68000000D02*
X90025400Y-68000000D01*
X89796800Y-68406400D02*
X90076200Y-68406400D01*
X89796800Y-67669800D02*
X89796800Y-68406400D01*
X89741422Y-67290000D02*
X90258578Y-67290000D01*
X89741422Y-68710000D02*
X90258578Y-68710000D01*
X85025400Y-68406400D02*
G75*
G03X85025400Y-68000000I0J203200D01*
G01*
X85228600Y-67669800D02*
X85000000Y-68000000D01*
X84796800Y-68000000D02*
X85025400Y-68000000D01*
X84796800Y-68406400D02*
X85076200Y-68406400D01*
X84796800Y-67669800D02*
X84796800Y-68406400D01*
X84741422Y-67290000D02*
X85258578Y-67290000D01*
X84741422Y-68710000D02*
X85258578Y-68710000D01*
X164741422Y-65290000D02*
X165258578Y-65290000D01*
X164741422Y-66710000D02*
X165258578Y-66710000D01*
X165254000Y-65593600D02*
X164746000Y-66025400D01*
X165254000Y-66406400D02*
X165254000Y-65593600D01*
X164746000Y-66000000D02*
X165254000Y-66406400D01*
X164746000Y-66406400D02*
X164746000Y-65593600D01*
X159741422Y-65290000D02*
X160258578Y-65290000D01*
X159741422Y-66710000D02*
X160258578Y-66710000D01*
X160254000Y-65593600D02*
X159746000Y-66025400D01*
X160254000Y-66406400D02*
X160254000Y-65593600D01*
X159746000Y-66000000D02*
X160254000Y-66406400D01*
X159746000Y-66406400D02*
X159746000Y-65593600D01*
X158000000Y-71250000D02*
X158000000Y-67350000D01*
X156000000Y-71250000D02*
X156000000Y-67350000D01*
X158000000Y-71250000D02*
X156000000Y-71250000D01*
X142000000Y-66750000D02*
X142000000Y-70650000D01*
X144000000Y-66750000D02*
X144000000Y-70650000D01*
X142000000Y-66750000D02*
X144000000Y-66750000D01*
X139741422Y-65290000D02*
X140258578Y-65290000D01*
X139741422Y-66710000D02*
X140258578Y-66710000D01*
X140254000Y-65593600D02*
X139746000Y-66025400D01*
X140254000Y-66406400D02*
X140254000Y-65593600D01*
X139746000Y-66000000D02*
X140254000Y-66406400D01*
X139746000Y-66406400D02*
X139746000Y-65593600D01*
X134741422Y-65290000D02*
X135258578Y-65290000D01*
X134741422Y-66710000D02*
X135258578Y-66710000D01*
X135254000Y-65593600D02*
X134746000Y-66025400D01*
X135254000Y-66406400D02*
X135254000Y-65593600D01*
X134746000Y-66000000D02*
X135254000Y-66406400D01*
X134746000Y-66406400D02*
X134746000Y-65593600D01*
X129741422Y-65290000D02*
X130258578Y-65290000D01*
X129741422Y-66710000D02*
X130258578Y-66710000D01*
X130254000Y-65593600D02*
X129746000Y-66025400D01*
X130254000Y-66406400D02*
X130254000Y-65593600D01*
X129746000Y-66000000D02*
X130254000Y-66406400D01*
X129746000Y-66406400D02*
X129746000Y-65593600D01*
X124741422Y-65290000D02*
X125258578Y-65290000D01*
X124741422Y-66710000D02*
X125258578Y-66710000D01*
X125254000Y-65593600D02*
X124746000Y-66025400D01*
X125254000Y-66406400D02*
X125254000Y-65593600D01*
X124746000Y-66000000D02*
X125254000Y-66406400D01*
X124746000Y-66406400D02*
X124746000Y-65593600D01*
X119741422Y-65290000D02*
X120258578Y-65290000D01*
X119741422Y-66710000D02*
X120258578Y-66710000D01*
X120254000Y-65593600D02*
X119746000Y-66025400D01*
X120254000Y-66406400D02*
X120254000Y-65593600D01*
X119746000Y-66000000D02*
X120254000Y-66406400D01*
X119746000Y-66406400D02*
X119746000Y-65593600D01*
X114741422Y-65290000D02*
X115258578Y-65290000D01*
X114741422Y-66710000D02*
X115258578Y-66710000D01*
X115254000Y-65593600D02*
X114746000Y-66025400D01*
X115254000Y-66406400D02*
X115254000Y-65593600D01*
X114746000Y-66000000D02*
X115254000Y-66406400D01*
X114746000Y-66406400D02*
X114746000Y-65593600D01*
X109741422Y-65290000D02*
X110258578Y-65290000D01*
X109741422Y-66710000D02*
X110258578Y-66710000D01*
X110254000Y-65593600D02*
X109746000Y-66025400D01*
X110254000Y-66406400D02*
X110254000Y-65593600D01*
X109746000Y-66000000D02*
X110254000Y-66406400D01*
X109746000Y-66406400D02*
X109746000Y-65593600D01*
X94000000Y-71250000D02*
X94000000Y-67350000D01*
X92000000Y-71250000D02*
X92000000Y-67350000D01*
X94000000Y-71250000D02*
X92000000Y-71250000D01*
X106000000Y-66750000D02*
X106000000Y-70650000D01*
X108000000Y-66750000D02*
X108000000Y-70650000D01*
X106000000Y-66750000D02*
X108000000Y-66750000D01*
X89741422Y-65290000D02*
X90258578Y-65290000D01*
X89741422Y-66710000D02*
X90258578Y-66710000D01*
X90254000Y-65593600D02*
X89746000Y-66025400D01*
X90254000Y-66406400D02*
X90254000Y-65593600D01*
X89746000Y-66000000D02*
X90254000Y-66406400D01*
X89746000Y-66406400D02*
X89746000Y-65593600D01*
X84741422Y-65290000D02*
X85258578Y-65290000D01*
X84741422Y-66710000D02*
X85258578Y-66710000D01*
X85254000Y-65593600D02*
X84746000Y-66025400D01*
X85254000Y-66406400D02*
X85254000Y-65593600D01*
X84746000Y-66000000D02*
X85254000Y-66406400D01*
X84746000Y-66406400D02*
X84746000Y-65593600D01*
X165025400Y-87406400D02*
G75*
G03X165025400Y-87000000I0J203200D01*
G01*
X165228600Y-86669800D02*
X165000000Y-87000000D01*
X164796800Y-87000000D02*
X165025400Y-87000000D01*
X164796800Y-87406400D02*
X165076200Y-87406400D01*
X164796800Y-86669800D02*
X164796800Y-87406400D01*
X164741422Y-86290000D02*
X165258578Y-86290000D01*
X164741422Y-87710000D02*
X165258578Y-87710000D01*
X160025400Y-87406400D02*
G75*
G03X160025400Y-87000000I0J203200D01*
G01*
X160228600Y-86669800D02*
X160000000Y-87000000D01*
X159796800Y-87000000D02*
X160025400Y-87000000D01*
X159796800Y-87406400D02*
X160076200Y-87406400D01*
X159796800Y-86669800D02*
X159796800Y-87406400D01*
X159741422Y-86290000D02*
X160258578Y-86290000D01*
X159741422Y-87710000D02*
X160258578Y-87710000D01*
X157000000Y-95160000D02*
X157000000Y-94470000D01*
X157000000Y-84540000D02*
X157000000Y-85230000D01*
X155280000Y-94470000D02*
X155280000Y-85230000D01*
X158720000Y-94470000D02*
X155280000Y-94470000D01*
X158720000Y-85230000D02*
X158720000Y-94470000D01*
X155280000Y-85230000D02*
X158720000Y-85230000D01*
X143000000Y-95160000D02*
X143000000Y-94470000D01*
X143000000Y-84540000D02*
X143000000Y-85230000D01*
X141280000Y-94470000D02*
X141280000Y-85230000D01*
X144720000Y-94470000D02*
X141280000Y-94470000D01*
X144720000Y-85230000D02*
X144720000Y-94470000D01*
X141280000Y-85230000D02*
X144720000Y-85230000D01*
X140025400Y-87406400D02*
G75*
G03X140025400Y-87000000I0J203200D01*
G01*
X140228600Y-86669800D02*
X140000000Y-87000000D01*
X139796800Y-87000000D02*
X140025400Y-87000000D01*
X139796800Y-87406400D02*
X140076200Y-87406400D01*
X139796800Y-86669800D02*
X139796800Y-87406400D01*
X139741422Y-86290000D02*
X140258578Y-86290000D01*
X139741422Y-87710000D02*
X140258578Y-87710000D01*
X135025400Y-87406400D02*
G75*
G03X135025400Y-87000000I0J203200D01*
G01*
X135228600Y-86669800D02*
X135000000Y-87000000D01*
X134796800Y-87000000D02*
X135025400Y-87000000D01*
X134796800Y-87406400D02*
X135076200Y-87406400D01*
X134796800Y-86669800D02*
X134796800Y-87406400D01*
X134741422Y-86290000D02*
X135258578Y-86290000D01*
X134741422Y-87710000D02*
X135258578Y-87710000D01*
X130025400Y-87406400D02*
G75*
G03X130025400Y-87000000I0J203200D01*
G01*
X130228600Y-86669800D02*
X130000000Y-87000000D01*
X129796800Y-87000000D02*
X130025400Y-87000000D01*
X129796800Y-87406400D02*
X130076200Y-87406400D01*
X129796800Y-86669800D02*
X129796800Y-87406400D01*
X129741422Y-86290000D02*
X130258578Y-86290000D01*
X129741422Y-87710000D02*
X130258578Y-87710000D01*
X125025400Y-87406400D02*
G75*
G03X125025400Y-87000000I0J203200D01*
G01*
X125228600Y-86669800D02*
X125000000Y-87000000D01*
X124796800Y-87000000D02*
X125025400Y-87000000D01*
X124796800Y-87406400D02*
X125076200Y-87406400D01*
X124796800Y-86669800D02*
X124796800Y-87406400D01*
X124741422Y-86290000D02*
X125258578Y-86290000D01*
X124741422Y-87710000D02*
X125258578Y-87710000D01*
X120025400Y-87406400D02*
G75*
G03X120025400Y-87000000I0J203200D01*
G01*
X120228600Y-86669800D02*
X120000000Y-87000000D01*
X119796800Y-87000000D02*
X120025400Y-87000000D01*
X119796800Y-87406400D02*
X120076200Y-87406400D01*
X119796800Y-86669800D02*
X119796800Y-87406400D01*
X119741422Y-86290000D02*
X120258578Y-86290000D01*
X119741422Y-87710000D02*
X120258578Y-87710000D01*
X115025400Y-87406400D02*
G75*
G03X115025400Y-87000000I0J203200D01*
G01*
X115228600Y-86669800D02*
X115000000Y-87000000D01*
X114796800Y-87000000D02*
X115025400Y-87000000D01*
X114796800Y-87406400D02*
X115076200Y-87406400D01*
X114796800Y-86669800D02*
X114796800Y-87406400D01*
X114741422Y-86290000D02*
X115258578Y-86290000D01*
X114741422Y-87710000D02*
X115258578Y-87710000D01*
X110025400Y-87406400D02*
G75*
G03X110025400Y-87000000I0J203200D01*
G01*
X110228600Y-86669800D02*
X110000000Y-87000000D01*
X109796800Y-87000000D02*
X110025400Y-87000000D01*
X109796800Y-87406400D02*
X110076200Y-87406400D01*
X109796800Y-86669800D02*
X109796800Y-87406400D01*
X109741422Y-86290000D02*
X110258578Y-86290000D01*
X109741422Y-87710000D02*
X110258578Y-87710000D01*
X107000000Y-95160000D02*
X107000000Y-94470000D01*
X107000000Y-84540000D02*
X107000000Y-85230000D01*
X105280000Y-94470000D02*
X105280000Y-85230000D01*
X108720000Y-94470000D02*
X105280000Y-94470000D01*
X108720000Y-85230000D02*
X108720000Y-94470000D01*
X105280000Y-85230000D02*
X108720000Y-85230000D01*
X93000000Y-95160000D02*
X93000000Y-94470000D01*
X93000000Y-84540000D02*
X93000000Y-85230000D01*
X91280000Y-94470000D02*
X91280000Y-85230000D01*
X94720000Y-94470000D02*
X91280000Y-94470000D01*
X94720000Y-85230000D02*
X94720000Y-94470000D01*
X91280000Y-85230000D02*
X94720000Y-85230000D01*
X90025400Y-87406400D02*
G75*
G03X90025400Y-87000000I0J203200D01*
G01*
X90228600Y-86669800D02*
X90000000Y-87000000D01*
X89796800Y-87000000D02*
X90025400Y-87000000D01*
X89796800Y-87406400D02*
X90076200Y-87406400D01*
X89796800Y-86669800D02*
X89796800Y-87406400D01*
X89741422Y-86290000D02*
X90258578Y-86290000D01*
X89741422Y-87710000D02*
X90258578Y-87710000D01*
X85025400Y-87406400D02*
G75*
G03X85025400Y-87000000I0J203200D01*
G01*
X85228600Y-86669800D02*
X85000000Y-87000000D01*
X84796800Y-87000000D02*
X85025400Y-87000000D01*
X84796800Y-87406400D02*
X85076200Y-87406400D01*
X84796800Y-86669800D02*
X84796800Y-87406400D01*
X84741422Y-86290000D02*
X85258578Y-86290000D01*
X84741422Y-87710000D02*
X85258578Y-87710000D01*
X152800000Y-99300000D02*
X152800000Y-100700000D01*
X154200000Y-99300000D02*
X152800000Y-99300000D01*
X154200000Y-100700000D02*
X154200000Y-99300000D01*
X152800000Y-100700000D02*
X154200000Y-100700000D01*
X145800000Y-99300000D02*
X145800000Y-100700000D01*
X147200000Y-99300000D02*
X145800000Y-99300000D01*
X147200000Y-100700000D02*
X147200000Y-99300000D01*
X145800000Y-100700000D02*
X147200000Y-100700000D01*
X102800000Y-99300000D02*
X102800000Y-100700000D01*
X104200000Y-99300000D02*
X102800000Y-99300000D01*
X104200000Y-100700000D02*
X104200000Y-99300000D01*
X102800000Y-100700000D02*
X104200000Y-100700000D01*
X95800000Y-99300000D02*
X95800000Y-100700000D01*
X97200000Y-99300000D02*
X95800000Y-99300000D01*
X97200000Y-100700000D02*
X97200000Y-99300000D01*
X95800000Y-100700000D02*
X97200000Y-100700000D01*
X164741422Y-88290000D02*
X165258578Y-88290000D01*
X164741422Y-89710000D02*
X165258578Y-89710000D01*
X165254000Y-88593600D02*
X164746000Y-89025400D01*
X165254000Y-89406400D02*
X165254000Y-88593600D01*
X164746000Y-89000000D02*
X165254000Y-89406400D01*
X164746000Y-89406400D02*
X164746000Y-88593600D01*
X159741422Y-88290000D02*
X160258578Y-88290000D01*
X159741422Y-89710000D02*
X160258578Y-89710000D01*
X160254000Y-88593600D02*
X159746000Y-89025400D01*
X160254000Y-89406400D02*
X160254000Y-88593600D01*
X159746000Y-89000000D02*
X160254000Y-89406400D01*
X159746000Y-89406400D02*
X159746000Y-88593600D01*
X156000000Y-83750000D02*
X156000000Y-87650000D01*
X158000000Y-83750000D02*
X158000000Y-87650000D01*
X156000000Y-83750000D02*
X158000000Y-83750000D01*
X144000000Y-88250000D02*
X144000000Y-84350000D01*
X142000000Y-88250000D02*
X142000000Y-84350000D01*
X144000000Y-88250000D02*
X142000000Y-88250000D01*
X139741422Y-88290000D02*
X140258578Y-88290000D01*
X139741422Y-89710000D02*
X140258578Y-89710000D01*
X140254000Y-88593600D02*
X139746000Y-89025400D01*
X140254000Y-89406400D02*
X140254000Y-88593600D01*
X139746000Y-89000000D02*
X140254000Y-89406400D01*
X139746000Y-89406400D02*
X139746000Y-88593600D01*
X134741422Y-88290000D02*
X135258578Y-88290000D01*
X134741422Y-89710000D02*
X135258578Y-89710000D01*
X135254000Y-88593600D02*
X134746000Y-89025400D01*
X135254000Y-89406400D02*
X135254000Y-88593600D01*
X134746000Y-89000000D02*
X135254000Y-89406400D01*
X134746000Y-89406400D02*
X134746000Y-88593600D01*
X129741422Y-88290000D02*
X130258578Y-88290000D01*
X129741422Y-89710000D02*
X130258578Y-89710000D01*
X130254000Y-88593600D02*
X129746000Y-89025400D01*
X130254000Y-89406400D02*
X130254000Y-88593600D01*
X129746000Y-89000000D02*
X130254000Y-89406400D01*
X129746000Y-89406400D02*
X129746000Y-88593600D01*
X124741422Y-88290000D02*
X125258578Y-88290000D01*
X124741422Y-89710000D02*
X125258578Y-89710000D01*
X125254000Y-88593600D02*
X124746000Y-89025400D01*
X125254000Y-89406400D02*
X125254000Y-88593600D01*
X124746000Y-89000000D02*
X125254000Y-89406400D01*
X124746000Y-89406400D02*
X124746000Y-88593600D01*
X119741422Y-88290000D02*
X120258578Y-88290000D01*
X119741422Y-89710000D02*
X120258578Y-89710000D01*
X120254000Y-88593600D02*
X119746000Y-89025400D01*
X120254000Y-89406400D02*
X120254000Y-88593600D01*
X119746000Y-89000000D02*
X120254000Y-89406400D01*
X119746000Y-89406400D02*
X119746000Y-88593600D01*
X114741422Y-88290000D02*
X115258578Y-88290000D01*
X114741422Y-89710000D02*
X115258578Y-89710000D01*
X115254000Y-88593600D02*
X114746000Y-89025400D01*
X115254000Y-89406400D02*
X115254000Y-88593600D01*
X114746000Y-89000000D02*
X115254000Y-89406400D01*
X114746000Y-89406400D02*
X114746000Y-88593600D01*
X109741422Y-88290000D02*
X110258578Y-88290000D01*
X109741422Y-89710000D02*
X110258578Y-89710000D01*
X110254000Y-88593600D02*
X109746000Y-89025400D01*
X110254000Y-89406400D02*
X110254000Y-88593600D01*
X109746000Y-89000000D02*
X110254000Y-89406400D01*
X109746000Y-89406400D02*
X109746000Y-88593600D01*
X92000000Y-83750000D02*
X92000000Y-87650000D01*
X94000000Y-83750000D02*
X94000000Y-87650000D01*
X92000000Y-83750000D02*
X94000000Y-83750000D01*
X108000000Y-88250000D02*
X108000000Y-84350000D01*
X106000000Y-88250000D02*
X106000000Y-84350000D01*
X108000000Y-88250000D02*
X106000000Y-88250000D01*
X89741422Y-88290000D02*
X90258578Y-88290000D01*
X89741422Y-89710000D02*
X90258578Y-89710000D01*
X90254000Y-88593600D02*
X89746000Y-89025400D01*
X90254000Y-89406400D02*
X90254000Y-88593600D01*
X89746000Y-89000000D02*
X90254000Y-89406400D01*
X89746000Y-89406400D02*
X89746000Y-88593600D01*
X84741422Y-88290000D02*
X85258578Y-88290000D01*
X84741422Y-89710000D02*
X85258578Y-89710000D01*
X85254000Y-88593600D02*
X84746000Y-89025400D01*
X85254000Y-89406400D02*
X85254000Y-88593600D01*
X84746000Y-89000000D02*
X85254000Y-89406400D01*
X84746000Y-89406400D02*
X84746000Y-88593600D01*
M02*
